<svg width="50" height="50" viewBox="0 0 50 50" fill="none" xmlns="http://www.w3.org/2000/svg">
<path d="M47.2344 45.6719C46.9975 43.9191 46.2451 42.2763 45.0726 40.9521C43.9001 39.6279 42.3604 38.6821 40.6492 38.2348V36.5359C42.3681 36.4511 43.9887 35.7094 45.1764 34.464C46.364 33.2186 47.028 31.5647 47.0313 29.8438V29.4891C47.0313 29.3993 47.0137 29.3104 46.9793 29.2274C46.945 29.1445 46.8946 29.0691 46.8312 29.0056C46.7677 28.9421 46.6923 28.8918 46.6093 28.8574C46.5264 28.8231 46.4375 28.8054 46.3477 28.8055H45.993C45.4791 28.8072 44.9671 28.8681 44.4672 28.9871C45.2656 28.361 45.9113 27.5617 46.3554 26.6495C46.7996 25.7373 47.0307 24.7361 47.0313 23.7215V23.3668C47.0313 23.1855 46.9592 23.0116 46.831 22.8834C46.7028 22.7552 46.529 22.6832 46.3477 22.6832H45.993C45.4788 22.685 44.9666 22.7461 44.4664 22.8652C45.2652 22.239 45.9112 21.4394 46.3555 20.5269C46.7999 19.6143 47.0309 18.6127 47.0313 17.5977V17.243C47.0313 17.1532 47.0137 17.0643 46.9793 16.9813C46.945 16.8984 46.8946 16.823 46.8312 16.7595C46.7677 16.696 46.6923 16.6457 46.6093 16.6113C46.5264 16.577 46.4375 16.5593 46.3477 16.5594H45.993C44.9568 16.5603 43.9349 16.8017 43.0078 17.2646C42.0808 17.7275 41.2738 18.3992 40.6504 19.227V18.6301L40.9594 18.3211C42.1474 17.1303 42.8145 15.5169 42.8145 13.8348C42.8145 12.1527 42.1474 10.5393 40.9594 9.34845L40.4516 8.84064C40.3232 8.71271 40.1494 8.64088 39.9682 8.64088C39.787 8.64088 39.6131 8.71271 39.4848 8.84064L38.977 9.34845C37.7888 10.5392 37.1215 12.1526 37.1215 13.8348C37.1215 15.5169 37.7888 17.1304 38.977 18.3211L39.2859 18.6301V19.227C38.6624 18.3993 37.8554 17.7276 36.9283 17.2647C36.0011 16.8018 34.9792 16.5604 33.943 16.5594H33.5883C33.4985 16.5593 33.4096 16.577 33.3266 16.6113C33.2437 16.6457 33.1683 16.696 33.1048 16.7595C33.0413 16.823 32.991 16.8984 32.9566 16.9813C32.9223 17.0643 32.9046 17.1532 32.9047 17.243V17.5977C32.9053 18.6124 33.1365 19.6137 33.5808 20.526C34.0251 21.4383 34.671 22.2376 35.4695 22.8637C34.9694 22.7445 34.4571 22.6835 33.943 22.6817H33.5883C33.407 22.6817 33.2331 22.7537 33.1049 22.8819C32.9767 23.0101 32.9047 23.1839 32.9047 23.3652V23.7199C32.9049 24.734 33.1355 25.7348 33.579 26.6468C34.0225 27.5587 34.6673 28.358 35.4649 28.9844C34.9649 28.8654 34.453 28.8044 33.9391 28.8027H33.5844C33.4946 28.8027 33.4057 28.8203 33.3227 28.8547C33.2398 28.889 33.1644 28.9394 33.1009 29.0029C33.0374 29.0663 32.9871 29.1417 32.9527 29.2247C32.9184 29.3076 32.9007 29.3966 32.9008 29.4863V29.8438C32.9036 31.5648 33.5673 33.2191 34.7549 34.4648C35.9424 35.7105 37.5631 36.4525 39.282 36.5375V38.0063C39.0457 37.9867 38.8082 37.9735 38.5672 37.9735C37.0169 37.9728 35.4961 38.3977 34.1707 39.202C33.2987 37.6896 32.0689 36.4144 30.5891 35.4882C29.1094 34.5619 27.425 34.013 25.6836 33.8895V32.3934C27.4443 32.3652 29.1234 31.6466 30.3593 30.3923C31.5952 29.138 32.2889 27.4484 32.291 25.6875V25.1067C32.291 24.9254 32.219 24.7515 32.0908 24.6233C31.9626 24.4951 31.7887 24.4231 31.6074 24.4231H31.0266C30.6252 24.4248 30.2247 24.4627 29.8301 24.5363C30.5993 23.9081 31.2191 23.1166 31.6447 22.2193C32.0703 21.322 32.2911 20.3412 32.291 19.3481V18.7672C32.291 18.5859 32.219 18.412 32.0908 18.2838C31.9626 18.1556 31.7887 18.0836 31.6074 18.0836H31.0266C30.6253 18.0854 30.225 18.1231 29.8305 18.1965C30.5996 17.5682 31.2193 16.7768 31.645 15.8796C32.0706 14.9823 32.2914 14.0017 32.2914 13.0086V12.4277C32.2914 12.2464 32.2194 12.0726 32.0912 11.9444C31.963 11.8162 31.7891 11.7442 31.6078 11.7442H31.0266C29.9903 11.7451 28.9685 11.9864 28.0413 12.4492C27.1142 12.9121 26.3071 13.5837 25.6836 14.4113V13.8539L26.0106 13.527C26.6185 12.9192 27.1008 12.1975 27.4299 11.4033C27.7589 10.609 27.9283 9.75776 27.9283 8.89806C27.9283 8.03836 27.7589 7.18708 27.4299 6.39284C27.1008 5.5986 26.6185 4.87697 26.0106 4.26915L25.4832 3.74181C25.3527 3.6183 25.1797 3.54947 25 3.54947C24.8203 3.54947 24.6474 3.6183 24.5168 3.74181L23.9895 4.26915C23.3815 4.87697 22.8992 5.5986 22.5701 6.39284C22.2411 7.18708 22.0717 8.03836 22.0717 8.89806C22.0717 9.75776 22.2411 10.609 22.5701 11.4033C22.8992 12.1975 23.3815 12.9192 23.9895 13.527L24.3164 13.8539V14.4113C23.6929 13.5837 22.8858 12.9121 21.9587 12.4492C21.0316 11.9864 20.0097 11.7451 18.9735 11.7442H18.3926C18.2113 11.7442 18.0374 11.8162 17.9092 11.9444C17.781 12.0726 17.709 12.2464 17.709 12.4277V13.0078C17.709 14.0009 17.9298 14.9816 18.3555 15.8788C18.7811 16.776 19.4009 17.5674 20.1699 18.1957C19.7754 18.1224 19.3751 18.0846 18.9738 18.0828H18.3926C18.2113 18.0828 18.0374 18.1548 17.9092 18.283C17.781 18.4112 17.709 18.5851 17.709 18.7664V19.3473C17.7089 20.3404 17.9297 21.3212 18.3553 22.2185C18.7809 23.1158 19.4008 23.9073 20.1699 24.5356C19.7753 24.4619 19.3749 24.424 18.9735 24.4223H18.3926C18.2113 24.4223 18.0374 24.4943 17.9092 24.6225C17.781 24.7507 17.709 24.9246 17.709 25.1059V25.6875C17.7113 27.4483 18.4052 29.1376 19.641 30.3918C20.8769 31.6459 22.5559 32.3644 24.3164 32.3926V33.8887C22.5751 34.0122 20.8906 34.5611 19.4109 35.4874C17.9311 36.4136 16.7013 37.6889 15.8293 39.2012C14.5039 38.3969 12.9832 37.972 11.4328 37.9727C11.1918 37.9727 10.9543 37.986 10.718 38.0055V36.5367C12.4368 36.4517 14.0573 35.7098 15.2449 34.4643C16.4324 33.2187 17.0962 31.5647 17.0992 29.8438V29.4891C17.0993 29.3993 17.0816 29.3104 17.0473 29.2274C17.013 29.1445 16.9626 29.0691 16.8991 29.0056C16.8356 28.9421 16.7603 28.8918 16.6773 28.8574C16.5943 28.8231 16.5054 28.8054 16.4156 28.8055H16.061C15.5471 28.8072 15.0351 28.8681 14.5352 28.9871C15.3336 28.361 15.9792 27.5617 16.4234 26.6495C16.8676 25.7373 17.0987 24.7361 17.0992 23.7215V23.3668C17.0992 23.1855 17.0272 23.0116 16.899 22.8834C16.7708 22.7552 16.5969 22.6832 16.4156 22.6832H16.061C15.5468 22.685 15.0346 22.7461 14.5344 22.8652C15.3332 22.239 15.9792 21.4394 16.4235 20.5269C16.8678 19.6143 17.0989 18.6127 17.0992 17.5977V17.243C17.0993 17.1532 17.0816 17.0643 17.0473 16.9813C17.013 16.8984 16.9626 16.823 16.8991 16.7595C16.8356 16.696 16.7603 16.6457 16.6773 16.6113C16.5943 16.577 16.5054 16.5593 16.4156 16.5594H16.061C15.0247 16.5604 14.0028 16.8018 13.0757 17.2647C12.1486 17.7276 11.3415 18.3993 10.718 19.227V18.6301L11.027 18.3211C12.2151 17.1304 12.8824 15.5169 12.8824 13.8348C12.8824 12.1526 12.2151 10.5392 11.027 9.34845L10.5192 8.84064C10.3908 8.71271 10.217 8.64088 10.0358 8.64088C9.85454 8.64088 9.68071 8.71271 9.55236 8.84064L9.04455 9.34845C7.85658 10.5393 7.18944 12.1527 7.18944 13.8348C7.18944 15.5169 7.85658 17.1303 9.04455 18.3211L9.35353 18.6301V19.227C8.73015 18.3992 7.92316 17.7275 6.99609 17.2646C6.06902 16.8017 5.04716 16.5603 4.01095 16.5594H3.65353C3.56374 16.5593 3.47483 16.577 3.39187 16.6113C3.30891 16.6457 3.23353 16.696 3.17004 16.7595C3.10655 16.823 3.0562 16.8984 3.02187 16.9813C2.98753 17.0643 2.96988 17.1532 2.96994 17.243V17.5977C2.9705 18.6124 3.20169 19.6137 3.64602 20.526C4.09034 21.4383 4.7362 22.2376 5.53478 22.8637C5.03461 22.7446 4.52237 22.6835 4.00822 22.6817H3.65353C3.47223 22.6817 3.29835 22.7537 3.17016 22.8819C3.04196 23.0101 2.96994 23.1839 2.96994 23.3652V23.7199C2.97065 24.7343 3.20182 25.7353 3.64601 26.6473C4.09019 27.5593 4.73577 28.3584 5.534 28.9844C5.03408 28.8654 4.5221 28.8044 4.00822 28.8027H3.65353C3.56374 28.8027 3.47483 28.8203 3.39187 28.8547C3.30891 28.889 3.23353 28.9394 3.17004 29.0029C3.10655 29.0663 3.0562 29.1417 3.02187 29.2247C2.98753 29.3076 2.96988 29.3966 2.96994 29.4863V29.8438C2.97314 31.5645 3.63699 33.2183 4.82442 34.4636C6.01185 35.709 7.63217 36.4508 9.3508 36.5359V38.2348C7.6396 38.6821 6.09996 39.6279 4.92746 40.9521C3.75495 42.2763 3.00249 43.9191 2.76564 45.6719C2.75103 45.7692 2.75758 45.8685 2.78485 45.963C2.81212 46.0576 2.85946 46.1451 2.92365 46.2197C2.98784 46.2942 3.06735 46.3541 3.15678 46.3951C3.2462 46.4361 3.34342 46.4574 3.44181 46.4574H46.5582C46.6566 46.4574 46.7538 46.4361 46.8433 46.3951C46.9327 46.3541 47.0122 46.2942 47.0764 46.2197C47.1406 46.1451 47.1879 46.0576 47.2152 45.963C47.2424 45.8685 47.249 45.7692 47.2344 45.6719ZM40.6598 35.1746C40.7441 33.8782 41.2971 32.6566 42.2158 31.7379C43.1344 30.8192 44.3559 30.2661 45.6524 30.1817C45.568 31.4781 45.015 32.6996 44.0963 33.6183C43.1777 34.5371 41.9562 35.0902 40.6598 35.1746ZM40.6492 31.4715V30.4133C41.0523 30.3944 41.4529 30.3393 41.8461 30.2485C41.3968 30.6037 40.9947 31.0147 40.6492 31.4715ZM40.6598 29.0524C40.7441 27.7559 41.2971 26.5344 42.2158 25.6157C43.1344 24.697 44.3559 24.1438 45.6524 24.0594C45.568 25.3559 45.015 26.5774 44.0963 27.4961C43.1777 28.4148 41.9562 28.9679 40.6598 29.0524ZM40.6492 25.3492V24.2906C41.0527 24.2718 41.4537 24.2165 41.8473 24.1254C41.3975 24.4808 40.9949 24.892 40.6492 25.3492ZM45.6524 17.9371C45.568 19.2335 45.0149 20.4549 44.0962 21.3736C43.1776 22.2922 41.9562 22.8453 40.6598 22.9297C40.7442 21.6333 41.2973 20.4119 42.2159 19.4933C43.1345 18.5746 44.356 18.0215 45.6524 17.9371ZM39.9395 10.3152L39.9656 10.2895L39.9914 10.3152C40.8839 11.211 41.4023 12.4127 41.4414 13.6766C41.4805 14.9405 41.0374 16.1719 40.202 17.1211C40.0499 17.0617 39.881 17.0617 39.7289 17.1211C38.8935 16.1719 38.4504 14.9405 38.4895 13.6766C38.5286 12.4127 39.047 11.211 39.9395 10.3152ZM34.2785 17.9371C35.5749 18.0215 36.7963 18.5746 37.715 19.4933C38.6336 20.4119 39.1867 21.6333 39.2711 22.9297C37.9747 22.8453 36.7533 22.2922 35.8347 21.3736C34.916 20.4549 34.3629 19.2335 34.2785 17.9371ZM39.282 24.2906V25.3492C38.9361 24.8921 38.5334 24.4809 38.0836 24.1254C38.4773 24.2166 38.8784 24.2719 39.282 24.2906ZM34.2785 24.0594C35.575 24.1438 36.7965 24.697 37.7151 25.6157C38.6337 26.5344 39.1868 27.7559 39.2711 29.0524C37.9747 28.9679 36.7532 28.4148 35.8345 27.4961C34.9159 26.5774 34.3628 25.3559 34.2785 24.0594ZM39.282 30.4133V31.4715C38.9367 31.0148 38.5348 30.6038 38.0859 30.2485C38.4789 30.3392 38.8792 30.3944 39.282 30.4133ZM34.2785 30.1817C35.575 30.2661 36.7965 30.8192 37.7151 31.7379C38.6337 32.6566 39.1868 33.8782 39.2711 35.1746C37.9747 35.0902 36.7532 34.5371 35.8345 33.6183C34.9159 32.6996 34.3628 31.4781 34.2785 30.1817ZM10.7289 35.1746C10.8132 33.8782 11.3663 32.6566 12.2849 31.7379C13.2036 30.8192 14.425 30.2661 15.7215 30.1817C15.6372 31.4781 15.0841 32.6996 14.1655 33.6183C13.2469 34.5371 12.0254 35.0902 10.7289 35.1746ZM10.718 31.4715V30.4133C11.1212 30.3945 11.5219 30.3393 11.9152 30.2485C11.466 30.6038 11.0636 31.0147 10.718 31.4715ZM10.7289 29.0524C10.8132 27.7559 11.3663 26.5344 12.2849 25.6157C13.2036 24.697 14.425 24.1438 15.7215 24.0594C15.6372 25.3559 15.0841 26.5774 14.1655 27.4961C13.2469 28.4148 12.0254 28.9679 10.7289 29.0524ZM10.718 25.3492V24.2906C11.1216 24.2719 11.5228 24.2166 11.9164 24.1254C11.4666 24.4809 11.0639 24.8921 10.718 25.3492ZM15.7215 17.9371C15.6371 19.2335 15.084 20.4549 14.1654 21.3736C13.2467 22.2922 12.0253 22.8453 10.7289 22.9297C10.8133 21.6333 11.3664 20.4119 12.2851 19.4933C13.2037 18.5746 14.4251 18.0215 15.7215 17.9371ZM10.0086 10.3152L10.0344 10.2895L10.0606 10.3152C10.9531 11.211 11.4714 12.4127 11.5105 13.6766C11.5496 14.9405 11.1065 16.1719 10.2711 17.1211C10.119 17.0617 9.95015 17.0617 9.79806 17.1211C8.96263 16.1719 8.51952 14.9405 8.55862 13.6766C8.59772 12.4127 9.1161 11.211 10.0086 10.3152ZM4.34767 17.9371C5.64406 18.0215 6.86549 18.5746 7.78412 19.4933C8.70275 20.4119 9.25585 21.6333 9.34025 22.9297C8.04386 22.8453 6.82243 22.2922 5.9038 21.3736C4.98517 20.4549 4.43207 19.2335 4.34767 17.9371ZM9.3508 24.2906V25.3492C9.00508 24.892 8.60249 24.4808 8.15275 24.1254C8.54629 24.2165 8.94728 24.2718 9.3508 24.2906ZM4.34767 24.0594C5.64413 24.1438 6.8656 24.697 7.78424 25.6157C8.70288 26.5344 9.25594 27.7559 9.34025 29.0524C8.04379 28.9679 6.82232 28.4148 5.90368 27.4961C4.98504 26.5774 4.43198 25.3559 4.34767 24.0594ZM9.3508 30.4133V31.4715C9.00537 31.0147 8.60318 30.6037 8.15392 30.2485C8.54711 30.3393 8.94769 30.3944 9.3508 30.4133ZM4.34767 30.1817C5.64413 30.2661 6.8656 30.8192 7.78424 31.7379C8.70288 32.6566 9.25594 33.8782 9.34025 35.1746C8.04379 35.0902 6.82232 34.5371 5.90368 33.6183C4.98504 32.6996 4.43198 31.4781 4.34767 30.1817ZM25.6848 31.0297C25.713 29.6493 26.2739 28.3334 27.2502 27.3571C28.2264 26.3808 29.5423 25.8198 30.9227 25.7914C30.8943 27.1717 30.3334 28.4877 29.3572 29.4639C28.381 30.4402 27.0651 31.0013 25.6848 31.0297ZM25.6848 27.0906V26.0527C26.0517 26.0467 26.4175 26.0107 26.7785 25.9449C26.3699 26.2826 26.0024 26.6672 25.6836 27.0906H25.6848ZM25.6848 24.6899C25.7135 23.3098 26.2746 21.9943 27.2508 21.0183C28.227 20.0424 29.5426 19.4816 30.9227 19.4531C30.8939 20.8332 30.3328 22.1487 29.3567 23.1247C28.3805 24.1006 27.0648 24.6614 25.6848 24.6899ZM25.6848 20.7512V19.7137C26.0517 19.7077 26.4175 19.6716 26.7785 19.6059C26.37 19.9435 26.0025 20.3279 25.6836 20.7512H25.6848ZM30.9227 13.1121C30.8939 14.4923 30.3328 15.808 29.3567 16.7843C28.3806 17.7605 27.065 18.3218 25.6848 18.3508C25.713 16.9704 26.2739 15.6544 27.2501 14.678C28.2263 13.7017 29.5423 13.1406 30.9227 13.1121ZM23.4395 8.89845C23.4376 8.21819 23.5707 7.54431 23.8311 6.91584C24.0915 6.28737 24.4739 5.71679 24.9563 5.23712L25 5.19298L25.0438 5.23712C25.9775 6.16908 26.5194 7.42288 26.5584 8.74152C26.5974 10.0602 26.1305 11.3438 25.2535 12.3293C25.0908 12.263 24.9085 12.263 24.7457 12.3293C23.9027 11.3856 23.4376 10.1639 23.4395 8.89845ZM19.0774 13.1121C20.4578 13.1406 21.7737 13.7017 22.7499 14.678C23.7261 15.6544 24.287 16.9704 24.3152 18.3508C22.935 18.3218 21.6194 17.7605 20.6433 16.7843C19.6672 15.808 19.1062 14.4923 19.0774 13.1121ZM24.3164 19.7137V20.7512C23.9979 20.328 23.6308 19.9436 23.2227 19.6059C23.5837 19.6716 23.9495 19.7077 24.3164 19.7137ZM19.0774 19.4531C20.4574 19.4816 21.7731 20.0424 22.7492 21.0183C23.7254 21.9943 24.2865 23.3098 24.3152 24.6899C22.9352 24.6614 21.6195 24.1006 20.6434 23.1247C19.6672 22.1487 19.1061 20.8332 19.0774 19.4531ZM24.3164 26.0547V27.0926C23.998 26.6692 23.6309 26.2847 23.2227 25.9469C23.5838 26.012 23.9496 26.0474 24.3164 26.0527V26.0547ZM19.0774 25.7934C20.4577 25.8217 21.7736 26.3827 22.7499 27.359C23.7261 28.3353 24.287 29.6513 24.3152 31.0317C22.9346 31.0032 21.6184 30.4419 20.6422 29.4652C19.6659 28.4885 19.1052 27.1721 19.0774 25.7914V25.7934ZM4.27267 45.0922C4.60414 43.685 5.33578 42.4037 6.3793 41.4031C7.42282 40.4025 8.73363 39.7253 10.1535 39.4531C10.1652 39.4512 10.1774 39.4488 10.1891 39.4461C11.1423 39.2793 12.1194 39.3076 13.0614 39.5291C14.0034 39.7507 14.8906 40.161 15.6695 40.7352C15.7498 40.794 15.8419 40.8346 15.9394 40.8542C16.037 40.8738 16.1376 40.8718 16.2343 40.8484C16.3311 40.8251 16.4215 40.7809 16.4994 40.7189C16.5772 40.657 16.6406 40.5788 16.6852 40.4899C17.4326 38.9171 18.6107 37.5884 20.0828 36.6582C21.5549 35.7279 23.2606 35.2341 25.002 35.2341C26.7433 35.2341 28.449 35.7279 29.9211 36.6582C31.3932 37.5884 32.5713 38.9171 33.3188 40.4899C33.3633 40.5785 33.4267 40.6564 33.5044 40.7182C33.5821 40.7799 33.6723 40.824 33.7688 40.8473C33.8652 40.8707 33.9656 40.8727 34.063 40.8534C34.1603 40.834 34.2523 40.7937 34.3324 40.7352C35.1118 40.1607 35.9996 39.7502 36.9421 39.5286C37.8847 39.3071 38.8623 39.279 39.816 39.4461L39.8438 39.4531C41.264 39.7247 42.5753 40.4015 43.6194 41.4019C44.6634 42.4024 45.3955 43.6836 45.7274 45.091L4.27267 45.0922Z" fill="white"/>
</svg>
