<svg width="33" height="33" viewBox="0 0 33 33" fill="none" xmlns="http://www.w3.org/2000/svg">
<path d="M32.4844 27.8438H30.3755V27.2302C31.218 27.0345 31.8117 26.28 31.8038 25.4152C31.8038 25.3636 31.3861 20.2589 29.999 20.2589C28.612 20.2589 28.1943 25.3842 28.1943 25.4152C28.1864 26.28 28.7801 27.0345 29.6226 27.2302V27.8438H26.0132V19.042L27.6374 20.9653C28.0654 21.481 28.8234 20.7745 28.3902 20.2847L14.8913 4.30028C14.7947 4.19035 14.656 4.12664 14.5097 4.125C14.3703 4.12991 14.2378 4.18694 14.1384 4.28483L9.075 9.79688H2.5008C2.21604 9.79688 1.98517 10.0277 1.98517 10.3125V27.8438H0.515625C0.230869 27.8438 0 28.0746 0 28.3594C0 28.6441 0.230869 28.875 0.515625 28.875H32.4844C32.7691 28.875 33 28.6441 33 28.3594C33 28.0746 32.7691 27.8438 32.4844 27.8438ZM28.9317 25.4152C28.9317 24.4613 29.5247 21.4706 29.963 21.0375C30.4219 21.4706 30.9942 24.4613 30.9942 25.4152C31.0049 25.8674 30.7335 26.2785 30.3136 26.4464C30.3136 26.1319 30.4425 25.4152 29.9372 25.4152C29.4318 25.4152 29.5814 26.1319 29.5607 26.4464C29.168 26.2567 28.9265 25.8509 28.9472 25.4152H28.9317ZM24.9975 18.5625V27.8438H18.0005V18.5625H24.9975ZM14.4839 5.40892L24.75 17.5313H12.9989V10.3125C12.9989 10.0277 12.7681 9.79688 12.4833 9.79688H10.4208L14.4839 5.40892ZM3.00097 10.8281H11.9986V27.8438H10.9984V13.4063C10.9984 13.1215 10.7675 12.8906 10.4827 12.8906H6.00188C5.71712 12.8906 5.48625 13.1215 5.48625 13.4063V27.8438H3.00097V10.8281ZM9.99795 23.2031H6.50205V13.9219H9.99795V23.2031ZM6.50205 27.8438V24.2344H9.99802V27.8438H6.50205ZM12.9989 27.8438V18.5625H17.0156V27.8438H12.9989Z" fill="white"/>
</svg>
