<svg width="50" height="50" viewBox="0 0 50 50" fill="none" xmlns="http://www.w3.org/2000/svg">
<g clip-path="url(#clip0_974_641)">
<path d="M18.75 29.1667H22.9167V31.25H18.75V29.1667ZM27.0833 31.25H31.25V29.1667H27.0833V31.25ZM18.75 39.5833H22.9167V37.5H18.75V39.5833ZM27.0833 39.5833H31.25V37.5H27.0833V39.5833ZM18.75 14.5833H22.9167V12.5H18.75V14.5833ZM27.0833 14.5833H31.25V12.5H27.0833V14.5833ZM18.75 22.9167H22.9167V20.8333H18.75V22.9167ZM27.0833 22.9167H31.25V20.8333H27.0833V22.9167ZM50 15.625V50H0V23.9583C0 21.0854 2.3375 18.75 5.20833 18.75H10.4167V5.20833C10.4167 2.33542 12.7542 0 15.625 0H34.375C37.2458 0 39.5833 2.33542 39.5833 5.20833V10.4167H44.7917C47.6625 10.4167 50 12.7521 50 15.625ZM47.9167 15.625C47.9167 13.9021 46.5146 12.5 44.7917 12.5H37.5V5.20833C37.5 3.48542 36.0979 2.08333 34.375 2.08333H15.625C13.9021 2.08333 12.5 3.48542 12.5 5.20833V20.8333H5.20833C3.48542 20.8333 2.08333 22.2354 2.08333 23.9583V47.9167H47.9167V15.625ZM37.5 31.25H41.6667V29.1667H37.5V31.25ZM37.5 39.5833H41.6667V37.5H37.5V39.5833ZM8.33333 31.25H12.5V29.1667H8.33333V31.25ZM8.33333 39.5833H12.5V37.5H8.33333V39.5833ZM37.5 22.9167H41.6667V20.8333H37.5V22.9167Z" fill="white"/>
</g>
<defs>
<clipPath id="clip0_974_641">
<rect width="50" height="50" fill="white"/>
</clipPath>
</defs>
</svg>
