<svg width="50" height="50" viewBox="0 0 50 50" fill="none" xmlns="http://www.w3.org/2000/svg">
<g clip-path="url(#clip0_407_95)">
<path d="M0 27.0573C0 25.4557 0 23.8671 0 22.2656C0.234375 21.888 0.585937 21.8099 1.0026 21.8099C3.07292 21.8229 5.13021 21.8099 7.20052 21.8099C7.39583 21.8099 7.57812 21.8099 7.8125 21.8099C7.8125 21.5625 7.8125 21.3671 7.8125 21.1718C7.8125 14.4661 7.8125 7.76038 7.8125 1.05465C7.8125 0.16923 7.99479 -0.0130615 8.85417 -0.0130615C19.6094 -0.0130615 30.3646 -0.0130615 41.1198 -0.0130615C41.9922 -0.0130615 42.1745 0.16923 42.1745 1.05465C42.1745 7.76038 42.1745 14.4661 42.1745 21.1718C42.1745 21.3802 42.1745 21.5755 42.1745 21.8099C43.2943 21.8099 44.3229 21.8099 45.3646 21.8099C46.6146 21.8099 47.8646 21.8099 49.1276 21.8099C49.7005 21.8099 49.987 22.0312 49.987 22.513C50 23.9322 50 25.3385 49.987 26.7578C49.987 27.2135 49.7266 27.4479 49.2318 27.4609C48.4375 27.4739 47.6432 27.4609 46.8359 27.4609C46.6667 27.4609 46.4974 27.4739 46.3021 27.4869C46.3281 27.6041 46.3281 27.6692 46.3411 27.7343C47.3307 32.3828 47.5 37.0573 46.7578 41.7448C46.4583 43.6588 46.0547 45.5468 46.1719 47.5C46.2109 48.177 45.8984 48.789 45.3776 49.2187C44.987 49.5312 44.4922 49.7265 44.0495 49.9739C31.3542 49.9739 18.6589 49.9739 5.96354 49.9739C4.21875 49.2447 3.8151 48.6197 3.8151 46.7187C3.8151 45.9505 3.89323 45.1692 3.73698 44.4401C2.70833 39.7265 2.51302 35 3.22917 30.2343C3.35937 29.3229 3.54167 28.4244 3.69792 27.4739C2.76042 27.4739 1.875 27.4609 0.976562 27.4739C0.559896 27.5 0.234375 27.3958 0 27.0573ZM25.8854 21.7968C25.8854 21.5755 25.8854 21.4062 25.8854 21.2239C25.8854 19.8958 25.8854 18.5546 25.8854 17.2265C25.8854 16.6406 26.1198 16.3932 26.7187 16.3932C30.5599 16.3932 34.401 16.3932 38.2422 16.3932C38.8281 16.3932 39.0625 16.6406 39.0625 17.2395C39.0625 18.5026 39.0625 19.7786 39.0625 21.0416C39.0625 21.276 39.0625 21.5234 39.0625 21.7708C39.6745 21.7708 40.2214 21.7708 40.7943 21.7708C40.7943 14.9479 40.7943 8.17704 40.7943 1.40621C30.2474 1.40621 19.7266 1.40621 9.23177 1.40621C9.23177 8.22913 9.23177 15 9.23177 21.7838C9.81771 21.7838 10.3646 21.7838 10.9505 21.7838C10.9505 21.5885 10.9505 21.4323 10.9505 21.276C10.9505 19.9609 10.9505 18.6458 10.9505 17.3177C10.9505 16.6015 11.1719 16.3932 11.888 16.3802C13.0599 16.3802 14.2318 16.3802 15.4036 16.3802C17.9427 16.3802 20.4818 16.3802 23.0208 16.3802C23.9714 16.3802 24.1276 16.5364 24.1276 17.4739C24.1276 18.4635 24.1276 19.4531 24.1276 20.4557C24.1276 20.8854 24.1276 21.3281 24.1276 21.7968C24.7135 21.7968 25.2604 21.7968 25.8854 21.7968ZM48.6198 23.2291C32.8516 23.2291 17.1224 23.2291 1.40625 23.2291C1.40625 24.2057 1.40625 25.1432 1.40625 26.0807C17.1615 26.0807 32.8906 26.0807 48.6198 26.0807C48.6198 25.1171 48.6198 24.1927 48.6198 23.2291ZM44.8177 45.7421C31.5755 45.7421 18.3854 45.7421 5.16927 45.7421C5.16927 46.1588 5.16927 46.5494 5.16927 46.9401C5.16927 48.2161 5.58594 48.6328 6.84896 48.6328C18.9453 48.6328 31.0286 48.6328 43.125 48.6328C43.2682 48.6328 43.4245 48.6328 43.5677 48.6328C44.2839 48.5937 44.7917 48.0989 44.8177 47.3828C44.8438 46.8489 44.8177 46.3151 44.8177 45.7421ZM17.7865 27.513C19.0104 33.138 18.9974 38.7239 17.7865 44.3099C19.4401 44.3099 21.0547 44.3099 22.7214 44.3099C21.4974 38.7109 21.4974 33.125 22.7214 27.513C21.0417 27.513 19.4401 27.513 17.7865 27.513ZM32.2135 44.3099C30.9896 38.6979 31.0026 33.1119 32.2005 27.526C30.5339 27.526 28.9323 27.526 27.2786 27.526C28.5026 33.138 28.5026 38.7239 27.2786 44.3099C28.9453 44.3099 30.5729 44.3099 32.2135 44.3099ZM41.7318 44.3099C40.5078 38.6979 40.5078 33.125 41.7318 27.513C40.0651 27.513 38.4635 27.513 36.8099 27.513C38.0339 33.125 38.0208 38.7109 36.8099 44.3099C38.4375 44.3099 40.0521 44.3099 41.7318 44.3099ZM13.2161 44.3099C11.9922 38.6979 11.9922 33.125 13.2031 27.526C11.5365 27.526 9.9349 27.526 8.28125 27.526C9.50521 33.138 9.49219 38.7109 8.28125 44.3099C9.92187 44.3099 11.5365 44.3099 13.2161 44.3099ZM25.8594 44.3229C25.8984 44.2057 25.9375 44.1015 25.9505 43.9974C27.0703 38.9062 27.1354 33.8151 26.1328 28.6979C25.8984 27.5 25.8854 27.513 24.6484 27.4869C24.2448 27.4739 24.0885 27.5911 24.0104 27.9948C23.0599 32.3958 22.9036 36.8229 23.5547 41.276C23.6979 42.2916 23.9193 43.3073 24.1146 44.3359C24.6484 44.3359 25.1042 44.3359 25.5469 44.3359C25.638 44.3359 25.7422 44.3229 25.8594 44.3229ZM44.8568 44.3359C44.8828 44.2317 44.9089 44.1796 44.9219 44.1145C46.0677 39.0234 46.1458 33.9062 45.1432 28.776C44.8828 27.4609 44.8828 27.4739 43.5417 27.4869C43.2161 27.4869 43.099 27.5911 43.0339 27.9036C42.4609 30.5729 42.1615 33.2552 42.1745 35.9765C42.1745 38.6718 42.474 41.3281 43.0729 43.9583C43.099 44.1015 43.2812 44.2968 43.3984 44.3099C43.8802 44.3619 44.375 44.3359 44.8568 44.3359ZM6.83594 44.3229C6.875 44.2187 6.91406 44.1276 6.92708 44.0364C8.07292 38.9062 8.11198 33.75 7.09635 28.5937C6.875 27.5 6.875 27.526 5.71615 27.4869C5.23438 27.4739 5.0651 27.6302 4.96094 28.0989C4.04948 32.4088 3.90625 36.7317 4.50521 41.0937C4.64844 42.1744 4.88281 43.2552 5.07812 44.3229C5.72917 44.3229 6.27604 44.3229 6.83594 44.3229ZM16.3672 44.3229C17.5391 39.1406 17.6432 33.9713 16.6276 28.802C16.3672 27.4869 16.3542 27.5 15.0391 27.5C14.6875 27.5 14.5833 27.6171 14.5052 27.9557C13.5156 32.4739 13.3854 37.0052 14.0755 41.5755C14.2187 42.5 14.4141 43.4244 14.5833 44.3359C15.2214 44.3229 15.7682 44.3229 16.3672 44.3229ZM33.6458 44.3359C34.1667 44.3359 34.6615 44.3489 35.1562 44.3229C35.2604 44.3229 35.4167 44.1406 35.4297 44.0234C35.7031 42.3437 36.0417 40.664 36.1979 38.9713C36.5234 35.5338 36.3021 32.1224 35.638 28.7369C35.3906 27.5 35.4167 27.526 34.1797 27.4869C33.724 27.4739 33.5807 27.6302 33.4896 28.0599C32.8776 30.9635 32.6042 33.9062 32.6823 36.875C32.7474 39.375 33.0599 41.8489 33.6458 44.3359ZM22.7214 21.7968C22.7214 20.4427 22.7214 19.1145 22.7214 17.7864C19.2448 17.7864 15.8073 17.7864 12.3438 17.7864C12.3438 19.1406 12.3438 20.4557 12.3438 21.7968C15.8203 21.7968 19.2578 21.7968 22.7214 21.7968ZM37.6693 17.7994C34.1797 17.7994 30.7292 17.7994 27.2656 17.7994C27.2656 19.1536 27.2656 20.4557 27.2656 21.7838C30.7422 21.7838 34.1927 21.7838 37.6693 21.7838C37.6693 20.4427 37.6693 19.1406 37.6693 17.7994Z" fill="#1D1D1D"/>
<path d="M17.5391 3.12496C19.4271 3.12496 21.3151 3.12496 23.2031 3.12496C23.8932 3.12496 24.1146 3.34631 24.1146 4.0234C24.1146 7.26558 24.1146 10.4948 24.1146 13.7369C24.1146 14.388 23.8802 14.6224 23.2292 14.6224C19.4271 14.6224 15.612 14.6224 11.8099 14.6224C11.1849 14.6224 10.9375 14.375 10.9375 13.763C10.9375 10.4948 10.9375 7.22652 10.9375 3.94527C10.9375 3.34631 11.1979 3.11194 11.8229 3.11194C13.737 3.12496 15.638 3.12496 17.5391 3.12496ZM12.3438 4.50517C12.3438 7.43485 12.3438 10.3255 12.3438 13.2421C15.8203 13.2421 19.2578 13.2421 22.7214 13.2421C22.7214 10.3125 22.7214 7.42183 22.7214 4.50517C19.2448 4.50517 15.8203 4.50517 12.3438 4.50517Z" fill="#1D1D1D"/>
<path d="M32.4478 3.12496C34.3359 3.12496 36.2239 3.12496 38.1119 3.12496C38.828 3.12496 39.0494 3.34631 39.0494 4.04944C39.0494 7.26558 39.0494 10.4948 39.0494 13.7109C39.0494 14.388 38.815 14.6224 38.1379 14.6224C34.3489 14.6224 30.5598 14.6224 26.7577 14.6224C26.1067 14.6224 25.8723 14.388 25.8723 13.7369C25.8723 10.4817 25.8723 7.22652 25.8723 3.97131C25.8723 3.35933 26.1067 3.11194 26.7317 3.11194C28.6458 3.12496 30.5468 3.12496 32.4478 3.12496ZM27.2786 4.50517C27.2786 7.43485 27.2786 10.3255 27.2786 13.2161C30.7551 13.2161 34.2187 13.2161 37.6562 13.2161C37.6562 10.2864 37.6562 7.39579 37.6562 4.50517C34.1796 4.50517 30.7551 4.50517 27.2786 4.50517Z" fill="#1D1D1D"/>
</g>
<defs>
<clipPath id="clip0_407_95">
<rect width="50" height="50" fill="white"/>
</clipPath>
</defs>
</svg>
