<svg width="20" height="20" viewBox="0 0 20 20" fill="none" xmlns="http://www.w3.org/2000/svg">
<path d="M19.4183 10.719C19.0058 10.2548 18.4458 9.99981 17.8408 9.99981H0.833333V3.36565C0.833333 2.66398 1.0825 1.96565 1.59167 1.48398C2.53667 0.589812 3.86167 0.676479 4.71 1.38398L4.18917 4.37481C4.12417 4.74231 4.2 5.11898 4.40167 5.43398C4.625 5.78148 4.985 6.02231 5.39083 6.09565C5.4775 6.11231 5.56583 6.11898 5.65333 6.11898C5.97333 6.11898 6.28917 6.01565 6.54833 5.82231L9.40417 3.68065C10.0242 3.21481 10.1833 2.33898 9.75417 1.66898C9.49333 1.26315 9.04833 1.00731 8.56667 0.986479L5.355 0.842312C4.17667 -0.237688 2.2225 -0.378521 0.9025 1.00648C0.296667 1.64315 0 2.51648 0 3.39481V10.1531C0 10.3315 0.01 10.5073 0.0308333 10.684C0.1075 11.3431 0.3025 13.0106 0.3025 13.0106C0.534167 14.9773 1.52417 16.6731 2.93833 17.784C2.935 17.7948 2.51167 19.5015 2.51167 19.5015C2.45667 19.7256 2.59333 19.9506 2.81583 20.0056C2.84917 20.014 2.88333 20.0181 2.91583 20.0181C3.10333 20.0181 3.27333 19.8915 3.32 19.7015L3.67083 18.284C4.6275 18.8473 5.725 19.1656 6.88417 19.1656H13.3458C14.4258 19.1656 15.4517 18.889 16.36 18.3956L16.6783 19.6823C16.7258 19.8723 16.8958 19.999 17.0825 19.999C17.115 19.999 17.1492 19.9948 17.1825 19.9865C17.4058 19.9315 17.5425 19.7056 17.4867 19.4823L17.1017 17.9265C18.6167 16.8215 19.6858 15.064 19.9275 13.0098L19.9808 12.5456C20.06 11.8765 19.8542 11.2098 19.4158 10.7181L19.4183 10.719ZM9.06333 2.13481C9.2475 2.42315 9.1775 2.80898 8.905 3.01315L6.04917 5.15481C5.90083 5.26481 5.71917 5.30565 5.53917 5.27648C5.35833 5.24315 5.20417 5.13981 5.10417 4.98481C5.01583 4.84648 4.9825 4.68065 5.01083 4.51815L5.505 1.68315L8.53083 1.81731C8.74333 1.82731 8.93917 1.93981 9.065 2.13481H9.06333ZM19.155 12.4498L19.1017 12.914C18.7375 16.004 16.2642 18.334 13.3467 18.334H6.885C3.9675 18.334 1.49333 16.004 1.13 12.914L0.885833 10.834H17.8417C18.205 10.834 18.5442 10.9906 18.7967 11.2731C19.0767 11.5881 19.2075 12.0173 19.1567 12.4498H19.155Z" fill="#1D1D1D"/>
</svg>
