<svg width="50" height="50" viewBox="0 0 50 50" fill="none" xmlns="http://www.w3.org/2000/svg">
<g clip-path="url(#clip0_407_88)">
<path d="M2.37375e-05 23.6328C0.0911458 23.3594 0.16925 23.0729 0.299425 22.8125C0.911245 21.5234 1.95264 20.8854 3.35852 20.8333C3.57982 20.8203 3.81413 20.8203 4.03543 20.8203C4.06147 20.8203 4.0875 20.7943 4.17862 20.7552C4.17862 20.5859 4.17862 20.4036 4.17862 20.2083C4.17862 15.4427 4.16561 10.6771 4.17862 5.91146C4.19164 2.55208 6.74306 0.0130208 10.1016 0.0130208C11.4944 0.0130208 12.9003 0 14.2932 0.0260417C14.8269 0.0390625 15.3606 0.104167 15.8813 0.208333C16.8446 0.403646 17.6777 0.872396 18.3807 1.54948C19.1877 2.33073 19.9688 3.13802 20.7759 3.91927C20.9321 4.07552 21.1794 4.17969 21.4007 4.20573C24.2645 4.4401 26.7639 7.22656 26.6467 10.0911C26.6207 10.8594 26.0219 11.5234 25.2669 11.6406C25.0586 11.6667 24.8503 11.6797 24.629 11.6797C22.0776 11.6797 19.5262 11.6797 16.9618 11.6797C15.5559 11.6797 14.931 11.0156 15.0091 9.6224C15.0612 8.58073 15.3216 7.86458 16.2067 6.39323C15.8162 6.01562 15.4127 5.61198 14.9831 5.2474C14.8269 5.11719 14.5796 5.02604 14.3583 5.01302C12.9133 5 11.4684 4.98698 10.0104 5.01302C9.45069 5.01302 9.13827 5.35156 9.13827 5.92448C9.13827 10.8333 9.13827 15.7552 9.13827 20.6641C9.13827 20.6901 9.15129 20.7292 9.17732 20.8464C9.34655 20.8464 9.52879 20.8464 9.71104 20.8464C11.3382 20.8984 12.9654 20.8464 14.5796 21.0156C17.0919 21.276 19.3179 22.3307 21.2835 23.9323C21.4398 24.0625 21.609 24.1927 21.8042 24.3359C23.3012 22.8776 25.1107 22.4609 27.1414 22.5C29.8881 22.5651 32.6348 22.526 35.3945 22.513C37.8547 22.513 39.7553 23.4896 41.0831 25.5859C41.1742 25.7292 41.4476 25.8464 41.6298 25.8464C43.1528 25.8724 44.6889 25.9115 46.2119 25.8464C48.6332 25.7422 50.1302 27.5521 49.961 29.5964C49.9479 29.7526 49.961 29.9219 49.961 30.0781C49.9089 30.9635 49.245 31.6276 48.3598 31.6667C48.0865 31.6797 47.8131 31.6667 47.4486 31.6667C47.4486 31.9531 47.4486 32.2135 47.4486 32.4609C47.4486 34.0495 47.5007 35.651 47.019 37.2005C46.277 39.6224 44.8972 41.5755 42.8274 43.0208C42.541 43.2161 42.4109 43.4245 42.4369 43.776C42.4629 44.1276 42.4499 44.4922 42.4499 44.8437C42.4499 44.8698 42.4629 44.9089 42.489 45C43.3872 45 44.3114 45 45.0404 45.7292C45.7563 46.4453 45.8214 47.3307 45.7563 48.3463C46.238 48.3463 46.6936 48.3463 47.1362 48.3463C47.709 48.3463 48.2817 48.3594 48.8415 48.3463C49.3231 48.3333 49.7267 48.4375 49.8959 48.9453C50.0651 49.4661 49.7527 49.7656 49.3492 50.013C32.8821 50.013 16.415 50.013 -0.052046 50.013C-0.052046 49.6484 -0.052046 49.2969 -0.052046 48.9323C0.182268 48.4766 0.559774 48.3203 1.06745 48.3333C2.0698 48.3594 3.07214 48.3463 4.12655 48.3463C4.07448 47.3698 4.12655 46.4714 4.82949 45.7552C5.54545 45.026 6.45668 44.974 7.3679 45.026C7.40695 44.9349 7.43298 44.9089 7.43298 44.8828C7.446 44.5312 7.41997 44.1667 7.45902 43.8151C7.48505 43.4505 7.3679 43.2422 7.05548 43.0208C4.17862 40.9375 2.59049 38.112 2.47334 34.5573C2.39523 32.1354 2.4473 29.7135 2.4473 27.2917C2.4473 27.0964 2.4473 26.9141 2.4473 26.6667C1.28875 26.8099 0.37753 26.5625 -0.0650635 25.4167C2.37375e-05 24.8047 2.37375e-05 24.2188 2.37375e-05 23.6328ZM41.9813 31.6927C41.9813 31.901 41.9813 32.0833 41.9813 32.2526C41.9813 34.2057 41.9813 36.1589 41.9813 38.112C41.9813 39.8177 40.9659 40.8333 39.2476 40.8333C36.2536 40.8333 33.2596 40.8333 30.2656 40.8333C28.4822 40.8333 27.5059 39.8438 27.5059 38.0469C27.5059 36.1068 27.5059 34.1797 27.5059 32.2396C27.5059 32.0703 27.5059 31.888 27.5059 31.6667C27.2325 31.6667 27.0242 31.6667 26.816 31.6667C23.3143 31.7318 20.2421 30.612 17.5606 28.3724C16.1937 27.2396 14.6056 26.6797 12.8352 26.6667C10.1016 26.6536 7.3679 26.6667 4.63423 26.6667C4.49104 26.6667 4.34785 26.6797 4.17862 26.6927C4.17862 26.901 4.17862 27.0833 4.17862 27.2526C4.17862 29.4661 4.17862 31.6797 4.17862 33.8932C4.17862 34.3359 4.17862 34.7786 4.23069 35.2083C4.81648 39.8958 8.65662 43.3203 13.408 43.3333C21.1404 43.3594 28.8597 43.3463 36.5921 43.3333C37.7506 43.3333 38.8961 43.1641 39.9766 42.6953C44.9883 40.5599 46.238 36.3411 45.7563 31.6797C44.5327 31.6927 43.296 31.6927 41.9813 31.6927ZM30.591 24.2188C30.6301 24.2969 30.6561 24.3359 30.6821 24.375C31.9969 25.7292 32.5176 27.3568 32.5046 29.2187C32.4785 32.2005 32.4916 35.1693 32.5046 38.151C32.5046 38.8932 32.791 39.1797 33.533 39.1797C35.4335 39.1797 37.334 39.1797 39.2476 39.1797C40.0547 39.1797 40.3281 38.9062 40.3281 38.0859C40.3281 35.026 40.3281 31.9661 40.3281 28.9062C40.3281 26.2109 38.4275 24.2448 35.7329 24.1797C34.1187 24.1406 32.5176 24.1667 30.9034 24.1797C30.7993 24.1667 30.7082 24.1927 30.591 24.2188ZM13.382 48.3073C21.1404 48.3073 28.8597 48.3073 36.5921 48.3073C36.4619 47.0833 35.9933 46.0807 35.1211 45.2734C34.9779 45.1302 34.7306 45.026 34.5223 45.026C28.1568 45.013 21.8042 45.013 15.4387 45.026C15.2565 45.026 15.0222 45.1172 14.879 45.2474C14.0068 46.0547 13.5121 47.0703 13.382 48.3073ZM1.67927 25C1.92661 25 2.09583 25 2.27808 25C5.74072 25 9.20336 25 12.679 25C14.9701 25 16.9878 25.7161 18.7451 27.1745C20.0599 28.2682 21.5439 29.0625 23.1841 29.5443C24.59 29.9479 26.0089 30.0651 27.5059 29.9609C27.5059 29.5833 27.5059 29.2448 27.5059 28.9062C27.4929 28.0208 27.0503 27.5391 26.1651 27.5C23.874 27.4089 21.9214 26.5755 20.164 25.1172C18.3546 23.6198 16.2458 22.6693 13.8896 22.5781C10.3749 22.4479 6.86022 22.5 3.34551 22.5C2.43429 22.5 1.7704 23.125 1.67927 23.9714C1.64022 24.2969 1.67927 24.6224 1.67927 25ZM7.51109 20.8073C7.51109 20.5599 7.51109 20.3646 7.51109 20.1693C7.51109 15.4557 7.51109 10.7292 7.51109 6.01562C7.51109 4.375 8.55248 3.34635 10.1927 3.33333C11.5725 3.33333 12.9524 3.33333 14.3452 3.33333C15.1003 3.33333 15.7511 3.58073 16.2718 4.1276C16.6493 4.51823 17.0008 4.90885 17.3393 5.27344C17.925 4.97396 18.4197 4.71354 18.9795 4.42708C18.4588 3.91927 17.9641 3.45052 17.4825 2.96875C16.6103 2.09635 15.5559 1.66667 14.3322 1.66667C12.9784 1.66667 11.6376 1.66667 10.2838 1.66667C7.60221 1.66667 5.85787 3.41146 5.85787 6.09375C5.85787 10.8333 5.85787 15.5599 5.85787 20.2995C5.85787 20.4557 5.87089 20.612 5.88391 20.7943C6.41762 20.8073 6.9253 20.8073 7.51109 20.8073ZM30.9034 39.1276C30.8774 38.724 30.8383 38.3594 30.8383 37.9818C30.8383 34.9349 30.8514 31.901 30.8383 28.8542C30.8253 26.263 28.9899 24.3099 26.4385 24.1797C25.319 24.1146 24.3166 24.4401 23.3924 25.1953C24.3166 25.625 25.2148 25.7682 26.139 25.8333C28.1177 25.9635 29.1721 27.0964 29.1721 29.0885C29.1721 31.9141 29.1981 34.7526 29.1591 37.5781C29.1331 39.2057 29.5236 39.2188 30.8644 39.1536C30.8774 39.1536 30.8904 39.1406 30.9034 39.1276ZM25.0065 9.97396C24.9024 8.41146 24.2776 7.1875 22.9237 6.41927C21.4007 5.54687 19.8646 5.625 18.4327 6.61458C17.2872 7.40885 16.7144 8.54167 16.6754 9.96094C19.4741 9.97396 22.2078 9.97396 25.0065 9.97396ZM9.1643 44.2969C9.1643 44.7526 9.17732 45.2344 9.1643 45.7161C9.15129 46.3542 8.83887 46.6667 8.188 46.6797C7.68032 46.6927 7.18565 46.6797 6.67797 46.6797C6.23538 46.6927 5.92296 46.9141 5.85787 47.3568C5.8058 47.6693 5.84486 47.9948 5.84486 48.3203C7.82351 48.3203 9.75009 48.3203 11.5335 48.3203C11.937 47.1745 12.3015 46.0937 12.666 45.0651C11.5855 44.8177 10.3879 44.5573 9.1643 44.2969ZM40.8227 44.2969C39.5731 44.5703 38.3885 44.8177 37.2299 45.0781C37.4642 45.5859 37.7376 46.0937 37.9198 46.6146C38.1151 47.1615 38.2062 47.7344 38.3624 48.3463C39.2997 48.3463 40.25 48.3463 41.2002 48.3463C42.1635 48.3463 43.1398 48.3463 44.1552 48.3463C44.1552 48.099 44.1552 47.9036 44.1552 47.7214C44.1422 46.9661 43.8818 46.6927 43.1268 46.6927C42.6712 46.6927 42.2156 46.7057 41.76 46.6927C41.1482 46.6797 40.8357 46.3672 40.8227 45.7552C40.8097 45.2474 40.8227 44.7656 40.8227 44.2969ZM48.2817 29.974C48.516 28.4505 47.8521 27.4089 46.1208 27.5C44.8842 27.5651 43.6475 27.513 42.4109 27.513C42.2416 27.513 42.0724 27.513 41.9552 27.513C41.9552 28.3724 41.9552 29.1667 41.9552 29.974C44.1161 29.974 46.1859 29.974 48.2817 29.974Z" fill="#1D1D1D"/>
<path d="M24.3686 13.3463C24.4858 13.4505 24.7982 13.6067 24.9153 13.8671C25.5011 15.2343 26.0479 16.6276 26.5946 18.0208C26.7768 18.4895 26.5555 18.9453 26.139 19.1145C25.7094 19.2838 25.2538 19.1015 25.0585 18.6328C24.4858 17.2526 23.926 15.8724 23.3923 14.4791C23.171 13.8932 23.5746 13.3463 24.3686 13.3463Z" fill="#1D1D1D"/>
<path d="M16.0114 19.1667C15.2564 19.1667 14.8528 18.6459 15.0611 18.086C15.6079 16.6407 16.1806 15.2214 16.7794 13.8021C16.9487 13.3985 17.4173 13.2683 17.8208 13.4245C18.2113 13.5808 18.4457 14.0105 18.2895 14.4271C17.7427 15.8594 17.17 17.3047 16.5712 18.711C16.454 18.9324 16.1155 19.0626 16.0114 19.1667Z" fill="#1D1D1D"/>
<path d="M20.0079 16.25C20.0079 15.5859 19.9948 14.9219 20.0079 14.2578C20.0209 13.7109 20.3333 13.3724 20.8149 13.3594C21.2966 13.3464 21.6481 13.6849 21.6611 14.2318C21.6741 15.599 21.6741 16.9531 21.6611 18.3203C21.6481 18.8542 21.2836 19.1797 20.7889 19.1667C20.3203 19.1536 20.0079 18.8281 20.0079 18.2943C19.9948 17.6042 20.0079 16.9271 20.0079 16.25Z" fill="#1D1D1D"/>
<path d="M5.80579 34.5053C5.84484 34.2709 5.84484 34.0105 5.93596 33.8021C6.09217 33.4636 6.40459 33.3073 6.78209 33.3594C7.22469 33.4376 7.44598 33.737 7.49805 34.1667C7.56314 34.6485 7.57616 35.1433 7.69332 35.612C8.30514 38.0209 10.3098 39.7396 12.7962 39.974C12.9914 39.987 13.1867 40 13.3819 40.0261C13.8636 40.0782 14.163 40.4167 14.163 40.8594C14.15 41.3021 13.8245 41.6667 13.3559 41.6667C12.8352 41.6667 12.3145 41.6016 11.8068 41.5105C8.48738 40.8594 5.93596 37.8516 5.80579 34.5053Z" fill="#1D1D1D"/>
</g>
<defs>
<clipPath id="clip0_407_88">
<rect width="50" height="50" fill="white"/>
</clipPath>
</defs>
</svg>
