<svg width="33" height="33" viewBox="0 0 33 33" fill="none" xmlns="http://www.w3.org/2000/svg">
<g clip-path="url(#clip0_513_3838)">
<path d="M31.9688 19.0781H30.4219V18.8203C30.4213 18.3418 30.231 17.8831 29.8927 17.5448C29.5544 17.2065 29.0957 17.0162 28.6172 17.0156H26.8125V5.15625C26.8125 3.92548 26.3236 2.74512 25.4533 1.87483C24.583 1.00455 23.4026 0.515625 22.1719 0.515625C20.9411 0.515625 19.7607 1.00455 18.8905 1.87483C18.0202 2.74512 17.5312 3.92548 17.5312 5.15625V7.7782C16.8984 7.88618 16.3147 8.18799 15.8607 8.64196C15.4067 9.09592 15.1049 9.67964 14.997 10.3125H14.9531C14.8164 10.3125 14.6852 10.3668 14.5885 10.4635C14.4918 10.5602 14.4375 10.6914 14.4375 10.8281V12.375C14.4375 12.5118 14.4918 12.6429 14.5885 12.7396C14.6852 12.8363 14.8164 12.8906 14.9531 12.8906H21.1406C21.2774 12.8906 21.4085 12.8363 21.5052 12.7396C21.6019 12.6429 21.6562 12.5118 21.6562 12.375V10.8281C21.6562 10.6914 21.6019 10.5602 21.5052 10.4635C21.4085 10.3668 21.2774 10.3125 21.1406 10.3125H21.0968C20.9888 9.67964 20.687 9.09592 20.233 8.64196C19.7791 8.18799 19.1954 7.88618 18.5625 7.7782V5.15625C18.5625 4.19898 18.9428 3.28093 19.6197 2.60404C20.2965 1.92715 21.2146 1.54688 22.1719 1.54688C23.1291 1.54688 24.0472 1.92715 24.7241 2.60404C25.401 3.28093 25.7812 4.19898 25.7812 5.15625V17.0156H23.9766C23.4981 17.0162 23.0394 17.2065 22.701 17.5448C22.3627 17.8831 22.1724 18.3418 22.1719 18.8203V19.0781H1.03125C0.894498 19.0781 0.763346 19.1325 0.666648 19.2291C0.56995 19.3258 0.515625 19.457 0.515625 19.5938V21.6562C0.515625 21.793 0.56995 21.9242 0.666648 22.0209C0.763346 22.1175 0.894498 22.1719 1.03125 22.1719H2.57812V27.3281C2.57914 28.0589 2.83845 28.7658 3.31021 29.3239C3.78198 29.882 4.43584 30.2554 5.15625 30.378V31.9688C5.15625 32.1055 5.21057 32.2367 5.30727 32.3334C5.40397 32.43 5.53512 32.4844 5.67188 32.4844H7.21875C7.33373 32.4844 7.44541 32.4459 7.53603 32.3751C7.62665 32.3044 7.69102 32.2053 7.71891 32.0938L8.13721 30.4219H24.8628L25.2811 32.0938C25.309 32.2053 25.3733 32.3044 25.464 32.3751C25.5546 32.4459 25.6663 32.4844 25.7812 32.4844H27.3281C27.4649 32.4844 27.596 32.43 27.6927 32.3334C27.7894 32.2367 27.8438 32.1055 27.8438 31.9688V30.378C28.5642 30.2554 29.218 29.882 29.6898 29.3239C30.1616 28.7658 30.4209 28.0589 30.4219 27.3281V22.1719H31.9688C32.1055 22.1719 32.2367 22.1175 32.3334 22.0209C32.43 21.9242 32.4844 21.793 32.4844 21.6562V19.5938C32.4844 19.457 32.43 19.3258 32.3334 19.2291C32.2367 19.1325 32.1055 19.0781 31.9688 19.0781ZM20.625 11.3438V11.8594H15.4688V11.3438H20.625ZM20.0443 10.3125H16.0495C16.1639 9.86975 16.4222 9.47757 16.7837 9.19757C17.1453 8.91758 17.5896 8.76564 18.0469 8.76564C18.5042 8.76564 18.9485 8.91758 19.31 9.19757C19.6716 9.47757 19.9299 9.86975 20.0443 10.3125ZM23.2031 18.8203C23.2033 18.6152 23.2848 18.4186 23.4298 18.2736C23.5749 18.1286 23.7715 18.047 23.9766 18.0469H28.6172C28.8223 18.047 29.0189 18.1286 29.1639 18.2736C29.3089 18.4186 29.3905 18.6152 29.3906 18.8203V19.0781H23.2031V18.8203ZM6.81592 31.4531H6.1875V30.4219H7.07373L6.81592 31.4531ZM26.8125 31.4531H26.1841L25.9263 30.4219H26.8125V31.4531ZM29.3906 27.3281C29.39 27.8749 29.1725 28.3992 28.7859 28.7859C28.3992 29.1725 27.8749 29.39 27.3281 29.3906H5.67188C5.12505 29.39 4.60081 29.1725 4.21415 28.7859C3.82749 28.3992 3.60999 27.8749 3.60938 27.3281V22.1719H29.3906V27.3281ZM31.4531 21.1406H1.54688V20.1094H31.4531V21.1406Z" fill="white"/>
</g>
<defs>
<clipPath id="clip0_513_3838">
<rect width="33" height="33" fill="white"/>
</clipPath>
</defs>
</svg>
