<svg width="15" height="15" viewBox="0 0 15 15" fill="none" xmlns="http://www.w3.org/2000/svg">
<g clip-path="url(#clip0_641_199)">
<path d="M14.5306 8.13451C14.175 7.73138 13.6625 7.50013 13.125 7.50013H1.25V2.80138C1.25 2.27576 1.4875 1.75576 1.93313 1.47638C2.61375 1.04951 3.445 1.25951 3.875 1.83326L4.03688 2.04888L3.735 3.78076C3.69875 3.98951 3.74187 4.20451 3.85625 4.38263C4.12188 4.79638 4.68313 4.89763 5.07625 4.60263L7.33 2.91263C7.68437 2.64701 7.77375 2.15201 7.53438 1.77888L7.52625 1.76576C7.37812 1.53451 7.12625 1.38951 6.85188 1.37701L5.03562 1.29638L4.92688 1.15138C4.51562 0.603256 3.93125 0.187631 3.25875 0.0545061C1.525 -0.288619 0 1.03513 0 2.70826C0 2.70826 0.0025 6.27701 0.00375 7.66013C0.00375 8.02013 0.026875 8.37576 0.07125 8.73326C0.134375 9.23888 0.219375 9.92076 0.219375 9.92076C0.37625 11.1739 0.98375 12.2751 1.86625 13.0689L1.58063 14.2251C1.4975 14.5601 1.70187 14.8989 2.03688 14.982C2.0875 14.9945 2.1375 15.0001 2.1875 15.0001C2.46813 15.0001 2.72312 14.8095 2.79375 14.5251L2.96688 13.8245C3.66 14.177 4.44188 14.3751 5.26438 14.3751H9.9C10.6644 14.3751 11.3938 14.2045 12.05 13.897L12.2056 14.5251C12.2756 14.8095 12.5312 15.0001 12.8119 15.0001C12.8619 15.0001 12.9119 14.9939 12.9625 14.982C13.2975 14.8989 13.5019 14.5601 13.4187 14.2251L13.1625 13.1876C14.1187 12.3864 14.7819 11.2376 14.9462 9.92138L14.985 9.60826C15.0512 9.07451 14.8862 8.53826 14.53 8.13513L14.5306 8.13451ZM13.745 9.45263L13.7063 9.76576C13.4669 11.6808 11.8306 13.1251 9.90063 13.1251H5.265C3.335 13.1251 1.69937 11.6808 1.46 9.76576L1.33312 8.75013H13.125C13.3069 8.75013 13.4738 8.82513 13.5938 8.96138C13.7137 9.09826 13.7675 9.27201 13.745 9.45263Z" fill="#1D1D1D"/>
</g>
<defs>
<clipPath id="clip0_641_199">
<rect width="15" height="15" fill="white"/>
</clipPath>
</defs>
</svg>
