<svg width="33" height="23" viewBox="0 0 33 23" fill="none" xmlns="http://www.w3.org/2000/svg">
<path d="M28.3594 6.70312H27.8438V2.57812C27.8421 1.155 26.6887 0.00167578 25.2656 0H7.73438C6.31125 0.00167578 5.15793 1.155 5.15625 2.57812V6.70312H4.64062C2.079 6.70622 0.00309375 8.78213 0 11.3438V18.5625H1.03125V22.1719H3.60938V18.5625H29.3906V22.1719H31.9688V18.5625H33V11.3438C32.9969 8.78213 30.921 6.70622 28.3594 6.70312ZM6.1875 2.57812C6.1875 1.7238 6.88005 1.03125 7.73438 1.03125H25.2656C26.12 1.03125 26.8125 1.7238 26.8125 2.57812V6.70312H25.2656V4.64062C25.2656 3.7863 24.5731 3.09375 23.7188 3.09375H19.0781C18.2238 3.09375 17.5312 3.7863 17.5312 4.64062V6.70312H15.4688V4.64062C15.4688 3.7863 14.7762 3.09375 13.9219 3.09375H9.28125C8.42692 3.09375 7.73438 3.7863 7.73438 4.64062V6.70312H6.1875V2.57812ZM24.2344 4.64062V6.70312H18.5625V4.64062C18.5625 4.35587 18.7934 4.125 19.0781 4.125H23.7188C24.0035 4.125 24.2344 4.35587 24.2344 4.64062ZM14.4375 4.64062V6.70312H8.76562V4.64062C8.76562 4.35587 8.9965 4.125 9.28125 4.125H13.9219C14.2066 4.125 14.4375 4.35587 14.4375 4.64062ZM2.57812 21.1406H2.0625V18.5625H2.57812V21.1406ZM30.9375 21.1406H30.4219V18.5625H30.9375V21.1406ZM31.9688 17.5312H1.03125V14.9531H31.9688V17.5312ZM31.9688 13.9219H1.03125V11.3438C1.03351 9.35131 2.64819 7.73663 4.64062 7.73438H28.3594C30.3518 7.73663 31.9665 9.35131 31.9688 11.3438V13.9219Z" fill="white"/>
</svg>
