<svg width="20" height="18" viewBox="0 0 20 18" fill="none" xmlns="http://www.w3.org/2000/svg">
<path d="M16.25 0.666626H3.75C1.6825 0.666626 0 2.34913 0 4.41663V16.9166C0 17.1466 0.186667 17.3333 0.416667 17.3333C0.646667 17.3333 0.833333 17.1466 0.833333 16.9166V14.8333H19.1667V16.9166C19.1667 17.1466 19.3533 17.3333 19.5833 17.3333C19.8133 17.3333 20 17.1466 20 16.9166V4.41663C20 2.34913 18.3175 0.666626 16.25 0.666626ZM3.75 1.49996H16.25C17.8583 1.49996 19.1667 2.80829 19.1667 4.41663V10.6666H17.5V9.41663C17.5 7.80829 16.1917 6.49996 14.5833 6.49996H12.5C11.44 6.49996 10.5108 7.06829 10 7.91579C9.48917 7.06829 8.56 6.49996 7.5 6.49996H5.41667C3.80833 6.49996 2.5 7.80829 2.5 9.41663V10.6666H0.833333V4.41663C0.833333 2.80829 2.14167 1.49996 3.75 1.49996ZM10.4167 10.6666V9.41663C10.4167 8.26829 11.3508 7.33329 12.5 7.33329H14.5833C15.7325 7.33329 16.6667 8.26829 16.6667 9.41663V10.6666H10.4167ZM3.33333 10.6666V9.41663C3.33333 8.26829 4.26833 7.33329 5.41667 7.33329H7.5C8.64833 7.33329 9.58333 8.26829 9.58333 9.41663V10.6666H3.33333ZM0.833333 14V11.5H19.1667V14H0.833333Z" fill="#1D1D1D"/>
</svg>
