<svg width="15" height="15" viewBox="0 0 15 15" fill="none" xmlns="http://www.w3.org/2000/svg">
<path d="M13.125 1.25H1.875C0.84125 1.25 0 2.09125 0 3.125V13.75H1.25V11.875H13.75V13.75H15V3.125C15 2.09125 14.1587 1.25 13.125 1.25ZM1.875 2.5H13.125C13.47 2.5 13.75 2.78063 13.75 3.125V8.125H12.5V7.5C12.5 6.46625 11.6587 5.625 10.625 5.625H8.75C8.27 5.625 7.83187 5.80625 7.5 6.10375C7.16813 5.80625 6.73 5.625 6.25 5.625H4.375C3.34125 5.625 2.5 6.46625 2.5 7.5V8.125H1.25V3.125C1.25 2.78063 1.53062 2.5 1.875 2.5ZM6.875 8.125H3.75V7.5C3.75 7.15563 4.03062 6.875 4.375 6.875H6.25C6.59438 6.875 6.875 7.15563 6.875 7.5V8.125ZM8.125 7.5C8.125 7.15563 8.405 6.875 8.75 6.875H10.625C10.97 6.875 11.25 7.15563 11.25 7.5V8.125H8.125V7.5ZM1.25 10.625V9.375H13.75V10.625H1.25Z" fill="#1D1D1D"/>
</svg>
