<svg width="35" height="35" viewBox="0 0 35 35" fill="none" xmlns="http://www.w3.org/2000/svg">
<g clip-path="url(#clip0_267_247)">
<path d="M7.29167 18.9583C5.84951 18.9583 4.43975 19.386 3.24064 20.1872C2.04153 20.9884 1.10694 22.1272 0.555048 23.4596C0.00315936 24.792 -0.14124 26.2581 0.140111 27.6725C0.421461 29.087 1.11593 30.3862 2.13568 31.406C3.15544 32.4257 4.45469 33.1202 5.86914 33.4016C7.28358 33.6829 8.74969 33.5385 10.0821 32.9866C11.4144 32.4347 12.5533 31.5001 13.3545 30.301C14.1557 29.1019 14.5833 27.6922 14.5833 26.25C14.581 24.3168 13.812 22.4635 12.4451 21.0966C11.0781 19.7296 9.22483 18.9606 7.29167 18.9583ZM7.29167 30.625C6.42638 30.625 5.58052 30.3684 4.86105 29.8877C4.14159 29.4069 3.58083 28.7237 3.2497 27.9242C2.91856 27.1248 2.83192 26.2451 3.00073 25.3965C3.16954 24.5478 3.58622 23.7683 4.19808 23.1564C4.80993 22.5446 5.58948 22.1279 6.43815 21.9591C7.28682 21.7903 8.16648 21.8769 8.96591 22.208C9.76534 22.5392 10.4486 23.0999 10.9293 23.8194C11.4101 24.5388 11.6667 25.3847 11.6667 26.25C11.6667 27.4103 11.2057 28.5231 10.3853 29.3436C9.56479 30.1641 8.45199 30.625 7.29167 30.625ZM27.7083 18.9583C26.2662 18.9583 24.8564 19.386 23.6573 20.1872C22.4582 20.9884 21.5236 22.1272 20.9717 23.4596C20.4198 24.792 20.2754 26.2581 20.5568 27.6725C20.8381 29.087 21.5326 30.3862 22.5523 31.406C23.5721 32.4257 24.8714 33.1202 26.2858 33.4016C27.7002 33.6829 29.1664 33.5385 30.4987 32.9866C31.8311 32.4347 32.9699 31.5001 33.7711 30.301C34.5724 29.1019 35 27.6922 35 26.25C34.9977 24.3168 34.2287 22.4635 32.8618 21.0966C31.4948 19.7296 29.6415 18.9606 27.7083 18.9583ZM27.7083 30.625C26.843 30.625 25.9972 30.3684 25.2777 29.8877C24.5583 29.4069 23.9975 28.7237 23.6664 27.9242C23.3352 27.1248 23.2486 26.2451 23.4174 25.3965C23.5862 24.5478 24.0029 23.7683 24.6147 23.1564C25.2266 22.5446 26.0061 22.1279 26.8548 21.9591C27.7035 21.7903 28.5832 21.8769 29.3826 22.208C30.182 22.5392 30.8653 23.0999 31.346 23.8194C31.8267 24.5388 32.0833 25.3847 32.0833 26.25C32.0833 27.4103 31.6224 28.5231 30.8019 29.3436C29.9815 30.1641 28.8687 30.625 27.7083 30.625ZM15.1142 16.4456C14.962 16.3159 14.8385 16.1559 14.7515 15.9758C14.6645 15.7957 14.616 15.5995 14.609 15.3996C14.602 15.1997 14.6367 15.0006 14.7109 14.8149C14.785 14.6292 14.8971 14.4609 15.0398 14.3208C15.2863 14.0875 18.9088 10.7625 18.9088 10.7625L23.7606 15.6144C24.0357 15.88 24.4041 16.027 24.7864 16.0237C25.1688 16.0204 25.5346 15.867 25.8049 15.5966C26.0753 15.3262 26.2287 14.9605 26.232 14.5781C26.2354 14.1957 26.0884 13.8273 25.8227 13.5523L19.9894 7.71896C19.9337 7.66189 19.8732 7.60969 19.8085 7.56292C18.2466 6.45717 16.3847 5.85382 14.471 5.83333C12.4265 5.83333 7.29167 7.56875 7.29167 11.6667C7.29167 12.827 7.75261 13.9398 8.57308 14.7603C9.39355 15.5807 10.5063 16.0417 11.6667 16.0417C11.7017 16.0417 11.7338 16.0344 11.7673 16.0329C11.9246 17.0516 12.4376 17.9816 13.2154 18.6579L16.0417 21.086V26.25C16.0417 26.6368 16.1953 27.0077 16.4688 27.2812C16.7423 27.5547 17.1132 27.7083 17.5 27.7083C17.8868 27.7083 18.2577 27.5547 18.5312 27.2812C18.8047 27.0077 18.9583 26.6368 18.9583 26.25V20.4167C18.9583 20.2064 18.9128 19.9986 18.825 19.8075C18.7371 19.6165 18.609 19.4467 18.4494 19.3098L15.1142 16.4456ZM10.2083 11.6667C10.2083 9.89625 13.3758 8.75 14.471 8.75C15.1356 8.75353 15.7952 8.86534 16.4238 9.08104C16.4238 9.08104 13.0463 12.1931 13.0069 12.231C12.4513 12.759 11.9948 13.125 11.6667 13.125C11.2799 13.125 10.909 12.9714 10.6355 12.6979C10.362 12.4244 10.2083 12.0534 10.2083 11.6667ZM20.4167 3.64583C20.4167 2.92476 20.6305 2.21987 21.0311 1.62032C21.4317 1.02076 22.0011 0.553469 22.6673 0.277524C23.3335 0.00157968 24.0665 -0.07062 24.7738 0.0700553C25.481 0.210731 26.1306 0.557963 26.6405 1.06784C27.1504 1.57772 27.4976 2.22735 27.6383 2.93457C27.779 3.64179 27.7068 4.37485 27.4308 5.04104C27.1549 5.70722 26.6876 6.27662 26.088 6.67723C25.4885 7.07784 24.7836 7.29167 24.0625 7.29167C23.0956 7.29167 22.1682 6.90755 21.4845 6.22383C20.8008 5.5401 20.4167 4.61277 20.4167 3.64583Z" fill="white"/>
</g>
<defs>
<clipPath id="clip0_267_247">
<rect width="35" height="35" fill="white"/>
</clipPath>
</defs>
</svg>
