<svg width="20" height="20" viewBox="0 0 20 20" fill="none" xmlns="http://www.w3.org/2000/svg">
<g clip-path="url(#clip0_267_74)">
<path d="M1.64224 5.83333H2.48474L2.4864 6.66667C2.4864 9.42417 4.7289 11.6667 7.4864 11.6667C10.2439 11.6667 12.4864 9.42417 12.4864 6.66583L12.4847 5.83333H13.3081C13.5381 5.83333 13.7247 5.64667 13.7247 5.41667C13.7247 5.18667 13.5381 5 13.3081 5H12.4831V4.575C12.4781 2.0525 10.4214 0 7.8989 0H7.06557C5.83974 0 4.68807 0.4775 3.82224 1.345C2.95557 2.2125 2.47974 3.365 2.48224 4.59167V5H1.64224C1.41224 5 1.22557 5.18667 1.22557 5.41667C1.22557 5.64667 1.41224 5.83333 1.64224 5.83333ZM11.6531 6.66667C11.6531 8.96417 9.7839 10.8333 7.4864 10.8333C5.1889 10.8333 3.31974 8.96417 3.31974 6.66583L3.31807 5.83333H11.6514L11.6531 6.66667ZM3.31557 4.59C3.3139 3.5875 3.70307 2.64333 4.41224 1.93333C4.81224 1.5325 5.2914 1.24667 5.8089 1.0625V3.33333C5.8089 3.56333 5.99557 3.75 6.22557 3.75C6.45557 3.75 6.64224 3.56333 6.64224 3.33333V0.875C6.78307 0.859167 6.92224 0.833333 7.06557 0.833333H7.8989C8.0389 0.833333 8.17224 0.86 8.3089 0.875V3.33333C8.3089 3.56333 8.49557 3.75 8.72557 3.75C8.95557 3.75 9.14224 3.56333 9.14224 3.33333V1.06167C10.5956 1.5775 11.6464 2.95083 11.6489 4.57667V5H3.3164L3.31557 4.59ZM10.2431 13.9283C9.37557 13.5333 8.44807 13.3333 7.4864 13.3333C3.9589 13.3333 1.03557 16.0892 0.831404 19.6075C0.818904 19.8292 0.634737 20 0.415571 20C0.407237 20 0.398904 20 0.391404 20C0.161404 19.9867 -0.0135959 19.79 -0.00026257 19.56C0.228904 15.6017 3.51807 12.5008 7.4864 12.5008C8.56807 12.5008 9.6114 12.7267 10.5881 13.1708C10.7972 13.2658 10.8897 13.5133 10.7947 13.7225C10.6997 13.9325 10.4531 14.0225 10.2431 13.9283ZM18.7489 11.6667H15.4156C14.7264 11.6667 14.1656 12.2275 14.1656 12.9167V14.1667H12.9156C12.2264 14.1667 11.6656 14.7275 11.6656 15.4167V16.6667H10.4156C9.7264 16.6667 9.16557 17.2275 9.16557 17.9167V18.75C9.16557 19.4392 9.7264 20 10.4156 20H18.7489C19.4381 20 19.9989 19.4392 19.9989 18.75V12.9167C19.9989 12.2275 19.4381 11.6667 18.7489 11.6667ZM19.1656 15V16.6667H17.4989V15H19.1656ZM14.9989 12.9167C14.9989 12.6875 15.1864 12.5 15.4156 12.5H18.7489C18.9781 12.5 19.1656 12.6875 19.1656 12.9167V14.1667H14.9989V12.9167ZM12.4989 15.4167C12.4989 15.1875 12.6864 15 12.9156 15H16.6656V16.6667H12.4989V15.4167ZM9.9989 18.75V17.9167C9.9989 17.6875 10.1856 17.5 10.4156 17.5H14.1656V19.1667H10.4156C10.1856 19.1667 9.9989 18.9792 9.9989 18.75ZM19.1656 18.75C19.1656 18.9792 18.9781 19.1667 18.7489 19.1667H14.9989V17.5H19.1656V18.75Z" fill="black"/>
</g>
<defs>
<clipPath id="clip0_267_74">
<rect width="20" height="20" fill="white"/>
</clipPath>
</defs>
</svg>
