<svg width="50" height="50" viewBox="0 0 50 50" fill="none" xmlns="http://www.w3.org/2000/svg">
<g clip-path="url(#clip0_740_484)">
<path d="M44.9855 36.3074L37.5009 21.6063C37.5012 21.5946 37.5021 21.5828 37.5019 21.571L37.269 12.0103C37.259 11.6048 36.9235 11.2818 36.5169 11.294C36.1115 11.3039 35.7908 11.6407 35.8007 12.046L35.9599 18.5793L33.1707 13.1008C33.1707 13.1005 33.1708 13.1002 33.1708 13.0999L33.3224 6.98474H35.6774L35.7244 8.91655C35.7342 9.31593 36.0609 9.63297 36.4582 9.63297C36.4643 9.63297 36.4704 9.63297 36.4765 9.63277C36.8819 9.62288 37.2026 9.28626 37.1927 8.88081L37.1418 6.79166C37.1244 6.07641 36.5504 5.51606 35.8349 5.51606H33.1648C32.4492 5.51606 31.8752 6.07651 31.858 6.79127L31.7696 10.3493L27.1815 1.33728C26.7616 0.512373 25.9257 0 25.0001 0C24.0745 0 23.2387 0.512373 22.8188 1.33718L5.01481 36.3075C4.83602 36.6586 4.80469 37.0583 4.92669 37.433C5.04849 37.8078 5.30904 38.1126 5.66015 38.2913L7.17495 39.0626V43.0884C7.17495 43.8888 7.82606 44.5399 8.62639 44.5399H9.59562V48.9946C9.59562 49.549 10.0466 50 10.601 50H13.4962C14.0505 50 14.5016 49.549 14.5016 48.9946V47.9671L18.6953 45.018V48.9947C18.6953 49.5491 19.1462 50.0001 19.7006 50.0001H22.2555C22.8098 50.0001 23.2609 49.5491 23.2609 48.9947V44.54H26.7394V48.9947C26.7394 49.5491 27.1904 50.0001 27.7448 50.0001H30.2998C30.8541 50.0001 31.3052 49.5491 31.3052 48.9947V45.0179L35.4988 47.967V48.9945C35.4988 49.5489 35.9498 49.9999 36.5042 49.9999H39.3994C39.9537 49.9999 40.4048 49.5489 40.4048 48.9945V44.5398H41.2761C42.0764 44.5398 42.7276 43.8887 42.7276 43.0883V39.1123L44.3401 38.2912C44.6914 38.1125 44.9519 37.8077 45.0737 37.4329C45.1955 37.0583 45.1643 36.6586 44.9855 36.3074ZM13.0329 48.5313H11.0644V44.5399H13.0329V48.5313ZM14.5016 44.5399H16.8218L14.5016 46.1715V44.5399ZM21.7922 48.5313H20.1639V44.5399H21.7922V48.5313ZM29.8364 48.5313H28.2081V44.5399H29.8364V48.5313ZM33.1785 44.5399H35.4987V46.1715L33.1785 44.5399ZM38.9359 48.5313H36.9674V44.5399H38.9359V48.5313ZM8.64362 43.0713V39.2148C8.96115 39.0794 9.21905 38.8398 9.37747 38.5285L9.38159 38.5205H15.1595V39.8528C15.1595 40.4589 15.6526 40.952 16.2586 40.952H22.8C23.406 40.952 23.8992 40.4589 23.8992 39.8528V38.5205H26.0035V39.8529C26.0035 40.4589 26.4966 40.952 27.1027 40.952H33.6441C34.25 40.952 34.7432 40.4589 34.7432 39.8529V38.5205H40.619L40.623 38.5284C40.7648 38.807 40.9867 39.0271 41.259 39.1676V43.0713H8.64362ZM22.4303 30.7066V39.4833H20.2635V30.7066H22.4303ZM18.7948 39.4833H16.628V30.7066H18.7948V39.4833ZM27.472 39.4833V30.7066H29.6388V39.4833H27.472ZM41.9316 37.8622L26.3148 7.18791C26.0616 6.69081 25.5579 6.3821 25.0001 6.3821C24.4423 6.3821 23.9386 6.69081 23.6854 7.18791L15.6098 23.05C15.4258 23.4114 15.5696 23.8536 15.931 24.0376C16.2922 24.2216 16.7345 24.0778 16.9186 23.7163L24.9939 7.85156C24.9965 7.85038 25.0035 7.85029 25.006 7.8542L39.8711 37.0518H34.7429V35.7482C34.7429 35.3427 34.4142 35.0139 34.0086 35.0139C33.6029 35.0139 33.2743 35.3427 33.2743 35.7482V39.4833H31.1075V30.7066H33.2743V32.6188C33.2743 33.0243 33.6029 33.3531 34.0086 33.3531C34.4142 33.3531 34.7429 33.0243 34.7429 32.6188V30.337C34.7429 29.731 34.2498 29.2379 33.6438 29.2379H27.1024C26.4964 29.2379 26.0032 29.731 26.0032 30.337V37.0518H23.8989V30.337C23.8989 29.731 23.4058 29.2379 22.7997 29.2379H16.2583C15.6524 29.2379 15.1592 29.731 15.1592 30.337V37.0518H10.129L15.4965 26.5092C15.6805 26.1478 15.5366 25.7056 15.1752 25.5216C14.8141 25.3377 14.3718 25.4814 14.1877 25.8429L8.05997 37.8651L6.3237 36.9738L24.1276 2.00347C24.2956 1.67361 24.6299 1.46868 25.0001 1.46868C25.3703 1.46868 25.7046 1.67361 25.8726 2.00357L43.6737 36.9825L41.9316 37.8622Z" fill="#1D1D1D"/>
<path d="M24.9512 24.4068C27.1715 24.4068 28.9777 22.6006 28.9777 20.3804C28.9777 18.1601 27.1715 16.3539 24.9512 16.3539C22.731 16.3539 20.9248 18.1602 20.9248 20.3804C20.9248 22.6005 22.7311 24.4068 24.9512 24.4068ZM24.9512 17.8227C26.3616 17.8227 27.509 18.9701 27.509 20.3805C27.509 21.7908 26.3616 22.9382 24.9512 22.9382C23.5409 22.9382 22.3935 21.7908 22.3935 20.3805C22.3935 18.9701 23.5409 17.8227 24.9512 17.8227Z" fill="#1D1D1D"/>
</g>
<defs>
<clipPath id="clip0_740_484">
<rect width="50" height="50" fill="white"/>
</clipPath>
</defs>
</svg>
