<svg width="50" height="50" viewBox="0 0 50 50" fill="none" xmlns="http://www.w3.org/2000/svg">
<g clip-path="url(#clip0_407_102)">
<path d="M50 16.5929C49.6875 15.4988 48.9062 14.9258 47.8645 14.509C36.1718 9.79422 24.4921 5.05341 12.8125 0.312589C11.9791 -0.0260404 11.1588 -0.169307 10.3255 0.273517C9.71349 0.599122 9.34891 1.10707 9.08849 1.73223C7.29162 6.21256 5.48173 10.6799 3.67183 15.1602C3.25517 16.1761 3.35933 17.0878 4.04943 17.9474C4.14058 18.0516 4.16662 18.273 4.12756 18.4032C3.97131 18.8591 3.776 19.3149 3.5937 19.7708C2.91662 21.5681 3.67183 23.3915 5.44266 24.1209C8.07287 25.2019 10.7161 26.2568 13.3463 27.3248C13.9322 27.5593 14.5182 27.8067 15.013 28.0021C15.013 28.7314 14.9869 29.4087 15.026 30.086C15.0781 31.1019 15.4427 32.0136 15.9505 32.8862C16.0546 33.0555 16.0807 33.355 16.0026 33.5374C15.5989 34.4751 15.1562 35.3998 14.7005 36.3246C14.6223 36.4809 14.401 36.6502 14.2578 36.6502C12.0833 36.6762 9.89579 36.6632 7.72131 36.6632C7.66922 36.6632 7.63016 36.6372 7.52599 36.6111C7.52599 35.8817 7.53902 35.1394 7.52599 34.384C7.52599 33.863 7.53902 33.342 7.46089 32.8211C7.21349 31.193 5.92443 30.0469 4.27079 29.9948C3.41141 29.9688 2.53902 29.9688 1.67964 29.9948C0.690056 30.0208 0.0129738 30.7242 0.0129738 31.727C0.0129738 37.2493 0.0129738 42.7585 0.0129738 48.2808C0.0129738 49.1665 0.533806 49.6614 1.28902 50C2.43485 50 3.56767 50 4.7135 50C4.99995 49.8958 5.31245 49.8307 5.58589 49.6874C6.86193 49.0623 7.49995 48.0203 7.53902 46.6137C7.56506 45.5457 7.53902 44.4777 7.53902 43.3446C7.76037 43.3446 7.92964 43.3446 8.09892 43.3446C10.3255 43.3446 12.552 43.3446 14.7916 43.3446C17.4609 43.3316 19.388 42.1334 20.5208 39.6978C21.0807 38.4866 21.6406 37.2753 22.2265 36.0771C22.3177 35.8817 22.5651 35.6864 22.7734 35.6343C24.4401 35.1784 25.7291 34.2277 26.6536 32.7429C26.7838 32.782 26.927 32.8211 27.0442 32.8731C28.9322 33.6286 30.8073 34.397 32.6953 35.1524C34.8437 36.025 36.5885 35.2957 37.4739 33.1336C37.526 33.0034 37.5911 32.8731 37.6692 32.6908C38.164 32.8862 38.6458 33.0685 39.1145 33.2899C39.2187 33.342 39.3099 33.4983 39.3229 33.6155C39.4661 34.7747 40.1041 35.504 41.1849 35.9078C41.6276 36.0771 42.0573 36.2725 42.5 36.4157C43.7239 36.8325 45.0781 36.3246 45.5729 35.1263C46.6796 32.4954 47.7474 29.8385 48.789 27.1685C49.2448 25.9964 48.6588 24.72 47.526 24.173C46.9401 23.8995 46.3411 23.639 45.7161 23.4306C44.8698 23.1441 44.0625 23.2743 43.3724 23.8474C43.0989 24.0688 42.8906 24.0948 42.5911 23.9516C42.2135 23.7692 41.8229 23.626 41.3932 23.4436C41.6406 22.8445 41.8489 22.2714 42.1093 21.7114C42.1744 21.5811 42.3698 21.49 42.526 21.4379C44.2578 20.8257 45.9765 20.1745 47.7213 19.6145C48.8411 19.2628 49.6614 18.6767 50.026 17.5436C50 17.2441 50 16.9185 50 16.5929ZM5.07808 16.1891C5.13016 16.0589 5.18224 15.8765 5.26037 15.6942C7.01818 11.3311 8.78902 6.95494 10.5468 2.59183C10.9505 1.58896 11.2239 1.48477 12.2135 1.8755C20.625 5.28784 29.0494 8.70019 37.4609 12.0995C40.8333 13.4671 44.2057 14.8346 47.5781 16.1891C47.9817 16.3454 48.3203 16.5538 48.3203 17.0357C48.3203 17.5436 47.9687 17.752 47.539 17.9083C40.6119 20.3308 33.6849 22.7664 26.7447 25.1758C26.4192 25.2931 25.9635 25.267 25.625 25.1368C20.8593 23.2352 16.1067 21.2946 11.3411 19.367C9.47912 18.6116 7.60412 17.8562 5.74214 17.1008C5.36454 16.9445 5.0911 16.7101 5.07808 16.1891ZM40 22.3235C39.9088 22.571 39.8698 22.7143 39.8177 22.8445C38.5026 26.0875 37.2005 29.3175 35.8854 32.5606C35.3906 33.7848 34.5833 34.1235 33.3593 33.6155C26.4583 30.8283 19.5703 28.0412 12.6692 25.254C10.5078 24.3814 8.33329 23.5087 6.17183 22.6231C5.37756 22.2975 4.88277 21.6463 5.026 20.943C5.16923 20.2397 5.48172 19.5754 5.7161 18.8851C6.01558 19.0024 6.21089 19.0675 6.4062 19.1586C12.6432 21.6853 18.8671 24.199 25.1041 26.7257C25.8333 27.0253 26.5364 27.0513 27.2786 26.7778C29.8046 25.8791 32.3307 24.9935 34.8567 24.1078C36.5364 23.5348 38.2161 22.9487 40 22.3235ZM1.69266 48.3199C1.69266 42.7455 1.69266 37.2232 1.69266 31.6489C2.44787 31.6489 3.17704 31.6489 3.89318 31.6489C5.18224 31.6489 5.83329 32.3131 5.83329 33.6025C5.83329 36.2855 5.83329 38.9685 5.83329 41.6515C5.83329 43.2795 5.84631 44.9075 5.83329 46.5356C5.83329 47.5384 5.19527 48.2808 4.27079 48.3199C3.42443 48.359 2.57808 48.3199 1.69266 48.3199ZM17.3437 34.6184C18.3984 35.0612 19.401 35.465 20.4296 35.8948C19.9739 36.8716 19.4661 37.9396 18.9713 39.0206C18.151 40.8049 16.7578 41.6775 14.8046 41.6775C12.5651 41.6775 10.3125 41.6775 8.07287 41.6775C7.9036 41.6775 7.72131 41.6775 7.55204 41.6775C7.55204 40.5314 7.55204 39.4504 7.55204 38.3433C7.78641 38.3433 7.98172 38.3433 8.17704 38.3433C10.3776 38.3433 12.5651 38.3303 14.7656 38.3563C15.3906 38.3563 15.7552 38.1349 16.0026 37.5619C16.4192 36.5199 16.914 35.5301 17.3437 34.6184ZM45 24.9805C45.4687 25.1628 46.0416 25.3842 46.6015 25.6187C47.1744 25.8531 47.3437 26.2568 47.1093 26.8429C46.1067 29.3306 45.1041 31.8182 44.0885 34.2928C43.8541 34.8659 43.4505 35.0221 42.8645 34.8007C42.4218 34.6314 41.9921 34.4621 41.5494 34.2798C40.9895 34.0323 40.8203 33.6416 41.0416 33.0555C41.1849 32.6778 41.3411 32.3001 41.4974 31.9224C42.3437 29.8385 43.1901 27.7677 44.0234 25.6838C44.1927 25.28 44.414 25.0065 45 24.9805ZM25.013 32.0396C24.1536 33.7327 21.6536 34.5663 19.6744 33.85C17.5651 33.0815 16.263 30.8023 16.7578 28.7054C19.5052 29.8125 22.2656 30.9325 25.013 32.0396ZM38.2552 31.1409C39.1015 29.0701 39.9088 27.0643 40.7421 25.0195C41.276 25.241 41.7448 25.4363 42.2526 25.6447C41.4192 27.7025 40.6119 29.7083 39.7786 31.7531C39.2448 31.5447 38.776 31.3493 38.2552 31.1409Z" fill="#1D1D1D"/>
</g>
<defs>
<clipPath id="clip0_407_102">
<rect width="50" height="50" fill="white" transform="matrix(-1 0 0 1 50 0)"/>
</clipPath>
</defs>
</svg>
