<svg width="35" height="35" viewBox="0 0 35 35" fill="none" xmlns="http://www.w3.org/2000/svg">
<g clip-path="url(#clip0_267_238)">
<path d="M35 27.7084C35.0033 24.6279 34.3935 21.5777 33.2063 18.7352L32.7381 17.6123C32.1863 16.282 31.2521 15.1454 30.0537 14.3465C28.8553 13.5477 27.4467 13.1225 26.0065 13.125H20.6602C19.22 13.1225 17.8114 13.5477 16.613 14.3465C15.4146 15.1454 14.4803 16.282 13.9285 17.6123L13.4619 18.7338C12.1494 22.5867 9.52437 29.7821 14.5833 31.8325V32.0834C14.5833 32.8569 14.8906 33.5988 15.4376 34.1458C15.9846 34.6927 16.7265 35 17.5 35C18.2735 35 19.0154 34.6927 19.5624 34.1458C20.1094 33.5988 20.4167 32.8569 20.4167 32.0834H26.25C26.25 32.8569 26.5573 33.5988 27.1043 34.1458C27.6513 34.6927 28.3931 35 29.1667 35C29.9402 35 30.6821 34.6927 31.2291 34.1458C31.776 33.5988 32.0833 32.8569 32.0833 32.0834V31.8325C32.9362 31.531 33.6747 30.9725 34.197 30.2339C34.7193 29.4953 34.9999 28.613 35 27.7084ZM16.625 18.7338C16.9561 17.9364 17.5161 17.255 18.2344 16.7758C18.9526 16.2966 19.7968 16.0412 20.6602 16.0417H26.0065C26.8706 16.0403 27.7158 16.2954 28.4349 16.7746C29.154 17.2538 29.7147 17.9357 30.046 18.7338L30.5127 19.8567C30.5915 20.0419 30.6585 20.2286 30.7373 20.4167H15.9308C16.0023 20.2286 16.0767 20.0419 16.154 19.8552L16.625 18.7338ZM30.625 29.1667H16.0417C13.4794 28.9188 14.9188 24.9827 15.0558 23.3334H17.5V24.7917C17.5 25.1785 17.6536 25.5494 17.9271 25.8229C18.2006 26.0964 18.5716 26.25 18.9583 26.25C19.3451 26.25 19.716 26.0964 19.9895 25.8229C20.263 25.5494 20.4167 25.1785 20.4167 24.7917V23.3334H26.25V24.7917C26.25 25.1785 26.4036 25.5494 26.6771 25.8229C26.9506 26.0964 27.3216 26.25 27.7083 26.25C28.0951 26.25 28.466 26.0964 28.7395 25.8229C29.013 25.5494 29.1667 25.1785 29.1667 24.7917V23.3334H31.6108C31.7465 24.9798 33.1873 28.9202 30.625 29.1667ZM9.47917 16.0417H5.83333V9.13648C5.83333 9.00669 5.83333 8.87836 5.84646 8.75003H13.125V10.2084C13.125 10.5951 13.2786 10.9661 13.5521 11.2396C13.8256 11.513 14.1966 11.6667 14.5833 11.6667C14.9701 11.6667 15.341 11.513 15.6145 11.2396C15.888 10.9661 16.0417 10.5951 16.0417 10.2084V8.75003H23.3202C23.3275 8.87836 23.3333 9.00669 23.3333 9.13648V10.2084C23.3333 10.5951 23.487 10.9661 23.7605 11.2396C24.034 11.513 24.4049 11.6667 24.7917 11.6667C25.1784 11.6667 25.5494 11.513 25.8229 11.2396C26.0964 10.9661 26.25 10.5951 26.25 10.2084V9.13648C26.2635 7.23655 25.6526 5.38478 24.5112 3.86584C23.3698 2.3469 21.7612 1.24488 19.9325 0.729192C16.4323 -0.240623 12.7343 -0.240623 9.23417 0.729192C7.40551 1.24488 5.79684 2.3469 4.65546 3.86584C3.51409 5.38478 2.90318 7.23655 2.91667 9.13648V13.125C2.14312 13.125 1.40125 13.4323 0.854272 13.9793C0.307291 14.5263 0 15.2681 0 16.0417C0 16.8152 0.307291 17.5571 0.854272 18.1041C1.40125 18.6511 2.14312 18.9584 2.91667 18.9584V23.3334C2.91777 24.2379 3.19867 25.12 3.72085 25.8586C4.24304 26.5973 4.98093 27.1563 5.83333 27.459V29.1667C5.83333 29.5535 5.98698 29.9244 6.26047 30.1979C6.53396 30.4714 6.90489 30.625 7.29167 30.625C7.67844 30.625 8.04937 30.4714 8.32286 30.1979C8.59635 29.9244 8.75 29.5535 8.75 29.1667V26.25C8.75 25.8633 8.59635 25.4923 8.32286 25.2188C8.04937 24.9453 7.67844 24.7917 7.29167 24.7917C6.90489 24.7917 6.53396 24.638 6.26047 24.3646C5.98698 24.0911 5.83333 23.7201 5.83333 23.3334V18.9584H9.47917C9.86594 18.9584 10.2369 18.8047 10.5104 18.5312C10.7839 18.2577 10.9375 17.8868 10.9375 17.5C10.9375 17.1133 10.7839 16.7423 10.5104 16.4688C10.2369 16.1953 9.86594 16.0417 9.47917 16.0417ZM9.99688 3.54669C12.9974 2.71109 16.1692 2.71109 19.1698 3.54669C20.4645 3.90356 21.5871 4.71546 22.3315 5.83336H6.83521C7.57955 4.71546 8.70213 3.90356 9.99688 3.54669Z" fill="white"/>
</g>
<defs>
<clipPath id="clip0_267_238">
<rect width="35" height="35" fill="white"/>
</clipPath>
</defs>
</svg>
