<svg width="45" height="45" viewBox="0 0 45 45" fill="none" xmlns="http://www.w3.org/2000/svg">
<g clip-path="url(#clip0_740_583)">
<path d="M44.3406 43.6815H38.7666V38.5312C38.7666 38.167 38.4716 37.872 38.1075 37.872C37.7433 37.872 37.4483 38.167 37.4483 38.5312V43.6815H19.931V30.4933C19.931 30.3893 20.0156 30.3047 20.1197 30.3047H37.2594C37.3636 30.3047 37.4481 30.3894 37.4481 30.4933V35.4548C37.4481 35.819 37.7432 36.114 38.1073 36.114C38.4714 36.114 38.7665 35.819 38.7665 35.4548V30.4933C38.7665 29.6622 38.0903 28.9863 37.2593 28.9863H29.3487V22.4115C29.3487 21.9269 29.1367 21.4693 28.7673 21.1562L24.5275 17.562V14C24.5275 13.0064 23.7192 12.1981 22.7257 12.1981H22.5495V9.20951C22.5495 8.43414 21.9187 7.80335 21.1434 7.80335H19.931V5.7004C19.931 4.9202 19.2964 4.28545 18.5161 4.28545H18.3748V0.659178C18.3748 0.295048 18.0797 0 17.7156 0C17.3516 0 17.0565 0.295048 17.0565 0.659178V4.28545H16.7834C16.076 4.28545 15.5003 4.86105 15.5003 5.56856V7.80335H14.1561C13.4535 7.80335 12.8818 8.37499 12.8818 9.07768V12.1981H12.5738C11.6529 12.1981 10.9038 12.9472 10.9038 13.8681V22.5783H5.98156C5.2061 22.5783 4.57523 23.2091 4.57523 23.9846V43.6816H0.659178C0.295136 43.6816 0 43.9766 0 44.3407C0 44.7049 0.295136 44.9999 0.659178 44.9999C2.41277 44.9999 42.4148 44.9999 44.3406 44.9999C44.7048 44.9999 44.9998 44.7049 44.9998 44.3407C44.9998 43.9766 44.7048 43.6815 44.3406 43.6815ZM24.5274 19.2904L27.9148 22.1619C27.9882 22.2242 28.0303 22.3151 28.0303 22.4115V28.9862H24.5274V19.2904ZM10.9037 43.6815H5.89367C5.89367 22.9217 5.85078 23.8965 5.98156 23.8965H10.9037V43.6815ZM16.8187 5.6039C18.5967 5.6039 18.6126 5.56988 18.6126 5.7004V7.80327H16.8187V5.6039ZM14.2001 9.12171C21.5691 9.12171 21.2311 9.08409 21.2311 9.20943V12.1981H14.2001V9.12171ZM18.6126 30.4933V43.6815H12.2221C12.2221 42.725 12.2221 14.26 12.2221 13.8681C12.2221 13.6742 12.3798 13.5165 12.5737 13.5165C13.9132 13.5165 20.6743 13.5165 21.8903 13.5165H22.7257C22.9921 13.5165 23.2091 13.7334 23.2091 13.9999V17.8673V28.9862H20.1198C19.2889 28.9862 18.6126 29.6622 18.6126 30.4933Z" fill="#1D1D1D"/>
<path d="M21.0268 15.7139H14.3467C13.9826 15.7139 13.6875 16.009 13.6875 16.3731C13.6875 16.7372 13.9826 17.0323 14.3467 17.0323H21.0268C21.3908 17.0323 21.686 16.7372 21.686 16.3731C21.686 16.009 21.3908 15.7139 21.0268 15.7139Z" fill="#1D1D1D"/>
<path d="M21.0268 19.146H14.3467C13.9826 19.146 13.6875 19.441 13.6875 19.8051C13.6875 20.1693 13.9826 20.4643 14.3467 20.4643H21.0268C21.3908 20.4643 21.686 20.1693 21.686 19.8051C21.686 19.441 21.3908 19.146 21.0268 19.146Z" fill="#1D1D1D"/>
<path d="M21.0268 22.5782H14.3467C13.9826 22.5782 13.6875 22.8732 13.6875 23.2373C13.6875 23.6015 13.9826 23.8965 14.3467 23.8965H21.0268C21.3908 23.8965 21.686 23.6015 21.686 23.2373C21.686 22.8732 21.3908 22.5782 21.0268 22.5782Z" fill="#1D1D1D"/>
<path d="M9.18253 26.0103H7.37305C7.009 26.0103 6.71387 26.3053 6.71387 26.6695C6.71387 27.0336 7.009 27.3287 7.37305 27.3287H9.18253C9.54658 27.3287 9.84171 27.0336 9.84171 26.6695C9.84171 26.3053 9.54658 26.0103 9.18253 26.0103Z" fill="#1D1D1D"/>
<path d="M9.18253 29.4423H7.37305C7.009 29.4423 6.71387 29.7374 6.71387 30.1015C6.71387 30.4656 7.009 30.7607 7.37305 30.7607H9.18253C9.54658 30.7607 9.84171 30.4656 9.84171 30.1015C9.84171 29.7374 9.54658 29.4423 9.18253 29.4423Z" fill="#1D1D1D"/>
<path d="M9.43856 32.8745H7.37305C7.009 32.8745 6.71387 33.1696 6.71387 33.5337C6.71387 33.8979 7.009 34.1929 7.37305 34.1929H9.43856C9.8026 34.1929 10.0977 33.8979 10.0977 33.5337C10.0977 33.1696 9.8026 32.8745 9.43856 32.8745Z" fill="#1D1D1D"/>
<path d="M9.43856 36.3067H7.37305C7.009 36.3067 6.71387 36.6017 6.71387 36.9658C6.71387 37.33 7.009 37.625 7.37305 37.625H9.43856C9.8026 37.625 10.0977 37.33 10.0977 36.9658C10.0977 36.6017 9.8026 36.3067 9.43856 36.3067Z" fill="#1D1D1D"/>
<path d="M9.43856 39.7388H7.37305C7.009 39.7388 6.71387 40.0338 6.71387 40.398C6.71387 40.7621 7.009 41.0571 7.37305 41.0571H9.43856C9.8026 41.0571 10.0977 40.7621 10.0977 40.398C10.0977 40.0339 9.8026 39.7388 9.43856 39.7388Z" fill="#1D1D1D"/>
<path d="M21.0268 26.0103H14.3467C13.9826 26.0103 13.6875 26.3053 13.6875 26.6695C13.6875 27.0336 13.9826 27.3287 14.3467 27.3287H21.0268C21.3908 27.3287 21.686 27.0336 21.686 26.6695C21.686 26.3053 21.3908 26.0103 21.0268 26.0103Z" fill="#1D1D1D"/>
<path d="M16.1562 29.4423H14.3467C13.9826 29.4423 13.6875 29.7374 13.6875 30.1015C13.6875 30.4656 13.9826 30.7607 14.3467 30.7607H16.1561C16.5201 30.7607 16.8153 30.4656 16.8153 30.1015C16.8153 29.7374 16.5202 29.4423 16.1562 29.4423Z" fill="#1D1D1D"/>
<path d="M16.4123 32.8745H14.3467C13.9826 32.8745 13.6875 33.1696 13.6875 33.5337C13.6875 33.8979 13.9826 34.1929 14.3467 34.1929H16.4122C16.7762 34.1929 17.0714 33.8979 17.0714 33.5337C17.0714 33.1696 16.7763 32.8745 16.4123 32.8745Z" fill="#1D1D1D"/>
<path d="M16.4123 36.3067H14.3467C13.9826 36.3067 13.6875 36.6017 13.6875 36.9658C13.6875 37.33 13.9826 37.625 14.3467 37.625H16.4122C16.7762 37.625 17.0714 37.33 17.0714 36.9658C17.0714 36.6017 16.7763 36.3067 16.4123 36.3067Z" fill="#1D1D1D"/>
<path d="M16.4123 39.7388H14.3467C13.9826 39.7388 13.6875 40.0338 13.6875 40.398C13.6875 40.7621 13.9826 41.0571 14.3467 41.0571H16.4122C16.7762 41.0571 17.0714 40.7621 17.0714 40.398C17.0715 40.0339 16.7763 39.7388 16.4123 39.7388Z" fill="#1D1D1D"/>
<path d="M34.6912 32.8745H22.6875C22.3234 32.8745 22.0283 33.1696 22.0283 33.5337C22.0283 33.8979 22.3234 34.1929 22.6875 34.1929H34.6912C35.0554 34.1929 35.3504 33.8979 35.3504 33.5337C35.3504 33.1696 35.0554 32.8745 34.6912 32.8745Z" fill="#1D1D1D"/>
<path d="M34.6912 36.3067H22.6875C22.3234 36.3067 22.0283 36.6017 22.0283 36.9658C22.0283 37.33 22.3234 37.625 22.6875 37.625H34.6912C35.0554 37.625 35.3504 37.33 35.3504 36.9658C35.3504 36.6017 35.0554 36.3067 34.6912 36.3067Z" fill="#1D1D1D"/>
<path d="M34.6912 39.7388H22.6875C22.3234 39.7388 22.0283 40.0338 22.0283 40.398C22.0283 40.7621 22.3234 41.0571 22.6875 41.0571H34.6912C35.0554 41.0571 35.3504 40.7621 35.3504 40.398C35.3505 40.0339 35.0554 39.7388 34.6912 39.7388Z" fill="#1D1D1D"/>
<path d="M33.5985 2.14278C30.5911 2.14278 28.1445 4.58947 28.1445 7.59682C28.1444 9.93611 29.633 12.0119 31.8488 12.7623C32.1936 12.8792 32.5677 12.6943 32.6846 12.3494C32.8014 12.0046 32.6166 11.6304 32.2717 11.5136C30.5918 10.9447 29.463 9.37071 29.463 7.59673C29.463 5.31633 31.3181 3.46113 33.5985 3.46113C35.8789 3.46113 37.7341 5.31624 37.7341 7.59673C37.7341 9.37054 36.6053 10.9446 34.9253 11.5136C34.5804 11.6303 34.3956 12.0045 34.5124 12.3494C34.6054 12.6242 34.8618 12.7974 35.1367 12.7974C35.2068 12.7974 35.2781 12.7861 35.3481 12.7624C37.5639 12.0121 39.0525 9.93629 39.0525 7.59682C39.0524 4.58947 36.6058 2.14278 33.5985 2.14278Z" fill="#1D1D1D"/>
</g>
<defs>
<clipPath id="clip0_740_583">
<rect width="45" height="45" fill="white"/>
</clipPath>
</defs>
</svg>
