<svg width="17" height="15" viewBox="0 0 17 15" fill="none" xmlns="http://www.w3.org/2000/svg">
<path d="M15.4168 1.6642C15.3772 1.55157 15.2837 1.46657 15.1668 1.43753C15.0407 1.40707 12.0473 0.68457 8.50065 0.68457C5.01778 0.68457 1.96415 1.40636 1.83594 1.43753C1.71836 1.46586 1.62344 1.55228 1.58378 1.66632C1.54836 1.76974 0.708984 4.2404 0.708984 7.50015C0.708984 10.7599 1.54836 13.2299 1.58378 13.334C1.62344 13.4487 1.71907 13.5352 1.83736 13.5635C1.86923 13.5713 5.08082 14.3157 8.49994 14.3157C12.0388 14.3157 15.0393 13.5932 15.1654 13.5628C15.2822 13.5337 15.3772 13.4487 15.4161 13.3347C15.4515 13.232 16.2909 10.7804 16.2909 7.50015C16.2909 4.19224 15.4508 1.7662 15.4154 1.6642H15.4168ZM8.50065 1.3929C11.4601 1.3929 14.0922 1.92415 14.8069 2.08282C14.8735 2.29886 14.989 2.69836 15.1101 3.24095C14.8374 3.53845 13.6821 4.76528 11.9779 6.08349C10.5945 7.15307 9.01348 8.07674 8.50065 8.36928C7.98711 8.07745 6.40611 7.15378 5.02344 6.08349C3.32628 4.77095 2.17311 3.54907 1.89403 3.24449C2.01444 2.70261 2.12848 2.30099 2.19436 2.08282C2.92111 1.92557 5.59153 1.3929 8.49994 1.3929H8.50065ZM14.8062 12.9182C14.088 13.0762 11.453 13.6074 8.50065 13.6074C5.64182 13.6074 2.93032 13.0733 2.19436 12.9161C2.00311 12.2885 1.41732 10.1437 1.41732 7.50015C1.41732 6.20745 1.55828 5.03232 1.72403 4.0959C2.25244 4.6399 3.24836 5.60607 4.58994 6.64307C6.30482 7.96978 8.24848 9.04007 8.33065 9.08469C8.38378 9.11374 8.44186 9.12861 8.50065 9.12861C8.55944 9.12861 8.61823 9.11374 8.67065 9.08469C8.75282 9.04007 10.6958 7.96978 12.4107 6.64307C13.7551 5.60324 14.7524 4.63565 15.2801 4.09236C15.4444 5.0224 15.5833 6.19399 15.5833 7.50015C15.5833 10.1564 14.9961 12.2949 14.8055 12.9182H14.8062Z" fill="white"/>
</svg>
