<svg width="33" height="27" viewBox="0 0 33 27" fill="none" xmlns="http://www.w3.org/2000/svg">
<path d="M32.431 9.93983C32.5819 9.93983 32.7267 9.87989 32.8334 9.77318C32.9401 9.66648 33 9.52176 33 9.37086V7.66397C33 7.51307 32.9401 7.36835 32.8334 7.26165C32.7267 7.15495 32.5819 7.095 32.431 7.095H30.7241V3.86897C30.7245 3.76244 30.6949 3.65796 30.6388 3.56742L28.5791 0.267415C28.5279 0.18542 28.4566 0.117838 28.372 0.0710486C28.2874 0.0242596 28.1922 -0.000192353 28.0955 1.13948e-06C27.9988 -0.000192353 27.9037 0.0242596 27.8191 0.0710486C27.7344 0.117838 27.6631 0.18542 27.6119 0.267415L25.5466 3.56742C25.4904 3.65796 25.4609 3.76244 25.4612 3.86897V7.095H22.9976V3.86897C22.9979 3.76244 22.9684 3.65796 22.9122 3.56742L20.8469 0.267415C20.7956 0.18542 20.7243 0.117838 20.6397 0.0710486C20.5551 0.0242596 20.46 -0.000192353 20.3633 1.13948e-06C20.2666 -0.000192353 20.1714 0.0242596 20.0868 0.0710486C20.0022 0.117838 19.9309 0.18542 19.8797 0.267415L17.82 3.56742C17.7639 3.65796 17.7343 3.76244 17.7347 3.86897V7.095H15.2653V3.86897C15.2657 3.76244 15.2361 3.65796 15.18 3.56742L13.1203 0.267415C13.0691 0.18542 12.9978 0.117838 12.9132 0.0710486C12.8286 0.0242596 12.7334 -0.000192353 12.6367 1.13948e-06C12.54 -0.000192353 12.4449 0.0242596 12.3603 0.0710486C12.2756 0.117838 12.2044 0.18542 12.1531 0.267415L10.0878 3.56742C10.0316 3.65796 10.0021 3.76244 10.0024 3.86897V7.095H7.53879V3.86897C7.53913 3.76244 7.50956 3.65796 7.45345 3.56742L5.3881 0.267415C5.33686 0.18542 5.26556 0.117838 5.18094 0.0710486C5.09632 0.0242596 5.00117 -0.000192353 4.90448 1.13948e-06C4.80779 -0.000192353 4.71264 0.0242596 4.62803 0.0710486C4.54341 0.117838 4.47211 0.18542 4.42086 0.267415L2.36121 3.56742C2.30509 3.65796 2.27552 3.76244 2.27586 3.86897V7.095H0.568965C0.418066 7.095 0.273348 7.15495 0.166646 7.26165C0.0599444 7.36835 0 7.51307 0 7.66397V9.37086C0 9.52176 0.0599444 9.66648 0.166646 9.77318C0.273348 9.87989 0.418066 9.93983 0.568965 9.93983H2.27586V20.1812H0.568965C0.418066 20.1812 0.273348 20.2412 0.166646 20.3479C0.0599444 20.4546 0 20.5993 0 20.7502V22.4571C0 22.608 0.0599444 22.7527 0.166646 22.8594C0.273348 22.9661 0.418066 23.026 0.568965 23.026H2.27586V26.1553C2.27586 26.3062 2.33581 26.451 2.44251 26.5577C2.54921 26.6644 2.69393 26.7243 2.84483 26.7243H6.96983C7.12073 26.7243 7.26544 26.6644 7.37215 26.5577C7.47885 26.451 7.53879 26.3062 7.53879 26.1553V23.026H10.0024V26.1553C10.0024 26.3062 10.0624 26.451 10.1691 26.5577C10.2758 26.6644 10.4205 26.7243 10.5714 26.7243H14.6964C14.8473 26.7243 14.992 26.6644 15.0987 26.5577C15.2054 26.451 15.2653 26.3062 15.2653 26.1553V23.026H17.7347V26.1553C17.7347 26.3062 17.7946 26.451 17.9013 26.5577C18.008 26.6644 18.1527 26.7243 18.3036 26.7243H22.4286C22.5795 26.7243 22.7242 26.6644 22.8309 26.5577C22.9376 26.451 22.9976 26.3062 22.9976 26.1553V23.026H25.4612V26.1553C25.4612 26.3062 25.5212 26.451 25.6279 26.5577C25.7346 26.6644 25.8793 26.7243 26.0302 26.7243H30.1552C30.3061 26.7243 30.4508 26.6644 30.5575 26.5577C30.6642 26.451 30.7241 26.3062 30.7241 26.1553V23.026H32.431C32.5819 23.026 32.7267 22.9661 32.8334 22.8594C32.9401 22.7527 33 22.608 33 22.4571V20.7502C33 20.5993 32.9401 20.4546 32.8334 20.3479C32.7267 20.2412 32.5819 20.1812 32.431 20.1812H30.7241V9.93983H32.431ZM31.8621 8.23293V8.8019H30.7241V8.23293H31.8621ZM26.5991 4.03397L28.0955 1.63293L29.5862 4.03397V21.8881H26.5991V4.03397ZM22.9976 9.93983H25.4612V20.1812H22.9976V9.93983ZM25.4612 8.23293V8.8019H22.9976V8.23293H25.4612ZM15.2653 9.93983H17.7347V20.1812H15.2653V9.93983ZM17.7347 8.23293V8.8019H15.2653V8.23293H17.7347ZM7.53879 9.93983H10.0024V20.1812H7.53879V9.93983ZM10.0024 8.23293V8.8019H7.53879V8.23293H10.0024ZM1.13793 8.8019V8.23293H2.27586V8.8019H1.13793ZM1.13793 21.8881V21.3191H2.27586V21.8881H1.13793ZM6.40086 25.5864H3.41379V4.03397L4.90448 1.63293L6.40086 4.03397V25.5864ZM7.53879 21.8881V21.3191H10.0024V21.8881H7.53879ZM14.1274 25.5864H11.1403V4.03397L12.6367 1.63293L14.1274 4.03397V25.5864ZM15.2653 21.8881V21.3191H17.7347V21.8881H15.2653ZM21.8597 25.5864H18.8726V4.03397L20.3633 1.63293L21.8597 4.03397V25.5864ZM22.9976 21.3191H25.4612V21.8881H22.9976V21.3191ZM29.5862 25.5864H26.5991V23.026H29.5862V25.5864ZM31.8621 21.3191V21.8881H30.7241V21.3191H31.8621Z" fill="white"/>
</svg>
