<svg width="50" height="50" viewBox="0 0 50 50" fill="none" xmlns="http://www.w3.org/2000/svg">
<path d="M41.4383 15.1055L26.8074 7.19571C26.2526 6.89458 25.6313 6.73685 25 6.73685C24.3687 6.73685 23.7474 6.89458 23.1926 7.19571L8.56133 15.1055C8.00973 15.4033 7.54903 15.8449 7.22807 16.3834C6.90711 16.9219 6.73787 17.5372 6.73828 18.1641V41.4176C6.7388 41.9067 6.93334 42.3757 7.27922 42.7216C7.6251 43.0675 8.09406 43.262 8.5832 43.2625H41.4168C41.9059 43.262 42.3749 43.0675 42.7208 42.7216C43.0667 42.3757 43.2612 41.9067 43.2617 41.4176V18.1641C43.2621 17.5371 43.0928 16.9218 42.7718 16.3833C42.4508 15.8448 41.99 15.4033 41.4383 15.1055ZM13.0031 32.7801H36.9969V36.6324H13.0031V32.7801ZM36.9969 31.4129H13.0031V27.5602H36.9969V31.4129ZM13.0031 37.9996H36.9969V41.8527H13.0031V37.9996ZM36.9969 26.193H13.0031V22.3399H36.9969V26.193ZM41.8945 41.4168C41.8944 41.5435 41.8441 41.6649 41.7545 41.7545C41.6649 41.8441 41.5435 41.8944 41.4168 41.8945H38.3641V21.6563C38.3641 21.475 38.292 21.3011 38.1638 21.1729C38.0356 21.0447 37.8618 20.9727 37.6805 20.9727H12.3195C12.1382 20.9727 11.9644 21.0447 11.8362 21.1729C11.708 21.3011 11.6359 21.475 11.6359 21.6563V41.8945H8.5832C8.45653 41.8944 8.33508 41.8441 8.24551 41.7545C8.15594 41.6649 8.10557 41.5435 8.10547 41.4168V18.1641C8.10545 17.7838 8.20821 17.4107 8.40288 17.084C8.59755 16.7574 8.87688 16.4895 9.21133 16.3086L23.8426 8.39845C24.1979 8.20566 24.5957 8.10468 25 8.10468C25.4043 8.10468 25.8021 8.20566 26.1574 8.39845L40.7883 16.3082C41.123 16.4889 41.4025 16.7567 41.5973 17.0834C41.792 17.4101 41.8948 17.7834 41.8945 18.1637V41.4168Z" fill="white"/>
<path d="M24.9999 12.8481C24.4339 12.8481 23.8806 13.0159 23.41 13.3304C22.9394 13.6448 22.5726 14.0918 22.356 14.6147C22.1394 15.1377 22.0827 15.7131 22.1932 16.2682C22.3037 16.8233 22.5762 17.3332 22.9765 17.7335C23.3768 18.1337 23.8867 18.4062 24.4418 18.5166C24.997 18.6269 25.5724 18.5702 26.0953 18.3535C26.6182 18.1369 27.0651 17.77 27.3795 17.2994C27.6939 16.8287 27.8617 16.2754 27.8616 15.7094C27.8607 14.9507 27.5589 14.2234 27.0224 13.687C26.4859 13.1506 25.7586 12.8489 24.9999 12.8481ZM24.9999 17.2039C24.7043 17.2039 24.4154 17.1163 24.1696 16.952C23.9238 16.7878 23.7323 16.5544 23.6191 16.2813C23.506 16.0082 23.4764 15.7077 23.5341 15.4178C23.5918 15.1279 23.7341 14.8616 23.9431 14.6526C24.1521 14.4436 24.4184 14.3012 24.7083 14.2436C24.9982 14.1859 25.2987 14.2155 25.5718 14.3286C25.8449 14.4417 26.0783 14.6333 26.2426 14.8791C26.4068 15.1248 26.4944 15.4138 26.4944 15.7094C26.4939 16.1056 26.3363 16.4854 26.0561 16.7656C25.776 17.0458 25.3961 17.2034 24.9999 17.2039Z" fill="white"/>
</svg>
