<svg width="20" height="20" viewBox="0 0 20 20" fill="none" xmlns="http://www.w3.org/2000/svg">
<g clip-path="url(#clip0_267_90)">
<path d="M13.2658 13.12C12.99 12.2508 12.1917 11.6666 11.28 11.6666H8.72C7.80833 11.6666 7.01 12.2508 6.73417 13.12L6.04833 15.2816C5.90583 15.7308 5.83333 16.1975 5.83333 16.6683V17.9166C5.83333 18.1466 6.02 18.3333 6.25 18.3333H6.66667V19.5833C6.66667 19.8133 6.85333 20 7.08333 20C7.31333 20 7.5 19.8133 7.5 19.5833V18.3333H12.5V19.5833C12.5 19.8133 12.6867 20 12.9167 20C13.1467 20 13.3333 19.8133 13.3333 19.5833V18.3333H13.75C13.98 18.3333 14.1667 18.1466 14.1667 17.9166V16.6683C14.1667 16.1975 14.0942 15.7308 13.9517 15.2816L13.2658 13.12ZM7.52833 13.3725C7.69333 12.8508 8.1725 12.5 8.72 12.5H11.28C11.8267 12.5 12.3058 12.8508 12.4717 13.3725L12.9883 15H7.01167L7.52833 13.3725ZM13.3333 17.5H6.66667V16.6683C6.66667 16.3866 6.69917 16.1075 6.76167 15.8333H13.2392C13.3017 16.1075 13.3342 16.3866 13.3342 16.6683L13.3333 17.5ZM18.3475 4.85912L12.0983 0.642451C10.8242 -0.218382 9.17583 -0.218382 7.90333 0.642451L1.6525 4.85828C0.6175 5.55662 0 6.71745 0 7.96662V16.2491C0 18.3166 1.6825 19.9991 3.75 19.9991C3.98 19.9991 4.16667 19.8125 4.16667 19.5825V10.4166C4.16667 9.26745 5.10083 8.33328 6.25 8.33328H13.75C14.8992 8.33328 15.8333 9.26745 15.8333 10.4166V19.5833C15.8333 19.8133 16.02 20 16.25 20C18.3175 20 20 18.3175 20 16.25V7.96745C20 6.71912 19.3825 5.55578 18.3475 4.85912ZM19.1667 16.25C19.1667 17.7166 18.0783 18.9341 16.6667 19.1375V10.4166C16.6667 8.80828 15.3583 7.49995 13.75 7.49995H6.25C4.64167 7.49995 3.33333 8.80828 3.33333 10.4166V19.1375C1.92167 18.9341 0.833333 17.7166 0.833333 16.25V7.96745C0.833333 6.99662 1.31333 6.09245 2.11833 5.54995L8.36917 1.33245C9.35917 0.663285 10.6408 0.663285 11.6317 1.33245L17.8817 5.54995C18.6867 6.09245 19.1667 6.99662 19.1667 7.96745V16.25Z" fill="#1D1D1D"/>
</g>
<defs>
<clipPath id="clip0_267_90">
<rect width="20" height="20" fill="white"/>
</clipPath>
</defs>
</svg>
