<svg width="25" height="25" viewBox="0 0 25 25" fill="none" xmlns="http://www.w3.org/2000/svg">
<g clip-path="url(#clip0_844_727)">
<path d="M24.7188 9.55471L20.7031 6.21096V3.51565C20.7031 3.30845 20.6208 3.10974 20.4743 2.96322C20.3278 2.81671 20.1291 2.7344 19.9219 2.7344C19.7147 2.7344 19.516 2.81671 19.3694 2.96322C19.2229 3.10974 19.1406 3.30845 19.1406 3.51565V4.90627L14 0.625025C13.5789 0.274244 13.0481 0.0821533 12.5 0.0821533C11.9519 0.0821533 11.4211 0.274244 11 0.625025L0.281252 9.55471C0.121707 9.68732 0.021376 9.87788 0.0023293 10.0845C-0.0167174 10.291 0.0470809 10.4967 0.179689 10.6563C0.312297 10.8158 0.502853 10.9162 0.709436 10.9352C0.916019 10.9542 1.12171 10.8904 1.28125 10.7578L12 1.82424C12.1404 1.70732 12.3173 1.64329 12.5 1.64329C12.6827 1.64329 12.8596 1.70732 13 1.82424L21.875 9.21877V22.6563C21.875 22.8635 21.7927 23.0622 21.6462 23.2087C21.4997 23.3552 21.301 23.4375 21.0938 23.4375H17.1875V14.8438C17.1875 14.2222 16.9406 13.626 16.501 13.1865C16.0615 12.747 15.4654 12.5 14.8438 12.5H10.1563C9.53465 12.5 8.93851 12.747 8.49897 13.1865C8.05943 13.626 7.8125 14.2222 7.8125 14.8438V23.4375H3.90625C3.69905 23.4375 3.50034 23.3552 3.35382 23.2087C3.20731 23.0622 3.125 22.8635 3.125 22.6563V13.2813C3.125 13.0741 3.04269 12.8754 2.89618 12.7288C2.74967 12.5823 2.55095 12.5 2.34375 12.5C2.13655 12.5 1.93784 12.5823 1.79132 12.7288C1.64481 12.8754 1.5625 13.0741 1.5625 13.2813V22.6563C1.5625 23.2779 1.80943 23.874 2.24897 24.3136C2.68851 24.7531 3.28465 25 3.90625 25H21.0938C21.7154 25 22.3115 24.7531 22.751 24.3136C23.1906 23.874 23.4375 23.2779 23.4375 22.6563V10.5235L23.7188 10.7578C23.8593 10.8743 24.0362 10.9379 24.2188 10.9375C24.3796 10.9378 24.5367 10.8885 24.6684 10.7962C24.8002 10.7039 24.9003 10.5732 24.955 10.4219C25.0097 10.2706 25.0163 10.1062 24.9741 9.95095C24.9318 9.79573 24.8426 9.65735 24.7188 9.55471ZM9.375 23.4375V14.8438C9.375 14.6366 9.45731 14.4379 9.60382 14.2913C9.75034 14.1448 9.94905 14.0625 10.1563 14.0625H14.8438C15.051 14.0625 15.2497 14.1448 15.3962 14.2913C15.5427 14.4379 15.625 14.6366 15.625 14.8438V23.4375H9.375Z" fill="white"/>
<path d="M11.7188 19.5312C12.1502 19.5312 12.5 19.1815 12.5 18.75C12.5 18.3185 12.1502 17.9688 11.7188 17.9688C11.2873 17.9688 10.9375 18.3185 10.9375 18.75C10.9375 19.1815 11.2873 19.5312 11.7188 19.5312Z" fill="white"/>
</g>
<defs>
<clipPath id="clip0_844_727">
<rect width="25" height="25" fill="white"/>
</clipPath>
</defs>
</svg>
