<svg width="35" height="35" viewBox="0 0 35 35" fill="none" xmlns="http://www.w3.org/2000/svg">
<path d="M34.6276 21.7337C33.9618 20.7553 32.6212 20.4964 31.6398 21.1559L27.1732 24.1451L27.1602 14.8407L28.712 16.2944C29.0419 16.6034 29.4722 16.7735 29.9239 16.7735C29.9247 16.7735 29.9257 16.7735 29.9266 16.7735C30.4142 16.7728 30.8851 16.5684 31.2184 16.2126C31.5422 15.8669 31.7121 15.4159 31.6967 14.9425C31.6812 14.469 31.4823 14.0299 31.1366 13.7061L28.1948 10.9503C27.9934 10.7616 27.6772 10.7719 27.4886 10.9733C27.3 11.1747 27.3103 11.4908 27.5116 11.6795L30.4535 14.4353C30.6044 14.5767 30.6912 14.7683 30.698 14.975C30.7047 15.1816 30.6306 15.3786 30.4892 15.5295C30.3415 15.6871 30.1412 15.774 29.9251 15.7743C29.9247 15.7743 29.9243 15.7743 29.9239 15.7743C29.7268 15.7743 29.539 15.7001 29.395 15.5651L29.3949 15.5651L17.7136 4.62217C17.5211 4.44191 17.2215 4.44218 17.0295 4.62313L5.37845 15.5988C5.22799 15.7405 5.03125 15.8148 4.82453 15.809C4.61781 15.8029 4.42593 15.7166 4.28415 15.566C4.14237 15.4155 4.06766 15.2188 4.07388 15.0121C4.08003 14.8054 4.16637 14.6135 4.31683 14.4717L16.8387 2.67577C17.1355 2.39612 17.6012 2.39543 17.8987 2.67434L25.2246 9.53707C25.4259 9.72568 25.7421 9.71542 25.9308 9.51404C26.1194 9.31265 26.109 8.99655 25.9077 8.80788L18.5819 1.94515C17.9002 1.3064 16.8336 1.30783 16.1536 1.9485L12.1451 5.72467L12.144 5.05112C12.1437 4.8388 12.0607 4.63933 11.9104 4.48948C11.7603 4.33985 11.5611 4.25747 11.3492 4.25747C11.3488 4.25747 11.3485 4.25747 11.3481 4.25747L8.4806 4.26151C8.26827 4.26178 8.06887 4.34477 7.91896 4.49509C7.76911 4.64541 7.68667 4.84509 7.68701 5.05748L7.69494 9.91694L3.63173 13.7446C3.28692 14.0694 3.0893 14.509 3.07515 14.9824C3.061 15.4559 3.2321 15.9065 3.55687 16.2512C3.88158 16.596 4.3212 16.7937 4.79473 16.8078C4.81284 16.8084 4.83096 16.8087 4.84907 16.8087C5.30264 16.8087 5.73214 16.6384 6.06361 16.326L7.61188 14.8675L7.61804 19.2624C7.1171 19.1895 6.61028 19.1512 6.10114 19.1512H5.24631V18.8517C5.24631 17.846 4.42812 17.0278 3.42248 17.0278H1.82383C0.818193 17.0278 0 17.8459 0 18.8516V26.68C0 26.9559 0.223672 27.1795 0.49957 27.1795C0.775469 27.1795 0.999141 26.9559 0.999141 26.68V18.8516C0.999141 18.3969 1.3691 18.0269 1.82383 18.0269H3.42241C3.87714 18.0269 4.2471 18.3969 4.2471 18.8516V19.6507V29.8907V30.6819C4.2471 31.1367 3.87714 31.5066 3.42241 31.5066H1.82383C1.3691 31.5066 0.999141 31.1367 0.999141 30.6819V29.8077C0.999141 29.5318 0.775469 29.3082 0.49957 29.3082C0.223672 29.3082 0 29.5318 0 29.8077V30.6819C0 31.6876 0.818193 32.5058 1.82383 32.5058H3.42241C4.42805 32.5058 5.24624 31.6876 5.24624 30.6819V30.614L12.5623 33.3845C12.5759 33.3896 12.5896 33.3942 12.6036 33.3981C12.9216 33.4879 13.2396 33.5329 13.5535 33.5329C13.7233 33.5329 13.8919 33.5197 14.0589 33.4933L24.8105 31.9435C24.813 31.9432 24.8155 31.9427 24.818 31.9423C25.7321 31.7964 26.5945 31.41 27.3118 30.8249C27.318 30.8199 27.3241 30.8146 27.3301 30.8092L34.2761 24.562C35.085 23.8439 35.236 22.628 34.6276 21.7337ZM11.1451 5.25695L11.1474 6.66447L8.69251 8.97707L8.68643 5.2603L11.1451 5.25695ZM17.3729 5.67217L26.1597 13.9035L26.1749 24.8131L24.7605 25.7598L23.2627 25.6758L23.2231 25.2779C23.0837 23.8767 22.0493 22.7495 20.6815 22.4805L20.6725 15.9901C20.6718 15.4921 20.2663 15.0873 19.7683 15.0873C19.7679 15.0873 19.7675 15.0873 19.7671 15.0873L15.0056 15.094C14.7641 15.0943 14.5371 15.1887 14.3666 15.3597C14.1961 15.5307 14.1023 15.7579 14.1027 15.9994L14.1106 21.6582C13.1675 21.4426 12.2669 21.0865 11.4249 20.594C11.3198 20.5325 11.2137 20.4732 11.1068 20.4155C11.0651 20.393 11.0227 20.3719 10.9806 20.35C10.9156 20.316 10.8506 20.2818 10.7849 20.2492C10.7325 20.2232 10.6795 20.1986 10.6267 20.1735C10.5708 20.1469 10.5148 20.1201 10.4584 20.0944C10.401 20.0684 10.3431 20.0436 10.2853 20.0185C10.2324 19.9957 10.1796 19.9727 10.1264 19.9508C10.0669 19.9263 10.0071 19.9027 9.94725 19.8792C9.89413 19.8584 9.84095 19.8378 9.78756 19.8178C9.72829 19.7957 9.66875 19.7743 9.60907 19.7533C9.55309 19.7336 9.49703 19.7143 9.4407 19.6955C9.38356 19.6764 9.32627 19.6577 9.26871 19.6396C9.20739 19.6203 9.1458 19.6018 9.08414 19.5836C9.03116 19.568 8.97825 19.5524 8.925 19.5376C8.85548 19.5183 8.78561 19.5002 8.71568 19.4823C8.68294 19.4739 8.6504 19.4644 8.61745 19.4562L8.60973 13.9275L17.3729 5.67217ZM19.6822 22.3555L15.5038 21.8744L15.1101 21.8291L15.102 16.093L19.6735 16.0866L19.6822 22.3555ZM33.6105 23.8171L26.6712 30.0581C26.093 30.527 25.3993 30.8372 24.6641 30.9552L13.9171 32.5043C13.9149 32.5047 13.9127 32.505 13.9104 32.5053L13.903 32.5065C13.5774 32.558 13.2383 32.5363 12.8951 32.4421L5.24631 29.5456V20.1503H6.10114C6.82883 20.1503 7.55159 20.2343 8.25542 20.3975C8.2816 20.4035 8.30772 20.4098 8.33383 20.4161C8.4203 20.4369 8.50657 20.4584 8.59243 20.4816C8.59995 20.4837 8.6074 20.4859 8.61492 20.4879C8.70099 20.5114 8.78671 20.5362 8.87216 20.5621C8.88747 20.5668 8.90285 20.5714 8.9181 20.5761C9.00901 20.6042 9.09952 20.6335 9.18955 20.6643C9.19885 20.6675 9.20808 20.6708 9.21737 20.674C9.40488 20.7387 9.59055 20.8093 9.77389 20.8858C9.78387 20.8899 9.79385 20.8941 9.80383 20.8983C9.89522 20.9368 9.98607 20.9765 10.0763 21.0178C10.0787 21.0188 10.0812 21.02 10.0836 21.0212C10.1708 21.0612 10.2574 21.1028 10.3435 21.1455C10.3536 21.1505 10.3638 21.1554 10.3739 21.1605C10.458 21.2025 10.5414 21.2461 10.6243 21.2906C10.6399 21.2991 10.6555 21.3077 10.6712 21.3161C10.7548 21.3617 10.838 21.4082 10.9204 21.4564C12.1092 22.1518 13.4034 22.6023 14.7671 22.7952C14.7714 22.7959 14.7756 22.7964 14.7799 22.7969L20.3772 23.4413C20.4082 23.4457 20.439 23.4509 20.4695 23.4566C21.2935 23.6114 21.9439 24.2203 22.1615 25.0132C22.1938 25.1306 22.2165 25.2521 22.2289 25.3768L22.2511 25.6003L11.7607 24.6812C11.486 24.6572 11.2435 24.8604 11.2194 25.1352C11.1953 25.4101 11.3987 25.6525 11.6735 25.6765L22.7642 26.6482C22.7669 26.6484 22.7695 26.6484 22.7721 26.6486C22.7747 26.6488 22.7772 26.6492 22.7799 26.6494L24.8715 26.7668C24.8808 26.7673 24.8901 26.7675 24.8994 26.7675C24.9093 26.7675 24.9191 26.766 24.929 26.7653C24.9401 26.7647 24.9512 26.7642 24.9623 26.7629C24.9772 26.761 24.9918 26.7578 25.0064 26.7545C25.0169 26.7522 25.0274 26.7505 25.0376 26.7475C25.0536 26.7429 25.069 26.7367 25.0845 26.7305C25.0929 26.7271 25.1015 26.7246 25.1097 26.7208C25.133 26.71 25.1557 26.6975 25.1773 26.683L26.9527 25.4949L26.9529 25.4947L32.1962 21.9857C32.7238 21.6311 33.4439 21.7702 33.8015 22.2957C34.1283 22.776 34.0472 23.4292 33.6105 23.8171Z" fill="white"/>
</svg>
