<svg width="20" height="20" viewBox="0 0 20 20" fill="none" xmlns="http://www.w3.org/2000/svg">
<g clip-path="url(#clip0_267_70)">
<path d="M11.7008 11.3675L7.16 7.81417C6.62417 7.39417 5.87667 7.39417 5.33917 7.81417L0.8 11.3675C0.291667 11.765 0 12.3625 0 13.0083V20.0008H12.5V13.0075C12.5 12.3625 12.2083 11.765 11.7008 11.3675ZM11.6667 19.1667H0.833333V13.0075C0.833333 12.62 1.00833 12.2608 1.31333 12.0225L5.8525 8.46917C6.08667 8.28667 6.41333 8.28667 6.64583 8.46917L11.1867 12.0225C11.4908 12.2608 11.6658 12.62 11.6658 13.0075V19.1667H11.6667ZM4.16667 16.6667H8.33333V12.5H4.16667V16.6667ZM5 13.3333H7.5V15.8333H5V13.3333ZM15 10.8333H16.6667V11.6667H15V10.8333ZM15 14.1667H16.6667V15H15V14.1667ZM11.6667 4.16667H13.3333V5H11.6667V4.16667ZM16.6667 5H15V4.16667H16.6667V5ZM11.6667 7.5H13.3333V8.33333H11.6667V7.5ZM15 7.5H16.6667V8.33333H15V7.5ZM20 2.08333V20H14.1667V19.1667H19.1667V2.08333C19.1667 1.39417 18.6058 0.833333 17.9167 0.833333H10.4167C9.7275 0.833333 9.16667 1.39417 9.16667 2.08333V7.5L8.33333 6.8475V2.08333C8.33333 0.934167 9.2675 0 10.4167 0H17.9167C19.0658 0 20 0.934167 20 2.08333Z" fill="#1D1D1D"/>
</g>
<defs>
<clipPath id="clip0_267_70">
<rect width="20" height="20" fill="white"/>
</clipPath>
</defs>
</svg>
