<svg width="45" height="45" viewBox="0 0 45 45" fill="none" xmlns="http://www.w3.org/2000/svg">
<path d="M18.7104 10.1836H12.042C11.436 10.1836 10.9434 10.6763 10.9434 11.2823V22.1749C10.9434 22.7805 11.436 23.2735 12.042 23.2735H18.7104C19.3163 23.2735 19.809 22.7805 19.809 22.1749V11.2823C19.809 10.6763 19.3163 10.1836 18.7104 10.1836ZM14.7168 21.9551H12.2617V19.2594H14.7168V21.9551ZM14.7168 17.941H12.2617V15.5158H14.7168V17.941ZM14.7168 14.1974H12.2617V11.502H14.7168V14.1974ZM18.4906 21.9551H16.0352V19.2594H18.4906V21.9551ZM18.4906 17.941H16.0352V15.5158H18.4906V17.941ZM18.4906 14.1974H16.0352V11.502H18.4906V14.1974Z" fill="#1D1D1D"/>
<path d="M27.5508 36.5007C27.1865 36.5007 26.8916 36.796 26.8916 37.1599V38.7426C26.8916 39.1065 27.1865 39.4018 27.5508 39.4018C27.915 39.4018 28.21 39.1065 28.21 38.7426V37.1599C28.21 36.796 27.915 36.5007 27.5508 36.5007Z" fill="#1D1D1D"/>
<path d="M44.9938 29.8437C44.9632 29.6123 44.8448 29.4059 44.6604 29.2631L30.695 18.4577C30.3854 18.2184 30.0153 18.0917 29.6246 18.0917C29.2335 18.0917 28.8634 18.2184 28.5534 18.4581L26.4413 20.0923V18.1992C26.4413 17.8349 26.1464 17.54 25.7821 17.54C25.4178 17.54 25.1229 17.8349 25.1229 18.1992V21.1123L14.5891 29.2628C14.4058 29.4042 14.2839 29.6174 14.255 29.8464C14.2252 30.0782 14.2873 30.3082 14.4298 30.4939L15.4986 31.884C15.6664 32.1014 15.9198 32.226 16.1941 32.226C16.3871 32.226 16.5776 32.1611 16.7307 32.0427L29.6246 22.0664L39.3705 29.6071V43.3414H34.0613V42.1054C34.0613 41.7412 33.7664 41.4463 33.4021 41.4463C33.0379 41.4463 32.743 41.7412 32.743 42.1054V43.3414H26.5051V33.2429H32.743V39.0073C32.743 39.3716 33.0379 39.6665 33.4021 39.6665C33.7664 39.6665 34.0613 39.3716 34.0613 39.0073V33.0232C34.0613 32.4176 33.5683 31.9246 32.9627 31.9246H26.2858C25.6798 31.9246 25.1868 32.4176 25.1868 33.0232V43.3414H20.1777V41.5434C20.1777 40.9375 19.685 40.4448 19.0791 40.4448H18.448C18.5006 40.1825 18.5291 39.9116 18.5291 39.6342C18.5291 37.3528 16.6727 35.4968 14.3913 35.4968C13.153 35.4968 11.9943 36.065 11.2194 36.9865C10.9262 36.8938 10.6144 36.8433 10.291 36.8433C10.0535 36.8433 9.82 36.8698 9.59306 36.9226C8.87517 35.6929 7.53553 34.9018 6.08739 34.9018C5.93324 34.9018 5.7808 34.9115 5.63043 34.929V12.8636L15.3767 5.32219L25.1233 12.8636V15.1227C25.1233 15.4869 25.4182 15.7819 25.7824 15.7819C26.1464 15.7819 26.4416 15.4869 26.4416 15.1227V13.8836L28.2708 15.2988C28.4236 15.4173 28.6142 15.4821 28.8071 15.4821C29.0821 15.4821 29.3358 15.3572 29.503 15.1395C29.5054 15.1364 29.5078 15.133 29.5102 15.1299L30.534 13.747L30.5406 13.7387C30.6082 13.6539 30.7877 13.4291 30.7459 13.0998C30.7153 12.8674 30.5965 12.6611 30.4125 12.5193L16.4475 1.71387C16.1378 1.47457 15.7677 1.34789 15.3767 1.34789C14.9856 1.34789 14.6155 1.47457 14.3055 1.71421L10.4713 4.68086V3.85002C10.9897 3.76213 11.3859 3.311 11.3859 2.76821V1.4502C11.3859 0.844231 10.8929 0.351562 10.2873 0.351562H4.9455C4.33988 0.351562 3.84687 0.844231 3.84687 1.4502V2.76787C3.84687 3.311 4.24306 3.76179 4.76148 3.85002V9.09874L0.342229 12.5182C0.158208 12.6597 0.0363288 12.8732 0.0074897 13.1015C-0.0227227 13.3336 0.0390754 13.5637 0.181898 13.7497L1.25066 15.1398C1.4182 15.3575 1.67158 15.4821 1.94623 15.4821C2.13918 15.4821 2.32938 15.4173 2.48319 15.2988L4.31207 13.8836V35.3166C3.26562 35.8316 2.45984 36.786 2.16047 37.9502C1.16655 38.3334 0.483678 39.2988 0.483678 40.3947C0.483678 40.5155 0.492261 40.6343 0.508054 40.751C0.298971 40.9512 0.168508 41.232 0.168508 41.5434V43.5615C0.168508 44.1671 0.661176 44.6601 1.26714 44.6601H42.5994C42.9637 44.6601 43.2586 44.3648 43.2586 44.0009C43.2586 43.6367 42.9637 43.3417 42.5994 43.3417H40.6888V30.6271L42.5184 32.0427C42.6712 32.1608 42.8617 32.226 43.0547 32.226C43.3297 32.226 43.5834 32.101 43.7506 31.883C43.753 31.8799 43.7554 31.8768 43.7578 31.8737L44.7819 30.4905L44.7888 30.4819C44.8561 30.3975 45.0353 30.1726 44.9938 29.8437ZM14.3913 36.8152C15.9459 36.8152 17.2107 38.08 17.2107 39.6342C17.2107 39.9161 17.1681 40.188 17.0909 40.4448H13.3308C13.3593 40.2772 13.3751 40.1049 13.3751 39.9291C13.3751 39.0348 12.9923 38.2286 12.3829 37.6642C12.9041 37.1352 13.625 36.8152 14.3913 36.8152ZM5.16523 1.66992H10.0675V2.54814H5.16523V1.66992ZM9.15292 3.8665V5.70087L6.07984 8.07873V3.8665H9.15292ZM2.02623 13.9856L1.49442 13.2938L15.112 2.75688C15.1899 2.6968 15.2788 2.66624 15.3767 2.66624C15.4745 2.66624 15.5634 2.6968 15.641 2.75654L29.24 13.279L28.7209 13.9804L15.7801 3.96744C15.5425 3.78376 15.2109 3.78376 14.9733 3.96744L2.02623 13.9856ZM18.8593 43.3417H1.48687V41.7631H7.55887C7.9228 41.7631 8.21805 41.4682 8.21805 41.104C8.21805 40.7397 7.9228 40.4448 7.55887 40.4448H1.80375C1.80307 40.428 1.80204 40.4115 1.80204 40.3947C1.80204 39.7729 2.24389 39.2356 2.85329 39.1175C3.12898 39.0639 3.34047 38.8418 3.38029 38.5641C3.57255 37.2282 4.73642 36.2205 6.08739 36.2205C7.20937 36.2205 8.23522 36.9247 8.64 37.9725C8.70591 38.1435 8.83981 38.2791 9.0101 38.3474C9.18039 38.4154 9.37093 38.4092 9.53676 38.331C9.77365 38.219 10.0277 38.162 10.291 38.162C11.2647 38.162 12.0567 38.9548 12.0567 39.9295C12.0567 40.109 12.0286 40.2817 11.9785 40.4448H10.7229C10.3587 40.4448 10.0638 40.74 10.0638 41.104C10.0638 41.4682 10.3587 41.7631 10.7229 41.7631H18.8593V43.3417ZM42.9688 30.7243L30.028 20.7116C29.7904 20.5276 29.4587 20.5276 29.2212 20.7116L16.2738 30.7294L15.742 30.0376L29.3599 19.5011C29.4378 19.4406 29.5267 19.4101 29.6246 19.4101C29.7221 19.4101 29.8113 19.4406 29.8889 19.5007L43.4879 30.0229L42.9688 30.7243Z" fill="#1D1D1D"/>
</svg>
