<svg width="35" height="35" viewBox="0 0 35 35" fill="none" xmlns="http://www.w3.org/2000/svg">
<g clip-path="url(#clip0_974_617)">
<path d="M31.7873 8.07772L21.579 1.18856C19.1012 -0.482693 15.8988 -0.482693 13.421 1.18856L3.21271 8.07772C1.20021 9.43689 0 11.6958 0 14.124V27.7083C0 31.729 3.27104 35 7.29167 35H27.7083C31.729 35 35 31.729 35 27.7083V14.124C35 11.6973 33.7998 9.43689 31.7873 8.07772ZM11.6667 32.0833C11.6667 28.8663 14.2829 26.25 17.5 26.25C20.7171 26.25 23.3333 28.8663 23.3333 32.0833H11.6667ZM32.0833 27.7083C32.0833 30.1204 30.1204 32.0833 27.7083 32.0833H26.25C26.25 27.2577 22.3256 23.3333 17.5 23.3333C12.6744 23.3333 8.75 27.2577 8.75 32.0833H7.29167C4.87958 32.0833 2.91667 30.1204 2.91667 27.7083V14.124C2.91667 12.6671 3.63708 11.3108 4.84458 10.4971L15.0529 3.60793C15.7967 3.10627 16.6483 2.85543 17.5 2.85543C18.3517 2.85543 19.2033 3.10627 19.9471 3.60793L30.1554 10.4971C31.3629 11.3123 32.0833 12.6671 32.0833 14.124V27.7083ZM17.5 10.2083C14.2829 10.2083 11.6667 12.8246 11.6667 16.0417C11.6667 19.2588 14.2829 21.875 17.5 21.875C20.7171 21.875 23.3333 19.2588 23.3333 16.0417C23.3333 12.8246 20.7171 10.2083 17.5 10.2083ZM17.5 18.9583C15.8915 18.9583 14.5833 17.6502 14.5833 16.0417C14.5833 14.4331 15.8915 13.125 17.5 13.125C19.1085 13.125 20.4167 14.4331 20.4167 16.0417C20.4167 17.6502 19.1085 18.9583 17.5 18.9583Z" fill="white"/>
</g>
<defs>
<clipPath id="clip0_974_617">
<rect width="35" height="35" fill="white"/>
</clipPath>
</defs>
</svg>
