<svg width="20" height="20" viewBox="0 0 20 20" fill="none" xmlns="http://www.w3.org/2000/svg">
<g clip-path="url(#clip0_842_98)">
<path d="M0 12.8906C0.109347 12.7083 0.27597 12.6562 0.479042 12.6615C0.869565 12.6667 1.25488 12.6615 1.65582 12.6615C1.65582 12.5469 1.65582 12.4531 1.65582 12.3333C1.55168 12.3333 1.45795 12.3385 1.36423 12.3333C1.14033 12.3177 1.01015 12.1875 1.01015 12C1.01015 11.8073 1.14553 11.6719 1.36944 11.6719C2.45769 11.6667 3.54074 11.6667 4.629 11.6719C4.8529 11.6719 4.99349 11.8021 4.9987 11.9948C5.00391 12.1771 4.86332 12.3177 4.64462 12.3385C4.5509 12.3438 4.45197 12.3385 4.34783 12.3385C4.34783 12.4531 4.34783 12.5469 4.34783 12.6562C5.4465 12.6562 6.54517 12.6562 7.65426 12.6562C7.65426 12.5573 7.65426 12.4635 7.65426 12.3385C7.56053 12.3385 7.46681 12.3438 7.37308 12.3385C7.15439 12.3229 7.00859 12.1927 7.00859 12.0104C7.00339 11.8177 7.15439 11.6771 7.3887 11.6771C8.46655 11.6719 9.5496 11.6719 10.6274 11.6771C10.8565 11.6771 10.9919 11.8021 10.9971 11.9948C11.0076 12.1927 10.867 12.3281 10.6326 12.3438C10.5441 12.349 10.4556 12.3438 10.3515 12.3438C10.3515 12.4583 10.3515 12.5521 10.3515 12.6615C10.893 12.6615 11.4293 12.6615 12.0021 12.6615C12.0021 12.5833 12.0021 12.5052 12.0021 12.4219C12.0021 9.90104 12.0021 7.38542 12.0021 4.86458C12.0021 4.4375 12.0906 4.34375 12.5124 4.34375C14.8503 4.34375 17.183 4.34375 19.521 4.34375C19.9063 4.34375 20 4.44271 20 4.83333C20 9.72917 20 14.625 20.0052 19.5156C20.0052 19.7292 19.9688 19.901 19.7657 20.0052C13.1789 20.0052 6.59203 20.0052 0.00520698 20.0052C0 17.6302 0 15.2604 0 12.8906ZM19.3179 10.349C17.0997 10.349 14.892 10.349 12.6738 10.349C12.6738 13.349 12.6738 16.3385 12.6738 19.3229C14.8972 19.3229 17.1049 19.3229 19.3179 19.3229C19.3179 16.3281 19.3179 13.3438 19.3179 10.349ZM19.3231 5.01042C17.0997 5.01042 14.892 5.01042 12.6686 5.01042C12.6686 6.55729 12.6686 8.09896 12.6686 9.64583C14.892 9.64583 17.1049 9.64583 19.3231 9.64583C19.3231 8.09896 19.3231 6.5625 19.3231 5.01042ZM0.682114 15.3438C0.682114 16.6823 0.682114 18.0052 0.682114 19.3281C2.23379 19.3281 3.77506 19.3281 5.31632 19.3281C5.31632 17.9948 5.31632 16.6771 5.31632 15.3438C3.76464 15.3438 2.23379 15.3438 0.682114 15.3438ZM6.01927 13.3438C6.01927 15.3542 6.01927 17.3385 6.01927 19.3281C8.01875 19.3281 9.9974 19.3281 11.9813 19.3281C11.9813 17.3281 11.9813 15.3438 11.9813 13.3438C9.99219 13.3438 8.00833 13.3438 6.01927 13.3438ZM5.31632 14.6562C5.31632 14.2135 5.31632 13.7813 5.31632 13.3438C3.76464 13.3438 2.22338 13.3438 0.676907 13.3438C0.676907 13.7865 0.676907 14.2188 0.676907 14.6562C2.22859 14.6562 3.76985 14.6562 5.31632 14.6562ZM2.34314 12.6458C2.79615 12.6458 3.22833 12.6458 3.6553 12.6458C3.6553 12.5365 3.6553 12.4427 3.6553 12.349C3.2075 12.349 2.77532 12.349 2.34314 12.349C2.34314 12.4583 2.34314 12.5469 2.34314 12.6458ZM8.34158 12.349C8.34158 12.4531 8.34158 12.5469 8.34158 12.651C8.78417 12.651 9.21114 12.651 9.65374 12.651C9.65374 12.5469 9.65374 12.4531 9.65374 12.349C9.21114 12.349 8.77896 12.349 8.34158 12.349Z" fill="#434343"/>
<path d="M4.66594 1.35938C4.66594 1.02083 4.66594 0.739583 4.66594 0.453125C4.66594 0.109375 4.77528 0 5.12415 0C5.71775 0 6.30614 0 6.89973 0C7.20694 0 7.3267 0.119792 7.33191 0.421875C7.33712 0.713542 7.33191 1.00521 7.33191 1.29167C7.35274 1.30729 7.36315 1.32292 7.37357 1.32292C7.72764 1.27604 7.94113 1.46354 8.15461 1.72396C9.14394 2.93229 10.1489 4.125 11.1486 5.32812C11.1955 5.38542 11.2424 5.4375 11.2788 5.5C11.3934 5.70312 11.2944 5.93229 11.0653 5.98438C10.9924 6 10.9091 6.00521 10.831 6.00521C7.60267 6.00521 4.37955 6.00521 1.15123 6.00521C1.11999 6.00521 1.08354 6.00521 1.05229 6.00521C0.901292 6 0.771118 5.95833 0.69822 5.80729C0.625322 5.65625 0.677392 5.53125 0.776325 5.41146C1.04188 5.08854 1.30744 4.77083 1.57299 4.45312C2.3228 3.55208 3.0726 2.65625 3.8172 1.75C4.0411 1.48958 4.23897 1.22396 4.66594 1.35938ZM10.253 5.31771C10.2322 5.28125 10.227 5.26042 10.2114 5.23958C9.3366 4.1875 8.46182 3.14062 7.58185 2.09375C7.52978 2.03125 7.41522 2 7.33191 2C6.44672 1.99479 5.56154 2 4.67635 1.99479C4.53576 1.99479 4.45245 2.04167 4.36393 2.14583C3.53082 3.15104 2.69249 4.15625 1.85417 5.16146C1.81772 5.20312 1.78648 5.25521 1.73441 5.32292C4.58783 5.31771 7.41001 5.31771 10.253 5.31771ZM6.66021 0.677083C6.21241 0.677083 5.78544 0.677083 5.34805 0.677083C5.34805 0.895833 5.34805 1.10417 5.34805 1.31771C5.79064 1.31771 6.22282 1.31771 6.66021 1.31771C6.66021 1.09896 6.66021 0.895833 6.66021 0.677083Z" fill="#434343"/>
<path d="M13.6632 11.6667C13.6632 11.8594 13.6632 12.0573 13.6632 12.25C13.658 12.5104 13.5331 12.6615 13.3248 12.6563C13.1217 12.6511 13.002 12.5104 13.002 12.2552C13.002 11.8594 13.002 11.4636 13.002 11.0677C13.002 10.8177 13.1269 10.6667 13.33 10.6667C13.5279 10.6615 13.6632 10.8177 13.6684 11.0625C13.6684 11.2656 13.6632 11.4688 13.6632 11.6667Z" fill="#434343"/>
<path d="M13.0013 8.33851C13.0013 8.12497 12.9961 7.91143 13.0013 7.69789C13.0065 7.48435 13.1263 7.35414 13.3138 7.34372C13.5064 7.3333 13.6574 7.46351 13.6626 7.68226C13.673 8.11455 13.673 8.55205 13.6626 8.98435C13.6574 9.19789 13.5012 9.33851 13.319 9.3333C13.1315 9.3281 13.0065 9.18226 13.0013 8.96351C12.9961 8.74997 13.0013 8.54685 13.0013 8.33851Z" fill="#434343"/>
<path d="M11.3302 16.3281C11.3302 16.9636 11.3302 17.6042 11.3302 18.2396C11.3302 18.5469 11.2104 18.6667 10.9032 18.6667C9.63269 18.6667 8.3674 18.6667 7.09689 18.6667C6.78968 18.6667 6.66992 18.5469 6.66992 18.2396C6.66992 16.9636 6.66992 15.6875 6.66992 14.4115C6.66992 14.1146 6.78448 13.9948 7.08648 13.9948C8.36219 13.9896 9.6379 13.9896 10.9136 13.9948C11.2208 13.9948 11.3302 14.1198 11.3302 14.4271C11.3302 15.0677 11.3302 15.6979 11.3302 16.3281ZM10.6533 17.9948C10.6533 16.8854 10.6533 15.7865 10.6533 14.6823C9.54938 14.6823 8.45071 14.6823 7.34683 14.6823C7.34683 15.7917 7.34683 16.8906 7.34683 17.9948C8.45071 17.9948 9.53897 17.9948 10.6533 17.9948Z" fill="#434343"/>
</g>
<defs>
<clipPath id="clip0_842_98">
<rect width="20" height="20" fill="white"/>
</clipPath>
</defs>
</svg>
