<svg width="50" height="50" viewBox="0 0 50 50" fill="none" xmlns="http://www.w3.org/2000/svg">
<g clip-path="url(#clip0_407_81)">
<path d="M0 32.2266C0.273366 31.7708 0.689925 31.6406 1.1976 31.6536C2.17391 31.6667 3.1372 31.6536 4.13955 31.6536C4.13955 31.3672 4.13955 31.1328 4.13955 30.8333C3.8792 30.8333 3.64488 30.8464 3.41057 30.8333C2.85082 30.7943 2.52538 30.4688 2.52538 30C2.52538 29.5182 2.86384 29.1797 3.42359 29.1797C6.14423 29.1667 8.85186 29.1667 11.5725 29.1797C12.1323 29.1797 12.4837 29.5052 12.4967 29.987C12.5098 30.4427 12.1583 30.7943 11.6116 30.8464C11.3772 30.8594 11.1299 30.8464 10.8696 30.8464C10.8696 31.1328 10.8696 31.3672 10.8696 31.6406C13.6162 31.6406 16.3629 31.6406 19.1356 31.6406C19.1356 31.3932 19.1356 31.1589 19.1356 30.8464C18.9013 30.8464 18.667 30.8594 18.4327 30.8464C17.886 30.8073 17.5215 30.4818 17.5215 30.026C17.5085 29.5443 17.886 29.1927 18.4718 29.1927C21.1664 29.1797 23.874 29.1797 26.5686 29.1927C27.1414 29.1927 27.4798 29.5052 27.4928 29.987C27.5189 30.4818 27.1674 30.8203 26.5816 30.8594C26.3603 30.8724 26.139 30.8594 25.8787 30.8594C25.8787 31.1458 25.8787 31.3802 25.8787 31.6536C27.2325 31.6536 28.5733 31.6536 30.0052 31.6536C30.0052 31.4583 30.0052 31.263 30.0052 31.0547C30.0052 24.7526 30.0052 18.4635 30.0052 12.1615C30.0052 11.0938 30.2265 10.8594 31.2809 10.8594C37.1258 10.8594 42.9576 10.8594 48.8024 10.8594C49.7657 10.8594 50 11.1068 50 12.0833C50 24.3229 50 36.5625 50.013 48.7891C50.013 49.3229 49.9219 49.7526 49.4142 50.013C32.9472 50.013 16.4801 50.013 0.0130174 50.013C0 44.0755 0 38.151 0 32.2266ZM48.2947 25.8724C42.7493 25.8724 37.2299 25.8724 31.6845 25.8724C31.6845 33.3724 31.6845 40.8464 31.6845 48.3073C37.2429 48.3073 42.7623 48.3073 48.2947 48.3073C48.2947 40.8203 48.2947 33.3594 48.2947 25.8724ZM48.3077 12.526C42.7493 12.526 37.2299 12.526 31.6714 12.526C31.6714 16.3932 31.6714 20.2474 31.6714 24.1146C37.2299 24.1146 42.7623 24.1146 48.3077 24.1146C48.3077 20.2474 48.3077 16.4062 48.3077 12.526ZM1.70529 38.3594C1.70529 41.7057 1.70529 45.013 1.70529 48.3203C5.58448 48.3203 9.43765 48.3203 13.2908 48.3203C13.2908 44.987 13.2908 41.6927 13.2908 38.3594C9.41161 38.3594 5.58448 38.3594 1.70529 38.3594ZM15.0482 33.3594C15.0482 38.3854 15.0482 43.3464 15.0482 48.3203C20.0469 48.3203 24.9935 48.3203 29.9531 48.3203C29.9531 43.3203 29.9531 38.3594 29.9531 33.3594C24.9805 33.3594 20.0208 33.3594 15.0482 33.3594ZM13.2908 36.6406C13.2908 35.5339 13.2908 34.4531 13.2908 33.3594C9.41161 33.3594 5.55845 33.3594 1.69227 33.3594C1.69227 34.4662 1.69227 35.5469 1.69227 36.6406C5.57147 36.6406 9.42463 36.6406 13.2908 36.6406ZM5.85785 31.6146C6.99037 31.6146 8.07082 31.6146 9.13825 31.6146C9.13825 31.3411 9.13825 31.1068 9.13825 30.8724C8.01875 30.8724 6.9383 30.8724 5.85785 30.8724C5.85785 31.1458 5.85785 31.3672 5.85785 31.6146ZM20.8539 30.8724C20.8539 31.1328 20.8539 31.3672 20.8539 31.6276C21.9604 31.6276 23.0279 31.6276 24.1343 31.6276C24.1343 31.3672 24.1343 31.1328 24.1343 30.8724C23.0279 30.8724 21.9474 30.8724 20.8539 30.8724Z" fill="#1D1D1D"/>
<path d="M11.6636 3.39844C11.6636 2.55208 11.6636 1.84896 11.6636 1.13281C11.6636 0.273437 11.937 0 12.8092 0C14.2931 0 15.7641 0 17.2481 0C18.0161 0 18.3155 0.299479 18.3286 1.05469C18.3416 1.78385 18.3286 2.51302 18.3286 3.22917C18.3806 3.26823 18.4067 3.30729 18.4327 3.30729C19.3179 3.1901 19.8516 3.65885 20.3853 4.3099C22.8586 7.33073 25.371 10.3125 27.8703 13.3203C27.9875 13.4635 28.1047 13.5937 28.1958 13.75C28.4822 14.2578 28.2348 14.8307 27.6621 14.9609C27.4798 15 27.2715 15.013 27.0763 15.013C19.0055 15.013 10.9477 15.013 2.87685 15.013C2.79874 15.013 2.70762 15.013 2.62952 15.013C2.25201 15 1.92657 14.8958 1.74433 14.5182C1.56208 14.1406 1.69226 13.8281 1.93959 13.5286C2.60348 12.7214 3.26737 11.9271 3.93126 11.1328C5.80577 8.88021 7.68028 6.64062 9.54178 4.375C10.1015 3.72396 10.5962 3.0599 11.6636 3.39844ZM25.6313 13.2943C25.5793 13.2031 25.5663 13.151 25.5272 13.099C23.3403 10.4687 21.1533 7.85156 18.9534 5.23438C18.8232 5.07812 18.5368 5 18.3286 5C16.1156 4.98698 13.9026 5 11.6897 4.98698C11.3382 4.98698 11.1299 5.10417 10.9086 5.36458C8.82582 7.8776 6.73001 10.3906 4.6342 12.9036C4.54308 13.0078 4.46497 13.138 4.3348 13.3073C11.4684 13.2943 18.5238 13.2943 25.6313 13.2943ZM16.6493 1.69271C15.5298 1.69271 14.4624 1.69271 13.3689 1.69271C13.3689 2.23958 13.3689 2.76042 13.3689 3.29427C14.4754 3.29427 15.5558 3.29427 16.6493 3.29427C16.6493 2.7474 16.6493 2.23958 16.6493 1.69271Z" fill="#1D1D1D"/>
<path d="M34.1577 29.1667C34.1577 29.6485 34.1577 30.1433 34.1577 30.625C34.1447 31.2761 33.8323 31.6537 33.3116 31.6407C32.8039 31.6276 32.5045 31.2761 32.5045 30.6381C32.5045 29.6485 32.5045 28.6589 32.5045 27.6693C32.5045 27.0443 32.8169 26.6667 33.3246 26.6667C33.8193 26.6537 34.1577 27.0443 34.1707 27.6563C34.1707 28.1641 34.1577 28.6719 34.1577 29.1667Z" fill="#1D1D1D"/>
<path d="M32.5046 20.8463C32.5046 20.3125 32.4915 19.7786 32.5046 19.2448C32.5176 18.7109 32.817 18.3854 33.2856 18.3594C33.7673 18.3333 34.1448 18.6588 34.1578 19.2057C34.1838 20.2864 34.1838 21.3802 34.1578 22.4609C34.1448 22.9948 33.7542 23.3463 33.2986 23.3333C32.83 23.3203 32.5176 22.9557 32.5046 22.4088C32.4915 21.875 32.5046 21.3672 32.5046 20.8463Z" fill="#1D1D1D"/>
<path d="M28.3259 40.8203C28.3259 42.4088 28.3259 44.0104 28.3259 45.5989C28.3259 46.3671 28.0265 46.6666 27.2585 46.6666C24.0822 46.6666 20.919 46.6666 17.7427 46.6666C16.9747 46.6666 16.6753 46.3671 16.6753 45.5989C16.6753 42.4088 16.6753 39.2187 16.6753 36.0286C16.6753 35.2864 16.9617 34.9869 17.7167 34.9869C20.906 34.9739 24.0952 34.9739 27.2845 34.9869C28.0525 34.9869 28.3259 35.2994 28.3259 36.0677C28.3259 37.6692 28.3259 39.2447 28.3259 40.8203ZM26.6336 44.9869C26.6336 42.2135 26.6336 39.4661 26.6336 36.7057C23.8739 36.7057 21.1273 36.7057 18.3676 36.7057C18.3676 39.4791 18.3676 42.2265 18.3676 44.9869C21.1273 44.9869 23.8479 44.9869 26.6336 44.9869Z" fill="#1D1D1D"/>
</g>
<defs>
<clipPath id="clip0_407_81">
<rect width="50" height="50" fill="white"/>
</clipPath>
</defs>
</svg>
