<svg width="33" height="33" viewBox="0 0 33 33" fill="none" xmlns="http://www.w3.org/2000/svg">
<path d="M32.2685 20.7217L32.2659 20.7191L23.7188 14.6856V12.8906C23.7188 12.7539 23.6644 12.6227 23.5677 12.526C23.471 12.4293 23.3399 12.375 23.2031 12.375H21.1406V3.60938C21.1406 3.47262 21.0863 3.34147 20.9896 3.24477C20.8929 3.14807 20.7618 3.09375 20.625 3.09375H12.375C12.2382 3.09375 12.1071 3.14807 12.0104 3.24477C11.9137 3.34147 11.8594 3.47262 11.8594 3.60938V12.375H9.79688C9.66012 12.375 9.52897 12.4293 9.43227 12.526C9.33557 12.6227 9.28125 12.7539 9.28125 12.8906V14.6856L0.734121 20.7191L0.731543 20.7217C0.664726 20.7692 0.610258 20.832 0.572694 20.9049C0.53513 20.9778 0.515562 21.0586 0.515625 21.1406V23.2031C0.515625 23.3399 0.56995 23.471 0.666648 23.5677C0.763347 23.6644 0.894498 23.7188 1.03125 23.7188H31.9688C32.1055 23.7188 32.2367 23.6644 32.3334 23.5677C32.43 23.471 32.4844 23.3399 32.4844 23.2031V21.1406C32.4844 21.0586 32.4649 20.9778 32.4273 20.9049C32.3897 20.832 32.3353 20.7692 32.2685 20.7217ZM12.8906 4.125H20.1094V12.375H12.8906V4.125ZM10.3125 13.4062H22.6875V14.4375H10.3125V13.4062ZM9.96059 15.4688H23.0394L30.3439 20.625H2.65611L9.96059 15.4688ZM31.4531 22.6875H1.54688V21.6562H31.4531V22.6875Z" fill="white"/>
<path d="M16.5944 26.0984C16.6514 25.9242 16.7443 25.7639 16.8671 25.6279C16.9627 25.5306 17.0159 25.3996 17.0151 25.2632C17.0142 25.1269 16.9595 24.9965 16.8627 24.9005C16.766 24.8044 16.6352 24.7506 16.4989 24.7507C16.3625 24.7509 16.2318 24.805 16.1353 24.9013C15.5746 25.462 15.1112 26.6689 16.1353 27.693C16.4143 27.9719 16.5002 28.2469 16.4054 28.5582C16.3489 28.7313 16.2569 28.8907 16.1353 29.0263C16.0386 29.123 15.9843 29.2541 15.9843 29.3909C15.9843 29.5276 16.0386 29.6588 16.1353 29.7555C16.232 29.8522 16.3632 29.9065 16.4999 29.9065C16.6367 29.9065 16.7678 29.8522 16.8645 29.7555C17.4256 29.1948 17.8886 27.9879 16.8645 26.9638C16.5855 26.6846 16.4999 26.4097 16.5944 26.0984Z" fill="white"/>
<path d="M10.4069 26.0984C10.4639 25.9242 10.5568 25.7639 10.6796 25.6279C10.7752 25.5306 10.8284 25.3996 10.8276 25.2632C10.8267 25.1269 10.772 24.9965 10.6752 24.9005C10.5785 24.8044 10.4477 24.7506 10.3114 24.7507C10.175 24.7509 10.0443 24.805 9.94783 24.9013C9.38708 25.462 8.92373 26.6689 9.94783 27.693C10.2268 27.9719 10.3127 28.2469 10.2179 28.5582C10.1614 28.7313 10.0694 28.8907 9.94783 29.0263C9.85113 29.123 9.7968 29.2541 9.7968 29.3909C9.7968 29.5276 9.85113 29.6588 9.94783 29.7555C10.0445 29.8522 10.1757 29.9065 10.3124 29.9065C10.4492 29.9065 10.5803 29.8522 10.677 29.7555C11.2378 29.1948 11.7011 27.9879 10.677 26.9638C10.398 26.6846 10.3124 26.4097 10.4069 26.0984Z" fill="white"/>
<path d="M22.782 26.0984C22.839 25.9242 22.9319 25.7639 23.0547 25.6279C23.1503 25.5306 23.2035 25.3996 23.2027 25.2632C23.2018 25.1269 23.1471 24.9965 23.0503 24.9005C22.9536 24.8044 22.8228 24.7506 22.6865 24.7507C22.5502 24.7509 22.4194 24.805 22.3229 24.9013C21.7619 25.462 21.2988 26.6689 22.3229 27.693C22.6019 27.9719 22.6878 28.2469 22.5931 28.5582C22.5365 28.7313 22.4445 28.8907 22.3229 29.0263C22.2262 29.123 22.1719 29.2541 22.1719 29.3909C22.1719 29.5276 22.2262 29.6588 22.3229 29.7555C22.4196 29.8522 22.5508 29.9065 22.6875 29.9065C22.8243 29.9065 22.9555 29.8522 23.0522 29.7555C23.6132 29.1948 24.0762 27.9879 23.0522 26.9638C22.7731 26.6846 22.6875 26.4097 22.782 26.0984Z" fill="white"/>
</svg>
