<svg width="20" height="20" viewBox="0 0 20 20" fill="none" xmlns="http://www.w3.org/2000/svg">
<path d="M10.001 19.9992L9.4143 19.5033C7.5793 17.9508 1.5918 12.5633 1.5918 8.40917C1.5918 3.7725 5.3643 0 10.001 0C14.6376 0 18.4101 3.7725 18.4101 8.40917C18.4101 12.5633 12.4226 17.9508 10.5876 19.5033L10.001 19.9992ZM10.001 0.833333C5.82346 0.833333 2.42513 4.23167 2.42513 8.40917C2.42513 12.3025 8.69513 17.8033 9.9518 18.8675L10.001 18.9092L10.0501 18.8675C11.3068 17.8042 17.5768 12.3025 17.5768 8.40917C17.5768 4.23167 14.1785 0.833333 10.001 0.833333Z" fill="#1D1D1D"/>
<path d="M9.99935 11.6667C8.16102 11.6667 6.66602 10.1717 6.66602 8.33333C6.66602 6.495 8.16102 5 9.99935 5C11.8377 5 13.3327 6.495 13.3327 8.33333C13.3327 10.1717 11.8377 11.6667 9.99935 11.6667ZM9.99935 5.83333C8.62102 5.83333 7.49935 6.955 7.49935 8.33333C7.49935 9.71167 8.62102 10.8333 9.99935 10.8333C11.3777 10.8333 12.4993 9.71167 12.4993 8.33333C12.4993 6.955 11.3777 5.83333 9.99935 5.83333Z" fill="#1D1D1D"/>
</svg>
