<svg width="50" height="50" viewBox="0 0 50 50" fill="none" xmlns="http://www.w3.org/2000/svg">
<g clip-path="url(#clip0_974_646)">
<path d="M46.4062 14.2354L43.75 12.1542V5.20835C43.75 4.63335 43.2833 4.16668 42.7083 4.16668C42.1333 4.16668 41.6667 4.63335 41.6667 5.20835V10.5229L30.7812 1.99585C27.3771 -0.670817 22.6229 -0.670817 19.2188 1.99585L3.59375 14.2354C1.31042 16.025 0 18.7146 0 21.6146V40.6229C0 45.7917 4.20625 49.9979 9.375 49.9979H40.625C45.7937 49.9979 50 45.7917 50 40.6229V21.6146C50 18.7125 48.6896 16.0229 46.4062 14.2354ZM47.9167 40.625C47.9167 44.6459 44.6458 47.9167 40.625 47.9167H9.375C5.35417 47.9167 2.08333 44.6459 2.08333 40.625V21.6167C2.08333 19.3604 3.10208 17.2688 4.87917 15.8771L20.5021 3.63543C21.8271 2.59793 23.4125 2.07918 25 2.07918C26.5875 2.07918 28.1729 2.59793 29.4958 3.63543L45.1208 15.8771C46.8979 17.2688 47.9167 19.3604 47.9167 21.6167V40.625ZM31.1187 20.2979L20.7021 39.0479C20.5125 39.3917 20.1562 39.5834 19.7896 39.5834C19.6187 39.5834 19.4437 39.5417 19.2854 39.4521C18.7812 39.1729 18.6 38.5396 18.8812 38.0354L29.2979 19.2854C29.5771 18.7833 30.2125 18.5979 30.7146 18.8813C31.2187 19.1604 31.4 19.7938 31.1187 20.2979ZM31.25 31.25C28.9521 31.25 27.0833 33.1188 27.0833 35.4167C27.0833 37.7146 28.9521 39.5834 31.25 39.5834C33.5479 39.5834 35.4167 37.7146 35.4167 35.4167C35.4167 33.1188 33.5479 31.25 31.25 31.25ZM31.25 37.5C30.1021 37.5 29.1667 36.5646 29.1667 35.4167C29.1667 34.2688 30.1021 33.3334 31.25 33.3334C32.3979 33.3334 33.3333 34.2688 33.3333 35.4167C33.3333 36.5646 32.3979 37.5 31.25 37.5ZM22.9167 22.9167C22.9167 20.6188 21.0479 18.75 18.75 18.75C16.4521 18.75 14.5833 20.6188 14.5833 22.9167C14.5833 25.2146 16.4521 27.0833 18.75 27.0833C21.0479 27.0833 22.9167 25.2146 22.9167 22.9167ZM18.75 25C17.6021 25 16.6667 24.0646 16.6667 22.9167C16.6667 21.7688 17.6021 20.8333 18.75 20.8333C19.8979 20.8333 20.8333 21.7688 20.8333 22.9167C20.8333 24.0646 19.8979 25 18.75 25Z" fill="white"/>
</g>
<defs>
<clipPath id="clip0_974_646">
<rect width="50" height="50" fill="white"/>
</clipPath>
</defs>
</svg>
