<svg width="50" height="50" viewBox="0 0 50 50" fill="none" xmlns="http://www.w3.org/2000/svg">
<g clip-path="url(#clip0_406_43)">
<path d="M50 49.1667C49.7222 49.7222 49.3056 50 48.6111 50C43.3333 50 37.9167 50 32.6389 50C32.5 50 32.3611 50 32.2222 50C31.6667 49.8611 31.25 49.4444 31.25 48.8889C31.25 48.3333 31.6667 47.9167 32.2222 47.9167C33.0556 47.9167 33.8889 47.9167 34.7222 47.9167C34.8611 47.9167 35.1389 47.9167 35.4167 47.9167C35.4167 47.6389 35.4167 47.5 35.4167 47.3611C35.4167 45.1389 35.4167 43.0556 35.4167 40.8333C35.4167 40.2778 35.5556 40 36.1111 39.7222C36.8056 39.4444 37.5 40 37.5 40.8333C37.5 42.9167 37.5 45.1389 37.5 47.2222C37.5 47.5 37.5 47.6389 37.5 47.9167C40.9722 47.9167 44.4444 47.9167 47.9167 47.9167C47.9167 43.4722 47.9167 38.8889 47.9167 34.4444C47.7778 34.4444 47.5 34.4444 47.3611 34.4444C42.0833 34.4444 36.9444 34.4444 31.6667 34.4444C31.3889 34.4444 31.1111 34.4444 30.9722 34.3056C30.5556 34.1667 30.2778 33.75 30.2778 33.1944C30.2778 32.7778 30.6944 32.3611 31.1111 32.3611C31.25 32.3611 31.5278 32.3611 31.6667 32.3611C36.8056 32.3611 42.0833 32.3611 47.2222 32.3611C47.3611 32.3611 47.6389 32.3611 47.7778 32.3611C47.7778 28.1944 47.7778 24.0278 47.7778 19.8611C47.6389 19.8611 47.3611 19.8611 47.2222 19.8611C43.4722 19.8611 39.5833 19.8611 35.8333 19.8611C35.6944 19.8611 35.5556 19.8611 35.4167 19.8611C34.7222 19.8611 34.3056 19.4444 34.3056 18.75C34.3056 18.1944 34.7222 17.7778 35.4167 17.6389C35.5556 17.6389 35.6944 17.6389 35.8333 17.6389C39.5833 17.6389 43.3333 17.6389 47.2222 17.6389C47.3611 17.6389 47.6389 17.6389 47.7778 17.6389C47.7778 12.3611 47.7778 7.22222 47.7778 2.08333C41.9444 2.08333 35.9722 2.08333 30.1389 2.08333C30.1389 2.36111 30.1389 2.5 30.1389 2.63889C30.1389 7.77778 30.1389 13.0556 30.1389 18.1944C30.1389 18.3333 30.1389 18.6111 30.1389 18.75C30.1389 19.3056 29.7222 19.7222 29.1667 19.7222C28.6111 19.7222 28.1944 19.3056 28.1944 18.75C28.1944 18.6111 28.1944 18.4722 28.1944 18.1944C28.1944 13.0556 28.1944 7.77778 28.1944 2.63889C28.1944 2.5 28.1944 2.22222 28.1944 2.08333C19.4444 2.08333 10.8333 2.08333 2.22222 2.08333C2.22222 7.22222 2.22222 12.5 2.22222 17.6389C7.36111 17.6389 12.6389 17.6389 17.7778 17.6389C17.7778 17.5 17.7778 17.2222 17.7778 17.0833C17.7778 14.3056 17.7778 11.5278 17.7778 8.75C17.7778 8.47222 17.7778 8.33333 17.7778 8.05556C17.9167 7.63889 18.3333 7.22222 18.75 7.22222C19.3056 7.22222 19.5833 7.5 19.7222 8.05556C19.7222 8.19444 19.7222 8.47222 19.7222 8.75C19.7222 11.9444 19.7222 15.1389 19.7222 18.3333C19.7222 19.4444 19.4444 19.8611 18.3333 19.8611C13.1944 19.8611 7.91667 19.8611 2.77778 19.8611C2.63889 19.8611 2.36111 19.8611 2.22222 19.8611C2.22222 29.1667 2.22222 38.6111 2.22222 47.9167C7.77778 47.9167 13.3333 47.9167 18.8889 47.9167C18.8889 41.3889 18.8889 34.7222 18.8889 28.1944C18.75 28.1944 18.6111 28.1944 18.3333 28.1944C15.1389 28.1944 11.8056 28.1944 8.61111 28.1944C7.91667 28.1944 7.36111 27.7778 7.36111 27.0833C7.36111 26.5278 7.77778 26.1111 8.19444 26.1111C8.33333 26.1111 8.61111 26.1111 8.75 26.1111C15.4167 26.1111 22.0833 26.1111 28.75 26.1111C28.8889 26.1111 29.0278 26.1111 29.1667 26.1111C29.7222 26.1111 30.1389 26.5278 30.1389 27.0833C30.1389 27.6389 29.7222 28.0556 29.1667 28.0556C29.0278 28.0556 28.8889 28.0556 28.75 28.0556C26.25 28.0556 23.8889 28.0556 21.3889 28.0556C21.25 28.0556 20.9722 28.0556 20.8333 28.0556C20.8333 34.7222 20.8333 41.25 20.8333 47.9167C20.9722 47.9167 21.25 47.9167 21.3889 47.9167C22.6389 47.9167 23.75 47.9167 25 47.9167C25.6944 47.9167 26.1111 48.3333 26.1111 48.8889C26.1111 49.4444 25.6944 49.8611 25 49.8611C24.8611 49.8611 24.7222 49.8611 24.7222 49.8611C16.9444 50 9.16667 50 1.38889 50C0.277778 50 0 49.7222 0 48.6111C0 32.7778 0 17.0833 0 1.38889C0 0.694444 0.138889 0.277778 0.833333 0C16.9444 0 33.1944 0 49.3056 0C49.5833 0.277778 49.8611 0.555556 50.1389 0.833333C50 16.9444 50 33.0556 50 49.1667Z" fill="#1D1D1D"/>
<path d="M50.0001 0.833333C49.7223 0.555556 49.4445 0.277778 49.1667 0C49.4445 0 49.7223 0 50.0001 0C50.0001 0.277778 50.0001 0.555556 50.0001 0.833333Z" fill="white"/>
</g>
<defs>
<clipPath id="clip0_406_43">
<rect width="50" height="50" fill="white"/>
</clipPath>
</defs>
</svg>
