<svg width="30" height="30" viewBox="0 0 30 30" fill="none" xmlns="http://www.w3.org/2000/svg">
<path d="M30 10C30 12.06 29.2175 14.1738 28.0238 16.205C27.6813 15.3388 27.1537 14.5363 26.4375 13.8738C27.0925 12.5463 27.5 11.235 27.5 10C27.5 6.61253 24.9237 3.75003 21.875 3.75003C19.0812 3.75003 17.49 4.88128 16.4175 5.86753L11.6375 10.3038C11.1963 10.7463 11.0913 11.49 11.4338 11.9663C11.6575 12.2775 11.9862 12.465 12.3575 12.495C12.7262 12.5288 13.0837 12.3938 13.3425 12.1325L18.5588 7.13878L20.2875 8.94378L18.74 10.425L24.6737 15.6325C26.0638 16.8525 26.4062 18.9013 25.47 20.3975C24.8937 21.3175 23.9525 21.9363 22.8888 22.0925C22.8163 22.1025 22.745 22.1113 22.6725 22.1175C22.6675 22.7613 22.4963 23.3988 22.145 23.9613C21.5688 24.8813 20.6275 25.5 19.5637 25.6563C19.3325 25.6888 19.1025 25.7025 18.8725 25.6913C18.805 26.1688 18.6425 26.6338 18.3787 27.055C17.8025 27.975 16.8612 28.5925 15.7975 28.7488C15.6187 28.775 15.44 28.7875 15.2638 28.7875C14.38 28.7875 13.5225 28.4688 12.85 27.8775L8.97 24.3975C4.87625 20.7 0 15.2013 0 10C0 5.17503 3.645 1.25003 8.125 1.25003C10.1287 1.25003 11.6663 1.72003 12.8725 2.33628L10.8738 4.19128C10.1113 3.92378 9.21125 3.75003 8.125 3.75003C5.07625 3.75003 2.5 6.61253 2.5 10C2.5 13.3425 5.39125 17.7963 10.6438 22.5425L14.5113 26.01C14.7575 26.2263 15.0988 26.3263 15.4362 26.2775C15.7788 26.2275 16.0725 26.0338 16.2612 25.73C16.5487 25.2688 16.4062 24.5838 15.935 24.1713L11.9263 20.36L13.6462 18.545L18.2987 22.9375C18.5225 23.1325 18.8687 23.235 19.2013 23.1825C19.5438 23.1325 19.8375 22.9375 20.0262 22.635C20.3137 22.1738 20.1712 21.4888 19.7 21.075L15.25 17.0463L16.9188 15.1863L21.5963 19.3488C21.8463 19.5688 22.1888 19.6713 22.525 19.6188C22.8675 19.5688 23.1613 19.3738 23.35 19.0713C23.6375 18.61 23.495 17.925 23.0238 17.5113L16.9263 12.16L15.0887 13.9188C14.4 14.6088 13.4487 14.9988 12.4587 14.9988C11.1512 14.9988 10.0525 14.3288 9.4025 13.4263C8.34625 11.9588 8.56 9.84253 9.9 8.50253L14.7188 4.03003C16.0212 2.83378 18.1737 1.24878 21.8725 1.24878C26.3525 1.24878 29.9975 5.17378 29.9975 9.99878L30 10Z" fill="#434343"/>
</svg>
