<svg width="30" height="30" viewBox="0 0 30 30" fill="none" xmlns="http://www.w3.org/2000/svg">
<g clip-path="url(#clip0_977_111)">
<path d="M16.25 1.25004C16.25 0.918522 16.3817 0.60058 16.6161 0.36616C16.8505 0.131739 17.1685 4.30848e-05 17.5 4.30848e-05C20.8141 0.00368258 23.9914 1.32181 26.3348 3.66523C28.6782 6.00864 29.9963 9.18596 30 12.5C30 12.8316 29.8683 13.1495 29.6339 13.3839C29.3994 13.6183 29.0815 13.75 28.75 13.75C28.4185 13.75 28.1005 13.6183 27.8661 13.3839C27.6317 13.1495 27.5 12.8316 27.5 12.5C27.497 9.84879 26.4425 7.30698 24.5678 5.43226C22.693 3.55755 20.1512 2.50302 17.5 2.50004C17.1685 2.50004 16.8505 2.36835 16.6161 2.13393C16.3817 1.89951 16.25 1.58156 16.25 1.25004ZM17.5 7.50004C18.8261 7.50004 20.0978 8.02683 21.0355 8.96451C21.9732 9.90219 22.5 11.174 22.5 12.5C22.5 12.8316 22.6317 13.1495 22.8661 13.3839C23.1005 13.6183 23.4185 13.75 23.75 13.75C24.0815 13.75 24.3994 13.6183 24.6339 13.3839C24.8683 13.1495 25 12.8316 25 12.5C24.998 10.5115 24.2072 8.60503 22.8011 7.19894C21.395 5.79284 19.4885 5.00203 17.5 5.00004C17.1685 5.00004 16.8505 5.13174 16.6161 5.36616C16.3817 5.60058 16.25 5.91852 16.25 6.25004C16.25 6.58156 16.3817 6.89951 16.6161 7.13393C16.8505 7.36835 17.1685 7.50004 17.5 7.50004ZM28.8662 20.9238C29.5906 21.6502 29.9974 22.6342 29.9974 23.66C29.9974 24.6859 29.5906 25.6699 28.8662 26.3963L27.7287 27.7075C17.4912 37.5088 -7.42127 12.6025 2.22873 2.33254L3.66623 1.08254C4.39344 0.37839 5.36865 -0.0111456 6.38086 -0.00178836C7.39308 0.00756884 8.36091 0.415066 9.07498 1.13254C9.11373 1.17129 11.43 4.18004 11.43 4.18004C12.1173 4.90208 12.4999 5.86121 12.4982 6.85805C12.4966 7.85489 12.1109 8.81276 11.4212 9.53254L9.97373 11.3525C10.7748 13.2989 11.9526 15.0679 13.4394 16.5577C14.9262 18.0475 16.6927 19.2288 18.6375 20.0338L20.4687 18.5775C21.1886 17.8884 22.1463 17.5032 23.1429 17.5018C24.1394 17.5004 25.0982 17.883 25.82 18.57C25.82 18.57 28.8275 20.885 28.8662 20.9238ZM27.1462 22.7413C27.1462 22.7413 24.155 20.44 24.1162 20.4013C23.8587 20.146 23.5108 20.0027 23.1481 20.0027C22.7855 20.0027 22.4375 20.146 22.18 20.4013C22.1462 20.4363 19.625 22.445 19.625 22.445C19.4551 22.5803 19.2529 22.6689 19.0383 22.7022C18.8237 22.7356 18.6041 22.7124 18.4012 22.635C15.8818 21.697 13.5934 20.2285 11.691 18.3289C9.78865 16.4293 8.31674 14.1431 7.37498 11.625C7.29148 11.4194 7.26426 11.1952 7.29611 10.9755C7.32797 10.7558 7.41775 10.5485 7.55623 10.375C7.55623 10.375 9.56498 7.85254 9.59873 7.82004C9.85407 7.56253 9.99733 7.21456 9.99733 6.85192C9.99733 6.48927 9.85407 6.14131 9.59873 5.88379C9.55998 5.84629 7.25873 2.85254 7.25873 2.85254C6.99736 2.61818 6.65624 2.49266 6.30529 2.50173C5.95435 2.51079 5.62016 2.65375 5.37123 2.90129L3.93373 4.15129C-3.11877 12.6313 18.47 33.0225 25.9012 26L27.04 24.6875C27.3068 24.4404 27.4671 24.0991 27.4869 23.7359C27.5068 23.3727 27.3846 23.0161 27.1462 22.7413Z" fill="white"/>
</g>
<defs>
<clipPath id="clip0_977_111">
<rect width="30" height="30" fill="white"/>
</clipPath>
</defs>
</svg>
