<svg width="17" height="17" viewBox="0 0 17 17" fill="none" xmlns="http://www.w3.org/2000/svg">
<path d="M16.6458 7.79167C16.4503 7.79167 16.2917 7.633 16.2917 7.4375C16.2917 3.72725 13.2727 0.708333 9.5625 0.708333C9.367 0.708333 9.20833 0.549667 9.20833 0.354167C9.20833 0.158667 9.367 0 9.5625 0C13.6637 0 17 3.33625 17 7.4375C17 7.633 16.8413 7.79167 16.6458 7.79167ZM14.1667 7.4375C14.1667 4.89883 12.1012 2.83333 9.5625 2.83333C9.367 2.83333 9.20833 2.992 9.20833 3.1875C9.20833 3.383 9.367 3.54167 9.5625 3.54167C11.7109 3.54167 13.4583 5.28912 13.4583 7.4375C13.4583 7.633 13.617 7.79167 13.8125 7.79167C14.008 7.79167 14.1667 7.633 14.1667 7.4375ZM15.7491 15.7753L16.4418 14.9784C16.8017 14.6186 17 14.1397 17 13.6312C17 13.1226 16.8017 12.643 16.4071 12.2535L14.6745 10.9267C13.9322 10.1844 12.7245 10.1837 11.9807 10.9246L10.8956 11.9829C8.28892 10.9211 6.16533 8.79537 5.02067 6.10158L6.07467 5.02138C6.81771 4.27833 6.81771 3.06921 6.10512 2.36087L4.7175 0.559583C3.99712 -0.160792 2.72496 -0.143792 2.04 0.543292L1.20842 1.26863C0.428542 2.04425 0 3.09754 0 4.233C0 9.72187 7.27812 17 12.767 17C13.9025 17 14.955 16.5715 15.7491 15.7753ZM4.18554 1.02425L5.57317 2.82554C6.03996 3.29233 6.03996 4.05237 5.57033 4.52271L4.35058 5.77362C4.25283 5.87421 4.22308 6.02296 4.2755 6.15329C5.50021 9.20267 7.89721 11.599 10.8531 12.7266C10.982 12.7762 11.1279 12.7457 11.2264 12.6501L12.4773 11.4304C12.4773 11.4304 12.4794 11.4282 12.4801 11.4268C12.9327 10.9735 13.6871 10.9445 14.2085 11.4573L15.941 12.784C16.4078 13.2508 16.4078 14.0101 15.9247 14.4953L15.2313 15.2922C14.5881 15.9368 13.7126 16.2917 12.767 16.2917C7.69533 16.2917 0.708333 9.30467 0.708333 4.233C0.708333 3.28737 1.06321 2.41188 1.69079 1.785L2.52308 1.05896C2.76108 0.820958 3.07487 0.704792 3.38371 0.704792C3.6805 0.704792 3.97233 0.812458 4.18625 1.02496L4.18554 1.02425Z" fill="white"/>
</svg>
