<svg width="50" height="50" viewBox="0 0 50 50" fill="none" xmlns="http://www.w3.org/2000/svg">
<g clip-path="url(#clip0_963_866)">
<path d="M25 0C11.2142 0 0 11.2152 0 25C0 38.7848 11.2142 50 25 50C38.7858 50 50 38.7848 50 25C50 11.2152 38.7858 0 25 0ZM34.9386 25.8759L20.3553 35.2509C20.1844 35.3617 19.987 35.4167 19.7917 35.4167C19.6208 35.4167 19.4479 35.3739 19.2933 35.2896C18.9575 35.1064 18.75 34.7564 18.75 34.375V15.625C18.75 15.2436 18.9575 14.8936 19.2933 14.7104C19.6229 14.5294 20.0358 14.5405 20.3553 14.7491L34.9386 24.1241C35.2356 24.3153 35.4167 24.646 35.4167 25C35.4167 25.354 35.2356 25.6846 34.9386 25.8759Z" fill="#1D1D1D"/>
</g>
<defs>
<clipPath id="clip0_963_866">
<rect width="50" height="50" fill="white"/>
</clipPath>
</defs>
</svg>
