<svg width="25" height="26" viewBox="0 0 25 26" fill="none" xmlns="http://www.w3.org/2000/svg">
<g clip-path="url(#clip0_844_1399)">
<path d="M19.7917 25.5H5.20833C3.82751 25.4983 2.50371 24.9491 1.52731 23.9727C0.550919 22.9963 0.00165402 21.6725 0 20.2917L0 5.70833C0.00165402 4.32751 0.550919 3.00371 1.52731 2.02731C2.50371 1.05092 3.82751 0.501654 5.20833 0.5L19.7917 0.5C21.1725 0.501654 22.4963 1.05092 23.4727 2.02731C24.4491 3.00371 24.9983 4.32751 25 5.70833V20.2917C24.9983 21.6725 24.4491 22.9963 23.4727 23.9727C22.4963 24.9491 21.1725 25.4983 19.7917 25.5ZM5.20833 2.58333C4.37953 2.58333 3.58468 2.91257 2.99862 3.49862C2.41257 4.08468 2.08333 4.87953 2.08333 5.70833V20.2917C2.08333 21.1205 2.41257 21.9153 2.99862 22.5014C3.58468 23.0874 4.37953 23.4167 5.20833 23.4167H19.7917C20.6205 23.4167 21.4153 23.0874 22.0014 22.5014C22.5874 21.9153 22.9167 21.1205 22.9167 20.2917V5.70833C22.9167 4.87953 22.5874 4.08468 22.0014 3.49862C21.4153 2.91257 20.6205 2.58333 19.7917 2.58333H5.20833ZM9.73125 18.2135C9.29701 18.2121 8.87084 18.096 8.49583 17.8771C8.12536 17.665 7.81787 17.3584 7.60482 16.9885C7.39178 16.6186 7.28083 16.1987 7.28333 15.7719V10.2281C7.28298 9.80119 7.39491 9.38167 7.6079 9.01166C7.82088 8.64165 8.12743 8.33416 8.49679 8.12004C8.86614 7.90592 9.28532 7.7927 9.71225 7.79174C10.1392 7.79078 10.5589 7.90212 10.9292 8.11458L16.4271 10.8594C16.809 11.0655 17.1288 11.3701 17.3534 11.7414C17.578 12.1128 17.6991 12.5375 17.7043 12.9714C17.7095 13.4054 17.5986 13.8329 17.383 14.2095C17.1674 14.5861 16.855 14.8983 16.4781 15.1135L10.8781 17.9125C10.5289 18.1117 10.1333 18.2155 9.73125 18.2135ZM9.70521 9.88021C9.6478 9.88019 9.5914 9.89528 9.54167 9.92396C9.48764 9.95401 9.44281 9.99819 9.41198 10.0518C9.38116 10.1054 9.36549 10.1663 9.36667 10.2281V15.7719C9.36702 15.8328 9.3832 15.8925 9.41363 15.9453C9.44406 15.998 9.48768 16.0419 9.54022 16.0727C9.59276 16.1035 9.65239 16.1201 9.71328 16.1209C9.77417 16.1216 9.83421 16.1065 9.8875 16.0771L15.4875 13.2771C15.5292 13.2445 15.5624 13.2022 15.5841 13.1539C15.6059 13.1057 15.6156 13.0529 15.6125 13C15.6138 12.938 15.5981 12.8769 15.567 12.8233C15.536 12.7696 15.4908 12.7256 15.4365 12.6958L9.94271 9.95104C9.87108 9.9071 9.7892 9.88268 9.70521 9.88021Z" fill="white"/>
</g>
<defs>
<clipPath id="clip0_844_1399">
<rect width="25" height="25" fill="white" transform="translate(0 0.5)"/>
</clipPath>
</defs>
</svg>
