<svg version="1.2" xmlns="http://www.w3.org/2000/svg" viewBox="0 0 218 167" width="218" height="167">
	<title>quote-right</title>
	<defs>
		<linearGradient id="g1" x2="1" gradientUnits="userSpaceOnUse" gradientTransform="matrix(0,163.5,-90.833,0,172.583,2.167)">
			<stop offset="0" stop-color="#373737"/>
			<stop offset="1" stop-color="#2f2f2f"/>
		</linearGradient>
		<linearGradient id="g2" x2="1" gradientUnits="userSpaceOnUse" gradientTransform="matrix(0,163.501,-90.833,0,45.417,2.166)">
			<stop offset="0" stop-color="#373737"/>
			<stop offset="1" stop-color="#2f2f2f"/>
		</linearGradient>
	</defs>
	<style>
		.s0 { fill: url(#g1) } 
		.s1 { fill: url(#g2) } 
	</style>
	<path class="s0" d="m145.3 165.7h36.4c9.6 0 18.8-3.9 25.7-10.7 6.8-6.8 10.6-16 10.6-25.7v-36.3c0-4.8-1.9-9.4-5.3-12.8-3.4-3.5-8-5.4-12.9-5.4h-45.4c0-12 4.8-23.6 13.3-32.1 8.5-8.5 20.1-13.3 32.1-13.3 3.6 0 7.1-1.4 9.7-4 2.5-2.5 4-6 4-9.6 0-3.6-1.5-7.1-4-9.6-2.6-2.6-6.1-4-9.7-4-19.2 0-37.7 7.7-51.3 21.3-13.6 13.6-21.3 32.1-21.3 51.3v72.7c0 4.8 1.9 9.4 5.3 12.8 3.4 3.5 8 5.4 12.8 5.4z"/>
	<path class="s1" d="m18.2 165.7h36.3c9.6 0 18.9-3.9 25.7-10.7 6.8-6.8 10.6-16 10.6-25.7v-36.3c0-4.8-1.9-9.4-5.3-12.8-3.4-3.5-8-5.4-12.8-5.4h-45.4c0-12 4.8-23.6 13.3-32.1 8.5-8.5 20-13.3 32.1-13.3 3.6 0 7-1.4 9.6-4 2.6-2.5 4-6 4-9.6 0-3.6-1.4-7.1-4-9.6-2.6-2.6-6-4-9.6-4-19.3 0-37.8 7.7-51.4 21.3-13.6 13.6-21.3 32.1-21.3 51.3v72.7c0 4.8 1.9 9.4 5.3 12.8 3.4 3.5 8 5.4 12.9 5.4z"/>
</svg>