<svg width="372" height="268" viewBox="0 0 372 268" fill="none" xmlns="http://www.w3.org/2000/svg">
<path d="M75.483 267.094C74.9332 267.088 74.3866 267.01 73.8572 266.861C72.6511 266.51 71.5917 265.776 70.8379 264.771C70.0841 263.766 69.6766 262.544 69.6766 261.287V148.44H5.80639C4.26644 148.44 2.78956 147.829 1.70065 146.74C0.611743 145.651 0 144.174 0 142.634V5.80639C0 4.26644 0.611743 2.78956 1.70065 1.70065C2.78956 0.611744 4.26644 0 5.80639 0H150.966C152.506 0 153.983 0.611744 155.072 1.70065C156.161 2.78956 156.772 4.26644 156.772 5.80639V142.518C156.773 143.618 156.461 144.695 155.872 145.624L80.3894 264.394C79.8656 265.221 79.1411 265.902 78.2832 266.374C77.4254 266.846 76.4621 267.094 75.483 267.094ZM11.6128 136.711H75.483C77.023 136.711 78.4998 137.323 79.5887 138.412C80.6777 139.501 81.2894 140.978 81.2894 142.518V241.226L145.16 140.805V11.6128H11.6128V136.711Z" fill="#FF6B2D"/>
<path d="M290.319 267.094C289.769 267.088 289.223 267.01 288.693 266.861C287.487 266.51 286.428 265.776 285.674 264.771C284.92 263.766 284.513 262.544 284.513 261.287V148.44H220.642C219.102 148.44 217.625 147.829 216.537 146.74C215.448 145.651 214.836 144.174 214.836 142.634V5.80639C214.836 4.26644 215.448 2.78956 216.537 1.70065C217.625 0.611744 219.102 0 220.642 0H365.802C367.342 0 368.819 0.611744 369.908 1.70065C370.997 2.78956 371.608 4.26644 371.608 5.80639V142.518C371.609 143.618 371.296 144.695 370.708 145.624L295.225 264.394C294.702 265.221 293.977 265.902 293.119 266.374C292.261 266.846 291.298 267.094 290.319 267.094ZM226.449 136.711H290.319C291.859 136.711 293.336 137.323 294.425 138.412C295.514 139.501 296.125 140.978 296.125 142.518V241.226L359.996 140.805V11.6128H226.449V136.711Z" fill="#FF6B2D"/>
</svg>
