<svg width="49" height="49" viewBox="0 0 49 49" fill="none" xmlns="http://www.w3.org/2000/svg">
<path d="M41.0892 24.5H34.709V19.3958C34.709 16.5805 36.9979 14.2916 39.8131 14.2916H40.4512C41.5119 14.2916 42.3652 13.4383 42.3652 12.3776V8.54944C42.3652 7.48873 41.5119 6.63538 40.4512 6.63538H39.8131C32.763 6.63538 27.0527 12.3457 27.0527 19.3958V38.5364C27.0527 40.6499 28.7674 42.3645 30.8809 42.3645H41.0892C43.2026 42.3645 44.9173 40.6499 44.9173 38.5364V28.3281C44.9173 26.2146 43.2026 24.5 41.0892 24.5ZM18.1204 24.5H11.7402V19.3958C11.7402 16.5805 14.0291 14.2916 16.8444 14.2916H17.4824C18.5431 14.2916 19.3965 13.4383 19.3965 12.3776V8.54944C19.3965 7.48873 18.5431 6.63538 17.4824 6.63538H16.8444C9.79427 6.63538 4.08398 12.3457 4.08398 19.3958V38.5364C4.08398 40.6499 5.79867 42.3645 7.91211 42.3645H18.1204C20.2339 42.3645 21.9486 40.6499 21.9486 38.5364V28.3281C21.9486 26.2146 20.2339 24.5 18.1204 24.5Z" fill="#1D1D1D"/>
</svg>
