<svg width="30" height="30" viewBox="0 0 30 30" fill="none" xmlns="http://www.w3.org/2000/svg">
<g clip-path="url(#clip0_647_449)">
<path d="M28.535 12.3925L24.2838 8.14125C23.6738 3.5375 19.6988 0 15 0C10.9626 0 7.4813 2.54875 6.1788 6.285C5.9188 6.31 5.6588 6.35 5.40005 6.405C2.73005 6.96375 0.605051 9.15375 0.115051 11.8525C-0.338699 14.3625 0.568801 16.81 2.50005 18.3937V18.7487C2.50005 19.0812 2.6313 19.3988 2.8663 19.6325L3.85755 20.6238L2.8663 21.615C2.37755 22.1038 2.37755 22.8937 2.8663 23.3825L3.85755 24.3738L2.8663 25.365C2.6313 25.6 2.50005 25.9175 2.50005 26.2488C2.50005 26.58 2.6313 26.8987 2.8663 27.1325L4.9263 29.1912C5.4638 29.7288 6.1688 29.9988 6.8763 29.9988C7.5813 29.9988 8.2888 29.7288 8.8263 29.1912L10.1525 27.8638C10.8601 27.1562 11.2513 26.2138 11.2513 25.2125V18.4237C12.8288 17.1225 13.7513 15.1875 13.7513 13.1225C13.7513 11.0425 12.8251 9.09625 11.2088 7.78375C10.4776 7.19 9.64005 6.77 8.75505 6.52C9.8513 4.1025 12.255 2.49875 15.0026 2.49875C18.4025 2.49875 21.2638 5.03 21.7701 8.33875L17.7176 12.3913C16.7863 13.3212 16.2526 14.61 16.2526 15.9263V24.9988C16.2526 27.7563 18.4951 29.9988 21.2526 29.9988H25.0026C27.7601 29.9988 30.0026 27.7563 30.0026 24.9988V15.9263C30.0026 14.61 29.4688 13.3212 28.5375 12.3913L28.535 12.3925ZM11.25 13.125C11.25 14.5863 10.5226 15.945 9.3038 16.7612C8.95755 16.9937 8.75005 17.3825 8.75005 17.8V25.215C8.75005 25.5438 8.61755 25.8662 8.3838 26.0987L7.05755 27.4263C6.97255 27.5112 6.7788 27.5112 6.6938 27.4263L5.51755 26.2512L6.5088 25.26C6.99755 24.7712 6.99755 23.9813 6.5088 23.4925L5.51755 22.5012L6.5088 21.51C6.99755 21.0212 6.99755 20.2312 6.5088 19.7425L5.00005 18.2337V17.7687C5.00005 17.3525 4.79255 16.9625 4.44755 16.7313C2.9763 15.7438 2.26005 14.0462 2.5763 12.3012C2.8863 10.5925 4.22755 9.205 5.9138 8.8525C7.2738 8.56875 8.5888 8.88 9.63255 9.7275C10.6613 10.5638 11.2513 11.8013 11.2513 13.1263L11.25 13.125ZM27.5 25C27.5 26.3787 26.3788 27.5 25 27.5H21.25C19.8713 27.5 18.75 26.3787 18.75 25V15.9275C18.75 15.27 19.0176 14.625 19.4826 14.16L23.125 10.5175L26.7675 14.16C27.2325 14.625 27.5 15.27 27.5 15.9275V25ZM6.87505 10C7.91005 10 8.75005 10.84 8.75005 11.875C8.75005 12.91 7.91005 13.75 6.87505 13.75C5.84005 13.75 5.00005 12.91 5.00005 11.875C5.00005 10.84 5.84005 10 6.87505 10Z" fill="#1D1D1D"/>
</g>
<defs>
<clipPath id="clip0_647_449">
<rect width="30" height="30" fill="white"/>
</clipPath>
</defs>
</svg>
