<svg width="50" height="50" viewBox="0 0 50 50" fill="none" xmlns="http://www.w3.org/2000/svg">
<g clip-path="url(#clip0_974_651)">
<path d="M18.75 25C25.6437 25 31.25 19.3937 31.25 12.5C31.25 5.60625 25.6437 0 18.75 0C11.8562 0 6.25 5.60625 6.25 12.5C6.25 19.3937 11.8562 25 18.75 25ZM18.75 2.08333C24.4937 2.08333 29.1667 6.75625 29.1667 12.5C29.1667 18.2437 24.4937 22.9167 18.75 22.9167C13.0062 22.9167 8.33333 18.2437 8.33333 12.5C8.33333 6.75625 13.0062 2.08333 18.75 2.08333ZM21.875 30.2083C21.875 30.7833 21.4083 31.25 20.8333 31.25H19.7917C10.0271 31.25 2.08333 39.1937 2.08333 48.9583C2.08333 49.5333 1.61667 50 1.04167 50C0.466667 50 0 49.5333 0 48.9583C0 38.0458 8.87917 29.1667 19.7917 29.1667H20.8333C21.4083 29.1667 21.875 29.6333 21.875 30.2083ZM49.8208 34.9146C49.3979 33.7542 48.2833 32.975 47.0479 32.975H42.0521L40.2687 27.9625C39.8396 26.8146 38.7292 26.0417 37.5021 26.0417C36.275 26.0417 35.1646 26.8146 34.7312 27.9771L32.9521 32.975H27.9562C26.7229 32.975 25.6104 33.7521 25.1854 34.9062C24.7583 36.0646 25.1042 37.3792 26.0625 38.1896L30.0458 41.4312L28.4687 46.1646C28.0958 47.3583 28.5167 48.6646 29.5167 49.4104C30.0229 49.7917 30.6521 50 31.2854 50C31.8729 50 32.4417 49.8271 32.9271 49.5021L37.5271 46.4229L42.2104 49.4729C43.2604 50.1521 44.6271 50.1 45.625 49.3375C46.6167 48.5729 47.0167 47.2625 46.6188 46.0542L44.9917 41.4146L48.9562 38.1854C49.9 37.3896 50.25 36.075 49.8271 34.9167L49.8208 34.9146ZM47.6208 36.5792L43.1021 40.2604C42.7604 40.5375 42.6292 40.9979 42.7771 41.4125L44.6417 46.725C44.7583 47.075 44.6417 47.4625 44.35 47.6833C44.0521 47.9083 43.65 47.925 43.3417 47.725L38.0833 44.3C37.7354 44.0729 37.2833 44.0771 36.9354 44.3062L31.7646 47.7687C31.4667 47.9667 31.0521 47.9604 30.7646 47.7396C30.4688 47.5208 30.3458 47.1354 30.4521 46.8L32.2479 41.4021C32.3833 40.9917 32.2521 40.5375 31.9167 40.2667L27.3917 36.5854C27.1167 36.3521 27.0146 35.9667 27.1417 35.625C27.2667 35.2833 27.5937 35.0562 27.9562 35.0562H33.6875C34.1292 35.0562 34.5208 34.7792 34.6688 34.3646L36.6917 28.6875C36.9437 28.0104 38.0708 28.025 38.3146 28.6729L40.3417 34.3625C40.4875 34.7771 40.8812 35.0542 41.3229 35.0542H47.0542C47.4188 35.0542 47.7458 35.2833 47.8708 35.625C47.9958 35.9667 47.8917 36.3542 47.6292 36.5771L47.6208 36.5792Z" fill="white"/>
</g>
<defs>
<clipPath id="clip0_974_651">
<rect width="50" height="50" fill="white"/>
</clipPath>
</defs>
</svg>
