<svg width="35" height="35" viewBox="0 0 35 35" fill="none" xmlns="http://www.w3.org/2000/svg">
<g clip-path="url(#clip0_761_1028)">
<path d="M34.4581 23.6643H32.9598C32.8349 23.2655 32.6751 22.8794 32.4819 22.51L33.5412 21.4508C33.6429 21.3493 33.6999 21.2114 33.6999 21.0677C33.6999 20.924 33.6428 20.7863 33.5412 20.6846L31.3198 18.4634C31.1083 18.2519 30.7654 18.2519 30.5538 18.4634L29.4946 19.5226C29.1253 19.3295 28.7391 19.1696 28.3403 19.0448V17.5463C28.3403 17.2471 28.0978 17.0046 27.7986 17.0046H24.6574C24.3582 17.0046 24.1157 17.2471 24.1157 17.5463V19.0448C23.7167 19.1697 23.3307 19.3295 22.9614 19.5227L21.9022 18.4634C21.8007 18.3618 21.6629 18.3048 21.5191 18.3048C21.3754 18.3048 21.2378 18.3618 21.1361 18.4634L18.9148 20.6846C18.8131 20.7863 18.7561 20.924 18.7561 21.0677C18.7561 21.2113 18.8132 21.3492 18.9147 21.4508L19.9739 22.5099C19.7808 22.8792 19.6209 23.2653 19.496 23.6643H17.9977C17.6985 23.6643 17.4561 23.9068 17.4561 24.206V27.3473C17.4561 27.6465 17.6985 27.889 17.9977 27.889H19.496C19.6209 28.2877 19.7806 28.6738 19.9739 29.0433L18.9148 30.1024C18.7032 30.314 18.7032 30.6569 18.9148 30.8685L21.1361 33.0899C21.2378 33.1915 21.3754 33.2485 21.5192 33.2485C21.663 33.2485 21.8006 33.1915 21.9023 33.0899L22.9614 32.0306C23.3309 32.224 23.717 32.3838 24.1158 32.5086V34.0069C24.1158 34.3061 24.3583 34.5486 24.6575 34.5486H27.7988C28.098 34.5486 28.3404 34.3061 28.3404 34.0069V32.5086C28.7391 32.3837 29.1252 32.2239 29.4948 32.0306L30.5539 33.0899C30.6554 33.1915 30.7932 33.2485 30.937 33.2485C31.0808 33.2485 31.2184 33.1915 31.3201 33.0899L33.5415 30.8685C33.643 30.7669 33.7001 30.6292 33.7001 30.4854C33.7001 30.3418 33.643 30.204 33.5414 30.1024L32.4821 29.0431C32.6754 28.6736 32.8352 28.2874 32.96 27.8889H34.4583C34.7575 27.8889 34.9999 27.6464 34.9999 27.3472V24.206C34.9997 23.9067 34.7573 23.6643 34.4581 23.6643ZM33.9164 26.8055H32.5493C32.3004 26.8055 32.0835 26.9753 32.0236 27.2168C31.8802 27.7956 31.6518 28.3472 31.3448 28.8562C31.2163 29.0695 31.2497 29.343 31.4257 29.5191L32.3922 30.4854L30.9369 31.9407L29.9705 30.9741C29.7944 30.798 29.5209 30.7646 29.3077 30.8933C28.7987 31.2004 28.2471 31.4288 27.6684 31.5721C27.4267 31.632 27.257 31.8489 27.257 32.0979V33.4651H25.1991V32.0979C25.1991 31.8489 25.0293 31.632 24.7877 31.5721C24.2087 31.4287 23.6572 31.2003 23.1486 30.8933C22.9352 30.7646 22.6618 30.7979 22.4856 30.9741L21.5192 31.9407L20.064 30.4854L21.0304 29.5191C21.2065 29.343 21.2398 29.0695 21.1112 28.8562C20.8044 28.3475 20.576 27.7959 20.4324 27.2168C20.3725 26.9752 20.1556 26.8055 19.9067 26.8055H18.5396V24.7476H19.9066C20.1556 24.7476 20.3725 24.5779 20.4323 24.3364C20.576 23.7568 20.8044 23.2052 21.111 22.6971C21.2397 22.4838 21.2064 22.2103 21.0303 22.0341L20.0638 21.0677L21.5191 19.6125L22.4855 20.5791C22.6616 20.7552 22.9351 20.7887 23.1484 20.6598C23.6566 20.3532 24.2082 20.1248 24.7878 19.981C25.0294 19.9211 25.199 19.7041 25.199 19.4553V18.0881H27.2569V19.4553C27.2569 19.7042 27.4266 19.9211 27.6681 19.981C28.2476 20.1248 28.7992 20.3532 29.3077 20.6598C29.5209 20.7885 29.7943 20.7548 29.9705 20.579L30.9369 19.6125L32.3921 21.0677L31.4257 22.034C31.2496 22.2102 31.2163 22.4836 31.3449 22.6969C31.6516 23.2054 31.88 23.7571 32.0236 24.3363C32.0835 24.5779 32.3004 24.7476 32.5493 24.7476H33.9164V26.8055Z" fill="white"/>
<path d="M26.1538 21.1021C23.5763 21.1021 21.4795 23.199 21.4795 25.7767C21.4795 28.3542 23.5763 30.4512 26.1538 30.4512C28.7313 30.4512 30.8283 28.3542 30.8283 25.7767C30.8283 23.1991 28.7313 21.1021 26.1538 21.1021ZM26.1538 29.3677C24.1737 29.3677 22.5629 27.7568 22.5629 25.7766C22.5629 23.7964 24.1737 22.1853 26.1538 22.1853C28.1339 22.1853 29.745 23.7964 29.745 25.7766C29.745 27.7568 28.1339 29.3677 26.1538 29.3677Z" fill="white"/>
<path d="M29.0149 11.9713H26.1291C25.883 11.1123 25.5413 10.2867 25.1091 9.5076L27.1496 7.46748C27.2513 7.36597 27.3083 7.22815 27.3083 7.08439C27.3083 6.94077 27.2512 6.80303 27.1497 6.70131L23.3071 2.85876C23.0954 2.64726 22.7525 2.64726 22.541 2.85876L20.5006 4.89908C19.722 4.46712 18.8962 4.12532 18.0368 3.87916V0.993096C18.0368 0.693887 17.7944 0.451416 17.4951 0.451416H12.0613C11.7621 0.451416 11.5196 0.693887 11.5196 0.993096V3.87916C10.6599 4.12546 9.83411 4.46739 9.05584 4.89929L7.01565 2.85896C6.91407 2.75731 6.77633 2.7003 6.63257 2.7003C6.48888 2.7003 6.35113 2.75738 6.24948 2.85896L2.40728 6.70151C2.1957 6.91309 2.1957 7.25598 2.40728 7.46755L4.44746 9.50767C4.0155 10.2863 3.67363 11.112 3.42754 11.9713H0.54168C0.242471 11.9713 0 12.2139 0 12.513V17.9469C0 18.2461 0.242471 18.4886 0.54168 18.4886H3.42747C3.67363 19.3477 4.0155 20.1734 4.44746 20.9522L2.40728 22.9926C2.1957 23.2041 2.1957 23.547 2.40728 23.7586L6.24948 27.6012C6.35113 27.7028 6.48881 27.7598 6.63257 27.7598C6.77633 27.7598 6.914 27.7027 7.01565 27.6012L9.05577 25.5606C9.83479 25.9929 10.6606 26.3349 11.5196 26.581V29.467C11.5196 29.7662 11.7621 30.0087 12.0613 30.0087H16.3464C16.524 30.0087 16.6903 29.9217 16.7915 29.7758C16.8926 29.6299 16.9159 29.4437 16.8538 29.2775C16.4357 28.1584 16.2237 26.9805 16.2237 25.7766C16.2237 24.6061 16.4242 23.4591 16.8198 22.3676C16.8876 22.1803 16.8472 21.971 16.7147 21.8224C16.5821 21.6738 16.3788 21.6098 16.185 21.6561C15.6796 21.7765 15.1628 21.8376 14.6489 21.8376C11.0058 21.8376 8.04187 18.8736 8.04187 15.2304C8.04187 11.5871 11.0058 8.62296 14.6489 8.62296C18.2921 8.62296 21.2561 11.5871 21.2561 15.2304C21.2561 15.5353 21.2337 15.8486 21.1894 16.1619C21.1616 16.3591 21.2442 16.5557 21.4046 16.6738C21.5651 16.792 21.7771 16.8124 21.9573 16.7274C23.298 16.0934 24.735 15.7719 26.2282 15.7719C27.1236 15.7719 28.0131 15.8909 28.8721 16.1257C29.0352 16.1703 29.2094 16.1362 29.3436 16.0337C29.4778 15.9313 29.5566 15.772 29.5566 15.6031V12.5131C29.5566 12.2138 29.3141 11.9713 29.0149 11.9713ZM28.4734 14.9167C27.7367 14.765 26.9842 14.6884 26.2283 14.6884C24.8825 14.6884 23.5778 14.9243 22.3378 15.3903C22.339 15.3368 22.3395 15.2833 22.3395 15.2302C22.3395 10.9895 18.8895 7.53946 14.6489 7.53946C10.4083 7.53946 6.95851 10.9896 6.95851 15.2302C6.95851 19.4708 10.4084 22.9207 14.6489 22.9207C14.941 22.9207 15.234 22.9038 15.5255 22.8701C15.2697 23.8136 15.1404 24.7876 15.1404 25.7764C15.1404 26.8507 15.2929 27.9066 15.5945 28.9253H12.6031V26.1651C12.6031 25.9161 12.4333 25.6992 12.1918 25.6394C11.1513 25.3815 10.1605 24.9711 9.24697 24.4196C9.03362 24.2909 8.76012 24.3243 8.58395 24.5004L6.63264 26.4521L3.5564 23.3757L5.50771 21.4241C5.68381 21.248 5.7171 20.9745 5.58845 20.7613C5.0374 19.8478 4.62718 18.8572 4.36912 17.8165C4.30924 17.5749 4.09233 17.4052 3.84344 17.4052H1.08336V13.0547H3.84337C4.09227 13.0547 4.30917 12.885 4.36905 12.6434C4.62725 11.6025 5.03747 10.6117 5.58838 9.69859C5.71703 9.48538 5.68367 9.21187 5.50765 9.03571L3.55633 7.08453L6.63257 4.00809L8.58389 5.95961C8.75998 6.1357 9.03342 6.16906 9.2469 6.04034C10.1594 5.4895 11.1503 5.07921 12.1918 4.82074C12.4334 4.76079 12.603 4.54389 12.603 4.29506V1.53491H16.9534V4.29513C16.9534 4.54402 17.1231 4.76093 17.3646 4.82081C18.4057 5.079 19.3965 5.4893 20.3096 6.04014C20.5229 6.16879 20.7964 6.13522 20.9724 5.9594L22.9239 4.00795L26.0005 7.08446L24.049 9.03571C23.8729 9.21181 23.8395 9.48531 23.9682 9.69859C24.5193 10.6123 24.9296 11.6032 25.1874 12.6434C25.2473 12.885 25.4642 13.0547 25.7131 13.0547H28.4733V14.9167H28.4734Z" fill="white"/>
<path d="M19.5505 12.5679C19.4081 12.3048 19.0795 12.2069 18.8163 12.3492C18.5531 12.4915 18.4552 12.8203 18.5976 13.0834C18.9505 13.7358 19.137 14.4755 19.137 15.2224C19.137 17.705 17.1173 19.7248 14.6347 19.7248C12.1521 19.7248 10.1323 17.705 10.1323 15.2224C10.1323 12.7398 12.1521 10.72 14.6347 10.72C15.6541 10.72 16.6155 11.0522 17.4147 11.6806C17.65 11.8654 17.9906 11.8246 18.1754 11.5895C18.3603 11.3543 18.3195 11.0138 18.0843 10.8289C17.0922 10.049 15.8993 9.63672 14.6346 9.63672C11.5545 9.63672 9.04883 12.1424 9.04883 15.2224C9.04883 18.3025 11.5545 20.8082 14.6346 20.8082C17.7146 20.8082 20.2203 18.3025 20.2203 15.2224C20.2203 14.296 19.9887 13.3781 19.5505 12.5679Z" fill="white"/>
<path d="M26.1533 23.1936C24.7291 23.1936 23.5703 24.3524 23.5703 25.7766C23.5703 27.2009 24.7291 28.3597 26.1533 28.3597C27.5776 28.3597 28.7364 27.2009 28.7364 25.7766C28.7364 24.3524 27.5776 23.1936 26.1533 23.1936ZM26.1533 27.2762C25.3265 27.2762 24.6537 26.6035 24.6537 25.7766C24.6537 24.9496 25.3264 24.2769 26.1533 24.2769C26.9803 24.2769 27.653 24.9496 27.653 25.7766C27.653 26.6035 26.9802 27.2762 26.1533 27.2762Z" fill="white"/>
</g>
<defs>
<clipPath id="clip0_761_1028">
<rect width="35" height="35" fill="white"/>
</clipPath>
</defs>
</svg>
