<svg width="35" height="35" viewBox="0 0 35 35" fill="none" xmlns="http://www.w3.org/2000/svg">
<g clip-path="url(#clip0_974_609)">
<path d="M27.0966 3.12082L17.9602 0.07436C17.661 -0.0252749 17.3377 -0.0252749 17.0385 0.07436L7.90206 3.12082C6.44942 3.60335 5.18579 4.5314 4.29071 5.7731C3.39562 7.01481 2.91461 8.50701 2.91602 10.0377V17.5C2.91602 28.5294 16.3327 34.6208 16.9073 34.8746C17.0937 34.9574 17.2954 35.0002 17.4994 35.0002C17.7033 35.0002 17.905 34.9574 18.0914 34.8746C18.666 34.6208 32.0827 28.5294 32.0827 17.5V10.0377C32.0841 8.50701 31.6031 7.01481 30.708 5.7731C29.8129 4.5314 28.5493 3.60335 27.0966 3.12082ZM29.166 17.5C29.166 25.4552 19.9508 30.6731 17.4994 31.9214C15.045 30.6775 5.83269 25.4756 5.83269 17.5V10.0377C5.83277 9.11935 6.12184 8.22431 6.65893 7.4794C7.19602 6.73449 7.9539 6.17747 8.82518 5.88728L17.4994 2.9954L26.1735 5.88728C27.0448 6.17747 27.8027 6.73449 28.3398 7.4794C28.8769 8.22431 29.1659 9.11935 29.166 10.0377V17.5Z" fill="white"/>
<path d="M22.3129 12.1042L16.2054 18.2292L12.9329 14.8167C12.8016 14.6731 12.6428 14.5572 12.466 14.4759C12.2892 14.3946 12.0979 14.3495 11.9034 14.3433C11.709 14.3371 11.5152 14.3698 11.3335 14.4396C11.1519 14.5095 10.9861 14.6149 10.8458 14.7498C10.7056 14.8847 10.5937 15.0463 10.5169 15.2251C10.4401 15.4039 10.3998 15.5962 10.3985 15.7908C10.3971 15.9854 10.4347 16.1783 10.5091 16.3581C10.5835 16.538 10.6931 16.7011 10.8314 16.8379L14.1943 20.3379C14.4451 20.6088 14.7483 20.826 15.0854 20.9764C15.4226 21.1268 15.7867 21.2073 16.1558 21.2129H16.2039C16.5657 21.2141 16.9241 21.1434 17.2583 21.005C17.5925 20.8665 17.8959 20.6631 18.1508 20.4064L24.3808 14.1764C24.5169 14.0407 24.6249 13.8794 24.6986 13.7019C24.7724 13.5244 24.8104 13.3341 24.8106 13.1418C24.8108 12.9496 24.7732 12.7592 24.6998 12.5816C24.6264 12.4039 24.5188 12.2424 24.383 12.1063C24.2472 11.9703 24.086 11.8623 23.9084 11.7885C23.7309 11.7148 23.5406 11.6767 23.3484 11.6765C23.1562 11.6763 22.9658 11.714 22.7881 11.7873C22.6104 11.8607 22.449 11.9684 22.3129 12.1042Z" fill="white"/>
</g>
<defs>
<clipPath id="clip0_974_609">
<rect width="35" height="35" fill="white"/>
</clipPath>
</defs>
</svg>
