<svg width="45" height="45" viewBox="0 0 45 45" fill="none" xmlns="http://www.w3.org/2000/svg">
<g clip-path="url(#clip0_740_407)">
<path d="M0.65918 44.3408H44.3408" stroke="#1D1D1D" stroke-width="1.31836" stroke-miterlimit="10" stroke-linecap="round" stroke-linejoin="round"/>
<path d="M30.0362 44.3408V3.55957L15.4504 8.28185C15.1604 8.37571 14.9639 8.64589 14.9639 8.95078V44.3408" stroke="#1D1D1D" stroke-width="1.31836" stroke-miterlimit="10" stroke-linecap="round" stroke-linejoin="round"/>
<path d="M32.5559 13.7637H30.0352" stroke="#1D1D1D" stroke-width="1.31836" stroke-miterlimit="10" stroke-linecap="round" stroke-linejoin="round"/>
<path d="M35.6328 13.7637H38.2941C38.8769 13.7637 39.3488 14.2356 39.3488 14.8184V44.3408" stroke="#1D1D1D" stroke-width="1.31836" stroke-miterlimit="10" stroke-linecap="round" stroke-linejoin="round"/>
<path d="M30.0361 18.1318H39.3485" stroke="#1D1D1D" stroke-width="1.31836" stroke-miterlimit="10" stroke-linecap="round" stroke-linejoin="round"/>
<path d="M30.0361 35.6045H39.3485" stroke="#1D1D1D" stroke-width="1.31836" stroke-miterlimit="10" stroke-linecap="round" stroke-linejoin="round"/>
<path d="M30.0361 26.8682H39.3485" stroke="#1D1D1D" stroke-width="1.31836" stroke-miterlimit="10" stroke-linecap="round" stroke-linejoin="round"/>
<path d="M30.0361 22.5H39.3485" stroke="#1D1D1D" stroke-width="1.31836" stroke-miterlimit="10" stroke-linecap="round" stroke-linejoin="round"/>
<path d="M30.0361 39.9727H39.3485" stroke="#1D1D1D" stroke-width="1.31836" stroke-miterlimit="10" stroke-linecap="round" stroke-linejoin="round"/>
<path d="M30.0361 31.2363H39.3485" stroke="#1D1D1D" stroke-width="1.31836" stroke-miterlimit="10" stroke-linecap="round" stroke-linejoin="round"/>
<path d="M30.0361 3.55957V0.65918" stroke="#1D1D1D" stroke-width="1.31836" stroke-miterlimit="10" stroke-linecap="round" stroke-linejoin="round"/>
<path d="M22.5 9.94359V44.3232" stroke="#1D1D1D" stroke-width="1.31836" stroke-miterlimit="10" stroke-linecap="round" stroke-linejoin="round"/>
<path d="M26.2676 9.94359V44.3232" stroke="#1D1D1D" stroke-width="1.31836" stroke-miterlimit="10" stroke-linecap="round" stroke-linejoin="round"/>
<path d="M18.7324 9.94359V44.3232" stroke="#1D1D1D" stroke-width="1.31836" stroke-miterlimit="10" stroke-linecap="round" stroke-linejoin="round"/>
<path d="M6.96484 32.8562V19.1865C6.96484 18.6038 7.43682 18.1318 8.01953 18.1318H14.9646" stroke="#1D1D1D" stroke-width="1.31836" stroke-miterlimit="10" stroke-linecap="round" stroke-linejoin="round"/>
<path d="M6.96484 44.3408V35.9323" stroke="#1D1D1D" stroke-width="1.31836" stroke-miterlimit="10" stroke-linecap="round" stroke-linejoin="round"/>
<path d="M10.7461 35.6045H14.9634" stroke="#1D1D1D" stroke-width="1.31836" stroke-miterlimit="10" stroke-linecap="round" stroke-linejoin="round"/>
<path d="M10.7461 26.8682H14.9634" stroke="#1D1D1D" stroke-width="1.31836" stroke-miterlimit="10" stroke-linecap="round" stroke-linejoin="round"/>
<path d="M10.7461 22.5H14.9634" stroke="#1D1D1D" stroke-width="1.31836" stroke-miterlimit="10" stroke-linecap="round" stroke-linejoin="round"/>
<path d="M10.7461 39.9727H14.9634" stroke="#1D1D1D" stroke-width="1.31836" stroke-miterlimit="10" stroke-linecap="round" stroke-linejoin="round"/>
<path d="M10.7461 31.2363H14.9634" stroke="#1D1D1D" stroke-width="1.31836" stroke-miterlimit="10" stroke-linecap="round" stroke-linejoin="round"/>
</g>
<defs>
<clipPath id="clip0_740_407">
<rect width="45" height="45" fill="white"/>
</clipPath>
</defs>
</svg>
