<svg width="20" height="20" viewBox="0 0 20 20" fill="none" xmlns="http://www.w3.org/2000/svg">
<g clip-path="url(#clip0_974_455)">
<path d="M0.2025 7.03667L8.79417 12.1917C9.16667 12.415 9.58333 12.5258 10.0008 12.5258C10.4183 12.5258 10.835 12.4142 11.2075 12.1917L19.7992 7.03667C19.9242 6.96167 20.0017 6.82584 20.0017 6.67917C20.0017 6.53251 19.925 6.3975 19.7992 6.32167L11.2067 1.1675C10.4617 0.721672 9.53833 0.721672 8.79333 1.1675L0.2025 6.3225C0.0775 6.3975 0 6.53334 0 6.68001C0 6.82667 0.0766667 6.96084 0.2025 7.03667ZM10.7775 11.4767C10.2983 11.765 9.70167 11.765 9.2225 11.4767L6.01833 9.55417L10 7.165L13.9817 9.55417L10.7775 11.4767ZM14.7917 9.06834L10.81 6.67917L14.7917 4.29L18.7733 6.67917L14.7917 9.06834ZM9.2225 1.88167C9.70167 1.59417 10.2983 1.59417 10.7775 1.88167L13.9817 3.80417L10 6.19334L6.01833 3.80417L9.2225 1.88167ZM5.20833 4.29L9.19 6.67917L5.20833 9.06834L1.22667 6.67917L5.20833 4.29ZM19.9408 9.45167C20.0592 9.64917 19.995 9.90501 19.7983 10.0233L10.215 15.7733C10.1492 15.8133 10.075 15.8325 10.0008 15.8325C9.92667 15.8325 9.8525 15.8133 9.78667 15.7733L0.2025 10.0242C0.005 9.90584 -0.0583333 9.65001 0.06 9.45251C0.178333 9.25584 0.434167 9.19167 0.631667 9.31001L10.0008 14.9317L19.37 9.31001C19.5675 9.19167 19.8233 9.25584 19.9417 9.45251L19.9408 9.45167ZM19.9408 12.3683C20.0592 12.565 19.995 12.8217 19.7983 12.94L10.215 18.69C10.1492 18.73 10.075 18.7492 10.0008 18.7492C9.92667 18.7492 9.8525 18.73 9.78667 18.69L0.2025 12.94C0.005 12.8217 -0.0583333 12.5658 0.06 12.3683C0.178333 12.1708 0.434167 12.105 0.631667 12.225L10.0008 17.8467L19.37 12.225C19.5675 12.1042 19.8225 12.1717 19.9408 12.3683Z" fill="#1D1D1D"/>
</g>
<defs>
<clipPath id="clip0_974_455">
<rect width="20" height="20" fill="white"/>
</clipPath>
</defs>
</svg>
