<svg width="50" height="50" viewBox="0 0 50 50" fill="none" xmlns="http://www.w3.org/2000/svg">
<g clip-path="url(#clip0_524_4024)">
<path d="M40.6914 0C36.4189 0 32.9547 3.4642 32.9547 7.73672V11.836H14.5944V7.73672C14.5944 4.61894 17.1348 2.07852 20.2526 2.07852C23.3704 2.07852 25.9108 4.61894 25.9108 7.73672C25.9108 8.31409 26.3727 8.77598 26.9501 8.77598C27.5274 8.77598 27.9893 8.31409 27.9893 7.73672C27.9893 3.4642 24.5251 0 20.2526 0C15.9801 0 12.5159 3.4642 12.5159 7.73672V34.0069C12.4581 34.5843 12.9778 35.1039 13.5551 35.1039C14.1325 35.1039 14.5944 34.642 14.5944 34.0647V31.4665H33.0124V34.0647C33.0124 34.642 33.4743 35.1039 34.0517 35.1039C34.629 35.1039 35.0909 34.642 35.0909 34.0647V7.73672C35.0909 4.61894 37.6313 2.07852 40.7491 2.07852C43.8669 2.07852 46.3496 4.61894 46.3496 7.73672C46.3496 8.31409 46.8115 8.77598 47.3889 8.77598C47.9662 8.77598 48.4281 8.31409 48.4281 7.73672C48.4281 3.4642 44.9639 0 40.6914 0ZM33.0124 29.2725H14.5944V25.5774H33.0124V29.2725ZM33.0124 23.4988H14.5944V19.8037H33.0124V23.4988ZM33.0124 17.6097H14.5944V13.9146H33.0124V17.6097Z" fill="white"/>
<path d="M45.83 39.1455C45.5991 38.6259 44.964 38.3372 44.4443 38.6259C39.248 40.8776 36.7076 39.7806 33.994 38.6259C31.2226 37.4711 28.3935 36.2587 23.3704 38.6259C18.1741 40.8776 15.6337 39.7806 12.9201 38.6259C10.1487 37.4711 7.26189 36.2587 2.23879 38.6259C1.71916 38.8568 1.48821 39.4919 1.71916 40.0116C1.95011 40.5312 2.58521 40.7621 3.10484 40.5312C7.31962 38.5681 9.51362 39.4919 12.054 40.5889C13.7284 41.2818 15.5182 42.0323 17.8854 42.0323C19.6175 42.0323 21.6383 41.6282 24.1787 40.5312C28.3935 38.5681 30.5875 39.4919 33.1279 40.5889C34.8023 41.2818 36.5921 42.0323 38.9593 42.0323C40.6914 42.0323 42.7122 41.6282 45.2526 40.5312C45.7723 40.3002 46.061 39.6651 45.83 39.1455Z" fill="white"/>
<path d="M45.7723 47.1132C45.5413 46.5935 44.9062 46.3049 44.3866 46.5935C39.1903 48.8453 36.6499 47.7483 33.9362 46.5935C31.1649 45.4388 28.3358 44.2263 23.3127 46.5935C18.1164 48.8453 15.576 47.7483 12.8623 46.5935C10.091 45.4388 7.26188 44.2263 2.18105 46.5935C1.66142 46.8245 1.43047 47.4596 1.66142 47.9792C1.9501 48.4988 2.58521 48.7298 3.10484 48.4989C7.31962 46.5358 9.51362 47.4596 12.054 48.5566C13.7284 49.2494 15.5182 50 17.8854 50C19.6175 50 21.6383 49.5958 24.1787 48.4989C28.3935 46.5358 30.5875 47.4596 33.1279 48.5566C34.8023 49.2494 36.5921 50 38.9593 50C40.6914 50 42.7122 49.5958 45.2526 48.4989C45.7723 48.2679 46.061 47.6328 45.7723 47.1132Z" fill="white"/>
</g>
<defs>
<clipPath id="clip0_524_4024">
<rect width="50" height="50" fill="white"/>
</clipPath>
</defs>
</svg>
