<svg width="20" height="20" viewBox="0 0 20 20" fill="none" xmlns="http://www.w3.org/2000/svg">
<g clip-path="url(#clip0_842_66)">
<path d="M18.0663 7.59001L11.0029 0.602507C10.5454 0.144173 9.89044 -0.07416 9.24794 0.01084L3.50711 0.79584C3.27878 0.827507 3.11878 1.03751 3.15044 1.26501C3.18128 1.49251 3.39461 1.64917 3.61878 1.62167L9.35961 0.836673C9.74294 0.781673 10.1379 0.91584 10.4154 1.19251L17.4788 8.18001C18.6088 9.31001 18.6146 11.1542 17.4871 12.2967L17.3288 12.4625C17.1546 11.8983 16.8454 11.3675 16.4004 10.9225L9.33628 3.93584C8.87878 3.47751 8.22211 3.25917 7.58127 3.34501L1.84044 4.13001C1.65044 4.15584 1.50378 4.30751 1.48211 4.49667L0.844609 10.26C0.775442 10.8925 0.993775 11.5125 1.44461 11.9633L8.45878 18.9017C9.16711 19.61 10.1079 20 11.1096 20H11.1213C12.1279 19.9967 13.0721 19.6008 13.7788 18.8842L16.4179 16.2108C17.1563 15.4625 17.5154 14.4767 17.4946 13.4967L18.0846 12.8775C19.5279 11.4158 19.5213 9.04418 18.0663 7.59001ZM15.8263 15.6258L13.1871 18.2992C12.6371 18.8567 11.9021 19.165 11.1196 19.1675H11.1104C10.3313 19.1675 9.60044 18.8642 9.04711 18.3117L2.03211 11.3717C1.76211 11.1017 1.63211 10.73 1.67294 10.3508L2.27461 4.91084L7.69294 4.17001C8.07794 4.11751 8.47128 4.24917 8.74878 4.52584L15.8121 11.5133C16.9421 12.6433 16.9479 14.4883 15.8263 15.6258ZM6.66628 8.33334C6.66628 8.79334 6.29294 9.16668 5.83294 9.16668C5.37294 9.16668 4.99961 8.79334 4.99961 8.33334C4.99961 7.87334 5.37294 7.50001 5.83294 7.50001C6.29294 7.50001 6.66628 7.87334 6.66628 8.33334Z" fill="#434343"/>
</g>
<defs>
<clipPath id="clip0_842_66">
<rect width="20" height="20" fill="white"/>
</clipPath>
</defs>
</svg>
