<svg width="35" height="35" viewBox="0 0 35 35" fill="none" xmlns="http://www.w3.org/2000/svg">
<g clip-path="url(#clip0_974_624)">
<path d="M8.02056 16.0417C10.8351 16.0417 13.1247 13.7521 13.1247 10.9375C13.1247 8.12292 10.8351 5.83333 8.02056 5.83333C5.20597 5.83333 2.91639 8.12292 2.91639 10.9375C2.91639 13.7521 5.20597 16.0417 8.02056 16.0417ZM8.02056 8.75C9.2266 8.75 10.2081 9.73146 10.2081 10.9375C10.2081 12.1435 9.2266 13.125 8.02056 13.125C6.81451 13.125 5.83306 12.1435 5.83306 10.9375C5.83306 9.73146 6.81451 8.75 8.02056 8.75ZM12.8783 20.8746C12.4276 21.544 11.5235 21.7233 10.8541 21.2742C10.0156 20.7113 9.03555 20.4152 8.02056 20.4152C5.41451 20.4152 3.2343 22.365 2.94701 24.9506C2.86389 25.6958 2.23243 26.2485 1.49889 26.2485C1.44639 26.2485 1.39243 26.2456 1.33701 26.2398C0.536388 26.1508 -0.0396535 25.429 0.0478465 24.6298C0.498471 20.5654 3.92555 17.4985 8.02056 17.4985C9.61597 17.4985 11.156 17.9652 12.4787 18.8504C13.1481 19.2996 13.3274 20.2052 12.8783 20.8746ZM22.6039 10.2083C25.4185 10.2083 27.7081 7.91875 27.7081 5.10417C27.7081 2.28958 25.4185 0 22.6039 0C19.7893 0 17.4997 2.28958 17.4997 5.10417C17.4997 7.91875 19.7893 10.2083 22.6039 10.2083ZM22.6039 2.91667C23.8099 2.91667 24.7914 3.89813 24.7914 5.10417C24.7914 6.31021 23.8099 7.29167 22.6039 7.29167C21.3978 7.29167 20.4164 6.31021 20.4164 5.10417C20.4164 3.89813 21.3978 2.91667 22.6039 2.91667ZM24.7914 14.5833C19.1637 14.5833 14.5831 19.164 14.5831 24.7917C14.5831 30.4194 19.1637 35 24.7914 35C30.4191 35 34.9997 30.4194 34.9997 24.7917C34.9997 19.164 30.4191 14.5833 24.7914 14.5833ZM24.7914 32.0833C20.7708 32.0833 17.4997 28.8123 17.4997 24.7917C17.4997 20.771 20.7708 17.5 24.7914 17.5C28.812 17.5 32.0831 20.771 32.0831 24.7917C32.0831 28.8123 28.812 32.0833 24.7914 32.0833ZM29.4901 23.0242C30.0472 23.6046 30.0283 24.5277 29.4478 25.0863L26.2206 28.1838C25.5614 28.8342 24.6864 29.1623 23.8099 29.1623C22.9335 29.1623 22.0556 28.8342 21.3847 28.1794L19.7339 26.5621C19.1578 25.9977 19.1506 25.0746 19.7135 24.5C20.2764 23.924 21.1995 23.9152 21.7756 24.4796L23.4249 26.0954C23.6349 26.3025 23.9776 26.2981 24.1862 26.0925L27.4281 22.9804C28.007 22.4248 28.9316 22.4408 29.4901 23.0227V23.0242Z" fill="white"/>
</g>
<defs>
<clipPath id="clip0_974_624">
<rect width="35" height="35" fill="white"/>
</clipPath>
</defs>
</svg>
