<svg width="35" height="35" viewBox="0 0 35 35" fill="none" xmlns="http://www.w3.org/2000/svg">
<path d="M8.0835 28.6037C9.07669 29.4442 10.1832 30.1698 11.3866 30.7549C13.1172 31.5963 14.7098 32.6775 16.1211 33.9553C16.9045 34.6646 18.0954 34.6646 18.8789 33.9553C20.2902 32.6775 21.8827 31.5962 23.6134 30.7549C28.988 28.1419 32.4366 22.7318 32.4366 16.7558V7.74409C29.6869 7.06733 27.7622 4.60113 27.754 1.76941C21.0286 0.0937891 13.9714 0.0937891 7.24603 1.76941C7.23789 4.60113 5.31316 7.0674 2.56348 7.74409V16.7558C2.56348 20.6834 4.05323 24.3666 6.60023 27.1719" stroke="white" stroke-width="1.02539" stroke-miterlimit="10" stroke-linecap="round" stroke-linejoin="round"/>
<path d="M28.335 14.7051V10.3783C26.4519 9.1551 25.0081 7.32881 24.2501 5.21268C22.0254 4.8153 19.7604 4.61426 17.5 4.61426C15.2396 4.61426 12.9746 4.8153 10.7499 5.21268C9.99189 7.32881 8.54807 9.15517 6.66504 10.3783V16.7558C6.66504 18.9037 7.27405 21.0023 8.42632 22.8246C9.57927 24.6481 11.223 26.1149 13.18 27.0662C14.7108 27.8105 16.1581 28.7133 17.5002 29.7598C18.8422 28.7131 20.2893 27.8104 21.82 27.0662C23.777 26.1149 25.4207 24.6481 26.5737 22.8246C27.7259 21.0023 28.335 18.9037 28.335 16.7558" stroke="white" stroke-width="1.02539" stroke-miterlimit="10" stroke-linecap="round" stroke-linejoin="round"/>
<path d="M6.66504 10.3783L2.56348 7.74414" stroke="white" stroke-width="1.02539" stroke-miterlimit="10" stroke-linecap="round" stroke-linejoin="round"/>
<path d="M10.7499 5.21255L7.24609 1.76929" stroke="white" stroke-width="1.02539" stroke-miterlimit="10" stroke-linecap="round" stroke-linejoin="round"/>
<path d="M24.25 5.21255L27.7538 1.76929" stroke="white" stroke-width="1.02539" stroke-miterlimit="10" stroke-linecap="round" stroke-linejoin="round"/>
<path d="M28.335 10.3783L32.4365 7.74414" stroke="white" stroke-width="1.02539" stroke-miterlimit="10" stroke-linecap="round" stroke-linejoin="round"/>
<path d="M17.5 29.76L17.501 34.4874" stroke="white" stroke-width="1.02539" stroke-miterlimit="10" stroke-linecap="round" stroke-linejoin="round"/>
<path d="M24.3267 13.8126L19.6258 13.1046L17.4998 8.85254L15.3737 13.1046L10.6729 13.8126L14.0598 17.1485L13.2805 21.8381L17.4998 19.6478L21.719 21.8381L20.9397 17.1485L24.3267 13.8126Z" stroke="white" stroke-width="1.02539" stroke-miterlimit="10" stroke-linecap="round" stroke-linejoin="round"/>
</svg>
