<svg width="35" height="35" viewBox="0 0 35 35" fill="none" xmlns="http://www.w3.org/2000/svg">
<g clip-path="url(#clip0_267_258)">
<path d="M32.0004 6.5625L20.0115 0.568747C18.4831 -0.191044 16.5115 -0.191044 14.986 0.571664L3 6.5625L8.75021 9.43687V13.125C8.75021 17.9506 12.6746 21.875 17.5002 21.875C22.3258 21.875 26.2502 17.9506 26.2502 13.125V9.43687L29.1669 7.97854V17.5H32.0835V6.5625H32.0004ZM16.2898 3.18062C16.9912 2.83208 18.0106 2.83062 18.7106 3.18062L25.4788 6.56396L18.7092 9.94583C18.0106 10.2958 16.9927 10.2958 16.2912 9.94583L9.52313 6.56396L16.2883 3.18208L16.2898 3.18062ZM23.335 13.125C23.335 16.3421 20.7188 18.9583 17.5017 18.9583C14.2846 18.9583 11.6683 16.3421 11.6683 13.125V10.8952L14.9875 12.5548C15.7517 12.9369 16.6281 13.1279 17.5031 13.1279C18.3781 13.1279 19.2531 12.9369 20.0158 12.5548L23.335 10.8952V13.125ZM29.1683 29.8958V35H26.2517V29.8958C26.2517 28.035 24.8502 26.4935 23.0448 26.2777L17.5221 32.9029L11.995 26.2719C10.1721 26.4731 8.75021 28.0219 8.75021 29.8958V35H5.83354V29.8958C5.83354 26.2777 8.77792 23.3333 12.396 23.3333H13.341L17.5206 28.3471L21.6987 23.3333H22.6029C26.221 23.3333 29.1654 26.2777 29.1654 29.8958H29.1683Z" fill="white"/>
</g>
<defs>
<clipPath id="clip0_267_258">
<rect width="35" height="35" fill="white"/>
</clipPath>
</defs>
</svg>
