<svg width="35" height="35" viewBox="0 0 35 35" fill="none" xmlns="http://www.w3.org/2000/svg">
<g clip-path="url(#clip0_267_229)">
<path d="M14.5835 3.64583C14.5835 1.63188 16.2153 0 18.2293 0C20.2432 0 21.8751 1.63188 21.8751 3.64583C21.8751 5.65979 20.2432 7.29167 18.2293 7.29167C16.2153 7.29167 14.5835 5.65979 14.5835 3.64583ZM30.472 20.0433C30.2153 20.5552 29.702 20.8498 29.1653 20.8498C28.9466 20.8498 28.7235 20.8002 28.5149 20.6967L24.3703 18.6244C23.4166 18.1475 22.6101 17.4183 22.0414 16.5142L21.321 15.3708L19.2676 23.0942L21.1197 24.1456C22.4862 24.9229 23.3335 26.3798 23.3335 27.9504V33.5446C23.3335 34.3496 22.6816 35.0029 21.8751 35.0029C21.0687 35.0029 20.4168 34.3496 20.4168 33.5446V27.9504C20.4168 27.4269 20.1339 26.9412 19.6789 26.6817L13.8791 23.3888C12.2049 22.4379 11.3416 20.4633 11.7805 18.5879L13.2768 12.1931C12.9749 12.304 12.6789 12.4294 12.3916 12.5723L9.33345 14.1021C8.95866 14.2888 8.68304 14.6271 8.57658 15.0325L7.43471 19.336C7.22762 20.1148 6.42991 20.5756 5.65116 20.3715C4.87241 20.1644 4.40866 19.3667 4.61575 18.5879L5.75762 14.2844C6.07991 13.071 6.90825 12.0531 8.03116 11.4931L11.0878 9.96333C12.673 9.17146 14.4464 8.75292 16.2182 8.75292H17.5001C20.4255 8.75292 22.2732 11.4202 22.352 11.534L24.5103 14.9625C24.7932 15.4146 25.1957 15.7792 25.6726 16.0169L29.8187 18.0906C30.5391 18.4508 30.8307 19.3273 30.4705 20.0477L30.472 20.0433ZM16.7082 21.6373L19.1393 12.3492C18.7091 12.0021 18.136 11.6681 17.5001 11.6681H16.3947L14.6199 19.2515C14.4741 19.8756 14.7614 20.5333 15.3199 20.8513L16.7068 21.6388L16.7082 21.6373ZM13.4037 26.0546C13.392 26.0473 13.3803 26.04 13.3687 26.0342C12.5403 25.5383 11.467 25.9919 11.2482 26.9325L11.0251 27.8965L8.6772 32.9306C8.22804 33.8946 8.93095 35 9.99554 35C10.5585 35 11.0718 34.6748 11.3124 34.1644L13.7245 29.0398L14.057 27.5917C14.1955 26.9908 13.9316 26.3696 13.4022 26.0531L13.4037 26.0546Z" fill="white"/>
</g>
<defs>
<clipPath id="clip0_267_229">
<rect width="35" height="35" fill="white"/>
</clipPath>
</defs>
</svg>
