<svg width="45" height="50" viewBox="0 0 45 50" fill="none" xmlns="http://www.w3.org/2000/svg">
<g clip-path="url(#clip0_407_105)">
<path d="M1.97917 50C1.83594 49.9348 1.69271 49.8697 1.54948 49.8046C0.598958 49.3619 0.0651042 48.6197 0.0260417 47.552C0.0130208 47.3958 0.0260417 47.2265 0.0260417 47.0703C0.0260417 33.4635 0.0390625 19.8567 0 6.24995C0 4.40099 1.21094 3.29422 2.95573 3.30724C12.3828 3.34631 21.7969 3.33328 31.224 3.33328C31.4062 3.33328 31.5885 3.32026 31.7578 3.34631C32.2005 3.41141 32.487 3.76297 32.4609 4.20568C32.4479 4.63537 32.1484 4.94787 31.6927 4.98693C31.5104 4.99995 31.3411 4.99995 31.1589 4.99995C21.7708 4.99995 12.3828 4.99995 2.99479 4.99995C2.8125 4.99995 2.63021 4.98693 2.46094 5.01297C2.01823 5.07808 1.73177 5.37756 1.70573 5.83328C1.69271 5.97651 1.70573 6.11974 1.70573 6.27599C1.70573 19.8828 1.70573 33.4895 1.70573 47.0833C1.70573 48.125 1.92708 48.3463 2.95573 48.3463C13.7891 48.3463 24.6354 48.3463 35.4687 48.3463C36.4714 48.3463 36.6927 48.125 36.6927 47.1093C36.6927 38.5156 36.6927 29.9218 36.6927 21.3281C36.6927 21.1197 36.6797 20.8984 36.7188 20.6901C36.7969 20.2473 37.1615 19.9869 37.5911 20.013C38.0078 20.039 38.2943 20.3385 38.3333 20.7682C38.3464 20.9635 38.3464 21.1588 38.3464 21.3541C38.3464 29.8437 38.3203 38.3463 38.3594 46.8359C38.3724 48.3984 37.8776 49.4791 36.3542 49.9869C24.8958 50 13.4375 50 1.97917 50Z" fill="#1D1D1D"/>
<path d="M20.0521 8.32028C20.0521 14.1797 20.0521 19.9609 20.0521 25.7942C24.4661 25.7942 28.8672 25.7942 33.3203 25.7942C33.3333 25.625 33.3464 25.4557 33.3464 25.2864C33.3464 23.8672 33.3464 22.4609 33.3464 21.0416C33.3464 20.664 33.4245 20.3255 33.776 20.1172C34.2839 19.8177 34.9089 20.1302 35 20.7161C35.026 20.8984 35.013 21.0677 35.013 21.25C35.013 29.3099 35.013 37.3567 35.013 45.4166C35.013 46.4583 34.7917 46.6666 33.75 46.6666C24.0365 46.6666 14.3229 46.6666 4.60938 46.6666C3.58073 46.6666 3.35938 46.4453 3.35938 45.4036C3.35938 32.9036 3.35938 20.4036 3.35938 7.90361C3.35938 6.87497 3.58073 6.65361 4.6224 6.65361C11.5495 6.65361 18.4896 6.65361 25.4167 6.65361C25.5599 6.65361 25.7161 6.64059 25.8594 6.65361C26.3542 6.7057 26.6927 7.05726 26.6927 7.51299C26.6797 7.96872 26.3411 8.30726 25.8203 8.30726C24.7917 8.32028 23.776 8.30726 22.7474 8.30726C21.862 8.32028 20.9766 8.32028 20.0521 8.32028ZM5.03906 27.526C5.03906 33.3463 5.03906 39.1536 5.03906 44.9609C9.47917 44.9609 13.8932 44.9609 18.3203 44.9609C18.3203 39.1276 18.3203 33.3333 18.3203 27.526C13.8672 27.526 9.46615 27.526 5.03906 27.526ZM5.02604 8.34632C5.02604 14.1927 5.02604 19.9739 5.02604 25.7942C9.46615 25.7942 13.8802 25.7942 18.3203 25.7942C18.3203 19.9609 18.3203 14.1666 18.3203 8.34632C13.8802 8.34632 9.47917 8.34632 5.02604 8.34632ZM20.0521 27.539C20.0521 33.3854 20.0521 39.1666 20.0521 44.987C24.4792 44.987 28.8802 44.987 33.3073 44.987C33.3073 39.1666 33.3073 33.3724 33.3073 27.539C28.8932 27.539 24.4922 27.539 20.0521 27.539Z" fill="#1D1D1D"/>
<path d="M35.8464 18.3464C35.3646 18.3334 35.0912 17.9688 35.0131 17.3829C34.8698 16.4193 34.7657 15.4428 34.4922 14.5183C33.6329 11.7058 31.6667 10.2084 28.737 10.0131C28.6198 10 28.5157 10 28.3985 9.98702C27.8646 9.93494 27.5521 9.63546 27.5521 9.16671C27.5521 8.69796 27.8646 8.38546 28.3855 8.32036C28.9323 8.25525 29.4922 8.25525 30.0261 8.13806C32.2787 7.64327 33.698 6.17192 34.4141 4.04952C34.7396 3.08598 34.8308 2.05733 35.0261 1.05473C35.0391 0.963584 35.0391 0.859417 35.0521 0.768271C35.1302 0.2865 35.4558 -0.012979 35.8985 4.18752e-05C36.3542 0.0130627 36.6276 0.299521 36.7058 0.807334C36.875 1.83598 36.9792 2.87765 37.2787 3.86723C38.1381 6.67973 40.1954 8.20317 43.125 8.32036C43.2422 8.32036 43.3594 8.32036 43.4636 8.3464C43.9454 8.42452 44.2318 8.76306 44.2058 9.21879C44.1797 9.64848 43.8933 9.93494 43.4115 9.98702C42.8125 10.0521 42.2006 10.0651 41.6276 10.2084C39.362 10.7422 37.9688 12.2657 37.2917 14.4141C36.9792 15.3907 36.875 16.4454 36.7188 17.474C36.6016 18.0079 36.3021 18.3594 35.8464 18.3464ZM39.5573 9.16671C37.8125 8.19015 36.6276 6.83598 35.8724 5.05213C34.5704 7.35681 34.5704 7.35681 32.2136 9.19275C33.8933 10.1303 35.0912 11.4844 35.8594 13.3334C36.6276 11.4844 37.8256 10.1303 39.5573 9.16671Z" fill="#1D1D1D"/>
<path d="M26.6797 11.6666C27.1224 11.6666 27.4349 11.9661 27.513 12.4479C27.6172 13.125 27.6823 13.802 27.8645 14.4531C28.4375 16.4192 29.5963 17.3177 31.6145 17.4739C32.1614 17.513 32.513 17.8385 32.513 18.3073C32.513 18.7369 32.1875 19.1145 31.7187 19.1276C29.1276 19.1666 28.0338 20.9765 27.6562 22.9166C27.5911 23.2812 27.552 23.6588 27.513 24.0234C27.4479 24.6484 27.1614 24.9739 26.6797 24.9739C26.1849 24.9739 25.9244 24.6224 25.8203 23.9843C25.6901 23.1901 25.5729 22.3698 25.2994 21.6276C24.7135 20.0651 23.5416 19.2187 21.8489 19.1406C21.6927 19.1276 21.5104 19.1276 21.3672 19.0755C21.0026 18.9192 20.8203 18.6198 20.8463 18.2291C20.8854 17.8125 21.2109 17.552 21.6797 17.4739C22.2526 17.3828 22.8515 17.3307 23.3724 17.1224C24.5182 16.6406 25.1432 15.664 25.4687 14.5182C25.651 13.8802 25.7161 13.2161 25.8073 12.5651C25.9114 12.0052 26.1979 11.6796 26.6797 11.6666ZM26.6797 20.3645C27.2656 19.6875 27.8906 18.9713 28.4505 18.3333C27.8515 17.6562 27.2395 16.9401 26.6797 16.289C26.1067 16.9531 25.4817 17.6692 24.9088 18.3333C25.4817 18.9974 26.1067 19.7135 26.6797 20.3645Z" fill="#1D1D1D"/>
<path d="M7.64318 18.3334C6.90099 18.3204 6.51036 17.6693 6.7838 17.1355C6.86193 16.9922 6.96609 16.875 7.08328 16.7578C9.19266 14.6485 11.302 12.5391 13.4114 10.4167C13.5156 10.3125 13.6197 10.2084 13.7499 10.1302C14.1145 9.93493 14.4791 9.96098 14.7656 10.2735C15.052 10.586 15.0651 10.9506 14.8437 11.3021C14.7916 11.3933 14.7005 11.4714 14.6223 11.5625C12.4999 13.6849 10.3776 15.8203 8.24214 17.9297C8.04682 18.1381 7.77339 18.2552 7.64318 18.3334Z" fill="#1D1D1D"/>
<path d="M10.9505 10.7812C10.7682 11.0807 10.6771 11.3281 10.5078 11.5104C9.73955 12.3046 8.95831 13.0859 8.16403 13.8541C7.74737 14.2578 7.25258 14.2578 6.91403 13.9062C6.57549 13.5546 6.58851 13.0989 6.97914 12.6953C7.76039 11.901 8.56768 11.1067 9.36195 10.3124C9.64841 10.026 9.99997 9.92182 10.3385 10.1041C10.5859 10.2343 10.7291 10.5338 10.9505 10.7812Z" fill="#1D1D1D"/>
<path d="M22.526 37.6172C22.2526 37.4219 21.9401 37.2917 21.8359 37.0704C21.7188 36.849 21.7708 36.5235 21.8229 36.25C21.849 36.1068 22.0182 35.9896 22.1224 35.8855C24.2057 33.7891 26.3021 31.7058 28.3984 29.6224C28.5807 29.4532 28.8281 29.2318 29.0365 29.2318C29.3229 29.2448 29.7135 29.3881 29.8438 29.5964C29.974 29.8047 29.8828 30.1954 29.8307 30.4948C29.8177 30.599 29.6745 30.6901 29.5833 30.7813C27.487 32.8907 25.3776 34.987 23.2682 37.0834C23.0729 37.2787 22.8125 37.4089 22.526 37.6172Z" fill="#1D1D1D"/>
<path d="M22.4349 33.3985C22.2396 33.2422 21.914 33.112 21.8099 32.8776C21.7057 32.6433 21.7187 32.2006 21.875 32.0313C22.7213 31.1068 23.6198 30.2344 24.5182 29.375C24.8307 29.0756 25.3385 29.1537 25.6119 29.4662C25.9114 29.8047 25.9114 30.2865 25.5468 30.6511C24.7526 31.4714 23.9453 32.2657 23.138 33.0729C23.0859 33.125 23.0468 33.1641 22.9817 33.1901C22.8515 33.2422 22.6953 33.2943 22.4349 33.3985Z" fill="#1D1D1D"/>
</g>
<defs>
<clipPath id="clip0_407_105">
<rect width="44.1797" height="50" fill="white"/>
</clipPath>
</defs>
</svg>
