<svg width="273" height="16" viewBox="0 0 273 16" fill="none" xmlns="http://www.w3.org/2000/svg">
<path d="M272.707 8.70711C273.098 8.31658 273.098 7.68342 272.707 7.29289L266.343 0.928932C265.953 0.538408 265.319 0.538408 264.929 0.928932C264.538 1.31946 264.538 1.95262 264.929 2.34315L270.586 8L264.929 13.6569C264.538 14.0474 264.538 14.6805 264.929 15.0711C265.319 15.4616 265.953 15.4616 266.343 15.0711L272.707 8.70711ZM0 9H2V7H0V9ZM6 9H10V7H6V9ZM14 9H18V7H14V9ZM22 9H26V7H22V9ZM30 9H34V7H30V9ZM38 9H42V7H38V9ZM46 9H50V7H46V9ZM54 9H58V7H54V9ZM62 9H66V7H62V9ZM70 9H74V7H70V9ZM78 9H82V7H78V9ZM86 9H90V7H86V9ZM94 9H98V7H94V9ZM102 9H106V7H102V9ZM110 9H114V7H110V9ZM118 9H122V7H118V9ZM126 9H130V7H126V9ZM134 9H138V7H134V9ZM142 9H146V7H142V9ZM150 9H154V7H150V9ZM158 9H162V7H158V9ZM166 9H170V7H166V9ZM174 9H178V7H174V9ZM182 9H186V7H182V9ZM190 9H194V7H190V9ZM198 9H202V7H198V9ZM206 9H210V7H206V9ZM214 9H218V7H214V9ZM222 9H226V7H222V9ZM230 9H234V7H230V9ZM238 9H242V7H238V9ZM246 9H250V7H246V9ZM254 9H258V7H254V9ZM262 9H266V7H262V9ZM270 9H272V7H270V9ZM272.707 8.70711C273.098 8.31658 273.098 7.68342 272.707 7.29289L266.343 0.928932C265.953 0.538408 265.319 0.538408 264.929 0.928932C264.538 1.31946 264.538 1.95262 264.929 2.34315L270.586 8L264.929 13.6569C264.538 14.0474 264.538 14.6805 264.929 15.0711C265.319 15.4616 265.953 15.4616 266.343 15.0711L272.707 8.70711ZM0 9H2V7H0V9ZM6 9H10V7H6V9ZM14 9H18V7H14V9ZM22 9H26V7H22V9ZM30 9H34V7H30V9ZM38 9H42V7H38V9ZM46 9H50V7H46V9ZM54 9H58V7H54V9ZM62 9H66V7H62V9ZM70 9H74V7H70V9ZM78 9H82V7H78V9ZM86 9H90V7H86V9ZM94 9H98V7H94V9ZM102 9H106V7H102V9ZM110 9H114V7H110V9ZM118 9H122V7H118V9ZM126 9H130V7H126V9ZM134 9H138V7H134V9ZM142 9H146V7H142V9ZM150 9H154V7H150V9ZM158 9H162V7H158V9ZM166 9H170V7H166V9ZM174 9H178V7H174V9ZM182 9H186V7H182V9ZM190 9H194V7H190V9ZM198 9H202V7H198V9ZM206 9H210V7H206V9ZM214 9H218V7H214V9ZM222 9H226V7H222V9ZM230 9H234V7H230V9ZM238 9H242V7H238V9ZM246 9H250V7H246V9ZM254 9H258V7H254V9ZM262 9H266V7H262V9ZM270 9H272V7H270V9Z" fill="#434343"/>
</svg>
