<svg width="173" height="152" viewBox="0 0 173 152" fill="none" xmlns="http://www.w3.org/2000/svg">
<mask id="path-1-inside-1_974_593" fill="white">
<path d="M0 30C0 13.4315 13.4315 0 30 0H163C168.523 0 173 4.47715 173 10V122C173 138.569 159.569 152 143 152H10C4.47715 152 0 147.523 0 142V30Z"/>
</mask>
<path d="M-3 30C-3 11.7746 11.7746 -3 30 -3H160C167.18 -3 173 2.8203 173 10C173 6.13401 168.523 3 163 3H30C15.0883 3 3 15.0883 3 30H-3ZM173 152H0H173ZM10 152C2.8203 152 -3 146.18 -3 139V30C-3 11.7746 11.7746 -3 30 -3V3C15.0883 3 3 15.0883 3 30V142C3 147.523 6.13401 152 10 152ZM173 0V152V0Z" fill="#FFDED5" mask="url(#path-1-inside-1_974_593)"/>
</svg>
