<svg width="27" height="17" viewBox="0 0 27 17" fill="none" xmlns="http://www.w3.org/2000/svg">
<path opacity="0.4" d="M26.0996 10.9C26.0996 10.8 26.0996 10.7 26.0996 10.6C26.0996 10.5 26.0996 10.4 26.0996 10.3C26.0996 10.2 26.0996 10.2 26.0996 10.1C26.0996 10 25.9996 9.8 25.9996 9.7C25.4996 7.9 24.0996 6.3 22.3996 5.6C21.6996 3 19.1996 1 16.3996 1C13.9996 1 11.8996 2.4 10.7996 4.4C9.79961 3.8 8.69961 3.4 7.39961 3.4C3.89961 3.4 1.09961 6.2 1.09961 9.7C1.09961 13 3.59961 15.7 6.89961 16C7.49961 16.1 7.99961 16.2 7.99961 16.2H15.6996H23.5996C23.6996 16.2 23.6996 16.1 23.7996 16.1H24.3996C25.5996 15 26.3996 13.3 26.3996 11.5C26.0996 11.3 26.0996 11.1 26.0996 10.9Z" stroke="#434343" stroke-miterlimit="10"/>
</svg>
