<svg width="44" height="27" viewBox="0 0 44 27" fill="none" xmlns="http://www.w3.org/2000/svg">
<path opacity="0.4" d="M42.7 16.8001C42.7 16.6001 42.7 16.5001 42.7 16.4001C42.7 16.3001 42.7 16.1001 42.6 16.0001C42.6 15.9001 42.6 15.8001 42.5 15.6001C42.5 15.4001 42.4 15.2001 42.3 15.0001C41.4 11.9001 39.2 9.4001 36.3 8.2001C35.1 3.8001 31 0.600098 26.3 0.600098C22.3 0.600098 18.8 2.9001 17 6.3001C15.4 5.2001 13.4 4.6001 11.4 4.6001C5.6 4.6001 1 9.3001 1 15.0001C1 20.5001 5.2 25.0001 10.6 25.4001C11.6 25.6001 12.4 25.7001 12.4 25.7001H25.1H38.2C38.3 25.6001 38.4 25.5001 38.5 25.5001H39.5C41.5 23.6001 42.8 20.9001 42.8 17.9001C42.7 17.4001 42.7 17.1001 42.7 16.8001Z" stroke="#434343" stroke-miterlimit="10"/>
</svg>
