<svg width="85" height="103" viewBox="0 0 85 103" fill="none" xmlns="http://www.w3.org/2000/svg">
<g opacity="0.5">
<mask id="mask0_770_52" style="mask-type:luminance" maskUnits="userSpaceOnUse" x="0" y="0" width="85" height="103">
<path d="M0 0H85V103H0V0Z" fill="white"/>
</mask>
<g mask="url(#mask0_770_52)">
<path d="M6.1091 131.954C6.10959 132.557 5.93069 133.147 5.59506 133.649C5.25943 134.15 4.78218 134.541 4.22375 134.772C3.66533 135.003 3.05087 135.063 2.45821 134.945C1.86555 134.826 1.32136 134.535 0.894583 134.108C0.322006 133.537 0.000220699 132.762 1.93333e-06 131.954C-0.000908395 131.142 0.319692 130.362 0.891946 129.785C1.4642 129.208 2.24173 128.88 3.0551 128.873C3.86765 128.883 4.64372 129.211 5.2153 129.788C5.78688 130.364 6.10799 131.143 6.1091 131.954ZM25.6635 131.954C25.6572 132.555 25.4726 133.141 25.1331 133.638C24.7936 134.134 24.3143 134.519 23.7557 134.744C23.1969 134.969 22.584 135.025 21.9937 134.904C21.4035 134.782 20.8623 134.49 20.4379 134.063C20.0134 133.636 19.7252 133.092 19.6097 132.502C19.4942 131.911 19.5565 131.3 19.7889 130.745C20.0212 130.189 20.4131 129.715 20.9151 129.382C21.4171 129.049 22.0067 128.872 22.6095 128.873C23.0135 128.873 23.4135 128.953 23.7864 129.108C24.1593 129.263 24.4977 129.491 24.7822 129.777C25.0662 130.064 25.2902 130.404 25.4415 130.777C25.5928 131.151 25.6683 131.551 25.6635 131.954ZM45.219 131.954C45.2127 132.555 45.0281 133.141 44.6886 133.638C44.3491 134.134 43.8698 134.519 43.3113 134.744C42.7524 134.969 42.1395 135.025 41.5493 134.904C40.9591 134.782 40.4178 134.49 39.9934 134.063C39.4955 133.562 39.187 132.905 39.1204 132.203C39.0539 131.501 39.2334 130.797 39.6285 130.213C40.0235 129.628 40.6096 129.198 41.2867 128.997C41.9637 128.795 42.6899 128.834 43.3412 129.108C43.7136 129.264 44.0515 129.491 44.3355 129.778C44.6195 130.064 44.8441 130.404 44.9962 130.777C45.1481 131.15 45.2235 131.55 45.219 131.954ZM64.779 131.954C64.7743 132.404 64.6699 132.847 64.4732 133.252C64.2765 133.656 63.9924 134.013 63.6414 134.295C63.2904 134.577 62.8811 134.778 62.443 134.883C62.0049 134.989 61.5488 134.996 61.1076 134.905C60.518 134.783 59.9776 134.489 59.5541 134.062C59.1306 133.635 58.8427 133.092 58.7264 132.503C58.6402 132.061 58.6529 131.606 58.7637 131.17C58.8744 130.735 59.0805 130.329 59.367 129.982C59.6536 129.635 60.0135 129.355 60.421 129.164C60.8285 128.972 61.2734 128.873 61.7239 128.873C62.1279 128.873 62.5279 128.953 62.9008 129.108C63.2737 129.263 63.6121 129.491 63.8966 129.777C64.1807 130.064 64.4049 130.403 64.5564 130.777C64.7079 131.151 64.7835 131.551 64.779 131.954ZM84.3334 131.954C84.3269 132.555 84.1423 133.141 83.8028 133.637C83.4633 134.134 82.9841 134.519 82.4257 134.744C81.8668 134.969 81.2539 135.025 80.6637 134.904C80.0734 134.782 79.5322 134.49 79.1078 134.063C78.6833 133.636 78.3951 133.092 78.2796 132.502C78.1641 131.911 78.2265 131.3 78.4588 130.745C78.6911 130.189 79.083 129.715 79.585 129.382C80.087 129.049 80.6766 128.872 81.2794 128.873C81.6832 128.873 82.083 128.953 82.4557 129.109C82.8284 129.264 83.1667 129.491 83.451 129.777C83.735 130.064 83.9593 130.403 84.1107 130.777C84.2622 131.151 84.3379 131.551 84.3334 131.954ZM103.889 131.954C103.883 132.555 103.698 133.141 103.358 133.638C103.018 134.134 102.539 134.52 101.98 134.744C101.421 134.969 100.809 135.024 100.219 134.903C99.6287 134.782 99.0876 134.49 98.6634 134.063C98.2389 133.636 97.9508 133.093 97.8352 132.502C97.7197 131.912 97.7819 131.3 98.0141 130.745C98.2463 130.19 98.638 129.716 99.1399 129.383C99.6417 129.049 100.231 128.872 100.834 128.873C101.238 128.873 101.638 128.953 102.011 129.108C102.384 129.263 102.722 129.491 103.007 129.777C103.291 130.064 103.515 130.403 103.666 130.777C103.818 131.151 103.894 131.551 103.889 131.954ZM123.444 131.954C123.439 132.479 123.297 132.994 123.033 133.448C122.769 133.903 122.392 134.282 121.939 134.548C121.485 134.814 120.97 134.959 120.444 134.968C119.918 134.977 119.398 134.851 118.935 134.6C118.473 134.35 118.083 133.985 117.803 133.539C117.524 133.094 117.364 132.585 117.34 132.06C117.316 131.535 117.428 131.013 117.665 130.544C117.903 130.075 118.258 129.676 118.696 129.384C119.286 128.993 119.994 128.818 120.699 128.89C121.404 128.961 122.062 129.275 122.561 129.777C122.845 130.064 123.069 130.404 123.221 130.777C123.372 131.151 123.448 131.551 123.444 131.954ZM142.999 131.954C142.994 132.404 142.89 132.847 142.694 133.251C142.497 133.656 142.213 134.013 141.862 134.295C141.511 134.577 141.102 134.778 140.664 134.883C140.226 134.989 139.77 134.996 139.329 134.905C138.739 134.783 138.198 134.49 137.774 134.063C137.35 133.636 137.062 133.093 136.946 132.503C136.83 131.912 136.892 131.301 137.125 130.746C137.357 130.191 137.749 129.717 138.251 129.384C138.629 129.134 139.057 128.97 139.506 128.905C139.954 128.841 140.411 128.876 140.845 129.01C141.278 129.143 141.676 129.371 142.01 129.676C142.344 129.982 142.606 130.358 142.776 130.777C142.928 131.15 143.003 131.55 142.999 131.954ZM6.1091 113.538C6.10902 113.939 6.02996 114.335 5.87641 114.705C5.72287 115.075 5.49785 115.411 5.21421 115.694C4.93057 115.977 4.59386 116.201 4.2233 116.355C3.85275 116.508 3.4556 116.586 3.05455 116.586C2.65349 116.586 2.25638 116.507 1.88588 116.354C1.51538 116.201 1.17875 115.976 0.895212 115.693C0.611674 115.41 0.38678 115.074 0.23337 114.704C0.0799594 114.334 0.00103767 113.938 0.00111046 113.537C0.00125746 112.729 0.323157 111.953 0.895996 111.382C1.46883 110.81 2.24569 110.489 3.05566 110.489C3.86563 110.489 4.64236 110.811 5.21499 111.383C5.78762 111.954 6.10924 112.73 6.1091 113.538ZM25.6646 113.538C25.6645 113.939 25.5853 114.335 25.4317 114.705C25.278 115.075 25.0529 115.411 24.7692 115.694C24.4854 115.977 24.1486 116.202 23.778 116.355C23.4073 116.508 23.0101 116.587 22.609 116.586C22.2078 116.586 21.8107 116.507 21.4401 116.354C21.0696 116.2 20.7329 115.976 20.4494 115.693C20.1659 115.409 19.941 115.073 19.7876 114.703C19.6342 114.333 19.5554 113.937 19.5555 113.536C19.5557 113.136 19.6348 112.739 19.7884 112.37C19.942 112 20.1671 111.664 20.4508 111.381C20.7345 111.098 21.0713 110.873 21.4418 110.72C21.8124 110.567 22.2096 110.489 22.6106 110.489C23.0117 110.489 23.4088 110.568 23.7793 110.721C24.1497 110.875 24.4863 111.099 24.7698 111.382C25.0533 111.666 25.2781 112.002 25.4315 112.372C25.5848 112.742 25.6637 113.138 25.6635 113.538H25.6646ZM45.219 113.538C45.2267 113.944 45.1534 114.346 45.0033 114.723C44.8533 115.099 44.6295 115.442 44.3452 115.731C44.0608 116.021 43.7216 116.25 43.3472 116.407C42.9729 116.564 42.571 116.645 42.165 116.644C41.7591 116.644 41.3572 116.564 40.9829 116.407C40.6087 116.25 40.2695 116.02 39.9852 115.731C39.701 115.441 39.4774 115.098 39.3275 114.722C39.1775 114.345 39.1044 113.942 39.1122 113.537C39.1123 112.729 39.4342 111.953 40.007 111.382C40.5799 110.81 41.3567 110.489 42.1667 110.489C42.9767 110.489 43.7534 110.811 44.326 111.383C44.8987 111.954 45.2192 112.73 45.219 113.538ZM64.779 113.538C64.7789 113.939 64.6999 114.335 64.5463 114.705C64.3928 115.075 64.1678 115.411 63.8841 115.694C63.6005 115.977 63.2638 116.201 62.8932 116.355C62.5227 116.508 62.1255 116.586 61.7245 116.586C61.3234 116.586 60.9263 116.507 60.5558 116.354C60.1853 116.201 59.8487 115.976 59.5651 115.693C59.2816 115.41 59.0567 115.074 58.9033 114.704C58.7499 114.334 58.6709 113.938 58.671 113.537C58.6712 112.729 58.9931 111.953 59.5659 111.382C60.1387 110.81 60.9156 110.489 61.7256 110.489C62.5355 110.489 63.3123 110.811 63.8849 111.383C64.4575 111.954 64.7792 112.73 64.779 113.538ZM84.3334 113.538C84.3411 113.944 84.2677 114.346 84.1177 114.723C83.9677 115.099 83.7439 115.442 83.4596 115.731C83.1752 116.021 82.8359 116.25 82.4616 116.407C82.0873 116.564 81.6854 116.645 81.2794 116.644C80.8735 116.644 80.4716 116.564 80.0973 116.407C79.723 116.25 79.3839 116.02 79.0996 115.731C78.8154 115.441 78.5917 115.098 78.4418 114.722C78.2919 114.345 78.2187 113.942 78.2265 113.537C78.2266 113.137 78.3057 112.741 78.4592 112.371C78.6128 112.001 78.8378 111.665 79.1214 111.382C79.4051 111.099 79.7418 110.874 80.1123 110.721C80.4829 110.568 80.88 110.489 81.2811 110.489C81.6822 110.489 82.0793 110.568 82.4498 110.722C82.8203 110.875 83.1569 111.099 83.4404 111.383C83.724 111.666 83.9489 112.002 84.1023 112.372C84.2557 112.742 84.3335 113.138 84.3334 113.538ZM103.889 113.538C103.897 113.944 103.823 114.346 103.673 114.723C103.523 115.099 103.299 115.442 103.015 115.731C102.731 116.021 102.391 116.25 102.017 116.407C101.643 116.564 101.241 116.645 100.835 116.644C100.429 116.644 100.027 116.564 99.6529 116.407C99.2786 116.25 98.9394 116.02 98.6551 115.731C98.3709 115.441 98.1473 115.098 97.9974 114.722C97.8475 114.345 97.7743 113.942 97.7821 113.537C97.7822 112.729 98.1041 111.953 98.677 111.382C99.2498 110.81 100.027 110.489 100.837 110.489C101.647 110.489 102.423 110.811 102.996 111.383C103.569 111.954 103.889 112.73 103.889 113.538ZM123.444 113.538C123.445 113.989 123.344 114.434 123.151 114.842C122.958 115.249 122.677 115.609 122.328 115.895C121.979 116.181 121.57 116.386 121.132 116.495C120.694 116.604 120.237 116.615 119.794 116.527C119.202 116.409 118.658 116.119 118.231 115.692C117.804 115.266 117.513 114.724 117.394 114.133C117.305 113.691 117.316 113.234 117.426 112.797C117.535 112.36 117.741 111.952 118.027 111.604C118.314 111.255 118.675 110.975 119.083 110.783C119.492 110.59 119.938 110.491 120.389 110.492C121.199 110.492 121.976 110.813 122.548 111.384C123.121 111.955 123.444 112.73 123.444 113.538ZM142.999 113.538C142.999 113.989 142.899 114.435 142.706 114.842C142.513 115.25 142.232 115.609 141.883 115.895C141.533 116.181 141.125 116.386 140.687 116.496C140.248 116.605 139.791 116.616 139.349 116.527C138.756 116.409 138.213 116.118 137.786 115.692C137.359 115.266 137.067 114.724 136.949 114.133C136.83 113.541 136.891 112.928 137.122 112.371C137.353 111.815 137.745 111.339 138.248 111.004C138.707 110.697 139.242 110.52 139.795 110.492C140.347 110.465 140.897 110.588 141.385 110.848C141.873 111.108 142.281 111.496 142.566 111.97C142.85 112.444 143 112.986 142.999 113.538ZM6.1091 95.123C6.10937 95.5739 6.00937 96.0191 5.81631 96.4267C5.62324 96.8343 5.34193 97.194 4.99268 97.4798C4.64344 97.7656 4.23496 97.9705 3.79676 98.0796C3.35855 98.1887 2.90154 98.1994 2.45871 98.1107C2.01637 98.0225 1.59908 97.8376 1.23683 97.5693C0.874568 97.301 0.576327 96.9559 0.363522 96.5589C0.150717 96.1619 0.0286294 95.7227 0.00602638 95.273C-0.0165767 94.8233 0.0608659 94.3741 0.232793 93.9578C0.386135 93.5878 0.61105 93.2516 0.894673 92.9684C1.1783 92.6853 1.51506 92.4607 1.88571 92.3076C2.25636 92.1544 2.65361 92.0757 3.05475 92.076C3.45589 92.0763 3.85304 92.1554 4.22349 92.3091C4.78128 92.5398 5.25809 92.9303 5.59369 93.4313C5.92929 93.9324 6.10864 94.5203 6.1091 95.123ZM25.6646 95.123C25.6647 95.5738 25.5646 96.019 25.3714 96.4264C25.1783 96.8339 24.897 97.1935 24.5478 97.4793C24.1986 97.7651 23.7902 97.97 23.3521 98.0792C22.914 98.1884 22.457 98.1992 22.0142 98.1107C21.5717 98.0227 21.1541 97.8379 20.7916 97.5695C20.4291 97.3012 20.1307 96.956 19.9177 96.5589C19.7048 96.1617 19.5827 95.7223 19.5601 95.2724C19.5375 94.8225 19.6151 94.3732 19.7872 93.9567C19.9406 93.5867 20.1655 93.2505 20.4491 92.9673C20.7327 92.6842 21.0695 92.4596 21.4401 92.3065C21.8108 92.1533 22.208 92.0746 22.6092 92.0749C23.0103 92.0751 23.4075 92.1543 23.7779 92.308C24.3359 92.5385 24.8129 92.929 25.1488 93.43C25.4846 93.931 25.6641 94.5202 25.6646 95.123ZM45.219 95.123C45.2193 95.5739 45.1193 96.0191 44.9263 96.4267C44.7332 96.8343 44.4519 97.194 44.1026 97.4798C43.7534 97.7656 43.3449 97.9705 42.9067 98.0796C42.4685 98.1887 42.0115 98.1994 41.5687 98.1107C41.1262 98.0226 40.7088 97.8376 40.3464 97.5692C39.984 97.3008 39.6857 96.9557 39.4729 96.5585C39.2601 96.1613 39.138 95.722 39.1155 95.2722C39.093 94.8223 39.1706 94.3731 39.3427 93.9567C39.4961 93.5867 39.721 93.2505 40.0046 92.9673C40.2882 92.6842 40.625 92.4596 40.9957 92.3065C41.3663 92.1533 41.7636 92.0746 42.1647 92.0749C42.5658 92.0751 42.963 92.1543 43.3334 92.308C43.8912 92.5387 44.368 92.9292 44.7036 93.4302C45.0392 93.9313 45.2186 94.5203 45.219 95.123ZM64.779 95.123C64.7793 95.5739 64.6793 96.0191 64.4862 96.4267C64.2931 96.8343 64.0118 97.194 63.6626 97.4798C63.3133 97.7656 62.9049 97.9705 62.4667 98.0796C62.0285 98.1887 61.5714 98.1994 61.1286 98.1107C60.686 98.0227 60.2685 97.8379 59.906 97.5696C59.5435 97.3012 59.2451 96.956 59.0323 96.5588C58.8194 96.1616 58.6974 95.7222 58.675 95.2723C58.6526 94.8224 58.7304 94.3731 58.9027 93.9567C59.0946 93.4932 59.3982 93.0841 59.7864 92.7658C60.1747 92.4475 60.6357 92.2297 61.1285 92.1319C61.6213 92.034 62.1306 92.0591 62.6114 92.2048C63.0921 92.3506 63.5294 92.6125 63.8844 92.9675C64.1681 93.2505 64.3931 93.5865 64.5466 93.9564C64.7001 94.3263 64.779 94.7227 64.779 95.123ZM84.3334 95.123C84.3337 95.5739 84.2337 96.0191 84.0406 96.4267C83.8476 96.8343 83.5663 97.194 83.217 97.4798C82.8678 97.7656 82.4593 97.9705 82.0211 98.0796C81.5829 98.1887 81.1259 98.1994 80.683 98.1107C80.2405 98.0227 79.8229 97.8379 79.4604 97.5696C79.098 97.3012 78.7996 96.956 78.5867 96.5588C78.3739 96.1616 78.2518 95.7222 78.2294 95.2723C78.207 94.8224 78.2848 94.3731 78.4571 93.9567C78.6105 93.5867 78.8354 93.2505 79.119 92.9673C79.4026 92.6842 79.7394 92.4596 80.11 92.3065C80.4807 92.1533 80.8779 92.0746 81.2791 92.0749C81.6802 92.0751 82.0774 92.1543 82.4478 92.308C83.0056 92.5387 83.4824 92.9292 83.818 93.4302C84.1536 93.9313 84.333 94.5203 84.3334 95.123ZM103.889 95.123C103.889 95.5739 103.789 96.0191 103.596 96.4267C103.403 96.8343 103.122 97.194 102.773 97.4798C102.423 97.7656 102.015 97.9705 101.577 98.0796C101.138 98.1887 100.681 98.1994 100.239 98.1107C99.7961 98.0226 99.3787 97.8376 99.0163 97.5692C98.6539 97.3008 98.3556 96.9557 98.1428 96.5585C97.93 96.1613 97.8079 95.722 97.7854 95.2722C97.7629 94.8223 97.8405 94.3731 98.0126 93.9567C98.166 93.5867 98.3909 93.2505 98.6745 92.9673C98.9582 92.6842 99.2949 92.4596 99.6656 92.3065C100.036 92.1533 100.433 92.0746 100.835 92.0749C101.236 92.0751 101.633 92.1543 102.003 92.308C102.561 92.5387 103.038 92.9292 103.374 93.4302C103.709 93.9313 103.888 94.5203 103.889 95.123ZM123.444 95.123C123.445 95.7259 123.266 96.3153 122.93 96.8165C122.594 97.3176 122.117 97.708 121.559 97.9381C121.001 98.1679 120.387 98.2276 119.796 98.1098C119.204 97.992 118.66 97.7019 118.233 97.2761C117.806 96.8503 117.515 96.3078 117.397 95.7171C117.278 95.1264 117.337 94.5138 117.567 93.9567C117.839 93.3062 118.327 92.7696 118.95 92.438C119.573 92.1064 120.292 92.0003 120.984 92.1377C121.677 92.2751 122.3 92.6475 122.748 93.1917C123.197 93.7359 123.443 94.4183 123.444 95.123ZM142.999 95.123C142.999 95.7259 142.82 96.3154 142.485 96.8166C142.149 97.3178 141.672 97.7081 141.113 97.9381C140.414 98.2251 139.632 98.2426 138.92 97.9872C138.208 97.7318 137.616 97.2218 137.26 96.5558C136.903 95.8899 136.807 95.1155 136.989 94.3826C137.172 93.6498 137.62 93.0106 138.248 92.589C138.708 92.283 139.242 92.1073 139.794 92.0805C140.346 92.0537 140.895 92.1768 141.383 92.4369C141.87 92.6969 142.278 93.084 142.563 93.557C142.847 94.0301 142.998 94.5713 142.999 95.123ZM6.1091 76.7077C6.10937 77.1585 6.00937 77.6038 5.81631 78.0114C5.62324 78.4189 5.34193 78.7786 4.99268 79.0645C4.64344 79.3503 4.23496 79.5552 3.79676 79.6643C3.35855 79.7734 2.90154 79.784 2.45871 79.6954C2.01637 79.6072 1.59908 79.4223 1.23683 79.154C0.874568 78.8857 0.576327 78.5406 0.363522 78.1436C0.150717 77.7465 0.0286294 77.3074 0.00602638 76.8577C-0.0165767 76.4079 0.0608659 75.9588 0.232793 75.5425C0.463869 74.9853 0.855421 74.5091 1.35785 74.1742C1.86027 73.8393 2.45097 73.6608 3.0551 73.6614C3.86479 73.6617 4.64125 73.9828 5.21389 74.5542C5.78652 75.1256 6.10851 75.8995 6.1091 76.7077ZM25.6646 76.7077C25.6647 77.1585 25.5646 77.6036 25.3714 78.0111C25.1783 78.4186 24.897 78.7782 24.5478 79.064C24.1986 79.3498 23.7902 79.5547 23.3521 79.6639C22.914 79.7731 22.457 79.7838 22.0142 79.6954C21.5717 79.6074 21.1541 79.4225 20.7916 79.1542C20.4291 78.8859 20.1307 78.5407 19.9177 78.1435C19.7048 77.7463 19.5827 77.307 19.5601 76.8571C19.5375 76.4072 19.6151 75.9578 19.7872 75.5414C20.0183 74.9842 20.4098 74.508 20.9123 74.1731C21.4147 73.8382 22.0054 73.6597 22.6095 73.6603C23.4193 73.6605 24.1959 73.9816 24.7687 74.553C25.3415 75.1244 25.6637 75.8994 25.6646 76.7077ZM45.219 76.7077C45.2193 77.1585 45.1193 77.6038 44.9263 78.0114C44.7332 78.4189 44.4519 78.7786 44.1026 79.0645C43.7534 79.3503 43.3449 79.5552 42.9067 79.6643C42.4685 79.7734 42.0115 79.784 41.5687 79.6954C41.1262 79.6072 40.7088 79.4223 40.3464 79.1539C39.984 78.8855 39.6857 78.5403 39.4729 78.1432C39.2601 77.746 39.138 77.3067 39.1155 76.8569C39.093 76.407 39.1706 75.9578 39.3427 75.5414C39.5738 74.9842 39.9654 74.508 40.4678 74.1731C40.9702 73.8382 41.5609 73.6597 42.165 73.6603C42.9747 73.6605 43.7512 73.9817 44.3238 74.5531C44.8965 75.1245 45.2185 75.8995 45.219 76.7077ZM64.779 76.7077C64.7793 77.1585 64.6793 77.6038 64.4862 78.0114C64.2931 78.4189 64.0118 78.7786 63.6626 79.0645C63.3133 79.3503 62.9049 79.5552 62.4667 79.6643C62.0285 79.7734 61.5714 79.784 61.1286 79.6954C60.686 79.6074 60.2685 79.4226 59.906 79.1542C59.5435 78.8859 59.2451 78.5407 59.0323 78.1435C58.8194 77.7463 58.6974 77.3069 58.675 76.857C58.6526 76.407 58.7304 75.9577 58.9027 75.5414C59.0947 75.078 59.3984 74.669 59.7867 74.3508C60.175 74.0326 60.636 73.8149 61.1288 73.7172C61.6216 73.6194 62.1309 73.6446 62.6116 73.7904C63.0923 73.9363 63.5295 74.1983 63.8844 74.5532C64.4575 75.1242 64.779 75.8999 64.779 76.7077ZM84.3334 76.7077C84.3337 77.1585 84.2337 77.6038 84.0406 78.0114C83.8476 78.4189 83.5663 78.7786 83.217 79.0645C82.8678 79.3503 82.4593 79.5552 82.0211 79.6643C81.5829 79.7734 81.1259 79.784 80.683 79.6954C80.2405 79.6074 79.8229 79.4226 79.4604 79.1542C79.098 78.8859 78.7996 78.5407 78.5867 78.1435C78.3739 77.7463 78.2518 77.3069 78.2294 76.857C78.207 76.407 78.2848 75.9577 78.4571 75.5414C78.6882 74.9842 79.0798 74.508 79.5822 74.1731C80.0846 73.8382 80.6753 73.6597 81.2794 73.6603C82.089 73.6608 82.8653 73.9821 83.4379 74.5534C84.0105 75.1248 84.3325 75.8996 84.3334 76.7077ZM103.889 76.7077C103.889 77.1585 103.789 77.6038 103.596 78.0114C103.403 78.4189 103.122 78.7786 102.773 79.0645C102.423 79.3503 102.015 79.5552 101.577 79.6643C101.138 79.7734 100.681 79.784 100.239 79.6954C99.7961 79.6072 99.3787 79.4223 99.0163 79.1539C98.6539 78.8855 98.3556 78.5403 98.1428 78.1432C97.93 77.746 97.8079 77.3067 97.7854 76.8569C97.7629 76.407 97.8405 75.9578 98.0126 75.5414C98.166 75.1714 98.3909 74.8352 98.6745 74.552C98.9582 74.2688 99.2949 74.0443 99.6656 73.8911C100.036 73.738 100.433 73.6593 100.835 73.6596C101.236 73.6598 101.633 73.739 102.003 73.8926C102.561 74.1233 103.038 74.5139 103.374 75.0149C103.709 75.5159 103.888 76.105 103.889 76.7077ZM123.444 76.7077C123.445 77.3106 123.266 77.9 122.93 78.4011C122.594 78.9023 122.117 79.2927 121.559 79.5228C121.001 79.7526 120.387 79.8123 119.796 79.6945C119.204 79.5767 118.66 79.2866 118.233 78.8607C117.806 78.4349 117.515 77.8925 117.397 77.3018C117.278 76.711 117.337 76.0985 117.567 75.5414C117.839 74.8909 118.327 74.3542 118.95 74.0226C119.573 73.691 120.292 73.5849 120.984 73.7223C121.677 73.8597 122.3 74.2322 122.748 74.7764C123.197 75.3206 123.443 76.003 123.444 76.7077ZM142.999 76.7077C142.999 77.3106 142.82 77.9001 142.485 78.4013C142.149 78.9025 141.672 79.2928 141.113 79.5228C140.414 79.8097 139.632 79.8272 138.92 79.5719C138.208 79.3165 137.616 78.8064 137.26 78.1405C136.903 77.4746 136.807 76.7002 136.989 75.9673C137.172 75.2345 137.62 74.5953 138.248 74.1737C138.708 73.8677 139.242 73.6919 139.794 73.6651C140.346 73.6383 140.895 73.7615 141.383 74.0215C141.87 74.2816 142.278 74.6687 142.563 75.1417C142.847 75.6147 142.998 76.1559 142.999 76.7077ZM6.1091 58.2924C6.10937 58.7432 6.00937 59.1885 5.81631 59.5961C5.62324 60.0036 5.34193 60.3633 4.99268 60.6491C4.64344 60.935 4.23496 61.1399 3.79676 61.249C3.35855 61.3581 2.90154 61.3687 2.45871 61.2801C2.01637 61.1919 1.59908 61.007 1.23683 60.7386C0.874568 60.4703 0.576327 60.1253 0.363522 59.7282C0.150717 59.3312 0.0286294 58.8921 0.00602638 58.4423C-0.0165767 57.9926 0.0608659 57.5435 0.232793 57.1272C0.424824 56.6637 0.728466 56.2548 1.11678 55.9366C1.5051 55.6183 1.9661 55.4007 2.45887 55.303C2.95165 55.2052 3.46097 55.2304 3.94167 55.3762C4.42236 55.5221 4.85957 55.7841 5.21451 56.139C5.78762 56.71 6.1091 57.4846 6.1091 58.2924ZM25.6646 58.2935C25.6647 58.7443 25.5646 59.1894 25.3714 59.5969C25.1783 60.0044 24.897 60.3639 24.5478 60.6498C24.1986 60.9356 23.7902 61.1404 23.3521 61.2496C22.914 61.3588 22.457 61.3696 22.0142 61.2812C21.5717 61.1931 21.1541 61.0083 20.7916 60.74C20.4291 60.4717 20.1307 60.1265 19.9177 59.7293C19.7048 59.3321 19.5827 58.8928 19.5601 58.4429C19.5375 57.9929 19.6151 57.5436 19.7872 57.1272C20.0183 56.57 20.4098 56.0938 20.9123 55.7589C21.4147 55.424 22.0054 55.2455 22.6095 55.246C23.4191 55.2463 24.1955 55.5673 24.7683 56.1384C25.3411 56.7095 25.6635 57.4853 25.6646 58.2935ZM45.219 58.2935C45.2193 58.7443 45.1193 59.1896 44.9263 59.5972C44.7332 60.0047 44.4519 60.3644 44.1026 60.6502C43.7534 60.9361 43.3449 61.141 42.9067 61.2501C42.4685 61.3592 42.0115 61.3698 41.5687 61.2812C41.1262 61.193 40.7088 61.0081 40.3464 60.7397C39.984 60.4713 39.6857 60.1261 39.4729 59.729C39.2601 59.3318 39.138 58.8925 39.1155 58.4426C39.093 57.9928 39.1706 57.5435 39.3427 57.1272C39.5738 56.57 39.9654 56.0938 40.4678 55.7589C40.9702 55.424 41.5609 55.2455 42.165 55.246C42.9745 55.2463 43.7508 55.5673 44.3234 56.1385C44.896 56.7096 45.2182 57.4854 45.219 58.2935ZM64.779 58.2935C64.7793 58.7443 64.6793 59.1896 64.4862 59.5972C64.2931 60.0047 64.0118 60.3644 63.6626 60.6502C63.3133 60.9361 62.9049 61.141 62.4667 61.2501C62.0285 61.3592 61.5714 61.3698 61.1286 61.2812C60.686 61.1932 60.2685 61.0084 59.906 60.74C59.5435 60.4717 59.2451 60.1265 59.0323 59.7293C58.8194 59.332 58.6974 58.8927 58.675 58.4427C58.6526 57.9928 58.7304 57.5435 58.9027 57.1272C59.0946 56.6637 59.3982 56.2546 59.7864 55.9362C60.1747 55.6179 60.6357 55.4002 61.1285 55.3023C61.6213 55.2044 62.1306 55.2295 62.6114 55.3753C63.0921 55.521 63.5294 55.783 63.8844 56.1379C64.4575 56.71 64.779 57.4857 64.779 58.2935ZM84.3334 58.2935C84.3337 58.7443 84.2337 59.1896 84.0406 59.5972C83.8476 60.0047 83.5663 60.3644 83.217 60.6502C82.8678 60.9361 82.4593 61.141 82.0211 61.2501C81.5829 61.3592 81.1259 61.3698 80.683 61.2812C80.2405 61.1932 79.8229 61.0084 79.4604 60.74C79.098 60.4717 78.7996 60.1265 78.5867 59.7293C78.3739 59.332 78.2518 58.8927 78.2294 58.4427C78.207 57.9928 78.2848 57.5435 78.4571 57.1272C78.6882 56.57 79.0798 56.0938 79.5822 55.7589C80.0846 55.424 80.6753 55.2455 81.2794 55.246C82.0888 55.2466 82.865 55.5677 83.4375 56.1388C84.01 56.7099 84.3323 57.4855 84.3334 58.2935ZM103.889 58.2935C103.889 58.7443 103.789 59.1896 103.596 59.5972C103.403 60.0047 103.122 60.3644 102.773 60.6502C102.423 60.9361 102.015 61.141 101.577 61.2501C101.138 61.3592 100.681 61.3698 100.239 61.2812C99.7961 61.193 99.3787 61.0081 99.0163 60.7397C98.6539 60.4713 98.3556 60.1261 98.1428 59.729C97.93 59.3318 97.8079 58.8925 97.7854 58.4426C97.7629 57.9928 97.8405 57.5435 98.0126 57.1272C98.166 56.7572 98.3909 56.421 98.6745 56.1378C98.9582 55.8546 99.2949 55.63 99.6656 55.4769C100.036 55.3238 100.433 55.2451 100.835 55.2453C101.236 55.2456 101.633 55.3248 102.003 55.4784C102.561 55.7091 103.038 56.0994 103.373 56.6002C103.709 57.101 103.888 57.691 103.889 58.2935ZM123.444 58.2924C123.445 58.8953 123.266 59.4846 122.93 59.9858C122.594 60.487 122.117 60.8774 121.559 61.1075C121.001 61.3372 120.387 61.397 119.796 61.2792C119.204 61.1614 118.66 60.8712 118.233 60.4454C117.806 60.0196 117.515 59.4771 117.397 58.8864C117.278 58.2957 117.337 57.6832 117.567 57.1261C117.76 56.6632 118.064 56.2549 118.452 55.9372C118.841 55.6195 119.302 55.4022 119.794 55.3045C120.287 55.2068 120.796 55.2318 121.277 55.3771C121.757 55.5225 122.194 55.7838 122.55 56.1379C123.122 56.7089 123.444 57.4846 123.444 58.2924ZM142.999 58.2935C142.999 58.8964 142.82 59.4858 142.485 59.987C142.149 60.4882 141.672 60.8786 141.113 61.1086C140.555 61.3386 139.942 61.3985 139.35 61.2808C138.758 61.163 138.214 60.8729 137.787 60.4469C137.36 60.021 137.069 59.4784 136.951 58.8876C136.833 58.2967 136.892 57.6842 137.123 57.1272C137.315 56.6642 137.619 56.2558 138.007 55.938C138.396 55.6201 138.856 55.4027 139.349 55.3049C139.841 55.2071 140.35 55.2319 140.831 55.3772C141.312 55.5225 141.749 55.7838 142.104 56.1379C142.677 56.71 142.999 57.4857 142.999 58.2935ZM6.1091 39.7454C6.10937 40.1962 6.00937 40.6415 5.81631 41.049C5.62324 41.4566 5.34193 41.8163 4.99268 42.1021C4.64344 42.388 4.23496 42.5929 3.79676 42.702C3.35855 42.8111 2.90154 42.8217 2.45871 42.7331C2.01623 42.6449 1.59881 42.46 1.23644 42.1916C0.874074 41.9232 0.575762 41.578 0.36294 41.1808C0.150118 40.7837 0.0280707 40.3444 0.00556779 39.8945C-0.0169351 39.4447 0.0606652 38.9954 0.232793 38.5791C0.424824 38.1156 0.728466 37.7067 1.11678 37.3884C1.5051 37.0702 1.9661 36.8526 2.45887 36.7548C2.95165 36.6571 3.46097 36.6823 3.94167 36.8281C4.42236 36.9739 4.85957 37.236 5.21451 37.5909C5.49822 37.8737 5.72327 38.2095 5.87678 38.5792C6.03028 38.9489 6.10923 39.3452 6.1091 39.7454ZM25.6646 39.7454C25.6647 40.1961 25.5646 40.6413 25.3714 41.0488C25.1783 41.4562 24.897 41.8158 24.5478 42.1016C24.1986 42.3874 23.7902 42.5923 23.3521 42.7015C22.914 42.8107 22.457 42.8215 22.0142 42.7331C21.5717 42.645 21.1541 42.4602 20.7916 42.1919C20.4291 41.9235 20.1307 41.5784 19.9177 41.1812C19.7048 40.784 19.5827 40.3447 19.5601 39.8947C19.5375 39.4448 19.6151 38.9955 19.7872 38.5791C20.0184 38.0219 20.41 37.5458 20.9124 37.211C21.4148 36.8761 22.0054 36.6976 22.6095 36.6979C23.4193 36.6982 24.1959 37.0193 24.7687 37.5907C25.3415 38.1621 25.6637 38.937 25.6646 39.7454ZM45.219 39.7454C45.2193 40.1962 45.1193 40.6415 44.9263 41.049C44.7332 41.4566 44.4519 41.8163 44.1026 42.1021C43.7534 42.388 43.3449 42.5929 42.9067 42.702C42.4685 42.8111 42.0115 42.8217 41.5687 42.7331C41.1262 42.6449 40.7088 42.46 40.3464 42.1916C39.984 41.9232 39.6857 41.578 39.4729 41.1808C39.2601 40.7837 39.138 40.3444 39.1155 39.8945C39.093 39.4447 39.1706 38.9954 39.3427 38.5791C39.5348 38.1156 39.8384 37.7067 40.2267 37.3884C40.6151 37.0702 41.076 36.8526 41.5688 36.7548C42.0616 36.6571 42.5709 36.6823 43.0516 36.8281C43.5323 36.9739 43.9695 37.236 44.3245 37.5909C44.6082 37.8737 44.8332 38.2095 44.9867 38.5792C45.1402 38.9489 45.2192 39.3452 45.219 39.7454ZM64.779 39.7454C64.7793 40.1962 64.6793 40.6415 64.4862 41.049C64.2931 41.4566 64.0118 41.8163 63.6626 42.1021C63.3133 42.388 62.9049 42.5929 62.4667 42.702C62.0285 42.8111 61.5714 42.8217 61.1286 42.7331C60.686 42.6451 60.2685 42.4603 59.906 42.1919C59.5435 41.9236 59.2451 41.5784 59.0323 41.1811C58.8194 40.7839 58.6974 40.3445 58.675 39.8946C58.6526 39.4447 58.7304 38.9954 58.9027 38.5791C59.1732 37.9277 59.6616 37.39 60.2846 37.0577C60.9076 36.7254 61.6268 36.6189 62.3196 36.7565C63.0124 36.894 63.636 37.267 64.0843 37.812C64.5325 38.357 64.7787 39.0402 64.779 39.7454ZM84.3334 39.7454C84.3337 40.1962 84.2337 40.6415 84.0406 41.049C83.8476 41.4566 83.5663 41.8163 83.217 42.1021C82.8678 42.388 82.4593 42.5929 82.0211 42.702C81.5829 42.8111 81.1259 42.8217 80.683 42.7331C80.2405 42.6451 79.8229 42.4603 79.4604 42.1919C79.098 41.9236 78.7996 41.5784 78.5867 41.1811C78.3739 40.7839 78.2518 40.3445 78.2294 39.8946C78.207 39.4447 78.2848 38.9954 78.4571 38.5791C78.6492 38.1156 78.9528 37.7067 79.3411 37.3884C79.7294 37.0702 80.1904 36.8526 80.6832 36.7548C81.176 36.6571 81.6853 36.6823 82.166 36.8281C82.6467 36.9739 83.0839 37.236 83.4388 37.5909C83.7225 37.8737 83.9476 38.2095 84.1011 38.5792C84.2546 38.9489 84.3336 39.3452 84.3334 39.7454ZM103.889 39.7454C103.889 40.1962 103.789 40.6415 103.596 41.049C103.403 41.4566 103.122 41.8163 102.773 42.1021C102.423 42.388 102.015 42.5929 101.577 42.702C101.138 42.8111 100.681 42.8217 100.239 42.7331C99.7961 42.6449 99.3787 42.46 99.0163 42.1916C98.6539 41.9232 98.3556 41.578 98.1428 41.1808C97.93 40.7837 97.8079 40.3444 97.7854 39.8945C97.7629 39.4447 97.8405 38.9954 98.0126 38.5791C98.1661 38.2091 98.3911 37.873 98.6747 37.5899C98.9584 37.3069 99.2951 37.0823 99.6657 36.9292C100.036 36.7761 100.434 36.6974 100.835 36.6976C101.236 36.6978 101.633 36.7768 102.003 36.9303C102.561 37.161 103.038 37.5515 103.374 38.0526C103.709 38.5536 103.888 39.1427 103.889 39.7454ZM123.444 39.7454C123.445 40.3482 123.266 40.9376 122.93 41.4388C122.594 41.94 122.117 42.3304 121.559 42.5605C121.142 42.7325 120.691 42.8101 120.241 42.7878C119.79 42.7655 119.349 42.6439 118.951 42.4315C118.553 42.2192 118.207 41.9215 117.938 41.5598C117.669 41.1981 117.483 40.7814 117.394 40.3396C117.305 39.8976 117.316 39.4414 117.426 39.004C117.535 38.5667 117.741 38.1591 118.027 37.8107C118.314 37.4624 118.675 37.1819 119.083 36.9896C119.492 36.7974 119.938 36.6981 120.389 36.699C121.199 36.6996 121.975 37.0206 122.548 37.5917C123.121 38.1628 123.443 38.9373 123.444 39.7454ZM142.999 39.7454C142.999 40.3483 142.82 40.9377 142.485 41.4389C142.149 41.9401 141.672 42.3305 141.113 42.5605C140.555 42.7905 139.942 42.8504 139.35 42.7326C138.758 42.6149 138.214 42.3247 137.787 41.8988C137.36 41.4729 137.069 40.9303 136.951 40.3395C136.833 39.7486 136.892 39.1361 137.123 38.5791C137.315 38.1164 137.62 37.7083 138.008 37.3907C138.396 37.0732 138.857 36.856 139.349 36.7583C139.842 36.6606 140.351 36.6855 140.831 36.8307C141.312 36.9759 141.749 37.237 142.104 37.5909C142.388 37.8737 142.613 38.2095 142.767 38.5792C142.92 38.9489 142.999 39.3452 142.999 39.7454ZM6.1091 21.4617C6.10954 21.9127 6.00966 22.358 5.81666 22.7657C5.62367 23.1734 5.34238 23.5333 4.99311 23.8192C4.64384 24.1052 4.23531 24.3102 3.79702 24.4194C3.35874 24.5285 2.90163 24.5392 2.45871 24.4505C2.01619 24.3622 1.59876 24.1771 1.23639 23.9086C0.874028 23.6401 0.575728 23.2949 0.362919 22.8976C0.15011 22.5004 0.0280733 22.061 0.00557439 21.6111C-0.0169245 21.1612 0.0606727 20.7118 0.232793 20.2954C0.424824 19.832 0.728466 19.423 1.11678 19.1048C1.5051 18.7866 1.9661 18.5689 2.45887 18.4712C2.95165 18.3735 3.46097 18.3986 3.94167 18.5445C4.42236 18.6903 4.85957 18.9523 5.21451 19.3073C5.78762 19.8793 6.1091 20.6539 6.1091 21.4617ZM25.6646 21.4617C25.6649 21.9126 25.5649 22.3579 25.3718 22.7655C25.1787 23.1731 24.8975 23.5328 24.5482 23.8188C24.199 24.1047 23.7906 24.3097 23.3524 24.4189C22.9142 24.5282 22.4571 24.539 22.0142 24.4505C21.5716 24.3623 21.1541 24.1774 20.7916 23.9089C20.4291 23.6405 20.1306 23.2952 19.9177 22.898C19.7048 22.5007 19.5827 22.0613 19.5601 21.6113C19.5375 21.1613 19.6151 20.7119 19.7872 20.2954C20.0183 19.7382 20.4098 19.262 20.9123 18.9271C21.4147 18.5922 22.0054 18.4138 22.6095 18.4143C23.4193 18.4146 24.1959 18.7357 24.7687 19.307C25.3415 19.8784 25.6637 20.6534 25.6646 21.4617ZM45.219 21.4617C45.2193 22.0644 45.0403 22.6537 44.7048 23.1548C44.3694 23.6559 43.8925 24.0464 43.3345 24.2768C42.9173 24.449 42.4671 24.5269 42.0162 24.5047C41.5652 24.4826 41.1248 24.3611 40.7265 24.1489C40.3283 23.9366 39.982 23.639 39.7127 23.2773C39.4433 22.9156 39.2575 22.4989 39.1687 22.0571C39.0802 21.6149 39.0912 21.1587 39.2009 20.7213C39.3106 20.2839 39.5162 19.8762 39.8028 19.5278C40.0895 19.1794 40.4501 18.8989 40.8586 18.7065C41.2672 18.5141 41.7134 18.4147 42.165 18.4154C42.9745 18.4157 43.7508 18.7366 44.3234 19.3078C44.896 19.879 45.2182 20.6537 45.219 21.4617ZM64.779 21.4617C64.7791 22.0646 64.6 22.6539 64.2643 23.155C63.9287 23.6562 63.4515 24.0466 62.8934 24.2768C62.4762 24.4488 62.0261 24.5265 61.5753 24.5043C61.1245 24.4821 60.6843 24.3605 60.2861 24.1483C59.888 23.9361 59.5418 23.6385 59.2726 23.2769C59.0033 22.9154 58.8175 22.4988 58.7287 22.0571C58.6404 21.615 58.6515 21.1589 58.7612 20.7217C58.8709 20.2845 59.0764 19.877 59.3629 19.5287C59.6495 19.1803 60.0099 18.8997 60.4181 18.7072C60.8264 18.5147 61.2724 18.415 61.7239 18.4154C62.5336 18.4154 63.3102 18.7362 63.883 19.3074C64.4559 19.8786 64.7781 20.6535 64.779 21.4617ZM84.3334 21.4617C84.3336 22.0644 84.1547 22.6537 83.8192 23.1548C83.4838 23.6559 83.0069 24.0464 82.4489 24.2768C82.0317 24.449 81.5815 24.5269 81.1306 24.5047C80.6796 24.4826 80.2392 24.3611 79.8409 24.1489C79.4426 23.9366 79.0964 23.639 78.827 23.2773C78.5577 22.9156 78.3719 22.4989 78.2831 22.0571C78.165 21.4658 78.2254 20.8529 78.4567 20.296C78.688 19.739 79.0797 19.2632 79.5823 18.9288C80.0422 18.6228 80.5767 18.4471 81.1288 18.4203C81.6809 18.3935 82.2299 18.5166 82.7175 18.7767C83.205 19.0367 83.6127 19.4238 83.8973 19.8968C84.1819 20.3699 84.3326 20.91 84.3334 21.4617ZM103.889 21.4617C103.889 22.0646 103.71 22.6539 103.374 23.155C103.039 23.6562 102.561 24.0466 102.003 24.2768C101.586 24.4488 101.136 24.5265 100.685 24.5043C100.234 24.4821 99.7942 24.3605 99.3961 24.1483C98.9979 23.9361 98.6518 23.6385 98.3825 23.2769C98.1132 22.9154 97.9275 22.4988 97.8386 22.0571C97.7501 21.6149 97.7611 21.1587 97.8708 20.7213C97.9805 20.2839 98.1861 19.8762 98.4727 19.5278C98.7594 19.1794 99.12 18.8989 99.5286 18.7065C99.9371 18.5141 100.383 18.4147 100.835 18.4154C101.644 18.416 102.42 18.737 102.993 19.3081C103.566 19.8793 103.888 20.6538 103.889 21.4617ZM123.444 21.4617C123.445 22.0646 123.266 22.654 122.93 23.1552C122.594 23.6563 122.117 24.0467 121.559 24.2768C121.142 24.4488 120.692 24.5265 120.241 24.5043C119.79 24.4821 119.35 24.3605 118.952 24.1483C118.553 23.9361 118.207 23.6385 117.938 23.2769C117.669 22.9154 117.483 22.4988 117.394 22.0571C117.305 21.6149 117.316 21.1586 117.425 20.7212C117.535 20.2837 117.74 19.8759 118.027 19.5274C118.314 19.1789 118.674 18.8984 119.083 18.706C119.491 18.5137 119.938 18.4144 120.389 18.4154C121.199 18.416 121.975 18.737 122.548 19.3081C123.121 19.8792 123.443 20.6537 123.444 21.4617ZM142.999 21.4617C142.999 22.0646 142.82 22.6541 142.485 23.1553C142.149 23.6565 141.672 24.0468 141.113 24.2768C140.696 24.449 140.246 24.5269 139.795 24.5047C139.344 24.4826 138.904 24.3611 138.506 24.1488C138.108 23.9366 137.761 23.639 137.492 23.2773C137.223 22.9156 137.037 22.4989 136.949 22.0571C136.83 21.4658 136.891 20.8529 137.122 20.296C137.353 19.739 137.745 19.2632 138.248 18.9288C138.708 18.6228 139.242 18.4471 139.794 18.4203C140.346 18.3935 140.895 18.5166 141.383 18.7767C141.87 19.0367 142.278 19.4238 142.563 19.8968C142.847 20.3699 142.998 20.91 142.999 21.4617ZM6.1091 3.0475C6.10937 3.49834 6.00937 3.94361 5.81631 4.35117C5.62324 4.75873 5.34193 5.11842 4.99268 5.40427C4.64344 5.69011 4.23496 5.89499 3.79676 6.0041C3.35855 6.11321 2.90154 6.12384 2.45871 6.03521C2.01623 5.94702 1.59881 5.76209 1.23644 5.49371C0.874074 5.22532 0.575762 4.88014 0.36294 4.48297C0.150118 4.0858 0.0280707 3.64651 0.00556779 3.19665C-0.0169351 2.7468 0.0606652 2.29755 0.232793 1.88119C0.424824 1.41776 0.728466 1.00879 1.11678 0.690572C1.5051 0.372354 1.9661 0.15472 2.45887 0.0569754C2.95165 -0.0407696 3.46097 -0.0156043 3.94167 0.130239C4.42236 0.276083 4.85957 0.538096 5.21451 0.893038C5.49822 1.17579 5.72327 1.51163 5.87678 1.88133C6.03028 2.25102 6.10923 2.64731 6.1091 3.0475ZM25.6646 3.0475C25.6647 3.49827 25.5646 3.94344 25.3714 4.3509C25.1783 4.75837 24.897 5.11797 24.5478 5.40377C24.1986 5.68958 23.7902 5.89447 23.3521 6.00366C22.914 6.11285 22.457 6.12363 22.0142 6.03521C21.5717 5.94716 21.1541 5.76233 20.7916 5.494C20.4291 5.22567 20.1307 4.88051 19.9177 4.48332C19.7048 4.08614 19.5827 3.6468 19.5601 3.19687C19.5375 2.74695 19.6151 2.29763 19.7872 1.88119C19.9406 1.51118 20.1655 1.17497 20.4491 0.891803C20.7327 0.608635 21.0695 0.38406 21.4401 0.230926C21.8108 0.0777925 22.208 -0.000896521 22.6092 -0.000639706C23.0103 -0.000382891 23.4075 0.0788148 23.7779 0.232423C24.3359 0.462971 24.8129 0.853428 25.1488 1.35447C25.4846 1.85552 25.6641 2.44467 25.6646 3.0475ZM45.219 3.0475C45.2193 3.49834 45.1193 3.94361 44.9263 4.35117C44.7332 4.75873 44.4519 5.11842 44.1026 5.40427C43.7534 5.69011 43.3449 5.89499 42.9067 6.0041C42.4685 6.11321 42.0115 6.12384 41.5687 6.03521C41.1262 5.94702 40.7088 5.76209 40.3464 5.49371C39.984 5.22532 39.6857 4.88014 39.4729 4.48297C39.2601 4.0858 39.138 3.64651 39.1155 3.19665C39.093 2.7468 39.1706 2.29755 39.3427 1.88119C39.5348 1.41776 39.8384 1.00879 40.2267 0.690572C40.6151 0.372354 41.076 0.15472 41.5688 0.0569754C42.0616 -0.0407696 42.5709 -0.0156043 43.0516 0.130239C43.5323 0.276083 43.9695 0.538096 44.3245 0.893038C44.6082 1.17579 44.8332 1.51163 44.9867 1.88133C45.1402 2.25102 45.2192 2.64731 45.219 3.0475ZM64.779 3.0475C64.7793 3.49834 64.6793 3.94361 64.4862 4.35117C64.2931 4.75873 64.0118 5.11842 63.6626 5.40427C63.3133 5.69011 62.9049 5.89499 62.4667 6.0041C62.0285 6.11321 61.5714 6.12384 61.1286 6.03521C60.6861 5.94702 60.2687 5.76209 59.9063 5.49371C59.544 5.22532 59.2457 4.88014 59.0328 4.48297C58.82 4.0858 58.698 3.64651 58.6755 3.19665C58.653 2.7468 58.7306 2.29755 58.9027 1.88119C59.1732 1.22981 59.6616 0.692165 60.2846 0.359838C60.9076 0.0275104 61.6268 -0.0789513 62.3196 0.0585844C63.0124 0.19612 63.636 0.569148 64.0843 1.11414C64.5325 1.65912 64.7787 2.34237 64.779 3.0475ZM84.3334 3.0475C84.3337 3.49834 84.2337 3.94361 84.0406 4.35117C83.8476 4.75873 83.5663 5.11842 83.217 5.40427C82.8678 5.69011 82.4593 5.89499 82.0211 6.0041C81.5829 6.11321 81.1259 6.12384 80.683 6.03521C80.2406 5.94702 79.8231 5.76209 79.4608 5.49371C79.0984 5.22532 78.8001 4.88014 78.5873 4.48297C78.3744 4.0858 78.2524 3.64651 78.2299 3.19665C78.2074 2.7468 78.285 2.29755 78.4571 1.88119C78.6883 1.32408 79.0799 0.847954 79.5823 0.513091C80.0847 0.178228 80.6753 -0.000320202 81.2794 4.60746e-05C82.089 0.000631856 82.8653 0.321855 83.4379 0.893206C84.0105 1.46456 84.3325 2.23935 84.3334 3.0475ZM103.889 3.0475C103.889 3.49834 103.789 3.94361 103.596 4.35117C103.403 4.75873 103.122 5.11842 102.773 5.40427C102.423 5.69011 102.015 5.89499 101.577 6.0041C101.138 6.11321 100.681 6.12384 100.239 6.03521C99.7961 5.94702 99.3787 5.76209 99.0163 5.49371C98.6539 5.22532 98.3556 4.88014 98.1428 4.48297C97.93 4.0858 97.8079 3.64651 97.7854 3.19665C97.7629 2.7468 97.8405 2.29755 98.0126 1.88119C98.2437 1.32399 98.6353 0.847786 99.1377 0.512904C99.6401 0.178023 100.231 -0.000466692 100.835 4.60746e-05C101.645 0.00033913 102.421 0.321469 102.994 0.892883C103.566 1.4643 103.888 2.23926 103.889 3.0475ZM123.444 3.0475C123.445 3.65038 123.266 4.23976 122.93 4.74093C122.594 5.2421 122.117 5.63248 121.559 5.86259C121.142 6.0346 120.691 6.11225 120.241 6.08996C119.79 6.06767 119.349 5.946 118.951 5.73368C118.553 5.52136 118.207 5.22366 117.938 4.86196C117.669 4.50026 117.483 4.08354 117.394 3.64173C117.305 3.19962 117.316 2.74332 117.425 2.30584C117.535 1.86835 117.74 1.46061 118.027 1.1121C118.314 0.763597 118.674 0.483037 119.083 0.290712C119.491 0.0983866 119.938 -0.000895284 120.389 4.60746e-05C121.199 0.000631346 121.975 0.321819 122.548 0.893139C123.121 1.46446 123.443 2.23925 123.444 3.0475ZM142.999 3.0475C142.999 3.65041 142.82 4.23986 142.485 4.74106C142.149 5.24225 141.672 5.6326 141.113 5.86259C140.555 6.09261 139.942 6.15252 139.35 6.03477C138.758 5.91702 138.214 5.62687 137.787 5.20095C137.36 4.77503 137.069 4.23242 136.951 3.64159C136.833 3.05076 136.892 2.4382 137.123 1.88119C137.315 1.41854 137.62 1.01041 138.008 0.692861C138.396 0.375312 138.857 0.158112 139.349 0.0604437C139.842 -0.0372248 140.351 -0.0123565 140.831 0.132853C141.312 0.278062 141.749 0.539143 142.104 0.893038C142.388 1.17579 142.613 1.51163 142.767 1.88133C142.92 2.25102 142.999 2.64731 142.999 3.0475Z" fill="#E2E2E2"/>
</g>
</g>
</svg>
