<svg width="418" height="280" viewBox="0 0 418 280" fill="none" xmlns="http://www.w3.org/2000/svg">
<g opacity="0.3">
<path d="M240.4 0V51.9258" stroke="#E2E2E2" stroke-miterlimit="10"/>
<path d="M215.6 51.9258H269.2L299.2 89.8716H188L215.6 51.9258Z" stroke="#E2E2E2" stroke-miterlimit="10"/>
<path d="M192.4 83.4807H295.2" stroke="#E2E2E2" stroke-miterlimit="10"/>
<path d="M256 89.4722C256 97.0613 250 103.053 242.4 103.053C234.8 103.053 228.8 97.0613 228.8 89.4722" stroke="#E2E2E2" stroke-miterlimit="10"/>
<path d="M347.6 0V86.6762" stroke="#E2E2E2" stroke-miterlimit="10"/>
<path d="M322.8 86.6761H376.4L406.4 124.622H295.2L322.8 86.6761Z" stroke="#E2E2E2" stroke-miterlimit="10"/>
<path d="M300 118.231H402.4" stroke="#E2E2E2" stroke-miterlimit="10"/>
<path d="M363.6 124.223C363.6 131.812 357.6 137.803 350 137.803C342.4 137.803 336.4 131.812 336.4 124.223" stroke="#E2E2E2" stroke-miterlimit="10"/>
<path d="M2.7998 278.003L47.9998 166.163H380.8L415.2 278.003H396.8L347.2 192.525H72.7998L24.3998 278.003H2.7998Z" stroke="#E2E2E2" stroke-miterlimit="10"/>
<path d="M48 114.237L65.6 164.964H134.8L148.8 114.237H48Z" stroke="#E2E2E2" stroke-miterlimit="10"/>
<path d="M87.9998 114.237L70.7998 88.2739L91.5998 97.4608L81.1998 69.5007L97.9998 81.4836L112.8 69.5007L107.6 97.4608L126 88.2739L112.8 114.237" stroke="#E2E2E2" stroke-miterlimit="10"/>
<path d="M49.5996 119.429H146.8" stroke="#E2E2E2" stroke-miterlimit="10"/>
</g>
</svg>
