<svg width="135" height="394" viewBox="0 0 135 394" fill="none" xmlns="http://www.w3.org/2000/svg">
<g opacity="0.3" clip-path="url(#clip0_647_404)">
<path d="M9.26172 394V156.87L65.9561 116.741L124.054 160.799V394" stroke="#E2E2E2" stroke-miterlimit="10"/>
<path d="M23.2949 180.724H109.179" stroke="#E2E2E2" stroke-miterlimit="10"/>
<path d="M23.2949 198.964H109.179" stroke="#E2E2E2" stroke-miterlimit="10"/>
<path d="M23.2949 217.205H109.179" stroke="#E2E2E2" stroke-miterlimit="10"/>
<path d="M23.2949 235.446H109.179" stroke="#E2E2E2" stroke-miterlimit="10"/>
<path d="M23.2949 253.687H109.179" stroke="#E2E2E2" stroke-miterlimit="10"/>
<path d="M23.2949 271.647H109.179" stroke="#E2E2E2" stroke-miterlimit="10"/>
<path d="M23.2949 289.887H109.179" stroke="#E2E2E2" stroke-miterlimit="10"/>
<path d="M23.2949 308.128H109.179" stroke="#E2E2E2" stroke-miterlimit="10"/>
<path d="M23.2949 326.369H109.179" stroke="#E2E2E2" stroke-miterlimit="10"/>
<path d="M23.2949 344.61H109.179" stroke="#E2E2E2" stroke-miterlimit="10"/>
<path d="M23.2949 362.85H109.179" stroke="#E2E2E2" stroke-miterlimit="10"/>
<path d="M1.12305 0.841858L65.9567 116.741L133.878 0.841858" stroke="#E2E2E2" stroke-miterlimit="10"/>
<path d="M23.2952 2.245C22.4532 6.4544 66.237 83.6268 66.237 83.6268L115.915 2.245" stroke="#E2E2E2" stroke-miterlimit="10"/>
<path d="M40.416 2.245L66.2372 50.5128L97.1104 2.245" stroke="#E2E2E2" stroke-miterlimit="10"/>
</g>
<defs>
<clipPath id="clip0_647_404">
<rect width="135" height="394" fill="white"/>
</clipPath>
</defs>
</svg>
