<svg width="115" height="37" viewBox="0 0 115 37" fill="none" xmlns="http://www.w3.org/2000/svg">
<g clip-path="url(#clip0_296_4288)">
<path d="M14.7261 0.00317383H15.7425C19.2708 0.0792529 22.7417 1.48672 25.2346 3.97831C24.3141 4.91028 23.3745 5.8042 22.4732 6.73617C21.0734 5.48087 19.3859 4.51086 17.545 4.1685C14.822 3.59791 11.8881 4.11144 9.60614 5.65205C7.11326 7.26873 5.42577 10.0076 5.06143 12.9366C4.65873 15.8276 5.4833 18.8708 7.38172 21.1151C9.20344 23.3024 11.984 24.6718 14.8604 24.7669C17.545 24.9191 20.3447 24.1012 22.3006 22.2373C23.8347 20.9249 24.5442 18.9278 24.7743 16.9878C21.5911 16.9878 18.4079 17.0069 15.2247 16.9878V13.0698H28.6287C29.3191 17.2731 28.3219 22.0091 25.1003 25.0142C22.9526 27.1444 19.9803 28.3997 16.9505 28.647C14.0166 28.9323 10.9868 28.3807 8.37887 26.9732C5.25319 25.3185 2.76031 22.5226 1.53304 19.2322C0.382485 16.208 0.363309 12.7845 1.43716 9.7413C2.41514 6.96441 4.29439 4.51086 6.71056 2.79908C9.03086 1.10632 11.8497 0.174352 14.7261 0.00317383Z" fill="#1D1D1D"/>
<path d="M91.623 0.99231H95.7267V28.1525C94.3652 28.1525 92.9845 28.1716 91.623 28.1335C91.6422 19.0991 91.623 10.0457 91.623 0.99231Z" fill="#1D1D1D"/>
<path d="M37.7575 10.407C40.2887 9.93151 43.0309 10.4641 45.1211 11.9666C47.0195 13.298 48.3426 15.3902 48.7453 17.6726C49.2631 20.3163 48.6111 23.2073 46.8853 25.2995C45.0252 27.6389 41.9762 28.8942 39.0039 28.704C36.2809 28.5519 33.6346 27.2015 32.0239 24.9952C30.2021 22.5606 29.7611 19.2132 30.7582 16.3602C31.7554 13.298 34.5743 10.9586 37.7575 10.407ZM38.3328 14.0208C37.2973 14.287 36.3385 14.8766 35.6481 15.7135C33.7881 17.9198 33.9031 21.5145 35.9549 23.5687C37.1247 24.7479 38.8889 25.2995 40.5188 24.9761C42.0337 24.7099 43.3569 23.7018 44.0856 22.3704C45.3512 20.1071 44.9868 16.9878 43.0501 15.219C41.8036 14.0778 39.9819 13.6023 38.3328 14.0208Z" fill="#1D1D1D"/>
<path d="M58.0825 10.4072C60.9781 9.85561 64.1421 10.6544 66.309 12.6705C69.8374 15.8088 70.2209 21.6859 67.2103 25.2997C65.3886 27.582 62.4355 28.8373 59.5207 28.7042C56.7402 28.6281 53.998 27.2587 52.3489 24.9953C50.4888 22.5038 50.0861 19.0802 51.1408 16.1702C52.1955 13.2031 54.9568 10.9397 58.0825 10.4072ZM58.6578 14.0209C57.6223 14.2872 56.6635 14.8768 55.9732 15.6947C54.1323 17.8629 54.209 21.4006 56.1841 23.4738C57.3538 24.7101 59.1755 25.3187 60.863 24.9763C62.3588 24.691 63.7011 23.702 64.4298 22.3706C65.6762 20.0882 65.3119 16.969 63.3559 15.2002C62.1095 14.059 60.2877 13.6025 58.6578 14.0209Z" fill="#1D1D1D"/>
<path d="M75.3237 11.5103C77.529 10.1409 80.4629 9.76049 82.8407 10.9397C83.5886 11.2631 84.2022 11.8146 84.7967 12.3662C84.8158 11.8527 84.7967 11.3201 84.8158 10.7876C86.1006 10.8066 87.3854 10.7876 88.6894 10.8066V27.582C88.6702 30.1116 88.0182 32.7934 86.1773 34.6384C84.1638 36.6735 81.0765 37.3011 78.296 36.8827C75.3237 36.4452 72.735 34.296 71.5844 31.5762C72.735 31.0246 73.943 30.5871 75.132 30.0736C75.8031 31.6332 77.1646 32.9646 78.8713 33.2689C80.5779 33.5732 82.5531 33.1548 83.6653 31.7473C84.8542 30.3018 84.8542 28.3238 84.7967 26.555C83.9146 27.4108 82.8982 28.1716 81.671 28.4569C79.0055 29.1987 76.0716 28.2857 74.0198 26.4979C71.9487 24.71 70.7215 21.9522 70.8365 19.2133C70.8941 16.1131 72.6583 13.127 75.3237 11.5103ZM79.2931 13.9448C78.1234 14.135 77.0304 14.7817 76.2825 15.6756C74.48 17.8059 74.48 21.2104 76.3017 23.3026C77.3372 24.5389 79.0055 25.2236 80.6163 25.0524C82.1312 24.9002 83.531 23.9492 84.2789 22.6369C85.5445 20.4116 85.3336 17.3874 83.6269 15.4474C82.5722 14.2492 80.8848 13.6595 79.2931 13.9448Z" fill="#1D1D1D"/>
<path d="M100.655 12.4803C102.956 10.3501 106.503 9.62738 109.456 10.7495C112.256 11.7956 114.039 14.4394 114.941 17.1592C110.779 18.871 106.637 20.5638 102.476 22.2755C103.052 23.3597 103.934 24.3487 105.123 24.7481C106.791 25.3377 108.785 25.1285 110.185 24.0254C110.741 23.6069 111.182 23.0553 111.604 22.5228C112.659 23.2265 113.713 23.9112 114.768 24.615C113.272 26.8403 110.76 28.3999 108.056 28.6472C105.065 29.0085 101.882 27.8673 99.945 25.5469C96.7618 21.8951 97.0686 15.7708 100.655 12.4803ZM102.706 15.999C102.054 16.931 101.786 18.0722 101.805 19.1943C104.586 18.0531 107.366 16.912 110.147 15.7517C109.686 14.6866 108.574 14.04 107.443 13.8688C105.621 13.5455 103.723 14.5155 102.706 15.999Z" fill="#1D1D1D"/>
</g>
<defs>
<clipPath id="clip0_296_4288">
<rect width="114.289" height="37" fill="white" transform="translate(0.650391)"/>
</clipPath>
</defs>
</svg>
