<svg width="150" height="37" viewBox="0 0 150 37" fill="none" xmlns="http://www.w3.org/2000/svg">
<g clip-path="url(#clip0_296_4302)">
<path d="M32.1669 0.878118C28.5002 0.84514 25.0372 2.70761 25.0372 2.70761C25.0372 2.70761 21.5483 4.8314 20.2739 8.01367C20.2081 8.32275 13.2962 21.7962 13.2962 21.7962C4.53503 19.2499 0.29924 24.4095 0.432746 26.4009C2.5494 31.7379 12.8998 27.9413 13.9332 26.7057C14.5053 26.3972 14.8739 26.7666 14.8739 26.7666C14.8739 26.7666 17.4087 28.4628 17.6952 28.5963C17.9814 28.7298 19.4247 28.5354 19.4247 28.5354C20.547 28.4496 22.5496 26.239 22.7922 26.2178C23.1665 26.2189 23.6179 28.6668 25.1587 28.6268C27.0074 28.9859 29.0116 26.8887 29.0116 26.8887C29.2754 26.5135 29.3757 26.7971 29.3757 26.7971C29.3331 29.0974 31.1918 28.6916 31.7419 28.6268C33.5685 27.8797 38.0423 23.4495 37.5368 24.7543C37.361 25.1077 35.9895 27.6813 35.9895 27.6813C35.8358 28.3671 36.3232 28.3218 36.3232 28.3218L39.5389 28.2913C40.0888 27.9609 42.9024 21.8711 42.5729 22.7112C43.5869 20.8667 45.8798 20.2108 45.8798 20.2108C46.1 20.1448 46.0011 20.4546 46.0011 20.4546L42.2392 27.9559C42.1735 28.1544 42.5424 28.3523 42.5424 28.3523L45.819 28.2913C46.2593 28.2486 49.0046 22.5891 49.0046 22.5891C49.7518 21.153 52.4027 20.3327 52.4027 20.3327C52.8865 20.2454 52.5543 20.7291 52.5543 20.7291L49.9756 26.1569C49.5836 28.6211 51.6437 28.7655 52.5239 28.6573C53.4042 28.5272 54.8357 28.0289 57.6511 25.9128C58.2236 25.4725 58.3489 25.9155 58.3489 26.0045C58.3731 29.0348 61.6861 28.6877 61.6861 28.6877C62.6766 28.9338 66.6969 28.8385 70.0595 22.1012C68.8301 26.6765 71.3366 27.9224 71.4249 28.078C71.5131 28.2327 72.8607 28.7057 73.3664 28.5963C78.4949 29.0532 80.6477 21.0341 80.6477 21.0341C81.8018 20.1639 82.0948 19.9142 82.5591 19.6618C83.7039 19.775 84.0112 19.8075 84.5615 19.8753C85.0014 20.0316 84.6027 20.4444 84.4703 20.5765C79.2353 24.6767 81.5332 27.8385 81.7097 27.773C84.0006 30.8982 88.7561 25.4504 89.6583 25.364C90.806 29.9687 94.2976 27.9641 94.4519 27.9863C94.1441 28.8924 93.2487 31.1331 92.4798 32.5908C90.8746 34.8651 88.3538 32.3165 88.3538 32.3165L87.7166 32.286C87.4088 32.6831 87.5953 33.1398 87.5953 33.1398C88.256 34.2035 89.1021 35.6755 91.7213 36.0366C94.3623 36.1547 95.8777 33.2312 95.8777 33.2312C95.8777 33.2312 99.5801 26.365 99.8218 25.5469C100.943 24.5325 102.89 23.0678 104.342 22.0098C105.288 21.8135 101.975 27.2435 101.733 28.0168C101.667 28.4594 101.824 28.4744 101.824 28.4744C101.824 28.4744 104.344 28.6002 104.828 28.5354C105.312 28.4703 107.663 22.8559 108.499 21.7965C109.224 20.5817 111.563 19.4484 111.563 19.4484C112.069 19.3393 111.896 19.9363 111.896 19.9363L108.802 26.218C108.056 28.8476 110.157 28.8613 110.531 28.8404C111.543 28.7762 115.325 26.5837 115.325 26.5837C115.853 26.1869 115.841 26.8278 115.841 26.8278C115.797 27.6684 116.7 29.0455 117.448 28.8706C120.134 29.1212 124.195 24.638 124.305 25.059C124.327 25.1477 122.788 28.1999 122.788 28.1999C122.854 28.4433 123.122 28.5658 123.122 28.5658C123.122 28.5658 125.722 28.5945 126.338 28.5963C126.954 28.5981 129.757 21.8658 130.373 21.4912C131.626 20.1899 132.998 20.0664 133.042 20.0887C133.505 20.0682 130.427 25.0097 130.251 26.0042C129.571 28.8563 131.586 28.8097 131.586 28.8097C133.193 29.0578 137.132 26.2487 137.199 26.4921C137.66 26.0293 137.715 26.5837 137.715 26.5837V26.7971C137.981 29.0987 139.323 28.8401 139.323 28.8401C140.863 29.2427 146.877 24.1748 146.877 24.1748L145.967 23.1686L142.205 25.9128C141.897 26.0672 141.719 25.73 141.719 25.73L145.936 17.5578C146.134 17.3594 145.845 17.1309 145.845 17.1309H142.053C141.789 17.4174 141.628 17.6187 141.628 17.6187L138.2 24.3274L134.438 26.1873C134.042 26.2965 134.135 25.8826 134.135 25.8826C134.135 25.8826 137.269 19.7004 137.533 18.8384C137.709 18.4409 137.624 17.8018 137.624 17.8018C136.588 15.3873 132.402 18.513 131.829 18.5337C131.807 18.5557 132.345 17.4359 132.345 17.4359C132.499 17.1042 132.193 17.1004 132.193 17.1004L128.674 17.0699C128.674 17.0699 128.684 16.8186 128.552 17.0394C128.421 17.2603 126.156 21.5219 126.156 21.5219L120.483 25.8214C119.998 25.9089 120.118 25.5776 120.118 25.5776L124.275 17.4968L124.305 17.1613L120.3 17.0699L116.993 23.4733C116.818 23.6721 113.353 25.6385 113.353 25.6385C112.825 25.7923 112.807 25.3335 112.807 25.3335L115.871 19.357C116.565 17.0253 114.031 16.3398 112.776 16.7954C111.929 17.1024 111.138 17.3749 111.138 17.3749C111.138 17.3749 110.888 17.4404 111.108 17.1309C111.481 16.6009 115.355 8.89771 115.355 8.89771C115.443 8.67641 115.234 8.53177 115.234 8.53177L111.715 8.50129C111.429 8.63275 111.381 8.83676 111.381 8.83676L106.375 18.3811L102.249 21.4915C101.985 21.6677 101.976 21.3693 101.976 21.3693L104.039 17.4359V17.0392L100.338 17.0087L99.7306 17.4966C99.312 16.6105 97.1879 16.6209 97.1216 16.6428C92.6758 16.4972 90.174 22.8329 90.174 22.8329C87.7003 24.9883 86.5573 25.659 85.7448 25.7907C85.0686 25.8289 84.8647 25.2721 84.8647 25.2721C83.923 22.3719 89.8402 19.6311 89.8402 19.6311C90.0385 19.5207 90.8911 16.948 90.7809 16.9478C90.6707 16.9475 83.505 16.9394 83.4389 16.9173C83.0425 16.7615 81.1286 18.5719 80.5568 18.9908C78.8807 14.0532 72.3866 17.7877 71.4855 19.997C71.0986 20.1007 70.925 20.0284 70.727 20.0275C70.7922 18.3467 70.5702 17.2987 69.5135 16.7647C68.941 16.4536 66.6012 16.7647 66.6012 16.7647L70.5754 8.80605C70.7732 8.56315 70.3933 8.3182 70.3933 8.3182H66.8135C66.6594 8.40645 66.4797 8.62297 66.4797 8.62297C66.4797 8.62297 59.7154 21.791 59.3197 22.4976C58.9241 23.2043 53.9801 25.8519 53.9801 25.8519C54.0235 25.3656 57.208 19.8003 57.3175 18.7165C57.4472 15.9077 54.2532 16.7954 54.2532 16.7954C54.2532 16.7954 52.4445 18.0022 50.7947 18.8384C50.4401 15.7624 47.7607 16.8259 47.7607 16.8259L44.7269 18.808L45.2729 17.3749L45.3945 16.8259L41.7536 16.7344C41.3361 17.0431 40.6009 18.7165 40.6009 18.7165L39.448 20.851L34.2602 24.7847C33.7542 25.0706 34.0174 24.3883 34.0174 24.3883C34.0174 24.3883 37.52 17.4834 37.5972 17.4356C37.8832 17.2594 37.6581 16.8261 37.6581 16.8261L34.1387 16.7954C34.1387 16.7954 33.5427 17.8132 33.4107 17.9237C31.7363 15.5515 26.2107 16.5143 23.2473 23.5345C22.8685 24.0037 22.5754 24.3321 22.3675 24.4188C18.8929 28.5013 16.9064 24.4493 16.9064 24.4493L23.126 12.5264C23.126 12.5264 25.9556 6.16326 27.7374 4.35424C32.247 1.29228 33.532 4.17138 33.532 4.17138C33.9217 5.07885 35.1099 8.35482 28.9813 9.93459C28.1773 10.0144 28.435 10.3917 28.435 10.3917C30.2188 11.9233 32.4094 11.7641 32.4094 11.7641C34.5666 12.1903 40.4119 8.9573 38.2951 3.77496C36.6432 1.60523 34.3668 0.897905 32.1669 0.878118ZM124.73 8.95889C121.517 9.08239 121.329 13.4166 124.608 13.8681C127.799 13.9659 128.406 9.10217 124.73 8.95866V8.95889ZM146.604 8.95889C143.126 8.97117 143.386 13.9031 146.664 13.8681C149.944 13.6122 149.663 9.07784 146.604 8.95866V8.95889ZM31.8028 18.198C32.8312 18.2216 32.6513 19.4602 32.4703 19.6922C32.5805 20.0684 30.6802 23.2903 30.6802 23.2903C28.4814 26.0493 27.4339 25.5466 27.4339 25.5466C27.4339 25.5466 26.6804 25.4416 27.252 23.9612C27.8675 22.9232 29.0627 20.2222 30.3161 18.6551C30.9762 18.3142 31.4597 18.19 31.8028 18.198ZM66.2976 18.5027C67.3762 18.6388 66.8438 19.6311 66.8438 19.6311L63.8704 25.5162C62.925 26.6863 62.0502 26.2785 62.0502 26.2785C61.566 25.9228 62.384 24.5709 62.384 24.5709L65.1752 19.0823C65.7246 18.5084 66.2976 18.5027 66.2976 18.5027ZM97.2429 18.5335C98.0846 18.3833 98.4263 19.0823 98.4263 19.0823C98.4263 19.0823 98.4752 19.1946 98.3654 19.8141C98.1242 20.7648 95.5136 25.3028 95.5136 25.3028C94.4143 26.4059 93.4506 26.1871 93.4506 26.1871C92.9005 26.0306 93.1168 25.2114 93.1168 25.2114C93.1168 25.2114 95.2308 20.8544 96.2418 19.0213C96.6378 18.7293 96.9623 18.5833 97.2429 18.5335ZM77.0071 18.5639C77.4721 18.485 77.9136 18.6776 77.8262 19.6615C77.2773 20.8324 75.1108 25.1336 74.6712 25.7295C74.5834 26.2385 72.371 27.0677 72.9417 25.2114C72.9417 25.2114 76.0449 19.3779 76.0666 19.1127C76.0775 18.9799 76.5423 18.6426 77.0071 18.5639ZM7.13751 23.3517C8.95139 23.308 10.596 23.9002 10.596 23.9002C10.596 23.9002 10.1717 25.3217 6.16653 25.9738C4.2739 25.8585 3.28504 25.8669 3.28436 25.1812C4.20782 23.7999 5.72663 23.3856 7.13751 23.3517Z" fill="#1D1D1D"/>
</g>
<defs>
<clipPath id="clip0_296_4302">
<rect width="149.644" height="37" fill="white" transform="translate(0.299805)"/>
</clipPath>
</defs>
</svg>
