<svg version="1.2" xmlns="http://www.w3.org/2000/svg" viewBox="0 0 147 45" width="147" height="45">
	<title>logo</title>
	<defs>
		<clipPath clipPathUnits="userSpaceOnUse" id="cp1">
			<path d="m0 0h39v45h-39z"/>
		</clipPath>
	</defs>
	<style>
		.s0 { fill: #1d1d1d } 
		.s1 { fill: #fbfbfb } 
		.s2 { fill: #222221 } 
	</style>
	<path class="s0" d="m49 31l5.3-7.9-5.1-7.5h3.1l3.6 5.2 3.5-5.2h3.2l-5.2 7.5 5.4 7.9h-3.1l-3.8-5.6-3.8 5.6zm15.1 5.3v-16.3h2.2l0.5 1.8-0.8-0.3q0.7-0.7 1.6-1.2 0.9-0.5 2.2-0.5 1.6 0 2.7 0.8 1.1 0.8 1.7 2.1 0.6 1.3 0.6 2.8 0 1.6-0.6 2.9-0.6 1.3-1.7 2-1.1 0.8-2.7 0.8-1.3 0-2.1-0.3-0.8-0.4-1.6-1.2l0.7-0.5v7.1zm5.3-7.3q1.2 0 1.9-1 0.7-0.9 0.7-2.5 0-1.5-0.7-2.5-0.7-0.9-1.9-0.9-0.9 0-1.5 0.4-0.6 0.4-0.9 1.2-0.3 0.8-0.3 1.8 0 1 0.3 1.8 0.3 0.8 0.9 1.2 0.6 0.5 1.5 0.5zm7.3 2v-11h2.5l0.1 1.2q0.4-0.5 1.2-1 0.7-0.4 1.6-0.4 0.3 0 0.5 0l-0.2 2.7q-0.2-0.1-0.5-0.1-0.2 0-0.4 0-0.7 0-1.3 0.3-0.6 0.3-0.8 0.8v7.5zm12.1 0.2q-1.8 0-3.1-0.8-1.2-0.7-1.9-2-0.7-1.3-0.7-2.9 0-1.5 0.7-2.8 0.7-1.3 1.9-2.1 1.3-0.8 3.1-0.8 1.8 0 3 0.8 1.3 0.8 2 2.1 0.6 1.3 0.6 2.8 0 1.6-0.6 2.9-0.7 1.3-2 2-1.2 0.8-3 0.8zm0-2.2q1.4 0 2.1-1 0.7-0.9 0.7-2.5 0-1.5-0.7-2.5-0.7-1-2.1-1-1.4 0-2.1 1-0.8 1-0.8 2.5 0 1.6 0.8 2.5 0.7 1 2.1 1zm7.5 7.3v-16.3h2.2l0.6 1.8-0.9-0.3q0.8-0.7 1.7-1.2 0.9-0.5 2.2-0.5 1.6 0 2.7 0.8 1.1 0.8 1.7 2.1 0.5 1.3 0.5 2.8 0 1.6-0.5 2.9-0.6 1.3-1.7 2-1.1 0.8-2.7 0.8-1.3 0-2.1-0.3-0.8-0.4-1.6-1.2l0.7-0.5v7.1zm5.3-7.3q1.2 0 1.9-1 0.7-0.9 0.7-2.5 0-1.5-0.7-2.5-0.7-0.9-1.9-0.9-1 0-1.6 0.4-0.6 0.4-0.9 1.2-0.2 0.8-0.2 1.8 0 1 0.2 1.8 0.3 0.8 0.9 1.2 0.6 0.5 1.6 0.5zm12.6 2.2q-2 0-3.4-0.8-1.3-0.8-2-2.1-0.6-1.3-0.6-2.9 0-1.5 0.6-2.7 0.6-1.3 1.8-2.1 1.2-0.8 3-0.8 1.5 0 2.6 0.7 1.1 0.6 1.6 1.7 0.5 1.1 0.5 2.4 0 0.4 0 0.7-0.1 0.4-0.2 0.8h-7.1q0.2 1 0.7 1.7 0.5 0.6 1.2 0.9 0.7 0.3 1.5 0.3 1 0 1.8-0.3 0.8-0.2 1.5-0.6l0.1 2.3q-0.6 0.3-1.5 0.6-1 0.2-2.1 0.2zm-3.1-7h4.4q0-0.4-0.1-0.9-0.2-0.5-0.7-0.9-0.4-0.3-1.1-0.3-1.1 0-1.7 0.6-0.6 0.6-0.8 1.5zm9.1 6.8v-11h2.5l0.1 1.2q0.4-0.5 1.2-1 0.7-0.4 1.6-0.4 0.3 0 0.5 0l-0.2 2.7q-0.2-0.1-0.5-0.1-0.2 0-0.4 0-0.7 0-1.3 0.3-0.6 0.3-0.8 0.8v7.5zm10.8 0.2q-1 0-1.6-0.4-0.7-0.4-1-1.1-0.3-0.6-0.3-1.4v-6.1h-1.6l0.3-2.2h1.3v-2.4l2.7-0.3v2.7h2.4v2.2h-2.4v5q0 0.9 0.1 1.2 0.1 0.4 0.5 0.5 0.3 0.1 1.1 0.1h0.7l-0.2 2.2zm4.9 5.1l2.4-6-4.6-10.3h3.1l2.8 7.1 2.8-7.1h3.1l-6.9 16.3z"/>
	<g id="Clip-Path" clip-path="url(#cp1)">
		<g>
			<path class="s1" d="m5.4 21.9v23.1h-5.4v-18.1z"/>
			<path class="s2" d="m5.4 21.9v23.1h5.4v-19.2z"/>
			<path class="s1" d="m16 12.6v32.4h-7.2v-25.6z"/>
			<path class="s2" d="m16 12.6v32.4h7.2v-27.3z"/>
			<path class="s1" d="m29.3 0v45h-9.7v-34.7z"/>
			<path class="s2" d="m29.3 0v45h9.7v-34.7z"/>
		</g>
	</g>
</svg>