<svg width="146" height="45" viewBox="0 0 146 45" fill="none" xmlns="http://www.w3.org/2000/svg">
<path d="M48.956 31L54.346 23.102L49.22 15.6H52.344L55.886 20.836L59.428 15.6H62.552L57.426 23.102L62.816 31H59.692L55.886 25.39L52.08 31H48.956ZM64.0475 36.324V20H66.2475L66.7755 21.826L65.9615 21.54C66.4675 21.0193 67.0175 20.605 67.6115 20.297C68.2055 19.9817 68.9315 19.824 69.7895 19.824C70.8675 19.824 71.7732 20.0843 72.5065 20.605C73.2398 21.1257 73.7935 21.8187 74.1675 22.684C74.5488 23.5493 74.7395 24.4953 74.7395 25.522C74.7395 26.5487 74.5488 27.4947 74.1675 28.36C73.7935 29.2253 73.2398 29.9183 72.5065 30.439C71.7732 30.9597 70.8675 31.22 69.7895 31.22C68.9315 31.22 68.2348 31.1027 67.6995 30.868C67.1642 30.6333 66.6215 30.2593 66.0715 29.746L66.7755 29.196V36.324H64.0475ZM69.3715 28.976C70.1855 28.976 70.8162 28.657 71.2635 28.019C71.7182 27.3737 71.9455 26.5413 71.9455 25.522C71.9455 24.4953 71.7182 23.663 71.2635 23.025C70.8162 22.387 70.1855 22.068 69.3715 22.068C68.7408 22.068 68.2238 22.2147 67.8205 22.508C67.4172 22.8013 67.1202 23.2083 66.9295 23.729C66.7388 24.2423 66.6435 24.84 66.6435 25.522C66.6435 26.204 66.7388 26.8053 66.9295 27.326C67.1202 27.8393 67.4172 28.2427 67.8205 28.536C68.2238 28.8293 68.7408 28.976 69.3715 28.976ZM76.6373 31V20H79.1893L79.2553 21.166C79.534 20.858 79.9263 20.55 80.4323 20.242C80.9383 19.934 81.492 19.78 82.0933 19.78C82.2693 19.78 82.4307 19.7947 82.5773 19.824L82.3793 22.508C82.218 22.464 82.0567 22.4347 81.8953 22.42C81.7413 22.4053 81.5873 22.398 81.4333 22.398C80.9713 22.398 80.5497 22.5043 80.1683 22.717C79.787 22.9297 79.5193 23.19 79.3653 23.498V31H76.6373ZM88.6997 31.22C87.5044 31.22 86.485 30.9597 85.6417 30.439C84.7984 29.9183 84.153 29.2253 83.7057 28.36C83.2657 27.4947 83.0457 26.5487 83.0457 25.522C83.0457 24.488 83.2657 23.5347 83.7057 22.662C84.153 21.7893 84.7984 21.0927 85.6417 20.572C86.485 20.044 87.5044 19.78 88.6997 19.78C89.895 19.78 90.9144 20.044 91.7577 20.572C92.601 21.0927 93.2427 21.7893 93.6827 22.662C94.13 23.5347 94.3537 24.488 94.3537 25.522C94.3537 26.5487 94.13 27.4947 93.6827 28.36C93.2427 29.2253 92.601 29.9183 91.7577 30.439C90.9144 30.9597 89.895 31.22 88.6997 31.22ZM88.6997 28.976C89.6164 28.976 90.3204 28.657 90.8117 28.019C91.3104 27.3737 91.5597 26.5413 91.5597 25.522C91.5597 24.488 91.3104 23.6483 90.8117 23.003C90.3204 22.3503 89.6164 22.024 88.6997 22.024C87.7904 22.024 87.0864 22.3503 86.5877 23.003C86.089 23.6483 85.8397 24.488 85.8397 25.522C85.8397 26.5413 86.089 27.3737 86.5877 28.019C87.0864 28.657 87.7904 28.976 88.6997 28.976ZM96.2526 36.324V20H98.4526L98.9806 21.826L98.1666 21.54C98.6726 21.0193 99.2226 20.605 99.8166 20.297C100.411 19.9817 101.137 19.824 101.995 19.824C103.073 19.824 103.978 20.0843 104.712 20.605C105.445 21.1257 105.999 21.8187 106.373 22.684C106.754 23.5493 106.945 24.4953 106.945 25.522C106.945 26.5487 106.754 27.4947 106.373 28.36C105.999 29.2253 105.445 29.9183 104.712 30.439C103.978 30.9597 103.073 31.22 101.995 31.22C101.137 31.22 100.44 31.1027 99.9046 30.868C99.3692 30.6333 98.8266 30.2593 98.2766 29.746L98.9806 29.196V36.324H96.2526ZM101.577 28.976C102.391 28.976 103.021 28.657 103.469 28.019C103.923 27.3737 104.151 26.5413 104.151 25.522C104.151 24.4953 103.923 23.663 103.469 23.025C103.021 22.387 102.391 22.068 101.577 22.068C100.946 22.068 100.429 22.2147 100.026 22.508C99.6222 22.8013 99.3252 23.2083 99.1346 23.729C98.9439 24.2423 98.8486 24.84 98.8486 25.522C98.8486 26.204 98.9439 26.8053 99.1346 27.326C99.3252 27.8393 99.6222 28.2427 100.026 28.536C100.429 28.8293 100.946 28.976 101.577 28.976ZM114.144 31.22C112.817 31.22 111.71 30.956 110.822 30.428C109.942 29.8927 109.282 29.1887 108.842 28.316C108.402 27.436 108.182 26.4753 108.182 25.434C108.182 24.4293 108.388 23.5017 108.798 22.651C109.216 21.8003 109.825 21.1183 110.624 20.605C111.424 20.0843 112.399 19.824 113.55 19.824C114.606 19.824 115.486 20.0403 116.19 20.473C116.894 20.9057 117.422 21.485 117.774 22.211C118.126 22.9297 118.302 23.7253 118.302 24.598C118.302 24.84 118.288 25.0857 118.258 25.335C118.229 25.577 118.185 25.83 118.126 26.094H111.02C111.123 26.776 111.336 27.3297 111.658 27.755C111.988 28.173 112.388 28.481 112.857 28.679C113.334 28.877 113.844 28.976 114.386 28.976C115.024 28.976 115.618 28.8953 116.168 28.734C116.718 28.5653 117.224 28.3453 117.686 28.074L117.818 30.384C117.4 30.604 116.88 30.7983 116.256 30.967C115.633 31.1357 114.929 31.22 114.144 31.22ZM111.086 24.246H115.53C115.53 23.916 115.468 23.586 115.343 23.256C115.219 22.9187 115.01 22.6363 114.716 22.409C114.43 22.1817 114.042 22.068 113.55 22.068C112.846 22.068 112.293 22.2733 111.889 22.684C111.486 23.0947 111.218 23.6153 111.086 24.246ZM120.165 31V20H122.717L122.783 21.166C123.061 20.858 123.454 20.55 123.96 20.242C124.466 19.934 125.019 19.78 125.621 19.78C125.797 19.78 125.958 19.7947 126.105 19.824L125.907 22.508C125.745 22.464 125.584 22.4347 125.423 22.42C125.269 22.4053 125.115 22.398 124.961 22.398C124.499 22.398 124.077 22.5043 123.696 22.717C123.314 22.9297 123.047 23.19 122.893 23.498V31H120.165ZM131.012 31.22C130.323 31.22 129.762 31.0807 129.329 30.802C128.897 30.516 128.578 30.153 128.372 29.713C128.167 29.273 128.064 28.8147 128.064 28.338V22.244H126.502L126.744 20H128.064V17.58L130.792 17.294V20H133.212V22.244H130.792V27.216C130.792 27.7733 130.825 28.1767 130.891 28.426C130.957 28.668 131.108 28.822 131.342 28.888C131.577 28.9467 131.951 28.976 132.464 28.976H133.212L132.97 31.22H131.012ZM135.869 36.324L138.311 30.274L133.735 20H136.771L139.587 27.084L142.447 20H145.483L138.597 36.324H135.869Z" fill="white"/>
<g clip-path="url(#clip0_960_766)">
<path d="M5.42013 21.9312V45H0V26.9241L5.42013 21.9312Z" fill="#FBFBFB"/>
<path d="M5.42014 21.9312V45H10.778V25.7865L5.42014 21.9312Z" fill="#222221"/>
<path d="M16.0112 12.5771V44.9999H8.84665V19.403L16.0112 12.5771Z" fill="#FBFBFB"/>
<path d="M16.0112 12.5771V44.9999H23.238V17.6965L16.0112 12.5771Z" fill="#222221"/>
<path d="M29.3435 0V45H19.6246V10.302L29.3435 0Z" fill="#FBFBFB"/>
<path d="M29.3434 0V45H39V10.302L29.3434 0Z" fill="#434343"/>
</g>
<defs>
<clipPath id="clip0_960_766">
<rect width="39" height="45" fill="white"/>
</clipPath>
</defs>
</svg>
