<svg width="114" height="37" viewBox="0 0 114 37" fill="none" xmlns="http://www.w3.org/2000/svg">
<g clip-path="url(#clip0_296_4282)">
<path d="M48.8372 19.5484C48.8372 17.7713 49.7 16.1539 51.1046 14.9758C50.4424 13.7977 49.5796 12.7794 48.5162 11.8808C48.3356 11.7411 48.155 11.6013 47.9745 11.4615C46.911 10.6628 45.7071 10.0438 44.3628 9.56459C42.7777 9.0055 41.0721 8.72595 39.2663 8.72595C37.4605 8.72595 35.755 9.0055 34.1698 9.56459C32.5847 10.1237 31.2002 10.9024 30.0164 11.9008C28.8326 12.8792 27.8895 14.0373 27.2274 15.3552C26.5452 16.6731 26.2041 18.0908 26.2041 19.5883C26.2041 21.0659 26.5452 22.4637 27.2274 23.7815C27.9096 25.0994 28.8326 26.2575 30.0164 27.2359C31.2002 28.2143 32.5847 28.9931 34.1698 29.5522C35.755 30.1113 37.4605 30.3908 39.2663 30.3908C41.0721 30.3908 42.7777 30.1113 44.3628 29.5522C45.7071 29.073 46.911 28.434 47.9745 27.6553C48.155 27.5155 48.3356 27.3757 48.5162 27.2359C49.5997 26.3374 50.4625 25.2991 51.1046 24.141C49.7 22.9629 48.8372 21.3255 48.8372 19.5484ZM39.2462 26.0578C38.3032 26.0578 37.3802 25.9181 36.5375 25.6585L33.1867 27.8749L34.531 24.74C32.6249 23.5619 31.4009 21.665 31.4009 19.5484C31.4009 15.9542 34.9122 13.039 39.2462 13.039C41.4333 13.039 43.3997 13.7778 44.8243 14.9758C46.2288 16.1539 47.0916 17.7713 47.0916 19.5484C47.0916 21.3255 46.2288 22.9429 44.8243 24.121C43.3997 25.319 41.4333 26.0578 39.2462 26.0578Z" fill="#1D1D1D"/>
<path d="M68.7622 15.3352C68.08 14.0173 67.157 12.8592 65.9732 11.8808C64.7894 10.9024 63.4049 10.1236 61.8198 9.54456C60.2347 8.98546 58.5291 8.70592 56.7233 8.70592C54.9175 8.70592 53.1718 8.98546 51.5867 9.54456C50.2424 10.0238 49.0385 10.6627 47.975 11.4415C47.7945 11.5813 47.6139 11.721 47.4333 11.8608C46.3498 12.7593 45.487 13.7977 44.8249 14.9558C46.2294 16.1339 47.0922 17.7513 47.0922 19.5284C47.0922 21.3055 46.2294 22.9229 44.8249 24.101C45.487 25.279 46.3498 26.2974 47.4333 27.1959C47.6139 27.3357 47.7945 27.4755 47.975 27.6153C49.0385 28.394 50.2424 29.033 51.5867 29.5122C53.1718 30.0713 54.8773 30.3508 56.6832 30.3508C58.489 30.3508 60.1945 30.0713 61.7796 29.5122C63.3648 28.9531 64.7492 28.1743 65.9331 27.1959C67.1169 26.1976 68.0599 25.0594 68.7221 23.7415C69.4043 22.4237 69.7454 21.0259 69.7454 19.5483C69.7655 18.0707 69.4244 16.653 68.7622 15.3352ZM62.7829 27.8748L59.412 25.6584C58.5693 25.918 57.6463 26.0578 56.6832 26.0578C54.4961 26.0578 52.5298 25.319 51.1051 24.1209C49.7006 22.9428 48.8378 21.3255 48.8378 19.5483C48.8378 17.7712 49.7006 16.1538 51.1051 14.9757C52.5298 13.7777 54.4961 13.0389 56.6832 13.0389C61.0172 13.0389 64.5285 15.9542 64.5285 19.5483C64.5285 21.6649 63.3046 23.5419 61.4185 24.7399L62.7829 27.8748ZM2.82914 34.8635C2.78901 35.0432 2.74888 35.2029 2.66862 35.3427C2.58836 35.4825 2.50811 35.6023 2.38772 35.7021C2.26733 35.802 2.14694 35.8818 1.98642 35.9418C1.84597 36.0017 1.66538 36.0216 1.4848 36.0216C1.28415 36.0216 1.10357 35.9817 0.922983 35.9218C0.742399 35.8619 0.601945 35.7421 0.461491 35.6223C0.341102 35.4825 0.240778 35.3228 0.160519 35.1231C0.0802594 34.9234 0.0601945 34.6838 0.0601945 34.4242C0.0601945 34.1646 0.100324 33.925 0.160519 33.7253C0.220713 33.5257 0.321037 33.346 0.441427 33.2062C0.561816 33.0664 0.722334 32.9466 0.902918 32.8667C1.0835 32.7869 1.28415 32.7469 1.50486 32.7469C1.70551 32.7469 1.86603 32.7669 2.02655 32.8268C2.167 32.8867 2.30746 32.9666 2.42785 33.0664C2.54823 33.1663 2.62849 33.2861 2.68869 33.4258C2.74888 33.5656 2.78901 33.7054 2.80908 33.8651H2.167C2.12687 33.6854 2.04661 33.5456 1.90616 33.4458C1.78577 33.346 1.64532 33.306 1.4848 33.306C1.22396 33.306 1.02331 33.4059 0.882853 33.5856C0.762464 33.7852 0.702269 34.0448 0.702269 34.3843C0.702269 34.7237 0.762464 34.9833 0.882853 35.183C1.00324 35.3827 1.20389 35.4625 1.44467 35.4625C1.64532 35.4625 1.78577 35.4026 1.90616 35.3028C2.02655 35.2029 2.10681 35.0432 2.14694 34.8635H2.82914ZM7.00263 35.9817C6.82205 35.9817 6.64146 35.9617 6.50101 35.9018C6.36056 35.8419 6.24017 35.762 6.13984 35.6622C6.03952 35.5624 5.95926 35.4226 5.91913 35.2828C5.879 35.143 5.8188 34.9434 5.8188 34.7836C5.8188 34.6039 5.83887 34.4442 5.89906 34.2844C5.95926 34.1247 6.03952 34.0049 6.13984 33.9051C6.24017 33.8052 6.36056 33.7253 6.50101 33.6654C6.64146 33.6055 6.80198 33.5856 6.98256 33.5856C7.16315 33.5856 7.32367 33.6055 7.46412 33.6654C7.60458 33.7253 7.72496 33.8052 7.82529 33.9051C7.92561 34.0049 8.00587 34.1447 8.06607 34.2844C8.12626 34.4242 8.14633 34.6039 8.14633 34.7836C8.14633 34.9633 8.12626 35.1231 8.06607 35.2828C8.00587 35.4226 7.94568 35.5424 7.82529 35.6622C7.72496 35.762 7.60458 35.8619 7.46412 35.9018C7.34373 35.9418 7.18321 35.9817 7.00263 35.9817ZM7.00263 35.4625C7.3638 35.4625 7.56445 35.2229 7.56445 34.7637C7.56445 34.3044 7.38386 34.0648 7.00263 34.0648C6.64146 34.0648 6.44081 34.3044 6.44081 34.7637C6.44081 35.2429 6.6214 35.4625 7.00263 35.4625ZM13.9651 35.9218V34.544C13.9651 34.4042 13.925 34.2844 13.8648 34.2046C13.8046 34.1247 13.7043 34.0648 13.604 34.0848C13.4836 34.0848 13.4033 34.1247 13.3231 34.2245C13.2428 34.3244 13.2227 34.4242 13.2227 34.564V35.9218H12.6208V34.544C12.6208 34.4442 12.6208 34.3843 12.6007 34.3244C12.5807 34.2645 12.5606 34.2245 12.5405 34.1846C12.5004 34.1447 12.4803 34.1247 12.4201 34.1047C12.3599 34.0848 12.2997 34.0848 12.2596 34.0848C12.0188 34.0848 11.8985 34.2245 11.8985 34.524V35.9018H11.2965V33.6255H11.8583V33.965C11.9386 33.8052 12.0389 33.7054 12.1392 33.6455C12.2396 33.5856 12.38 33.5656 12.5205 33.5656C12.6007 33.5656 12.6609 33.5656 12.7211 33.5856C12.7813 33.6055 12.8415 33.6255 12.8816 33.6455C12.9218 33.6654 12.982 33.7054 13.0221 33.7653C13.0622 33.8052 13.1023 33.8651 13.1425 33.925C13.2027 33.8052 13.2829 33.7054 13.3832 33.6455C13.4836 33.5856 13.604 33.5656 13.7645 33.5656C13.8849 33.5656 13.9852 33.5856 14.0855 33.6255C14.1858 33.6654 14.2661 33.7253 14.3263 33.7852C14.4668 33.925 14.547 34.1247 14.547 34.3244V35.9018L13.9651 35.9218ZM19.2221 35.9218V35.6023C19.0616 35.8619 18.8208 35.9817 18.4998 35.9817C18.3794 35.9817 18.2791 35.9617 18.1787 35.9218C18.0784 35.8818 17.9982 35.8219 17.938 35.7421C17.8778 35.6622 17.8176 35.5823 17.7774 35.4825C17.7373 35.3827 17.7173 35.2629 17.7173 35.143V33.6455H18.3192V35.0632C18.3192 35.3427 18.4396 35.4825 18.7004 35.4825C18.861 35.4825 18.9813 35.4426 19.0616 35.3427C19.1419 35.2429 19.182 35.1231 19.182 34.9633V33.6455H19.7839V35.9218H19.2221ZM24.4189 35.9218V34.544C24.4189 34.3643 24.3988 34.2445 24.3387 34.1846C24.2785 34.1247 24.1781 34.0848 24.0377 34.0848C23.7166 34.0848 23.5762 34.2645 23.5762 34.6039V35.9018H22.9742V33.6255H23.5561V33.965C23.6364 33.8452 23.7166 33.7453 23.837 33.6654C23.9574 33.6055 24.0979 33.5656 24.2985 33.5656C24.3988 33.5656 24.4992 33.5856 24.5995 33.6055C24.6998 33.6255 24.7801 33.6854 24.8403 33.7453C24.9005 33.8052 24.9607 33.8851 25.0008 33.9849C25.0409 34.0848 25.061 34.1846 25.061 34.3044V35.8818L24.4189 35.9218ZM28.2112 33.3659V32.8068H28.8131V33.3659H28.2112ZM28.2112 35.9218V33.6455H28.8131V35.9218H28.2112ZM34.05 35.0831C34.03 35.3228 33.9096 35.5624 33.7089 35.7221C33.6086 35.802 33.5083 35.8619 33.3879 35.9018C33.2675 35.9418 33.1271 35.9617 33.0067 35.9617C32.8461 35.9617 32.7057 35.9417 32.5853 35.8818C32.4649 35.8219 32.3445 35.762 32.2442 35.6422C32.1439 35.5224 32.0837 35.4026 32.0235 35.2629C31.9633 35.1031 31.9432 34.9234 31.9432 34.7237C31.9432 34.524 31.9633 34.3443 32.0235 34.2046C32.0837 34.0648 32.1439 33.945 32.2442 33.8451C32.3445 33.7453 32.4448 33.6854 32.5853 33.6255C32.7258 33.5856 32.8662 33.5656 33.0267 33.5656C33.1672 33.5656 33.3076 33.5856 33.428 33.6255C33.5484 33.6654 33.6487 33.7253 33.7491 33.8052C33.8494 33.8851 33.9096 33.9849 33.9698 34.0848C34.03 34.1846 34.05 34.3044 34.0701 34.4442H33.4682C33.4481 34.3244 33.408 34.2445 33.3277 34.1646C33.2474 34.1047 33.1471 34.0648 33.0267 34.0648C32.9665 34.0648 32.9063 34.0848 32.8461 34.1047C32.7859 34.1247 32.7458 34.1646 32.7057 34.2046C32.6656 34.2645 32.6254 34.3244 32.6054 34.4042C32.5853 34.4841 32.5652 34.584 32.5652 34.7237C32.5652 34.9833 32.6054 35.163 32.7057 35.2828C32.7859 35.4026 32.9063 35.4625 33.0267 35.4625C33.1471 35.4625 33.2474 35.4226 33.3277 35.3627C33.408 35.3028 33.4682 35.2029 33.4682 35.0831H34.05ZM38.5646 35.9218C38.5446 35.8619 38.5245 35.782 38.5245 35.7221C38.4442 35.802 38.364 35.8619 38.2436 35.9218C38.1232 35.9617 37.9827 36.0017 37.8423 36.0017C37.5814 36.0017 37.3808 35.9417 37.2604 35.8219C37.14 35.7021 37.0798 35.5624 37.0798 35.3627C37.0798 35.2029 37.0999 35.0632 37.1601 34.9633C37.2203 34.8635 37.2805 34.7836 37.3808 34.7437C37.4811 34.7038 37.5814 34.6439 37.7219 34.6239C37.8624 34.6039 38.0028 34.564 38.1433 34.544C38.3038 34.524 38.4041 34.4841 38.4442 34.4641C38.4844 34.4442 38.5245 34.3643 38.5245 34.2844C38.5245 34.2046 38.4844 34.1447 38.4242 34.1047C38.364 34.0648 38.2637 34.0448 38.1433 34.0448C38.0028 34.0448 37.9025 34.0848 37.8423 34.1447C37.7821 34.2046 37.742 34.2844 37.7219 34.3843H37.1601C37.1601 34.2645 37.1801 34.1646 37.2203 34.0648C37.2604 33.965 37.3206 33.8851 37.4009 33.8052C37.4811 33.7253 37.5814 33.6854 37.7018 33.6455C37.8222 33.6055 37.9827 33.5856 38.1633 33.5856C38.3439 33.5856 38.5044 33.6055 38.6248 33.6455C38.7452 33.6854 38.8455 33.7453 38.9258 33.8252C39.0061 33.9051 39.0662 34.0049 39.0863 34.1047C39.1264 34.2245 39.1465 34.3443 39.1465 34.4841V35.9218H38.5646ZM38.5245 34.8036C38.4844 34.8435 38.4442 34.8635 38.384 34.8835C38.3238 34.9034 38.2436 34.9234 38.1232 34.9434C37.9426 34.9833 37.8222 35.0232 37.762 35.0632C37.7018 35.1231 37.6617 35.183 37.6617 35.2828C37.6617 35.4625 37.762 35.5424 37.9627 35.5424C38.0429 35.5424 38.1031 35.5224 38.1834 35.5025C38.2436 35.4825 38.3038 35.4426 38.364 35.4026C38.4041 35.3627 38.4442 35.3028 38.4844 35.2429C38.5044 35.183 38.5245 35.1231 38.5245 35.0432V34.8036ZM44.3433 35.0831C44.3232 35.3228 44.2028 35.5624 44.0022 35.7221C43.9019 35.802 43.8015 35.8619 43.6812 35.9018C43.5608 35.9418 43.4203 35.9617 43.2999 35.9617C43.1394 35.9617 42.999 35.9417 42.8786 35.8818C42.7582 35.8219 42.6378 35.762 42.5375 35.6422C42.4371 35.5224 42.3769 35.4026 42.3167 35.2629C42.2566 35.1031 42.2365 34.9234 42.2365 34.7237C42.2365 34.524 42.2566 34.3443 42.3167 34.2046C42.3769 34.0648 42.4371 33.945 42.5375 33.8451C42.6378 33.7453 42.7381 33.6854 42.8786 33.6255C43.019 33.5856 43.1595 33.5656 43.32 33.5656C43.4604 33.5656 43.6009 33.5856 43.7213 33.6255C43.8417 33.6654 43.942 33.7253 44.0423 33.8052C44.1427 33.8851 44.2028 33.9849 44.263 34.0848C44.3232 34.1846 44.3433 34.3044 44.3634 34.4442H43.7614C43.7414 34.3244 43.7012 34.2445 43.621 34.1646C43.5407 34.1047 43.4404 34.0648 43.32 34.0648C43.2598 34.0648 43.1996 34.0848 43.1394 34.1047C43.0792 34.1247 43.0391 34.1646 42.999 34.2046C42.9588 34.2645 42.9187 34.3244 42.8986 34.4042C42.8786 34.4841 42.8585 34.584 42.8585 34.7237C42.8585 34.9833 42.8986 35.163 42.999 35.2828C43.0792 35.4026 43.1996 35.4625 43.32 35.4625C43.4404 35.4625 43.5407 35.4226 43.621 35.3627C43.7012 35.3028 43.7614 35.2029 43.7614 35.0831H44.3433ZM43.0792 36.8004C43.2799 36.7804 43.3802 36.6806 43.3802 36.5008H43.0792V36.1215H43.621V36.381C43.621 36.4609 43.621 36.5408 43.6009 36.6206C43.5808 36.6806 43.5608 36.7604 43.5206 36.8203C43.4805 36.8802 43.4203 36.9202 43.3601 36.9601C43.2999 37 43.1996 37.02 43.0993 37.02L43.0792 36.8004ZM48.8579 35.9218C48.8378 35.8619 48.8178 35.782 48.8178 35.7221C48.7375 35.802 48.6572 35.8619 48.5368 35.9218C48.4165 35.9617 48.276 36.0017 48.1356 36.0017C47.8747 36.0017 47.6741 35.9417 47.5537 35.8219C47.4333 35.7021 47.3731 35.5624 47.3731 35.3627C47.3731 35.2029 47.3932 35.0632 47.4534 34.9633C47.5135 34.8635 47.5737 34.7836 47.6741 34.7437C47.7744 34.7038 47.8747 34.6439 48.0152 34.6239C48.1556 34.6039 48.2961 34.564 48.4365 34.544C48.597 34.524 48.6974 34.4841 48.7375 34.4641C48.7776 34.4442 48.8178 34.3643 48.8178 34.2844C48.8178 34.2046 48.7776 34.1447 48.7174 34.1047C48.6572 34.0648 48.5569 34.0448 48.4365 34.0448C48.2961 34.0448 48.1957 34.0848 48.1356 34.1447C48.0754 34.2046 48.0352 34.2844 48.0152 34.3843H47.4534C47.4534 34.2645 47.4734 34.1646 47.5135 34.0648C47.5537 33.965 47.6139 33.8851 47.6941 33.8052C47.7744 33.7253 47.8747 33.6854 47.9951 33.6455C48.1155 33.6055 48.276 33.5856 48.4566 33.5856C48.6372 33.5856 48.7977 33.6055 48.9181 33.6455C49.0385 33.6854 49.1388 33.7453 49.2191 33.8252C49.2993 33.9051 49.3595 34.0049 49.3796 34.1047C49.4197 34.2245 49.4398 34.3443 49.4398 34.4841V35.9218H48.8579ZM49.2391 32.7869C49.1789 32.9466 49.1187 33.0664 49.0184 33.1463C48.9181 33.2062 48.8378 33.2461 48.7375 33.2461C48.6773 33.2461 48.6171 33.2262 48.577 33.2062C48.5369 33.1862 48.4767 33.1663 48.4365 33.1263C48.3964 33.1063 48.3362 33.0864 48.2961 33.0464C48.2559 33.0265 48.1957 33.0065 48.1556 33.0065C48.1356 33.0065 48.1155 33.0265 48.0754 33.0464C48.0352 33.0664 48.0152 33.1263 47.975 33.2062L47.654 33.0265C47.6941 32.8667 47.7744 32.7669 47.8546 32.707C47.9349 32.6471 48.0152 32.6072 48.1155 32.6072C48.1957 32.6072 48.2559 32.6271 48.3161 32.6471C48.3763 32.6671 48.4165 32.687 48.4767 32.727C48.5168 32.7469 48.577 32.7869 48.6171 32.8068C48.6572 32.8268 48.6974 32.8468 48.7375 32.8468C48.7576 32.8468 48.7977 32.8268 48.8378 32.8068C48.878 32.7869 48.898 32.727 48.9181 32.6471L49.2391 32.7869ZM48.8178 34.8036C48.7776 34.8435 48.7375 34.8635 48.6773 34.8835C48.6171 34.9034 48.5368 34.9234 48.4165 34.9434C48.2359 34.9833 48.1155 35.0232 48.0553 35.0632C47.9951 35.1231 47.955 35.183 47.955 35.2828C47.955 35.4625 48.0553 35.5424 48.2559 35.5424C48.3362 35.5424 48.3964 35.5224 48.4767 35.5025C48.5369 35.4825 48.597 35.4426 48.6572 35.4026C48.6974 35.3627 48.7375 35.3028 48.7776 35.2429C48.7977 35.183 48.8178 35.1231 48.8178 35.0432V34.8036ZM53.7136 35.9817C53.533 35.9817 53.3524 35.9617 53.212 35.9018C53.0715 35.8419 52.9511 35.762 52.8508 35.6622C52.7505 35.5624 52.6702 35.4226 52.6301 35.2828C52.5899 35.143 52.5498 34.9633 52.5498 34.8036C52.5498 34.6239 52.5699 34.4641 52.6301 34.3044C52.6903 34.1447 52.7705 34.0249 52.8709 33.925C52.9712 33.8252 53.0916 33.7453 53.232 33.6854C53.3725 33.6255 53.533 33.6055 53.7136 33.6055C53.8942 33.6055 54.0547 33.6255 54.1951 33.6854C54.3356 33.7453 54.456 33.8252 54.5563 33.925C54.6566 34.0249 54.7369 34.1646 54.7971 34.3044C54.8573 34.4442 54.8773 34.6239 54.8773 34.8036C54.8773 34.9833 54.8573 35.143 54.7971 35.3028C54.7369 35.4426 54.6767 35.5624 54.5563 35.6822C54.456 35.782 54.3356 35.8818 54.1951 35.9218C54.0547 35.9417 53.8942 35.9817 53.7136 35.9817ZM53.7136 35.4625C54.0747 35.4625 54.2754 35.2229 54.2754 34.7637C54.2754 34.3044 54.0948 34.0648 53.7136 34.0648C53.3524 34.0648 53.1518 34.3044 53.1518 34.7637C53.1718 35.2429 53.3524 35.4625 53.7136 35.4625ZM62.6224 34.9234C62.6224 35.1031 62.6826 35.2429 62.7829 35.3427C62.8832 35.4426 63.0036 35.5025 63.1441 35.5025C63.2444 35.5025 63.3246 35.4825 63.4049 35.4426C63.4852 35.4026 63.5253 35.3427 63.5454 35.2629H64.1674C64.0871 35.5025 63.9667 35.6822 63.7861 35.802C63.6055 35.9218 63.4049 36.0017 63.1441 36.0017C62.3816 36.0017 62.0004 35.5823 62.0004 34.7637C62.0004 34.584 62.0204 34.4242 62.0806 34.2844C62.1207 34.1447 62.201 34.0249 62.3013 33.925C62.4017 33.8252 62.522 33.7453 62.6424 33.6854C62.7829 33.6255 62.9434 33.6055 63.1039 33.6055C63.4651 33.6055 63.7259 33.7253 63.9065 33.945C64.0871 34.1646 64.1874 34.5041 64.1874 34.9633L62.6224 34.9234ZM63.5855 34.544C63.5855 34.4641 63.5654 34.3843 63.5454 34.3244C63.5253 34.2645 63.4852 34.2046 63.445 34.1646C63.4049 34.1247 63.3447 34.0848 63.3046 34.0648C63.2444 34.0448 63.1842 34.0448 63.124 34.0448C63.0036 34.0448 62.9033 34.0848 62.803 34.1846C62.7227 34.2645 62.6625 34.4042 62.6424 34.544H63.5855ZM73.7584 35.9218V33.8052L73.1765 35.9218H72.5344L71.9525 33.8252V35.9218H71.3506V32.8468H72.2936L72.8554 35.1031L73.4173 32.8468H74.3402V35.9218H73.7584ZM78.9551 35.9218C78.9351 35.8619 78.915 35.782 78.915 35.7221C78.8348 35.802 78.7545 35.8619 78.6341 35.9218C78.5137 35.9617 78.3733 36.0017 78.2328 36.0017C77.972 36.0017 77.7713 35.9417 77.6509 35.8219C77.5305 35.7021 77.4503 35.5424 77.4503 35.3427C77.4503 35.183 77.4704 35.0432 77.5305 34.9434C77.5907 34.8435 77.6509 34.7637 77.7513 34.7237C77.8516 34.6838 77.9519 34.6239 78.0924 34.6039C78.2328 34.584 78.3733 34.544 78.5137 34.524C78.6742 34.5041 78.7746 34.4641 78.8147 34.4442C78.8548 34.4242 78.895 34.3443 78.895 34.2645C78.895 34.1846 78.8548 34.1247 78.7946 34.0848C78.7344 34.0448 78.6341 34.0249 78.5137 34.0249C78.3733 34.0249 78.2729 34.0648 78.2127 34.1247C78.1526 34.1846 78.1124 34.2645 78.0924 34.3643H77.5305C77.5305 34.2445 77.5506 34.1447 77.5907 34.0448C77.6309 33.945 77.6911 33.8651 77.7713 33.7852C77.8516 33.7054 77.9519 33.6654 78.0723 33.6255C78.1927 33.5856 78.3532 33.5656 78.5338 33.5656C78.7144 33.5656 78.8749 33.5856 78.9953 33.6255C79.1157 33.6654 79.216 33.7253 79.2963 33.8052C79.3765 33.8851 79.4367 33.9849 79.4568 34.0848C79.4969 34.2046 79.517 34.3244 79.517 34.4641V35.9018L78.9551 35.9218ZM78.915 34.8036C78.8749 34.8435 78.8348 34.8635 78.7746 34.8835C78.7144 34.9034 78.6341 34.9234 78.5137 34.9434C78.3331 34.9833 78.2128 35.0232 78.1526 35.0632C78.0924 35.1231 78.0522 35.183 78.0522 35.2828C78.0522 35.4625 78.1526 35.5424 78.3532 35.5424C78.4335 35.5424 78.4937 35.5224 78.5739 35.5025C78.6341 35.4825 78.6943 35.4426 78.7545 35.4026C78.7946 35.3627 78.8348 35.3028 78.8749 35.2429C78.895 35.183 78.915 35.1231 78.915 35.0432V34.8036ZM82.6872 35.9218V33.6455H83.249V33.925C83.2892 33.8451 83.3493 33.7852 83.4095 33.7453C83.5099 33.6654 83.6303 33.6055 83.7506 33.6055H83.9312H84.0115V34.2245C83.9513 34.2245 83.8911 34.2046 83.851 34.2046C83.4898 34.2046 83.2892 34.3843 83.2892 34.7637V35.9418L82.6872 35.9218ZM88.4659 35.9218L87.9643 34.9034L87.6633 35.2029V35.9218H87.0613V32.8068H87.6633V34.5041L88.4258 33.6455H89.1682L88.4057 34.4841L89.1481 35.9218H88.4659ZM92.539 34.9234C92.539 35.1031 92.5992 35.2429 92.6996 35.3427C92.7999 35.4426 92.9203 35.5025 93.0607 35.5025C93.1611 35.5025 93.2413 35.4825 93.3216 35.4426C93.4018 35.4026 93.442 35.3427 93.462 35.2629H94.084C94.0038 35.5025 93.8834 35.6822 93.7028 35.802C93.5222 35.9218 93.3216 36.0017 93.0607 36.0017C92.2983 36.0017 91.917 35.5823 91.917 34.7637C91.917 34.584 91.9371 34.4242 91.9973 34.2844C92.0374 34.1447 92.1177 34.0249 92.218 33.925C92.3183 33.8252 92.4387 33.7453 92.5591 33.6854C92.6996 33.6255 92.8601 33.6055 93.0206 33.6055C93.3818 33.6055 93.6426 33.7253 93.8232 33.945C94.0038 34.1646 94.1041 34.5041 94.1041 34.9633L92.539 34.9234ZM93.4821 34.544C93.4821 34.4641 93.462 34.3843 93.442 34.3244C93.4219 34.2645 93.3818 34.2046 93.3416 34.1646C93.3015 34.1247 93.2413 34.0848 93.2012 34.0648C93.141 34.0448 93.0808 34.0448 93.0206 34.0448C92.9002 34.0448 92.7999 34.0848 92.6996 34.1846C92.6193 34.2645 92.5591 34.4042 92.539 34.544H93.4821ZM98.5184 34.4242H99.0802V35.0632C99.0802 35.183 99.0601 35.3028 99.02 35.4026C98.9799 35.5025 98.9197 35.6023 98.8595 35.7021C98.7792 35.782 98.6789 35.8619 98.5786 35.9018C98.4782 35.9418 98.3177 35.9817 98.1572 35.9817C97.9967 35.9817 97.8562 35.9617 97.7358 35.9018C97.6155 35.8619 97.5352 35.782 97.4349 35.7021C97.3546 35.6223 97.2944 35.5224 97.2743 35.4026C97.2342 35.2828 97.2142 35.163 97.2142 35.0432V33.0065H97.8161V33.6255H99.0802V34.0448H97.8161V34.9833C97.8161 35.1231 97.8362 35.2429 97.8964 35.3228C97.9566 35.4026 98.0368 35.4426 98.1572 35.4426C98.2776 35.4426 98.3578 35.4026 98.418 35.3228C98.4782 35.2429 98.4983 35.143 98.4983 35.0033L98.5184 34.4242ZM102.23 33.3659V32.8068H102.832V33.3659H102.23ZM102.23 35.9218V33.6455H102.832V35.9218H102.23ZM107.487 35.9218V34.544C107.487 34.3643 107.467 34.2445 107.407 34.1846C107.347 34.1247 107.247 34.0848 107.106 34.0848C106.785 34.0848 106.645 34.2645 106.645 34.6039V35.9018H106.043V33.6255H106.625V33.965C106.705 33.8452 106.785 33.7453 106.905 33.6654C107.026 33.6055 107.166 33.5656 107.367 33.5656C107.467 33.5656 107.568 33.5856 107.668 33.6055C107.768 33.6255 107.849 33.6854 107.909 33.7453C107.969 33.8052 108.029 33.8851 108.069 33.9849C108.109 34.0848 108.129 34.1846 108.129 34.3044V35.8818L107.487 35.9218ZM112.865 35.6023C112.825 35.7021 112.744 35.782 112.624 35.8419C112.504 35.9018 112.383 35.9218 112.223 35.9218C112.042 35.9218 111.882 35.8818 111.741 35.8219C111.621 35.762 111.52 35.6622 111.42 35.5624C111.34 35.4426 111.28 35.3228 111.239 35.183C111.199 35.0432 111.179 34.9034 111.179 34.7437C111.179 34.564 111.199 34.4042 111.26 34.2645C111.32 34.1247 111.38 33.9849 111.48 33.8851C111.561 33.7852 111.681 33.7054 111.801 33.6455C111.922 33.5856 112.062 33.5656 112.183 33.5656C112.463 33.5656 112.684 33.6854 112.825 33.9051V33.6255H113.427V35.9418C113.427 36.1215 113.406 36.2612 113.346 36.401C113.286 36.5208 113.206 36.6406 113.106 36.7205C113.005 36.8004 112.885 36.8802 112.744 36.9202C112.604 36.9601 112.463 36.9801 112.303 36.9801C112.162 36.9801 112.002 36.9601 111.861 36.9202C111.721 36.8802 111.601 36.8203 111.5 36.7205C111.4 36.6406 111.32 36.5408 111.28 36.421C111.239 36.3012 111.199 36.1614 111.199 36.0216H111.761C111.761 36.1614 111.801 36.2612 111.902 36.3411C112.002 36.421 112.122 36.4609 112.263 36.4609C112.423 36.4609 112.564 36.421 112.664 36.3211C112.784 36.2413 112.825 36.1215 112.825 35.9617V35.6023H112.865ZM112.363 35.4625C112.504 35.4625 112.644 35.4026 112.724 35.3028C112.805 35.2029 112.865 35.0432 112.865 34.8435C112.865 34.3643 112.684 34.1047 112.343 34.1047C112.002 34.1047 111.821 34.3443 111.821 34.8036C111.821 35.0033 111.861 35.163 111.962 35.2828C112.082 35.4026 112.203 35.4625 112.363 35.4625ZM26.1846 4.33301V30.3908H21.8305V13.0189L13.0823 26.0378L4.3942 13.0189V30.3708H0.0200648L0 4.33301H4.3942L13.0823 17.3519L21.8305 4.33301H26.1846Z" fill="#1D1D1D"/>
<path d="M90.6889 15.2954C90.1271 13.9775 89.3446 12.8194 88.3614 11.841C87.3782 10.8626 86.2144 10.0838 84.8902 9.50478C83.5659 8.94568 82.1613 8.66614 80.6364 8.66614C79.1115 8.66614 77.707 8.94568 76.3827 9.50478C75.0584 10.0639 73.8946 10.8426 72.9115 11.841C71.9283 12.8194 71.1457 13.9775 70.5839 15.2954C70.0221 16.6132 69.7412 18.031 69.7412 19.5285C69.7412 21.0061 70.0221 22.4039 70.5839 23.7217C71.1457 25.0396 71.9283 26.1977 72.9115 27.1761C73.8946 28.1545 75.0584 28.9333 76.3827 29.4924C77.707 30.0515 79.1115 30.331 80.6364 30.331C82.1613 30.331 83.5659 30.0515 84.8902 29.4924C85.2112 29.3526 85.5322 29.1929 85.8533 29.0331L82.5426 25.7185C81.9406 25.8982 81.2986 25.998 80.6364 25.998C77.0247 25.998 74.0953 23.0828 74.0953 19.4886C74.0953 15.8944 77.0448 12.9991 80.6565 12.9991C84.2682 12.9991 87.1976 15.9144 87.1976 19.5086L91.351 21.5852C91.4714 20.9063 91.5517 20.2274 91.5517 19.5285C91.5517 18.031 91.2708 16.6132 90.6889 15.2954ZM113.121 21.685C113.262 21.0261 113.342 20.3073 113.342 19.5685C113.342 18.0709 113.061 16.6532 112.499 15.3353C111.938 14.0175 111.155 12.8793 110.172 11.8809C109.189 10.9025 108.025 10.1238 106.701 9.56468C105.376 9.00559 103.972 8.72604 102.447 8.72604C100.922 8.72604 99.5174 9.02555 98.1931 9.58465C96.8689 10.1437 95.7252 10.9225 94.7219 11.9009C93.7388 12.8793 92.9562 14.0374 92.3944 15.3553C91.8326 16.6732 91.5517 18.0709 91.5517 19.5884C91.5517 21.066 91.8326 22.4638 92.3944 23.7816C92.9562 25.0995 93.7388 26.2376 94.7219 27.236C95.7051 28.2144 96.8689 28.9932 98.1931 29.5523C99.5174 30.1114 100.922 30.3909 102.447 30.3909C104.092 30.3909 105.617 30.0714 107.022 29.4325C107.242 29.3326 107.463 29.2128 107.684 29.093L104.333 25.7584C103.711 25.9381 103.069 26.038 102.427 26.038C99.5776 26.038 97.1698 24.2209 96.287 21.705L113.121 21.685ZM102.447 13.079C105.256 13.079 107.664 14.8561 108.567 17.3521H96.3271C97.23 14.8561 99.6178 13.079 102.447 13.079Z" fill="#1D1D1D"/>
<path d="M87.1807 0H91.5347V30.3708H87.1807V0ZM108.951 19.5483C108.951 19.8478 108.931 20.1473 108.891 20.4269C108.831 20.8662 108.73 21.2855 108.59 21.6848H96.3102C96.0694 21.0059 95.949 20.2671 95.949 19.5483C95.949 18.7696 96.0895 18.0308 96.3302 17.3519H108.57C108.73 17.7712 108.831 18.2304 108.891 18.6697C108.931 18.9692 108.951 19.2488 108.951 19.5483Z" fill="#1D1D1D"/>
<path d="M95.8096 17.3518H108.892V21.6848H95.8096V17.3518Z" fill="#1D1D1D"/>
</g>
<defs>
<clipPath id="clip0_296_4282">
<rect width="113.467" height="37" fill="white"/>
</clipPath>
</defs>
</svg>
