<svg width="118" height="37" viewBox="0 0 118 37" fill="none" xmlns="http://www.w3.org/2000/svg">
<path fill-rule="evenodd" clip-rule="evenodd" d="M5.31647 13.9687C5.95388 10.337 11.0446 -0.035799 18.1963 9.2912e-05C21.3588 0.0160449 22.3279 1.80599 21.4632 5.11735C22.4595 4.22471 26.1863 0.268619 30.504 0.219434C30.504 0.219434 33.5229 0.182214 32.2308 4.89668C37.3161 0.470014 40.0406 0.233392 41.3925 0.219434C43.8544 0.193512 43.8697 1.90901 43.2762 3.52947L36.6727 21.5745C35.9509 23.5478 36.1011 24.0065 37.6604 23.9633C39.4138 23.9154 42.5862 22.7695 44.2525 22.0264C44.436 16.4253 49.181 10.866 54.0976 10.7404C56.1201 10.6886 57.6774 11.3433 59.2933 12.9564C60.2065 13.8683 63.034 13.106 65.3397 12.3841C67.6441 11.6643 70.0921 10.7324 71.2413 10.5809C72.3978 10.4387 74.1917 10.0791 74.1917 10.7258C74.1917 11.3778 72.8132 14.3422 72.5766 16.3283C72.3599 18.2299 72.8365 20.3049 72.3971 21.7413C73.7304 21.2508 76.7008 20.8958 77.198 20.9962C77.2917 16.0504 81.1002 10.6886 85.057 10.5816C88.6176 10.4905 90.6548 12.0631 90.0965 15.0508C89.5122 18.1488 86.6369 19.8523 85.0504 20.5741C84.0341 21.0314 81.7463 21.6715 81.7463 22.2471C81.7463 22.824 82.1059 23.7373 83.2511 23.7373C84.7532 23.7373 88.6814 22.1886 93.5195 17.635C95.6644 15.6211 99.7933 11.2363 103.628 11.2363C106.107 11.2363 106.025 12.3855 105.741 13.9208C106.939 12.989 112.78 9.81321 113.917 11.6896C114.562 12.757 113.326 16.1003 113.798 17.8709C114.512 20.5176 117.545 22.7609 117.664 26.0596C117.737 28.1413 114.929 29.8741 112.119 30.4511C112.119 30.4511 99.8245 32.9794 0.850586 37L2.36469 32.4657C88.7785 30.6086 107.299 29.0852 107.299 29.0852C109.481 28.905 116.121 27.0666 116.078 25.5571C116.004 22.7489 111.356 20.957 110.686 19.2262C110.046 17.5978 110.916 14.5383 109.941 14.4413C108.305 14.2784 105.307 15.5672 104.288 18.4505L100.871 27.9027H96.5318L100.273 17.8324C100.633 16.864 101.1 15.5134 100.373 15.5539C99.2981 15.6137 97.7262 16.7045 96.5032 17.7845C95.2802 18.8653 91.7555 21.6675 90.3138 22.8918C88.8728 24.1161 84.9899 27.1417 82.3246 26.9995C79.6659 26.8492 77.846 25.254 77.6473 23.4687C76.9993 23.1703 74.2588 22.8991 71.5264 24.618C68.7926 26.3468 66.9788 26.9243 65.9652 26.9243C64.9615 26.9243 60.5814 26.4332 60.3933 23.1271C60.2337 20.3262 61.0167 18.856 62.9011 18.8201C64.5122 18.7895 65.4361 19.9347 65.4141 20.9477C65.3689 22.8991 64.3626 23.508 62.4816 23.3518C62.5674 24.9191 63.6528 25.2467 65.2686 25.1949C67.6235 25.1204 68.792 20.4432 68.8099 18.9896C68.8412 16.6347 69.7797 14.1488 70.3752 12.8128C67.7046 13.0116 63.8223 16.5602 59.4534 16.3176C58.8625 21.7606 55.5073 27.1889 50.6845 27.1889C46.5097 27.1889 44.549 25.387 44.3935 23.4681C42.4553 24.9948 36.8914 27.0892 33.8898 27.0659C31.9881 27.0513 30.706 26.3933 31.7568 23.4262L37.6278 6.84282C38.7312 3.72687 37.9057 4.00204 37.2722 4.00204C34.6422 4.00204 30.932 7.92157 29.9975 9.79327L23.7616 26.493H19.3881L27.0264 5.5434C27.3461 4.66604 27.2438 4.00669 26.6715 4.03394C25.1627 4.10706 22.0468 5.69295 19.8906 9.86106L13.7471 26.4923H9.39884L16.7547 6.12365C16.9581 5.56068 17.7105 2.94655 15.7856 2.97181C15.7856 2.97181 11.4493 3.02764 9.05721 12.9571C6.00108 13.8331 5.31647 13.9687 5.31647 13.9687ZM49.4017 17.8583C48.3781 21.5306 48.6633 24.2577 50.955 24.2763C54.0058 24.2943 55.5286 21.4309 56.0317 19.6649C56.4299 18.2691 57.6489 13.1 54.4777 13.1C52.2465 13.0993 49.9394 15.9501 49.4017 17.8583ZM85.9044 12.8381C87.0417 12.8381 87.8918 12.9923 87.7103 14.4406C87.5016 16.1302 83.0537 20.049 81.3442 19.9261C81.5595 17.9294 82.7978 12.8381 85.9044 12.8381Z" fill="#1D1D1D"/>
</svg>
