<svg width="30" height="30" viewBox="0 0 30 30" fill="none" xmlns="http://www.w3.org/2000/svg">
<g clip-path="url(#clip0_977_97)">
<path d="M17.5 16.25H20V18.75H17.5V16.25ZM22.5 18.75H25V16.25H22.5V18.75ZM17.5 23.75H20V21.25H17.5V23.75ZM22.5 23.75H25V21.25H22.5V23.75ZM17.5 8.75H20V6.25H17.5V8.75ZM22.5 8.75H25V6.25H22.5V8.75ZM17.5 13.75H20V11.25H17.5V13.75ZM22.5 13.75H25V11.25H22.5V13.75ZM30 3.75V30H0V11.0363C0 10.035 0.39 9.0925 1.09875 8.38375L4.4825 5C6.09375 3.3875 8.90625 3.3875 10.5175 5L12.5 6.9825V3.75C12.5 1.6825 14.1825 0 16.25 0H26.25C28.3175 0 30 1.6825 30 3.75ZM12.5 11.0363C12.5 10.7025 12.37 10.3875 12.1337 10.1513L8.75 6.7675C8.0925 6.11 6.9075 6.11 6.25 6.7675L2.86625 10.1513C2.63 10.3875 2.5 10.7013 2.5 11.0363V27.5H12.5V11.0363ZM27.5 3.75C27.5 3.06125 26.9387 2.5 26.25 2.5H16.25C15.5612 2.5 15 3.06125 15 3.75V27.5H27.5V3.75ZM6.25 18.75H8.75V16.25H6.25V18.75ZM6.25 13.75H8.75V11.25H6.25V13.75ZM6.25 23.75H8.75V21.25H6.25V23.75Z" fill="white"/>
</g>
<defs>
<clipPath id="clip0_977_97">
<rect width="30" height="30" fill="white"/>
</clipPath>
</defs>
</svg>
