<svg width="148" height="37" viewBox="0 0 148 37" fill="none" xmlns="http://www.w3.org/2000/svg">
<g clip-path="url(#clip0_296_4300)">
<path d="M54.8718 36.1845C51.7573 35.8277 49.24 34.6887 47.2174 32.722C44.7165 30.2914 43.3889 27.0142 43.3889 23.2696C43.3889 15.7426 48.8639 10.2242 56.3181 10.2362C58.2834 10.2397 60.2436 10.6934 61.9741 11.5476C62.7991 11.955 63.8545 12.6506 64.4126 13.1549C64.624 13.3462 64.8173 13.5023 64.8416 13.5023C64.8658 13.5023 64.8866 12.865 64.8866 12.0871V10.6702H68.1146V35.8689H64.8866V32.9519L64.592 33.1938C62.4273 34.9692 60.4568 35.8337 57.8449 36.1553C57.273 36.2257 55.39 36.2445 54.8718 36.1845ZM57.8484 32.849C61.7505 32.2006 64.4559 29.4723 65.2272 25.4069C65.4066 24.4643 65.4109 22.0928 65.2358 21.164C65.0313 20.0807 64.7575 19.2496 64.3026 18.3319C62.9594 15.6233 60.5928 13.9817 57.4394 13.5701C56.3475 13.4268 54.753 13.5186 53.7097 13.7836C50.6672 14.5564 48.3205 16.7383 47.2581 19.7839C46.8171 21.049 46.7278 21.6357 46.7278 23.2696C46.7278 24.5261 46.7512 24.8237 46.8985 25.4781C47.7824 29.3865 50.6161 32.1749 54.3891 32.8516C55.1725 32.9914 56.9974 32.9905 57.8484 32.849ZM26.7172 36.0833C24.5594 35.8594 22.5663 35.1656 20.8618 34.0463C19.9086 33.4202 18.4181 31.9364 17.7682 30.9672C16.1806 28.5983 15.4189 25.756 15.5307 22.616C15.633 19.7616 16.4354 17.3241 17.9935 15.137C18.2205 14.8171 18.8037 14.1618 19.2872 13.6798C21.016 11.961 23.0975 10.8726 25.6062 10.376C26.6166 10.1762 28.8775 10.1007 29.9286 10.2311C34.771 10.8349 38.3984 14.0443 39.6445 18.8293C39.9478 19.9949 40.0847 20.9873 40.1376 22.4162L40.1835 23.6684H18.7881L18.8366 24.4128C19.0533 27.7226 20.9935 30.6876 23.8904 32.1354C25.2596 32.8198 26.5655 33.1174 28.2076 33.1192C31.024 33.1226 33.1514 32.2615 34.9235 30.4037C35.3663 29.9397 36.3655 28.6112 36.5379 28.2587C36.5596 28.2149 39.3542 30.0255 39.3542 30.083C39.3542 30.2588 38.2095 31.7666 37.5778 32.421C35.245 34.8397 32.3541 36.0318 28.6054 36.1202C27.9191 36.1373 27.0698 36.1202 26.7172 36.0833ZM36.823 20.5284C36.2155 16.7426 33.6055 13.998 29.926 13.2767C29.1513 13.1249 27.1487 13.1421 26.3679 13.3076C24.5135 13.7013 22.9667 14.4955 21.6816 15.7151C20.3211 17.0068 19.4146 18.6287 18.9294 20.6373L18.8808 20.8372H36.8715L36.823 20.5284ZM133.89 36.0782C128.269 35.5601 124.095 31.7898 122.964 26.2105C122.196 22.4136 122.909 18.4545 124.891 15.5281C126.789 12.7235 129.493 10.9893 132.992 10.3289C133.98 10.1428 136.918 10.1436 137.852 10.3315C140.187 10.8006 142.117 11.8067 143.725 13.3934C146.043 15.6799 147.279 18.9143 147.279 22.6855V23.6684L136.622 23.6872L125.966 23.7053L125.985 24.2868C126.063 26.5742 127.155 28.9663 128.87 30.6019C130.199 31.8704 131.812 32.6732 133.693 33.0051C134.53 33.1517 136.326 33.1509 137.167 33.0051C139.775 32.5471 141.663 31.2786 143.278 28.8977C143.509 28.558 143.725 28.2878 143.759 28.2973C143.845 28.3196 146.345 29.9114 146.452 30.0126C146.564 30.1181 145.876 31.1448 145.071 32.0728C142.5 35.0309 138.412 36.4958 133.89 36.0782ZM143.977 20.6373C143.977 20.5276 143.913 20.1733 143.835 19.85C142.953 16.2083 140.355 13.7836 136.751 13.2373C135.378 13.0289 133.739 13.1721 132.349 13.6232C129.343 14.5984 127.019 17.0642 126.221 20.1227C126.141 20.4289 126.076 20.7145 126.076 20.7574C126.076 20.814 128.65 20.8372 135.027 20.8372H143.979L143.978 20.6373H143.977ZM0.101562 23.2327V10.5982H15.3626V13.5743L9.36425 13.5932L3.36677 13.6112L3.3477 24.7405L3.32951 35.8689H0.101562V23.2327ZM73.7637 18.1492V0.50415H77.0653V35.796H73.7637V18.1492ZM82.7153 23.1958V10.5965H85.9432L85.9467 12.2492L85.9501 13.9011L86.2223 13.5752C87.1191 12.4962 88.0438 11.7372 89.0906 11.22C90.3384 10.6025 91.4364 10.3332 92.9866 10.2594C94.7752 10.1762 96.2302 10.4507 97.6461 11.1385C99.1479 11.8676 100.228 12.9156 101.247 14.6319C101.316 14.7502 101.359 14.7176 101.624 14.3334C103.011 12.3221 105.075 10.9919 107.661 10.4429C108.686 10.2251 110.938 10.2028 111.931 10.4001C113.747 10.7629 115.177 11.4927 116.36 12.6626C117.619 13.908 118.392 15.4081 118.867 17.524L119.063 18.4031L119.087 27.1L119.111 35.7951H115.878V28.0331C115.878 23.1932 115.849 19.9881 115.801 19.5189C115.5 16.5376 113.941 14.3831 111.504 13.5786C110.548 13.2669 109.535 13.1633 108.534 13.275C105.391 13.6121 103.36 15.2948 102.651 18.1492C102.5 18.7547 102.496 18.9314 102.471 27.2809L102.445 35.7951H99.2233V28.1815C99.2233 23.6306 99.1929 20.1991 99.1479 19.6519C98.8481 15.9913 96.8177 13.6713 93.5742 13.281C90.6148 12.9242 87.5429 14.6344 86.4285 17.2607C85.9623 18.3559 85.9891 17.7881 85.9623 27.2097L85.938 35.796H82.7144V23.1967L82.7153 23.1958Z" fill="#1D1D1D"/>
</g>
<defs>
<clipPath id="clip0_296_4300">
<rect width="147.178" height="37" fill="white" transform="translate(0.101562)"/>
</clipPath>
</defs>
</svg>
