<svg width="94" height="94" viewBox="0 0 94 94" fill="none" xmlns="http://www.w3.org/2000/svg">
<g clip-path="url(#clip0_974_634)">
<path d="M14.0888 79.2995C15.5609 77.6432 16.8226 75.9868 18.2947 74.5374C21.0284 71.6388 23.9725 68.7401 26.7063 65.8414C30.0709 62.3216 33.2253 59.0088 36.59 55.489C38.2723 53.8326 39.9546 51.9691 41.6369 50.1057C40.5855 50.1057 39.534 49.8987 38.4826 49.8987C36.1694 49.6916 33.8562 49.6916 31.3327 49.4846C27.1269 49.2775 22.9211 48.8634 18.7152 48.6564C16.402 48.4493 14.2991 48.4493 11.9859 48.2423C7.9904 48.0352 3.99488 47.6211 0.209644 47.4141C0.209644 47.4141 -0.000646681 47.4141 -0.210938 47.207C0.630226 47 1.47139 47 2.10226 47C4.41546 46.7929 6.72866 46.7929 9.25215 46.5859C12.6168 46.3788 15.9815 46.1718 19.3461 45.7577C21.449 45.5506 23.5519 45.5506 25.6548 45.3436C29.2298 45.1365 32.8047 44.9295 36.3797 44.5154C38.062 44.3084 39.7443 44.3084 41.6369 44.3084C36.3797 38.511 31.1224 32.7136 25.8651 27.1233L26.0754 26.9163C31.7533 32.0925 37.6414 37.0617 43.5296 42.2379C43.7398 40.9956 43.7398 39.9603 43.7398 38.9251C43.9501 36.4405 43.9501 34.163 44.1604 31.6784C44.3707 27.5374 44.7913 23.3965 45.2119 19.2555C45.4222 17.185 45.4222 14.9075 45.6325 12.837C45.8428 9.31716 46.053 6.00439 46.4736 2.48456C46.4736 1.65637 46.4736 1.03523 46.4736 0.207031H46.6839C46.6839 1.24227 46.8942 2.48456 46.8942 3.51981C47.1045 7.24668 47.5251 10.7665 47.7354 14.4934C48.3662 16.5639 48.3662 18.8414 48.5765 21.326C48.7868 24.6388 48.9971 27.9515 49.4177 31.0573C49.628 33.1277 49.628 35.4053 49.8383 37.4758C49.8383 38.9251 50.0486 40.3744 50.0486 41.8238C50.8897 41.2026 51.7309 40.5815 52.3618 39.7533C54.675 37.4758 56.9882 35.4053 59.5117 33.1277C63.5072 29.4009 67.713 25.4669 71.7085 21.7401C74.4423 19.2555 77.1761 16.7709 79.6996 14.2863L79.9099 14.4934C78.4378 15.9427 77.1761 17.5991 75.704 19.0484C72.9703 21.9471 70.0262 24.8458 67.2924 27.7445C63.9278 31.2643 60.7734 34.5771 57.4087 38.0969C55.9367 39.7533 54.2544 41.4097 52.7823 43.0661C52.5721 43.2731 52.5721 43.4802 52.3618 43.6872C53.4132 43.8943 54.4647 43.8943 55.5161 43.8943C57.619 44.1013 59.7219 44.1013 61.8249 44.3084C65.3998 44.5154 68.9747 44.7225 72.76 45.1365C74.8629 45.3436 77.1761 45.3436 79.279 45.5506C82.8539 45.7577 86.4289 45.9647 90.0038 46.3788C91.0553 46.3788 92.317 46.5859 93.3685 46.5859C93.5788 46.5859 93.9993 46.5859 94.2096 46.7929C93.3685 46.7929 92.7376 47 91.8964 47C89.5832 47.207 87.0597 47.207 84.7465 47.4141C81.3819 47.6211 78.2275 47.8282 74.8629 48.2423C72.76 48.4493 70.6571 48.4493 68.5542 48.6564C64.9792 48.8634 61.194 49.2775 57.619 49.4846C55.9367 49.6916 54.2544 49.6916 52.1515 49.6916C57.4087 55.489 62.666 61.2863 67.9233 66.8766L67.713 67.0837C62.0351 61.9075 56.147 56.9383 50.2589 51.7621C50.0486 53.0044 50.0486 54.2467 50.0486 55.489C49.8383 59.0088 49.4177 62.7357 49.2074 66.2555C48.9971 68.533 48.9971 70.6035 48.7868 72.8811C48.5765 76.1938 48.3662 79.7136 47.9457 83.0264C47.7354 85.3039 47.7354 87.7885 47.5251 90.0661C47.5251 91.3084 47.3148 92.5506 47.1045 93.7929C47.1045 93.5859 46.8942 93.5859 46.8942 93.3788C46.6839 90.0661 46.4736 86.5462 46.2633 83.2335C46.053 78.4714 45.6325 73.7092 45.2119 69.1542C45.0016 66.4625 44.7913 63.5639 44.581 60.8722C44.3707 57.9736 44.1604 55.0749 43.9501 51.9691C43.109 52.7973 42.2678 53.4185 41.4266 54.0396C37.2208 57.9736 33.2253 61.7004 29.0195 65.6343C25.6548 68.7401 22.2902 71.8458 19.1358 74.9515C17.4535 76.4009 15.9815 77.8502 14.2991 79.2995C14.0888 79.2995 14.0888 79.2995 14.0888 79.2995Z" fill="#434343"/>
<path d="M79.9115 14.9075L79.7012 14.7005C80.7526 13.6652 81.8041 12.4229 83.0658 11.3877L83.2761 11.5947C82.2247 12.63 80.9629 13.6652 79.9115 14.9075Z" fill="#434343"/>
<path d="M14.0893 79.2996L14.2996 79.5066C13.2481 80.5419 12.1966 81.7841 10.9349 82.8194L10.7246 82.6123C11.7761 81.37 12.8275 80.3348 14.0893 79.2996Z" fill="#434343"/>
</g>
<defs>
<clipPath id="clip0_974_634">
<rect width="94" height="94" fill="white"/>
</clipPath>
</defs>
</svg>
