<svg width="270" height="254" viewBox="0 0 270 254" fill="none" xmlns="http://www.w3.org/2000/svg">
<g clip-path="url(#clip0_4554_74)">
<path d="M25.8641 162.699L6.29125 175.282L5.2427 171.262L20.7961 161.301L20.9709 162.175L2.62134 160.253L1.74756 156.408L24.9903 158.855L25.8641 162.699Z" fill="white"/>
<path d="M23.4175 149.418L1.39805 151.864L0.873779 147.845L22.7184 145.398L23.4175 149.418Z" fill="white"/>
<path d="M22.8932 134.738C22.8932 135.612 22.7184 136.486 22.5437 137.534C22.3689 138.408 22.1942 139.282 21.8447 140.156C21.4951 141.029 21.3204 141.554 21.1456 142.078L16.9515 141.554C17.301 140.855 17.6505 139.981 18 139.282C18.3495 138.408 18.5243 137.709 18.699 136.835C18.8738 135.961 19.0485 135.088 19.0485 134.214C19.0485 133.165 18.8738 132.291 18.5243 131.592C18.1748 130.893 17.4757 130.544 16.6019 130.544C15.9029 130.544 15.3786 130.719 15.0291 131.068C14.6796 131.418 14.3301 131.942 13.9806 132.816C13.6311 133.515 13.2816 134.563 12.7573 135.612C12.233 136.835 11.7087 137.884 11.1845 138.932C10.6602 139.806 9.96117 140.505 9.26214 141.204C8.38835 141.728 7.51456 142.078 6.1165 141.903C4.8932 141.903 3.84466 141.554 2.79612 141.029C1.92233 140.33 1.04854 139.457 0.524272 138.233C0.174757 137.01 0 135.437 0 133.69C0 132.291 0.174757 131.068 0.524272 129.845C0.873786 128.622 1.2233 127.573 1.57282 126.699L5.76699 127.224C5.24272 128.447 4.71845 129.67 4.36893 130.719C4.01942 131.767 3.84466 132.816 3.84466 134.039C3.84466 135.262 4.01942 136.136 4.36893 136.835C4.71845 137.534 5.24272 137.884 6.1165 137.884C6.81553 137.884 7.16505 137.709 7.68932 137.359C8.03883 137.01 8.38835 136.486 8.73786 135.787C9.08738 135.088 9.26214 134.389 9.61165 133.34C10.1359 131.767 10.6602 130.369 11.3592 129.321C12.0583 128.272 12.7573 127.398 13.6311 126.874C14.5049 126.35 15.5534 126 16.7767 126.175C17.4757 126.175 18.1748 126.35 18.8738 126.524C19.5728 126.699 20.2718 127.224 20.9709 127.748C21.6699 128.272 22.1942 129.146 22.5437 130.369C22.7184 131.418 22.8932 132.991 22.8932 134.738Z" fill="white"/>
<path d="M23.068 123.553L1.22333 120.932L1.7476 116.913L23.5923 119.534L23.068 123.553Z" fill="white"/>
<path d="M24.9903 111.146L7.33983 107.126L5.94177 113.243L2.09711 112.369L5.76701 96.2915L9.61167 97.1653L8.21361 103.282L25.8641 107.476L24.9903 111.146Z" fill="white"/>
<path d="M34.7767 84.5827C33.9029 86.505 32.5048 87.9031 30.932 88.9516C29.3592 90.0001 27.6116 90.5244 25.6893 90.5244C23.767 90.5244 21.6699 90.1749 19.7476 89.1264C17.6505 88.0778 16.0777 86.8545 15.0291 85.1069C13.9806 83.3594 13.2815 81.7866 13.1068 79.8642C12.932 77.9419 13.4563 76.0196 14.3301 74.272C15.2039 72.3497 16.6019 70.9516 18.1747 69.9031C19.7476 68.8545 21.4951 68.3302 23.4175 68.3302C25.3398 68.3302 27.4369 68.6798 29.3592 69.7283C31.4563 70.7768 33.0291 72.0001 34.0777 73.7477C35.1262 75.4953 35.8252 77.0681 36 78.9904C36.1747 80.738 35.8252 82.6603 34.7767 84.5827ZM31.2815 82.8351C31.9806 81.437 32.1553 80.2137 31.9806 79.1652C31.8058 77.9419 31.4563 76.8933 30.5825 76.0196C29.7087 75.1458 28.6602 74.272 27.4369 73.573C26.2136 72.8739 24.8155 72.5244 23.5922 72.5244C22.3689 72.5244 21.1456 72.6992 20.2718 73.2234C19.398 73.7477 18.3495 74.7963 17.8252 76.0196C17.1262 77.4176 16.9514 78.6409 17.1262 79.6895C17.301 80.9128 17.6505 81.9613 18.5243 82.8351C19.398 83.7089 20.4466 84.5827 21.6699 85.2817C22.8932 85.9807 24.2913 86.3302 25.5146 86.3302C26.7379 86.3302 27.9612 86.1555 28.8349 85.6312C29.8835 85.1069 30.5825 84.0584 31.2815 82.8351Z" fill="white"/>
<path d="M46.6602 65.8836C45.4369 67.4564 44.0389 68.6797 42.466 69.204C41.068 69.7283 39.4952 69.903 37.9223 69.3788C36.3495 68.8545 34.7767 68.1555 33.2039 66.9322L23.2427 59.2428L25.6893 56.0972L34.9515 63.2623C35.8253 63.9613 36.5243 64.4856 37.3981 64.8351C38.2719 65.1846 38.9709 65.5341 39.6699 65.7089C40.369 65.8836 41.068 65.7089 41.767 65.3593C42.466 65.0098 43.1651 64.4856 43.6893 63.6118C44.2136 62.738 44.7379 62.039 44.9126 61.3399C45.0874 60.6409 45.0874 59.9419 44.7379 59.2428C44.3884 58.5438 44.0389 57.8448 43.5146 57.3205C42.9903 56.6215 42.2913 56.0972 41.4175 55.3982L32.3301 48.2331L34.7767 45.0875L44.7379 52.7768C46.3107 54.0001 47.534 55.3982 48.233 56.7962C48.9321 58.1943 49.2816 59.7671 49.1068 61.3399C48.5825 62.738 47.8835 64.3108 46.6602 65.8836Z" fill="white"/>
<path d="M54.5243 55.7478L39.8447 39.3206L45.7864 33.9031C46.835 32.8546 48.0583 32.1556 49.2816 31.8061C50.5049 31.4565 51.5534 31.2818 52.7767 31.6313C53.8253 31.9808 55.0486 32.6798 55.9223 33.7284C56.9709 34.9517 57.6699 36.175 57.6699 37.2235C57.8447 38.4468 57.6699 39.4954 57.1456 40.7187L66.932 44.2138L63.6117 47.1847L55.0486 43.8643L52.0777 46.4857L57.4952 52.6022L54.5243 55.7478ZM49.8058 44.5633L52.0777 42.641C53.301 41.5925 54 40.5439 54 39.4954C54 38.6216 53.6505 37.7478 52.9515 36.874C52.2524 36.0002 51.3786 35.6507 50.5049 35.6507C49.6311 35.6507 48.5825 36.175 47.3592 37.2235L45.0874 39.3206L49.8058 44.5633Z" fill="white"/>
<path d="M74.4466 39.6702L63.4369 20.6216L66.932 18.6993L76.0194 34.777L83.8835 30.2333L85.6311 33.3789L74.4466 39.6702Z" fill="white"/>
<path d="M95.5922 29.8837C93.6699 30.5827 91.9223 30.7575 90.3495 30.5827C88.7767 30.2332 87.3786 29.5342 86.3301 28.4856C85.1068 27.2623 84.233 25.8643 83.534 23.942L79.165 12.2332L83.0097 10.8352L87.0291 21.6701C87.3786 22.7186 87.7281 23.5924 88.2524 24.2915C88.6019 24.9905 89.1262 25.6895 89.8252 26.039C90.3495 26.5633 91.0485 26.7381 91.7476 26.9128C92.4466 26.9128 93.3204 26.9128 94.3689 26.3886C95.4175 26.039 96.1165 25.5148 96.6408 24.9905C97.165 24.4662 97.5146 23.7672 97.5146 23.0682C97.6893 22.3691 97.6893 21.4953 97.5146 20.7963C97.3398 19.9225 96.9903 19.0487 96.6408 18.0002L92.6214 7.16525L96.466 5.76719L100.835 17.4759C101.534 19.3983 101.883 21.1458 101.709 22.7186C101.534 24.2915 101.01 25.6895 100.136 27.0876C99.0874 28.1361 97.5146 29.0099 95.5922 29.8837Z" fill="white"/>
<path d="M105.204 25.8643L110.796 13.4565L101.709 4.19435L106.078 3.32057L112.369 9.78659L116.039 1.57299L120.408 0.699207L115.165 12.5827L124.777 22.3691L120.408 23.2429L113.592 16.2526L109.573 24.9905L105.204 25.8643Z" fill="white"/>
<path d="M134.913 22.7188C132.816 22.7188 131.068 22.3692 129.845 21.4955C128.447 20.6217 127.398 19.5731 126.699 18.1751C126 16.777 125.65 15.0294 125.65 12.9323L125.476 0.349827H129.495L129.67 11.8838C129.67 12.9323 129.845 13.8061 129.845 14.6799C130.019 15.5537 130.194 16.2527 130.544 16.9518C130.893 17.6508 131.417 18.0003 132.116 18.3498C132.816 18.6993 133.689 18.8741 134.738 18.8741C135.786 18.8741 136.66 18.6993 137.359 18.3498C138.058 18.0003 138.582 17.476 138.932 16.9518C139.282 16.4275 139.456 15.5537 139.631 14.6799C139.806 13.8061 139.806 12.9323 139.806 11.8838L139.631 0.349827H143.65L143.825 12.9323C143.825 14.8547 143.476 16.6022 142.951 18.1751C142.252 19.7479 141.379 20.7964 139.981 21.6702C138.582 22.544 137.01 22.544 134.913 22.7188Z" fill="white"/>
<path d="M147.845 22.7186L151.689 1.04868L159.553 2.44673C161.126 2.79624 162.35 3.14576 163.398 3.84479C164.447 4.54382 165.146 5.41761 165.67 6.46615C166.194 7.5147 166.194 8.91275 166.019 10.3108C165.67 11.8836 165.146 13.1069 164.272 13.9807C163.398 14.8545 162.35 15.3788 161.126 15.7283L164.447 25.6895L160.078 24.8157L157.282 16.0778L153.437 15.3788L152.039 23.4176L147.845 22.7186ZM153.786 12.0584L156.757 12.5827C158.33 12.9322 159.553 12.7574 160.427 12.2331C161.301 11.7089 161.651 10.8351 161.825 9.78654C162 8.738 161.825 7.8642 161.301 6.99042C160.777 6.29139 159.728 5.76713 158.155 5.41761L155.01 4.89333L153.786 12.0584Z" fill="white"/>
<path d="M170.738 27.9615L173.709 19.5731L170.738 4.54399L174.932 5.94204L177.204 18.5246L175.456 17.8255L185.068 9.43719L189.262 10.8352L177.553 20.6217L174.582 29.01L170.738 27.9615Z" fill="white"/>
<path d="M189.087 35.6507L200.796 16.9517L207.437 21.1459C208.835 22.0196 209.884 23.0682 210.583 24.1167C211.282 25.1653 211.631 26.2138 211.631 27.4371C211.631 28.6604 211.107 29.8837 210.233 31.2818C209.359 32.6798 208.311 33.7284 207.262 34.2527C206.214 34.7769 204.99 35.1264 203.767 34.9517C202.544 34.7769 201.146 34.2527 199.748 33.3789L196.427 31.2818L192.408 37.7478L189.087 35.6507ZM198.35 28.4857L201.32 30.2332C202.544 30.9323 203.592 31.2818 204.466 31.107C205.34 30.9323 206.214 30.2332 206.913 29.1847C207.612 28.1362 207.786 27.0876 207.612 26.2138C207.262 25.34 206.563 24.4663 205.34 23.7672L202.544 22.0196L198.35 28.4857Z" fill="white"/>
<path d="M204.116 45.4371L218.621 28.8351L224.738 34.0778C225.961 35.1264 226.66 36.1749 227.184 37.2235C227.709 38.272 227.883 39.4953 227.709 40.5439C227.534 41.5924 227.01 42.8157 225.961 44.039C224.913 45.2623 223.864 45.9613 222.641 46.3109C221.417 46.4856 220.369 46.4856 219.146 46.1361L216.699 56.4468L213.379 53.4759L215.65 44.5633L212.68 41.9419L207.262 48.0584L204.116 45.4371ZM214.777 39.3206L217.048 41.2429C218.272 42.2914 219.32 42.8157 220.369 42.8157C221.417 42.8157 222.116 42.2914 222.815 41.5924C223.515 40.7186 223.864 39.8448 223.864 38.9711C223.864 38.0973 223.165 37.0487 221.942 36.0002L219.67 33.9031L214.777 39.3206Z" fill="white"/>
<path d="M223.515 65.7089C222.291 64.1361 221.417 62.2138 221.243 60.4662C220.893 58.5439 221.243 56.7963 221.942 55.0487C222.641 53.3011 224.039 51.7283 225.786 50.1555C227.534 48.7575 229.456 47.8837 231.379 47.5341C233.301 47.1846 235.223 47.3594 236.971 48.0584C238.718 48.7574 240.291 49.9807 241.515 51.5536C242.738 53.1264 243.612 55.0487 243.786 56.7963C244.136 58.7186 243.786 60.4662 243.087 62.2138C242.388 63.9613 240.99 65.5341 239.243 67.107C237.495 68.505 235.573 69.3788 233.65 69.7283C231.728 70.0778 229.806 69.9031 228.058 69.204C226.311 68.505 224.913 67.2817 223.515 65.7089ZM226.66 63.2623C227.534 64.4856 228.583 65.1846 229.631 65.5341C230.68 65.8837 231.903 65.8837 233.126 65.7089C234.349 65.5341 235.573 64.8351 236.621 63.9613C237.67 63.0875 238.718 62.039 239.243 60.9905C239.767 59.9419 240.117 58.7186 239.942 57.6701C239.767 56.4468 239.417 55.3982 238.369 54.1749C237.32 52.9516 236.447 52.2526 235.398 51.9031C234.349 51.5536 233.126 51.5536 231.903 51.7283C230.68 51.9031 229.456 52.6021 228.408 53.4759C227.359 54.3497 226.311 55.3982 225.786 56.4468C225.262 57.4953 224.913 58.7186 225.087 59.7672C225.262 60.9905 225.786 62.039 226.66 63.2623Z" fill="white"/>
<path d="M231.728 76.3692L251.301 66.0585L254.971 73.0488C255.845 74.6216 256.194 75.8449 256.369 77.243C256.544 78.641 256.194 79.6896 255.495 80.7381C254.796 81.7867 253.748 82.6605 252.349 83.3595C250.951 84.0585 249.553 84.5828 248.33 84.408C247.107 84.408 246.058 84.0585 245.01 83.1847C243.961 82.4857 243.087 81.2624 242.388 79.8643L240.641 76.3692L233.825 79.8643L231.728 76.3692ZM243.437 74.7964L245.01 77.7672C245.709 78.9905 246.408 79.6896 247.282 80.0391C248.155 80.3886 249.204 80.2139 250.252 79.5148C251.476 78.8158 252.175 78.1168 252.349 77.243C252.524 76.3692 252.349 75.3206 251.65 74.0973L250.078 71.1265L243.437 74.7964Z" fill="white"/>
<path d="M239.767 92.4468L260.563 85.2817L265.107 98.5633L261.437 99.7866L258.291 90.3497L253.922 91.9225L256.369 99.2623L252.699 100.486L250.252 93.1458L245.01 94.8934L248.33 104.68L244.66 105.903L239.767 92.4468Z" fill="white"/>
<path d="M245.01 108.699L266.68 105.029L268.078 112.894C268.252 114.466 268.252 115.69 268.078 116.913C267.728 118.136 267.204 119.185 266.33 119.884C265.456 120.583 264.233 121.107 262.835 121.457C261.262 121.806 259.864 121.631 258.816 121.107C257.767 120.583 256.893 119.884 256.194 118.835L247.981 125.301L247.282 120.932L254.621 115.34L253.922 111.495L245.884 112.894L245.01 108.699ZM257.068 110.622L257.592 113.593C257.942 115.165 258.466 116.389 259.165 116.913C259.864 117.437 260.913 117.612 261.786 117.437C262.835 117.262 263.709 116.738 264.233 116.039C264.757 115.34 264.932 114.117 264.583 112.544L264.058 109.398L257.068 110.622Z" fill="white"/>
<path d="M247.806 131.418L265.981 131.068L265.806 124.777H269.65L270 141.204H266.155L265.981 134.913L247.806 135.262V131.418Z" fill="white"/>
<path d="M247.107 148.719L255.845 149.942L269.825 144.175L269.126 148.544L257.243 153.262L257.592 151.34L267.728 159.204L267.204 163.573L255.32 154.136L246.583 152.913L247.107 148.719Z" fill="white"/>
</g>
<path d="M20.097 174.757C29.7086 200.68 66.2329 252.524 135.437 252.524C221.942 252.524 252.524 176.505 255.146 163.398" stroke="white" stroke-width="2" stroke-linecap="round"/>
<defs>
<clipPath id="clip0_4554_74">
<rect width="175.282" height="270" fill="white" transform="matrix(0 -1 1 0 0 175.282)"/>
</clipPath>
</defs>
</svg>
