<svg width="113" height="37" viewBox="0 0 113 37" fill="none" xmlns="http://www.w3.org/2000/svg">
<g clip-path="url(#clip0_296_4295)">
<path d="M26.0355 25.4988C26.2003 25.5161 26.3651 25.4676 26.4945 25.3639C26.6238 25.2602 26.7072 25.1095 26.7265 24.9446V22.8661C26.693 22.4929 26.4151 22.2136 26.0355 22.1732H5.02895C4.8515 22.1904 4.68553 22.2689 4.55947 22.3953C4.4334 22.5217 4.35509 22.6881 4.33795 22.8661V24.9446C4.37983 25.2537 4.65832 25.533 5.02895 25.4988H26.0355ZM26.0355 3.3276C26.4151 3.30398 26.693 3.02528 26.7265 2.63477V0.556265C26.693 0.263385 26.4151 -0.0153236 26.0355 0.00199729H5.02895C4.65832 -0.0153236 4.3793 0.26391 4.33795 0.556265V2.63477C4.37983 3.02528 4.65832 3.30398 5.02895 3.3276H26.0355ZM35.1568 25.4988C35.4845 25.5335 35.7625 25.2548 35.7096 24.9446V0.55679C35.7625 0.26391 35.4845 -0.0147987 35.1568 0.00252217H32.531C32.1546 -0.0147987 31.8756 0.264435 31.84 0.55679V24.9446C31.8598 25.1093 31.9433 25.2596 32.0725 25.3632C32.2017 25.4669 32.3664 25.5156 32.531 25.4988H35.1568ZM96.795 17.462H86.7063C86.32 17.4504 86.0766 17.7034 85.8771 18.0162L85.0479 19.8176C84.8532 20.1204 85.06 20.481 85.4625 20.5104H98.3152L100.526 25.0831C100.653 25.3535 100.977 25.5335 101.217 25.4988H104.12C104.503 25.5335 104.503 25.1724 104.396 24.9446L92.5108 0.417698C92.3391 0.129017 92.0156 -0.0153236 91.8198 0.00199729H89.6086C89.3882 -0.0153236 89.172 0.0565843 89.0558 0.417698L76.8941 24.9446C76.6119 25.281 76.8632 25.5335 77.0323 25.4988H79.7963C80.2831 25.5335 80.4988 25.3167 80.6255 25.0831L90.7142 4.85237L96.795 17.462ZM23.4097 6.65374C23.6531 6.41754 23.64 6.02336 23.4097 5.82233L21.8895 4.43666C21.6257 4.14011 21.2325 4.15376 21.0603 4.43666L7.24017 19.2633C6.97005 19.5305 6.98366 19.9257 7.24017 20.0947L8.76038 21.619C8.99805 21.8084 9.39171 21.7943 9.58959 21.4804L23.4097 6.65374ZM72.1952 0.00199729C72.5549 -0.0153236 72.8328 0.26391 72.8862 0.556265V24.944C72.8328 25.2542 72.5549 25.533 72.1952 25.4983H69.5694C69.2244 25.533 68.9459 25.2542 68.8784 24.944V5.82233L61.0009 15.1063C60.8271 15.2979 60.434 15.3252 60.1717 15.1063L58.9279 13.7207C58.6075 13.4782 58.5808 13.084 58.7897 12.8892L69.293 0.55679C69.6652 0.165758 69.9536 -0.0147987 70.2604 0.00252217L72.1952 0.00199729ZM45.7983 0.55679L59.342 16.2149C59.5729 16.5245 59.5462 16.9187 59.342 17.1848L57.96 18.5705C57.7197 18.8382 57.3266 18.8109 57.1308 18.5705L45.5219 5.12897V24.944C45.5517 25.2542 45.2738 25.533 44.9691 25.4983H42.3433C41.9438 25.533 41.6648 25.2542 41.6522 24.944V0.55679C41.6648 0.26391 41.9438 -0.0147987 42.3433 0.00252217H44.9691C45.2282 -0.0147987 45.6365 0.407725 45.7983 0.55679ZM0.0537109 28.963H107.298V29.7944H0.0537109V28.963ZM47.8713 34.3671C47.798 34.1666 47.6855 33.7457 47.0421 33.8129C46.7201 33.7462 46.1977 33.9955 46.2129 35.06C46.1977 35.7203 46.4495 36.3233 47.0421 36.3071C47.4834 36.3233 47.7687 36.0787 47.8713 35.6142H48.5623C48.4482 36.433 47.9462 36.9994 47.0421 36.9999C46.1197 36.9994 45.4449 36.3286 45.3837 35.06C45.4449 33.7357 46.1584 33.0702 47.0421 33.12C48.1283 33.0702 48.5565 33.8396 48.5623 34.3671H47.8713ZM53.3993 36.1685H55.196V36.8613H52.7083V33.12H53.3993V36.1685ZM61.5532 33.8129H59.7566V34.6443H61.415V35.3371H59.7566V36.3071H61.6919V36.8613H59.0661V33.12H61.5532V33.8129ZM66.1139 36.8613H65.2846L66.5285 33.12H67.4964L68.7397 36.8613H67.911L67.6346 36.1685H66.3908L66.1139 36.8613ZM73.439 33.12H75.2356C76.1266 33.1688 76.2983 33.9016 76.3413 34.2286C76.2983 34.6343 76.1015 34.9875 75.7885 35.06C76.0429 35.2473 76.2004 35.3618 76.2031 36.0299C76.2004 36.6041 76.2004 36.7396 76.3413 36.8613H75.5121C75.4911 36.7238 75.4618 36.5317 75.5121 36.1685C75.4618 35.6373 75.432 35.44 74.821 35.4757H74.13V36.8613H73.439V33.12ZM84.7715 36.8613H84.0805V33.8129L83.3895 36.8613H82.5603L81.8693 33.8129V36.8613H81.1783V33.12H82.2839L82.9749 36.1685L83.6659 33.12H84.7715V36.8613ZM90.7142 36.8613H89.885L91.1288 33.12H92.0962L93.34 36.8613H92.5108L92.2344 36.1685H90.9906L90.7142 36.8613ZM99.2826 36.1685H100.941V36.8613H98.4534V33.12H99.2826V36.1685ZM107.713 36.8613H106.884V33.8129H105.916V33.12H108.819V33.8129H107.713V36.8613ZM108.68 27.7159H110.339V27.993H109.648V29.7944H109.371V27.993H108.68V27.7159ZM112.412 29.7944V28.5473C112.358 28.5069 112.364 28.2445 112.412 27.993L111.721 29.7944H111.444L110.892 27.993C110.913 28.2445 110.919 28.5069 110.892 28.5473V29.7944H110.615V27.7159H111.03L111.583 29.5173L112.274 27.7159H112.688V29.7944H112.412Z" fill="#1D1D1D"/>
<path d="M66.5303 35.4758H67.4982L66.9449 33.9516L66.5303 35.4758ZM74.9605 34.783C75.3746 34.8113 75.5615 34.6712 75.5133 34.3673C75.5615 34.1048 75.4778 33.8135 75.0987 33.813H74.1313V34.783H74.9605ZM91.1306 35.4758H92.098L91.5452 33.9516L91.1306 35.4758Z" fill="#1D1D1D"/>
</g>
<defs>
<clipPath id="clip0_296_4295">
<rect width="112.644" height="37" fill="white" transform="translate(0.0498047)"/>
</clipPath>
</defs>
</svg>
